%TF.GenerationSoftware,KiCad,Pcbnew,(6.0.7)*%
%TF.CreationDate,2023-08-30T15:26:21+09:00*%
%TF.ProjectId,graduate-project,67726164-7561-4746-952d-70726f6a6563,rev?*%
%TF.SameCoordinates,Original*%
%TF.FileFunction,Copper,L2,Bot*%
%TF.FilePolarity,Positive*%
%FSLAX46Y46*%
G04 Gerber Fmt 4.6, Leading zero omitted, Abs format (unit mm)*
G04 Created by KiCad (PCBNEW (6.0.7)) date 2023-08-30 15:26:21*
%MOMM*%
%LPD*%
G01*
G04 APERTURE LIST*
%TA.AperFunction,ComponentPad*%
%ADD10C,0.600000*%
%TD*%
%TA.AperFunction,ComponentPad*%
%ADD11R,1.700000X1.700000*%
%TD*%
%TA.AperFunction,ComponentPad*%
%ADD12O,1.700000X1.700000*%
%TD*%
%TA.AperFunction,ComponentPad*%
%ADD13R,1.800000X1.800000*%
%TD*%
%TA.AperFunction,ComponentPad*%
%ADD14C,1.800000*%
%TD*%
%TA.AperFunction,ComponentPad*%
%ADD15R,1.530000X1.530000*%
%TD*%
%TA.AperFunction,ComponentPad*%
%ADD16C,1.530000*%
%TD*%
%TA.AperFunction,ComponentPad*%
%ADD17R,3.800000X3.800000*%
%TD*%
%TA.AperFunction,ComponentPad*%
%ADD18C,4.000000*%
%TD*%
%TA.AperFunction,ViaPad*%
%ADD19C,0.800000*%
%TD*%
%TA.AperFunction,Conductor*%
%ADD20C,0.250000*%
%TD*%
%TA.AperFunction,Conductor*%
%ADD21C,0.400000*%
%TD*%
G04 APERTURE END LIST*
D10*
%TO.P,,17,PPAD*%
%TO.N,BATT_GND*%
X72136000Y-55880000D03*
%TD*%
%TO.P,,17,PPAD*%
%TO.N,BATT_GND*%
X73152000Y-56896000D03*
%TD*%
%TO.P,,17,PPAD*%
%TO.N,BATT_GND*%
X72136000Y-44450000D03*
%TD*%
%TO.P,,17,PPAD*%
%TO.N,BATT_GND*%
X73152000Y-44450000D03*
%TD*%
%TO.P,,17,PPAD*%
%TO.N,BATT_GND*%
X72136000Y-43434000D03*
%TD*%
%TO.P,,17,PPAD*%
%TO.N,BATT_GND*%
X73152000Y-42418000D03*
%TD*%
%TO.P,,17,PPAD*%
%TO.N,BATT_GND*%
X72136000Y-54864000D03*
%TD*%
%TO.P,,17,PPAD*%
%TO.N,BATT_GND*%
X73152000Y-54864000D03*
%TD*%
%TO.P,,17,PPAD*%
%TO.N,BATT_GND*%
X73152000Y-43434000D03*
%TD*%
%TO.P,,17,PPAD*%
%TO.N,BATT_GND*%
X72136000Y-42418000D03*
%TD*%
%TO.P,,17,PPAD*%
%TO.N,BATT_GND*%
X73152000Y-55880000D03*
%TD*%
%TO.P,,17,PPAD*%
%TO.N,BATT_GND*%
X72136000Y-56896000D03*
%TD*%
D11*
%TO.P,J2,1,VCC*%
%TO.N,ENC_VCC*%
X78765000Y-64038000D03*
D12*
%TO.P,J2,2,GND*%
%TO.N,BATT_GND*%
X78765000Y-66578000D03*
%TO.P,J2,3,SCL*%
%TO.N,GY_SCL*%
X78765000Y-69118000D03*
%TO.P,J2,4,SDA*%
%TO.N,GY_SDA*%
X78765000Y-71658000D03*
%TO.P,J2,5,EDA*%
%TO.N,unconnected-(J2-Pad5)*%
X78765000Y-74198000D03*
%TO.P,J2,6,ECL*%
%TO.N,unconnected-(J2-Pad6)*%
X78765000Y-76738000D03*
%TO.P,J2,7,AD0*%
%TO.N,unconnected-(J2-Pad7)*%
X78765000Y-79278000D03*
%TO.P,J2,8,INT*%
%TO.N,GY_INT*%
X78765000Y-81818000D03*
%TO.P,J2,9,NCS*%
%TO.N,unconnected-(J2-Pad9)*%
X78765000Y-84358000D03*
%TO.P,J2,10,FSYNC*%
%TO.N,unconnected-(J2-Pad10)*%
X78765000Y-86898000D03*
%TD*%
D13*
%TO.P,D1,1,K*%
%TO.N,BATT_GND*%
X78100000Y-110490000D03*
D14*
%TO.P,D1,2,A*%
%TO.N,Net-(D1-Pad2)*%
X80640000Y-110490000D03*
%TD*%
D13*
%TO.P,D2,1,K*%
%TO.N,BATT_GND*%
X86355000Y-110490000D03*
D14*
%TO.P,D2,2,A*%
%TO.N,Net-(D2-Pad2)*%
X88895000Y-110490000D03*
%TD*%
D15*
%TO.P,U1,CN3_1,PA9*%
%TO.N,ENC_1B*%
X71120000Y-104861000D03*
D16*
%TO.P,U1,CN3_2,PA10*%
%TO.N,M_IN2*%
X71120000Y-102321000D03*
%TO.P,U1,CN3_3,NRST_CN3*%
%TO.N,unconnected-(U1-PadCN3_3)*%
X71120000Y-99781000D03*
%TO.P,U1,CN3_4,GND_CN3*%
%TO.N,BATT_GND*%
X71120000Y-97241000D03*
%TO.P,U1,CN3_5,PA12*%
%TO.N,unconnected-(U1-PadCN3_5)*%
X71120000Y-94701000D03*
%TO.P,U1,CN3_6,PB0*%
%TO.N,M_FAULT1*%
X71120000Y-92161000D03*
%TO.P,U1,CN3_7,PB7*%
%TO.N,GY_SDA*%
X71120000Y-89621000D03*
%TO.P,U1,CN3_8,PB6*%
%TO.N,GY_SCL*%
X71120000Y-87081000D03*
%TO.P,U1,CN3_9,PB1*%
%TO.N,GY_INT*%
X71120000Y-84541000D03*
%TO.P,U1,CN3_10,PC14*%
%TO.N,unconnected-(U1-PadCN3_10)*%
X71120000Y-82001000D03*
%TO.P,U1,CN3_11,PC15*%
%TO.N,unconnected-(U1-PadCN3_11)*%
X71120000Y-79461000D03*
%TO.P,U1,CN3_12,PA8*%
%TO.N,ENC_1A*%
X71120000Y-76921000D03*
%TO.P,U1,CN3_13,PA11*%
%TO.N,M_IN1*%
X71120000Y-74381000D03*
%TO.P,U1,CN3_14,PB5*%
%TO.N,unconnected-(U1-PadCN3_14)*%
X71120000Y-71841000D03*
%TO.P,U1,CN3_15,PB4*%
%TO.N,LED_ERR*%
X71120000Y-69301000D03*
D15*
%TO.P,U1,CN4_1,VIN*%
%TO.N,BATT_VIN*%
X55880000Y-104861000D03*
D16*
%TO.P,U1,CN4_2,GND_CN4*%
%TO.N,BATT_GND*%
X55880000Y-102321000D03*
%TO.P,U1,CN4_3,NRST_CN4*%
%TO.N,unconnected-(U1-PadCN4_3)*%
X55880000Y-99781000D03*
%TO.P,U1,CN4_4,+5V*%
%TO.N,ENC_VCC*%
X55880000Y-97241000D03*
%TO.P,U1,CN4_5,PA2*%
%TO.N,HM_RX*%
X55880000Y-94701000D03*
%TO.P,U1,CN4_6,PA7*%
%TO.N,M_OFF*%
X55880000Y-92161000D03*
%TO.P,U1,CN4_7,PA6*%
%TO.N,M_FAULT2*%
X55880000Y-89621000D03*
%TO.P,U1,CN4_8,PA5*%
%TO.N,M_IN4*%
X55880000Y-87081000D03*
%TO.P,U1,CN4_9,PA4*%
%TO.N,unconnected-(U1-PadCN4_9)*%
X55880000Y-84541000D03*
%TO.P,U1,CN4_10,PA3*%
%TO.N,HM_TX*%
X55880000Y-82001000D03*
%TO.P,U1,CN4_11,PA1*%
%TO.N,M_IN3*%
X55880000Y-79461000D03*
%TO.P,U1,CN4_12,PA0*%
%TO.N,Net-(R1-Pad1)*%
X55880000Y-76921000D03*
%TO.P,U1,CN4_13,AREF*%
%TO.N,unconnected-(U1-PadCN4_13)*%
X55880000Y-74381000D03*
%TO.P,U1,CN4_14,+3V3*%
%TO.N,3_3V*%
X55880000Y-71841000D03*
%TO.P,U1,CN4_15,PB3*%
%TO.N,LED_RUN*%
X55880000Y-69301000D03*
%TD*%
D11*
%TO.P,J5,1,M+*%
%TO.N,Net-(J5-Pad1)*%
X53619000Y-43205000D03*
D12*
%TO.P,J5,2,ENC_VCC*%
%TO.N,ENC_VCC*%
X53619000Y-45745000D03*
%TO.P,J5,3,ENC_A*%
%TO.N,unconnected-(J5-Pad3)*%
X53619000Y-48285000D03*
%TO.P,J5,4,ENC_B*%
%TO.N,unconnected-(J5-Pad4)*%
X53619000Y-50825000D03*
%TO.P,J5,5,ENC_GND*%
%TO.N,BATT_GND*%
X53619000Y-53365000D03*
%TO.P,J5,6,M-*%
%TO.N,Net-(J5-Pad6)*%
X53619000Y-55905000D03*
%TD*%
D11*
%TO.P,J3,1,RX*%
%TO.N,HM_RX*%
X78740000Y-102362000D03*
D12*
%TO.P,J3,2,TX*%
%TO.N,HM_TX*%
X78740000Y-99822000D03*
%TO.P,J3,3,GND*%
%TO.N,BATT_GND*%
X78740000Y-97282000D03*
%TO.P,J3,4,VCC*%
%TO.N,ENC_VCC*%
X78740000Y-94742000D03*
%TD*%
D17*
%TO.P,J1,1,Pin_1*%
%TO.N,BATT_GND*%
X89408000Y-46776000D03*
D18*
%TO.P,J1,2,Pin_2*%
%TO.N,BATT_VIN*%
X89408000Y-51776000D03*
%TD*%
D12*
%TO.P,J4,6,M-*%
%TO.N,Net-(U2-Pad10)*%
X62255000Y-55905000D03*
%TO.P,J4,5,ENC_GND*%
%TO.N,BATT_GND*%
X62255000Y-53365000D03*
%TO.P,J4,4,ENC_B*%
%TO.N,ENC_1B*%
X62255000Y-50825000D03*
%TO.P,J4,3,ENC_A*%
%TO.N,ENC_1A*%
X62255000Y-48285000D03*
%TO.P,J4,2,ENC_VCC*%
%TO.N,ENC_VCC*%
X62255000Y-45745000D03*
D11*
%TO.P,J4,1,M+*%
%TO.N,Net-(U2-Pad8)*%
X62255000Y-43205000D03*
%TD*%
D19*
%TO.N,BATT_VIN*%
X59581300Y-99568000D03*
X64670800Y-72242100D03*
%TO.N,Net-(D2-Pad2)*%
X62077700Y-106870000D03*
%TO.N,ENC_VCC*%
X77310000Y-51809000D03*
%TO.N,Net-(J5-Pad1)*%
X69774000Y-46842500D03*
%TO.N,Net-(J5-Pad6)*%
X74762300Y-49045300D03*
%TO.N,M_OFF*%
X68050900Y-55191900D03*
%TO.N,M_IN4*%
X68361200Y-54170600D03*
%TO.N,M_IN3*%
X69293100Y-52794800D03*
%TO.N,Net-(U2-Pad8)*%
X67317100Y-45029200D03*
%TO.N,Net-(U2-Pad10)*%
X75851100Y-58990100D03*
%TO.N,M_FAULT2*%
X67770500Y-57496900D03*
%TO.N,3_3V*%
X68374900Y-58309600D03*
%TD*%
D20*
%TO.N,BATT_VIN*%
X59581300Y-103740700D02*
X58461000Y-104861000D01*
X59581300Y-99568000D02*
X59581300Y-103740700D01*
X58461000Y-104861000D02*
X55880000Y-104861000D01*
X80234000Y-65308000D02*
X71604900Y-65308000D01*
X71604900Y-65308000D02*
X64670800Y-72242100D01*
X89408000Y-56134000D02*
X80234000Y-65308000D01*
X89408000Y-51776000D02*
X89408000Y-56134000D01*
%TO.N,BATT_GND*%
X85128100Y-110490000D02*
X83604100Y-108966000D01*
X86355000Y-110490000D02*
X85128100Y-110490000D01*
X83604100Y-108966000D02*
X79502000Y-108966000D01*
X77563100Y-97282000D02*
X77522100Y-97241000D01*
X77522100Y-97241000D02*
X71120000Y-97241000D01*
X78100000Y-110368000D02*
X78100000Y-110490000D01*
X78740000Y-97282000D02*
X77563100Y-97282000D01*
X79502000Y-108966000D02*
X78100000Y-110368000D01*
%TO.N,Net-(D2-Pad2)*%
X88895000Y-110490000D02*
X85275000Y-106870000D01*
X85275000Y-106870000D02*
X62077700Y-106870000D01*
%TO.N,ENC_VCC*%
X76390700Y-95914400D02*
X57206600Y-95914400D01*
X77310000Y-49925200D02*
X73140900Y-45756100D01*
X63431900Y-45745000D02*
X62255000Y-45745000D01*
X77563100Y-94742000D02*
X76390700Y-95914400D01*
X57206600Y-95914400D02*
X55880000Y-97241000D01*
X63443000Y-45756100D02*
X63431900Y-45745000D01*
X73140900Y-45756100D02*
X63443000Y-45756100D01*
X77310000Y-51809000D02*
X78765000Y-53264000D01*
X78740000Y-94742000D02*
X77563100Y-94742000D01*
X77310000Y-51809000D02*
X77310000Y-49925200D01*
X78765000Y-53264000D02*
X78765000Y-64038000D01*
%TO.N,GY_SCL*%
X70399000Y-83271000D02*
X69850000Y-83820000D01*
X69850000Y-83820000D02*
X69850000Y-85811000D01*
X71675750Y-83271000D02*
X70399000Y-83271000D01*
X77400400Y-77546350D02*
X71675750Y-83271000D01*
X78765000Y-70294900D02*
X78399200Y-70294900D01*
X69850000Y-85811000D02*
X71120000Y-87081000D01*
X78399200Y-70294900D02*
X77400400Y-71293700D01*
X77400400Y-71293700D02*
X77400400Y-77546350D01*
X78765000Y-69118000D02*
X78765000Y-70294900D01*
%TO.N,GY_INT*%
X77588100Y-81818000D02*
X74865100Y-84541000D01*
X74865100Y-84541000D02*
X71120000Y-84541000D01*
X78765000Y-81818000D02*
X77588100Y-81818000D01*
%TO.N,HM_RX*%
X55077000Y-98511000D02*
X54610000Y-98044000D01*
X77563100Y-102362000D02*
X73712100Y-98511000D01*
X54610000Y-95971000D02*
X55880000Y-94701000D01*
X78740000Y-102362000D02*
X77563100Y-102362000D01*
X54610000Y-98044000D02*
X54610000Y-95971000D01*
X73712100Y-98511000D02*
X55077000Y-98511000D01*
%TO.N,HM_TX*%
X62230000Y-88351000D02*
X55880000Y-82001000D01*
X78740000Y-99822000D02*
X80264000Y-98298000D01*
X80264000Y-93980000D02*
X74635000Y-88351000D01*
X74635000Y-88351000D02*
X62230000Y-88351000D01*
X80264000Y-98298000D02*
X80264000Y-93980000D01*
%TO.N,ENC_1A*%
X71120000Y-76921000D02*
X68274000Y-76921000D01*
X76578100Y-49832400D02*
X75030700Y-48285000D01*
X68274000Y-76921000D02*
X63943800Y-72590800D01*
X63943800Y-72590800D02*
X63943800Y-71941200D01*
X76578100Y-59306900D02*
X76578100Y-49832400D01*
X75030700Y-48285000D02*
X62255000Y-48285000D01*
X63943800Y-71941200D02*
X76578100Y-59306900D01*
D21*
%TO.N,Net-(J5-Pad1)*%
X53619000Y-43205000D02*
X54795900Y-43205000D01*
X69581500Y-47035000D02*
X69774000Y-46842500D01*
X54795900Y-43205000D02*
X58625900Y-47035000D01*
X58625900Y-47035000D02*
X69581500Y-47035000D01*
%TO.N,Net-(J5-Pad6)*%
X56642000Y-54102000D02*
X56642000Y-51562000D01*
X53640900Y-55926900D02*
X54817100Y-55926900D01*
X56642000Y-51562000D02*
X58629000Y-49575000D01*
X53640200Y-55926900D02*
X53640900Y-55926900D01*
D20*
X53640900Y-55926900D02*
X53619000Y-55905000D01*
D21*
X74232600Y-49575000D02*
X74762300Y-49045300D01*
X58629000Y-49575000D02*
X74232600Y-49575000D01*
X54817100Y-55926900D02*
X56642000Y-54102000D01*
D20*
%TO.N,M_OFF*%
X52324000Y-70918800D02*
X68050900Y-55191900D01*
X55880000Y-92161000D02*
X52324000Y-88605000D01*
X52324000Y-88605000D02*
X52324000Y-70918800D01*
%TO.N,M_IN4*%
X69101800Y-54911200D02*
X68361200Y-54170600D01*
X56683000Y-75651000D02*
X69101800Y-63232200D01*
X55880000Y-87081000D02*
X53848000Y-85049000D01*
X69101800Y-63232200D02*
X69101800Y-54911200D01*
X53848000Y-85049000D02*
X53848000Y-76708000D01*
X53848000Y-76708000D02*
X54905000Y-75651000D01*
X54905000Y-75651000D02*
X56683000Y-75651000D01*
%TO.N,M_IN3*%
X69293100Y-52794800D02*
X69850000Y-53351700D01*
X69850000Y-65024000D02*
X55880000Y-78994000D01*
X69850000Y-53351700D02*
X69850000Y-65024000D01*
X55880000Y-78994000D02*
X55880000Y-79461000D01*
D21*
%TO.N,Net-(U2-Pad8)*%
X63431900Y-43205000D02*
X65256100Y-45029200D01*
X65256100Y-45029200D02*
X67317100Y-45029200D01*
X62255000Y-43205000D02*
X63431900Y-43205000D01*
%TO.N,Net-(U2-Pad10)*%
X63431900Y-55905000D02*
X67342100Y-51994800D01*
X70028800Y-51994800D02*
X70612000Y-52578000D01*
X70612000Y-52578000D02*
X70612000Y-58420000D01*
X71182100Y-58990100D02*
X75851100Y-58990100D01*
X67342100Y-51994800D02*
X70028800Y-51994800D01*
X70612000Y-58420000D02*
X71182100Y-58990100D01*
X62255000Y-55905000D02*
X63431900Y-55905000D01*
D20*
%TO.N,M_FAULT2*%
X53086000Y-72136000D02*
X54610000Y-70612000D01*
X67245300Y-60262700D02*
X67245300Y-58022100D01*
X53086000Y-86827000D02*
X53086000Y-72136000D01*
X67245300Y-58022100D02*
X67770500Y-57496900D01*
X56896000Y-70612000D02*
X67245300Y-60262700D01*
X55880000Y-89621000D02*
X53086000Y-86827000D01*
X54610000Y-70612000D02*
X56896000Y-70612000D01*
%TO.N,3_3V*%
X68374900Y-60403100D02*
X68374900Y-58309600D01*
X55880000Y-71841000D02*
X56937000Y-71841000D01*
X56937000Y-71841000D02*
X68374900Y-60403100D01*
%TD*%
%TA.AperFunction,Conductor*%
%TO.N,BATT_GND*%
G36*
X92964000Y-60706000D02*
G01*
X85731904Y-60706000D01*
X89800247Y-56637657D01*
X89808537Y-56630113D01*
X89815018Y-56626000D01*
X89861659Y-56576332D01*
X89864413Y-56573491D01*
X89884134Y-56553770D01*
X89886612Y-56550575D01*
X89894318Y-56541553D01*
X89919158Y-56515101D01*
X89924586Y-56509321D01*
X89934346Y-56491568D01*
X89945199Y-56475045D01*
X89952753Y-56465306D01*
X89957613Y-56459041D01*
X89975176Y-56418457D01*
X89980383Y-56407827D01*
X90001695Y-56369060D01*
X90003666Y-56361383D01*
X90003668Y-56361378D01*
X90006732Y-56349442D01*
X90013138Y-56330730D01*
X90018033Y-56319419D01*
X90021181Y-56312145D01*
X90022421Y-56304317D01*
X90022423Y-56304310D01*
X90028099Y-56268476D01*
X90030505Y-56256856D01*
X90039528Y-56221711D01*
X90039528Y-56221710D01*
X90041500Y-56214030D01*
X90041500Y-56193776D01*
X90043051Y-56174065D01*
X90044980Y-56161886D01*
X90046220Y-56154057D01*
X90042059Y-56110038D01*
X90041500Y-56098181D01*
X90041500Y-54300946D01*
X90061502Y-54232825D01*
X90115158Y-54186332D01*
X90136157Y-54178907D01*
X90184702Y-54166443D01*
X90188382Y-54164986D01*
X90188385Y-54164985D01*
X90474505Y-54051702D01*
X90474510Y-54051700D01*
X90478179Y-54050247D01*
X90604735Y-53980672D01*
X90751307Y-53900093D01*
X90751310Y-53900091D01*
X90754779Y-53898184D01*
X91010140Y-53712654D01*
X91240233Y-53496582D01*
X91441432Y-53253375D01*
X91610562Y-52986869D01*
X91612246Y-52983290D01*
X91612250Y-52983283D01*
X91743267Y-52704856D01*
X91743269Y-52704852D01*
X91744956Y-52701266D01*
X91775614Y-52606912D01*
X91817594Y-52477708D01*
X91842495Y-52401072D01*
X91901641Y-52091020D01*
X91921460Y-51776000D01*
X91901641Y-51460980D01*
X91842495Y-51150928D01*
X91744956Y-50850734D01*
X91743267Y-50847144D01*
X91612250Y-50568717D01*
X91612246Y-50568710D01*
X91610562Y-50565131D01*
X91441432Y-50298625D01*
X91285683Y-50110357D01*
X91242758Y-50058470D01*
X91242757Y-50058469D01*
X91240233Y-50055418D01*
X91010140Y-49839346D01*
X90990823Y-49825311D01*
X90909742Y-49766403D01*
X90754779Y-49653816D01*
X90723124Y-49636413D01*
X90481648Y-49503660D01*
X90481647Y-49503659D01*
X90478179Y-49501753D01*
X90474510Y-49500300D01*
X90474505Y-49500298D01*
X90188372Y-49387010D01*
X90188371Y-49387010D01*
X90184702Y-49385557D01*
X89878975Y-49307060D01*
X89565821Y-49267500D01*
X89250179Y-49267500D01*
X88937025Y-49307060D01*
X88631298Y-49385557D01*
X88627629Y-49387010D01*
X88627628Y-49387010D01*
X88341495Y-49500298D01*
X88341490Y-49500300D01*
X88337821Y-49501753D01*
X88334353Y-49503659D01*
X88334352Y-49503660D01*
X88092877Y-49636413D01*
X88061221Y-49653816D01*
X87906258Y-49766403D01*
X87825178Y-49825311D01*
X87805860Y-49839346D01*
X87575767Y-50055418D01*
X87573243Y-50058469D01*
X87573242Y-50058470D01*
X87530317Y-50110357D01*
X87374568Y-50298625D01*
X87205438Y-50565131D01*
X87203754Y-50568710D01*
X87203750Y-50568717D01*
X87072733Y-50847144D01*
X87071044Y-50850734D01*
X86973505Y-51150928D01*
X86914359Y-51460980D01*
X86894540Y-51776000D01*
X86914359Y-52091020D01*
X86973505Y-52401072D01*
X86998406Y-52477708D01*
X87040387Y-52606912D01*
X87071044Y-52701266D01*
X87072731Y-52704852D01*
X87072733Y-52704856D01*
X87203750Y-52983283D01*
X87203754Y-52983290D01*
X87205438Y-52986869D01*
X87374568Y-53253375D01*
X87575767Y-53496582D01*
X87805860Y-53712654D01*
X88061221Y-53898184D01*
X88064690Y-53900091D01*
X88064693Y-53900093D01*
X88211265Y-53980672D01*
X88337821Y-54050247D01*
X88341490Y-54051700D01*
X88341495Y-54051702D01*
X88627615Y-54164985D01*
X88627618Y-54164986D01*
X88631298Y-54166443D01*
X88679837Y-54178906D01*
X88740841Y-54215219D01*
X88772530Y-54278751D01*
X88774500Y-54300946D01*
X88774500Y-55819405D01*
X88754498Y-55887526D01*
X88737595Y-55908500D01*
X83940095Y-60706000D01*
X79398500Y-60706000D01*
X79398500Y-53342768D01*
X79399027Y-53331585D01*
X79400702Y-53324092D01*
X79399959Y-53300434D01*
X79398562Y-53256002D01*
X79398500Y-53252044D01*
X79398500Y-53224144D01*
X79397996Y-53220153D01*
X79397063Y-53208311D01*
X79395923Y-53172036D01*
X79395674Y-53164111D01*
X79393462Y-53156497D01*
X79393461Y-53156492D01*
X79390023Y-53144659D01*
X79386012Y-53125295D01*
X79384467Y-53113064D01*
X79383474Y-53105203D01*
X79380557Y-53097836D01*
X79380556Y-53097831D01*
X79367198Y-53064092D01*
X79363354Y-53052865D01*
X79353230Y-53018022D01*
X79351018Y-53010407D01*
X79340707Y-52992972D01*
X79332012Y-52975224D01*
X79324552Y-52956383D01*
X79298564Y-52920613D01*
X79292048Y-52910693D01*
X79273580Y-52879465D01*
X79273578Y-52879462D01*
X79269542Y-52872638D01*
X79255221Y-52858317D01*
X79242380Y-52843283D01*
X79235131Y-52833306D01*
X79230472Y-52826893D01*
X79196395Y-52798702D01*
X79187616Y-52790712D01*
X78257122Y-51860218D01*
X78223096Y-51797906D01*
X78220907Y-51784293D01*
X78220452Y-51779958D01*
X78203542Y-51619072D01*
X78144527Y-51437444D01*
X78136615Y-51423739D01*
X78099598Y-51359625D01*
X78049040Y-51272056D01*
X77975863Y-51190785D01*
X77945147Y-51126779D01*
X77943500Y-51106476D01*
X77943500Y-50003968D01*
X77944027Y-49992785D01*
X77945702Y-49985292D01*
X77944486Y-49946585D01*
X77943562Y-49917202D01*
X77943500Y-49913244D01*
X77943500Y-49885344D01*
X77942996Y-49881353D01*
X77942063Y-49869511D01*
X77941108Y-49839103D01*
X77940674Y-49825311D01*
X77938462Y-49817697D01*
X77938461Y-49817692D01*
X77935023Y-49805859D01*
X77931012Y-49786495D01*
X77929467Y-49774264D01*
X77928474Y-49766403D01*
X77925557Y-49759036D01*
X77925556Y-49759031D01*
X77912198Y-49725292D01*
X77908354Y-49714065D01*
X77898230Y-49679222D01*
X77896018Y-49671607D01*
X77887398Y-49657031D01*
X77885707Y-49654172D01*
X77877012Y-49636424D01*
X77869552Y-49617583D01*
X77843564Y-49581813D01*
X77837048Y-49571893D01*
X77818580Y-49540665D01*
X77818578Y-49540662D01*
X77814542Y-49533838D01*
X77800221Y-49519517D01*
X77787380Y-49504483D01*
X77786782Y-49503660D01*
X77775472Y-49488093D01*
X77741395Y-49459902D01*
X77732616Y-49451912D01*
X73644552Y-45363847D01*
X73637012Y-45355561D01*
X73632900Y-45349082D01*
X73583248Y-45302456D01*
X73580407Y-45299702D01*
X73560670Y-45279965D01*
X73557473Y-45277485D01*
X73548451Y-45269780D01*
X73522000Y-45244941D01*
X73516221Y-45239514D01*
X73509275Y-45235695D01*
X73509272Y-45235693D01*
X73498466Y-45229752D01*
X73481947Y-45218901D01*
X73481483Y-45218541D01*
X73465941Y-45206486D01*
X73458672Y-45203341D01*
X73458668Y-45203338D01*
X73425363Y-45188926D01*
X73414713Y-45183709D01*
X73375960Y-45162405D01*
X73356337Y-45157367D01*
X73337634Y-45150963D01*
X73326320Y-45146067D01*
X73326319Y-45146067D01*
X73319045Y-45142919D01*
X73311222Y-45141680D01*
X73311212Y-45141677D01*
X73275376Y-45136001D01*
X73263756Y-45133595D01*
X73228611Y-45124572D01*
X73228610Y-45124572D01*
X73220930Y-45122600D01*
X73200676Y-45122600D01*
X73180965Y-45121049D01*
X73168786Y-45119120D01*
X73160957Y-45117880D01*
X73153065Y-45118626D01*
X73116939Y-45122041D01*
X73105081Y-45122600D01*
X68353872Y-45122600D01*
X68285751Y-45102598D01*
X68239258Y-45048942D01*
X68228562Y-45009771D01*
X68211332Y-44845834D01*
X68211331Y-44845831D01*
X68210642Y-44839272D01*
X68151627Y-44657644D01*
X68056140Y-44492256D01*
X67928353Y-44350334D01*
X67773852Y-44238082D01*
X67767824Y-44235398D01*
X67767822Y-44235397D01*
X67605419Y-44163091D01*
X67605418Y-44163091D01*
X67599388Y-44160406D01*
X67505987Y-44140553D01*
X67419044Y-44122072D01*
X67419039Y-44122072D01*
X67412587Y-44120700D01*
X67221613Y-44120700D01*
X67215161Y-44122072D01*
X67215156Y-44122072D01*
X67128213Y-44140553D01*
X67034812Y-44160406D01*
X67028782Y-44163091D01*
X67028781Y-44163091D01*
X66866378Y-44235397D01*
X66866376Y-44235398D01*
X66860348Y-44238082D01*
X66855007Y-44241962D01*
X66855006Y-44241963D01*
X66779756Y-44296636D01*
X66712889Y-44320494D01*
X66705695Y-44320700D01*
X65601760Y-44320700D01*
X65533639Y-44300698D01*
X65512665Y-44283795D01*
X64770000Y-43541130D01*
X64770000Y-39624000D01*
X92964000Y-39624000D01*
X92964000Y-60706000D01*
G37*
%TD.AperFunction*%
%TA.AperFunction,Conductor*%
G36*
X75511087Y-49681493D02*
G01*
X75562392Y-49712597D01*
X75907696Y-50057901D01*
X75941721Y-50120213D01*
X75944600Y-50146996D01*
X75944600Y-57955600D01*
X75924598Y-58023721D01*
X75870942Y-58070214D01*
X75818600Y-58081600D01*
X75755613Y-58081600D01*
X75749161Y-58082972D01*
X75749156Y-58082972D01*
X75663765Y-58101123D01*
X75568812Y-58121306D01*
X75562782Y-58123991D01*
X75562781Y-58123991D01*
X75400378Y-58196297D01*
X75400376Y-58196298D01*
X75394348Y-58198982D01*
X75389007Y-58202862D01*
X75389006Y-58202863D01*
X75313756Y-58257536D01*
X75246889Y-58281394D01*
X75239695Y-58281600D01*
X71527760Y-58281600D01*
X71459639Y-58261598D01*
X71438665Y-58244695D01*
X71357405Y-58163435D01*
X71323379Y-58101123D01*
X71320500Y-58074340D01*
X71320500Y-52606912D01*
X71320792Y-52598342D01*
X71324209Y-52548224D01*
X71324209Y-52548220D01*
X71324725Y-52540648D01*
X71313739Y-52477703D01*
X71312777Y-52471182D01*
X71306015Y-52415304D01*
X71305102Y-52407758D01*
X71302416Y-52400650D01*
X71301779Y-52398056D01*
X71297318Y-52381750D01*
X71296548Y-52379199D01*
X71295242Y-52371716D01*
X71269561Y-52313212D01*
X71267069Y-52307105D01*
X71247173Y-52254452D01*
X71247173Y-52254451D01*
X71244487Y-52247344D01*
X71240184Y-52241083D01*
X71238947Y-52238717D01*
X71230720Y-52223937D01*
X71229369Y-52221652D01*
X71226315Y-52214695D01*
X71221695Y-52208675D01*
X71221692Y-52208669D01*
X71187421Y-52164009D01*
X71183541Y-52158668D01*
X71151661Y-52112280D01*
X71151656Y-52112275D01*
X71147357Y-52106019D01*
X71130523Y-52091020D01*
X71100830Y-52064565D01*
X71095554Y-52059584D01*
X70550250Y-51514280D01*
X70544396Y-51508015D01*
X70542612Y-51505970D01*
X70506361Y-51464415D01*
X70454080Y-51427671D01*
X70448786Y-51423739D01*
X70404493Y-51389009D01*
X70398518Y-51384324D01*
X70391602Y-51381201D01*
X70389316Y-51379817D01*
X70374635Y-51371443D01*
X70372275Y-51370178D01*
X70366061Y-51365810D01*
X70358982Y-51363050D01*
X70358980Y-51363049D01*
X70306525Y-51342598D01*
X70300456Y-51340047D01*
X70242227Y-51313755D01*
X70234760Y-51312371D01*
X70232205Y-51311570D01*
X70215952Y-51306941D01*
X70213372Y-51306278D01*
X70206291Y-51303518D01*
X70198760Y-51302527D01*
X70198758Y-51302526D01*
X70169139Y-51298627D01*
X70142939Y-51295178D01*
X70136441Y-51294148D01*
X70073614Y-51282504D01*
X70066034Y-51282941D01*
X70066033Y-51282941D01*
X70011408Y-51286091D01*
X70004154Y-51286300D01*
X67371027Y-51286300D01*
X67362458Y-51286008D01*
X67312325Y-51282590D01*
X67312321Y-51282590D01*
X67304748Y-51282074D01*
X67241781Y-51293064D01*
X67235269Y-51294024D01*
X67171858Y-51301698D01*
X67164757Y-51304381D01*
X67162148Y-51305022D01*
X67145815Y-51309491D01*
X67143295Y-51310252D01*
X67135817Y-51311557D01*
X67128865Y-51314609D01*
X67128864Y-51314609D01*
X67077304Y-51337241D01*
X67071199Y-51339732D01*
X67018556Y-51359625D01*
X67018552Y-51359627D01*
X67011444Y-51362313D01*
X67005183Y-51366616D01*
X67002817Y-51367853D01*
X66988037Y-51376080D01*
X66985752Y-51377431D01*
X66978795Y-51380485D01*
X66972775Y-51385105D01*
X66972769Y-51385108D01*
X66941642Y-51408994D01*
X66928098Y-51419387D01*
X66922768Y-51423259D01*
X66876380Y-51455139D01*
X66876375Y-51455144D01*
X66870119Y-51459443D01*
X66865068Y-51465113D01*
X66865066Y-51465114D01*
X66828665Y-51505970D01*
X66823684Y-51511246D01*
X64770000Y-53564930D01*
X64770000Y-50283500D01*
X74203688Y-50283500D01*
X74212258Y-50283792D01*
X74262376Y-50287209D01*
X74262380Y-50287209D01*
X74269952Y-50287725D01*
X74277429Y-50286420D01*
X74277430Y-50286420D01*
X74303908Y-50281799D01*
X74332903Y-50276738D01*
X74339421Y-50275777D01*
X74402842Y-50268102D01*
X74409943Y-50265419D01*
X74412552Y-50264778D01*
X74428862Y-50260315D01*
X74431398Y-50259550D01*
X74438884Y-50258243D01*
X74497400Y-50232556D01*
X74503504Y-50230065D01*
X74556148Y-50210173D01*
X74556149Y-50210172D01*
X74563256Y-50207487D01*
X74569519Y-50203183D01*
X74571885Y-50201946D01*
X74586697Y-50193701D01*
X74588951Y-50192368D01*
X74595905Y-50189315D01*
X74646602Y-50150413D01*
X74651932Y-50146541D01*
X74698320Y-50114661D01*
X74698325Y-50114656D01*
X74704581Y-50110357D01*
X74718438Y-50094805D01*
X74746035Y-50063830D01*
X74751016Y-50058554D01*
X74828833Y-49980737D01*
X74891731Y-49946585D01*
X74907889Y-49943150D01*
X75044588Y-49914094D01*
X75118124Y-49881354D01*
X75213022Y-49839103D01*
X75213024Y-49839102D01*
X75219052Y-49836418D01*
X75234340Y-49825311D01*
X75315419Y-49766403D01*
X75373553Y-49724166D01*
X75379661Y-49717382D01*
X75380908Y-49716614D01*
X75382877Y-49714841D01*
X75383201Y-49715201D01*
X75440103Y-49680143D01*
X75511087Y-49681493D01*
G37*
%TD.AperFunction*%
%TA.AperFunction,Conductor*%
G36*
X68324649Y-52723302D02*
G01*
X68371142Y-52776958D01*
X68381838Y-52816130D01*
X68397354Y-52963754D01*
X68399558Y-52984728D01*
X68401598Y-52991006D01*
X68436091Y-53097164D01*
X68438119Y-53168131D01*
X68401456Y-53228929D01*
X68337744Y-53260255D01*
X68316258Y-53262100D01*
X68265713Y-53262100D01*
X68259261Y-53263472D01*
X68259256Y-53263472D01*
X68172313Y-53281953D01*
X68078912Y-53301806D01*
X68072882Y-53304491D01*
X68072881Y-53304491D01*
X67910478Y-53376797D01*
X67910476Y-53376798D01*
X67904448Y-53379482D01*
X67749947Y-53491734D01*
X67622160Y-53633656D01*
X67526673Y-53799044D01*
X67467658Y-53980672D01*
X67466968Y-53987233D01*
X67466968Y-53987235D01*
X67448386Y-54164035D01*
X67447696Y-54170600D01*
X67448386Y-54177165D01*
X67451124Y-54203211D01*
X67467658Y-54360528D01*
X67469698Y-54366805D01*
X67474602Y-54381898D01*
X67476631Y-54452866D01*
X67440207Y-54512627D01*
X67439647Y-54513034D01*
X67311860Y-54654956D01*
X67216373Y-54820344D01*
X67157358Y-55001972D01*
X67156668Y-55008533D01*
X67156668Y-55008535D01*
X67139993Y-55167192D01*
X67112980Y-55232849D01*
X67103778Y-55243117D01*
X64770000Y-57576895D01*
X64770000Y-55568870D01*
X67598665Y-52740205D01*
X67660977Y-52706179D01*
X67687760Y-52703300D01*
X68256528Y-52703300D01*
X68324649Y-52723302D01*
G37*
%TD.AperFunction*%
%TD*%
%TA.AperFunction,Conductor*%
%TO.N,BATT_GND*%
G36*
X93413621Y-38628502D02*
G01*
X93460114Y-38682158D01*
X93471500Y-38734500D01*
X93471500Y-113665500D01*
X93451498Y-113733621D01*
X93397842Y-113780114D01*
X93345500Y-113791500D01*
X51434500Y-113791500D01*
X51366379Y-113771498D01*
X51319886Y-113717842D01*
X51308500Y-113665500D01*
X51308500Y-111434669D01*
X76692001Y-111434669D01*
X76692371Y-111441490D01*
X76697895Y-111492352D01*
X76701521Y-111507604D01*
X76746676Y-111628054D01*
X76755214Y-111643649D01*
X76831715Y-111745724D01*
X76844276Y-111758285D01*
X76946351Y-111834786D01*
X76961946Y-111843324D01*
X77082394Y-111888478D01*
X77097649Y-111892105D01*
X77148514Y-111897631D01*
X77155328Y-111898000D01*
X77827885Y-111898000D01*
X77843124Y-111893525D01*
X77844329Y-111892135D01*
X77846000Y-111884452D01*
X77846000Y-111879884D01*
X78354000Y-111879884D01*
X78358475Y-111895123D01*
X78359865Y-111896328D01*
X78367548Y-111897999D01*
X79044669Y-111897999D01*
X79051490Y-111897629D01*
X79102352Y-111892105D01*
X79117604Y-111888479D01*
X79238054Y-111843324D01*
X79253649Y-111834786D01*
X79355724Y-111758285D01*
X79368285Y-111745724D01*
X79444786Y-111643649D01*
X79453324Y-111628054D01*
X79474773Y-111570840D01*
X79517415Y-111514075D01*
X79583977Y-111489376D01*
X79653325Y-111504584D01*
X79673240Y-111518126D01*
X79829349Y-111647730D01*
X80029322Y-111764584D01*
X80245694Y-111847209D01*
X80250760Y-111848240D01*
X80250761Y-111848240D01*
X80303846Y-111859040D01*
X80472656Y-111893385D01*
X80603324Y-111898176D01*
X80698949Y-111901683D01*
X80698953Y-111901683D01*
X80704113Y-111901872D01*
X80709233Y-111901216D01*
X80709235Y-111901216D01*
X80808668Y-111888478D01*
X80933847Y-111872442D01*
X80938795Y-111870957D01*
X80938802Y-111870956D01*
X81150747Y-111807369D01*
X81155690Y-111805886D01*
X81236236Y-111766427D01*
X81359049Y-111706262D01*
X81359052Y-111706260D01*
X81363684Y-111703991D01*
X81552243Y-111569494D01*
X81687539Y-111434669D01*
X84947001Y-111434669D01*
X84947371Y-111441490D01*
X84952895Y-111492352D01*
X84956521Y-111507604D01*
X85001676Y-111628054D01*
X85010214Y-111643649D01*
X85086715Y-111745724D01*
X85099276Y-111758285D01*
X85201351Y-111834786D01*
X85216946Y-111843324D01*
X85337394Y-111888478D01*
X85352649Y-111892105D01*
X85403514Y-111897631D01*
X85410328Y-111898000D01*
X86082885Y-111898000D01*
X86098124Y-111893525D01*
X86099329Y-111892135D01*
X86101000Y-111884452D01*
X86101000Y-110762115D01*
X86096525Y-110746876D01*
X86095135Y-110745671D01*
X86087452Y-110744000D01*
X84965116Y-110744000D01*
X84949877Y-110748475D01*
X84948672Y-110749865D01*
X84947001Y-110757548D01*
X84947001Y-111434669D01*
X81687539Y-111434669D01*
X81716303Y-111406005D01*
X81851458Y-111217917D01*
X81954078Y-111010280D01*
X82021408Y-110788671D01*
X82051640Y-110559041D01*
X82053327Y-110490000D01*
X82047032Y-110413434D01*
X82034773Y-110264318D01*
X82034772Y-110264312D01*
X82034349Y-110259167D01*
X82023980Y-110217885D01*
X84947000Y-110217885D01*
X84951475Y-110233124D01*
X84952865Y-110234329D01*
X84960548Y-110236000D01*
X86082885Y-110236000D01*
X86098124Y-110231525D01*
X86099329Y-110230135D01*
X86101000Y-110222452D01*
X86101000Y-109100116D01*
X86096525Y-109084877D01*
X86095135Y-109083672D01*
X86087452Y-109082001D01*
X85410331Y-109082001D01*
X85403510Y-109082371D01*
X85352648Y-109087895D01*
X85337396Y-109091521D01*
X85216946Y-109136676D01*
X85201351Y-109145214D01*
X85099276Y-109221715D01*
X85086715Y-109234276D01*
X85010214Y-109336351D01*
X85001676Y-109351946D01*
X84956522Y-109472394D01*
X84952895Y-109487649D01*
X84947369Y-109538514D01*
X84947000Y-109545328D01*
X84947000Y-110217885D01*
X82023980Y-110217885D01*
X81977925Y-110034533D01*
X81885570Y-109822131D01*
X81759764Y-109627665D01*
X81603887Y-109456358D01*
X81599836Y-109453159D01*
X81599832Y-109453155D01*
X81426177Y-109316011D01*
X81426172Y-109316008D01*
X81422123Y-109312810D01*
X81417607Y-109310317D01*
X81417604Y-109310315D01*
X81223879Y-109203373D01*
X81223875Y-109203371D01*
X81219355Y-109200876D01*
X81214486Y-109199152D01*
X81214482Y-109199150D01*
X81005903Y-109125288D01*
X81005899Y-109125287D01*
X81001028Y-109123562D01*
X80995935Y-109122655D01*
X80995932Y-109122654D01*
X80778095Y-109083851D01*
X80778089Y-109083850D01*
X80773006Y-109082945D01*
X80695644Y-109082000D01*
X80546581Y-109080179D01*
X80546579Y-109080179D01*
X80541411Y-109080116D01*
X80312464Y-109115150D01*
X80092314Y-109187106D01*
X80087726Y-109189494D01*
X80087722Y-109189496D01*
X79891461Y-109291663D01*
X79886872Y-109294052D01*
X79882739Y-109297155D01*
X79882736Y-109297157D01*
X79705790Y-109430012D01*
X79701655Y-109433117D01*
X79698083Y-109436855D01*
X79683787Y-109451815D01*
X79622263Y-109487245D01*
X79551351Y-109483788D01*
X79493564Y-109442543D01*
X79474711Y-109408994D01*
X79453324Y-109351946D01*
X79444786Y-109336351D01*
X79368285Y-109234276D01*
X79355724Y-109221715D01*
X79253649Y-109145214D01*
X79238054Y-109136676D01*
X79117606Y-109091522D01*
X79102351Y-109087895D01*
X79051486Y-109082369D01*
X79044672Y-109082000D01*
X78372115Y-109082000D01*
X78356876Y-109086475D01*
X78355671Y-109087865D01*
X78354000Y-109095548D01*
X78354000Y-111879884D01*
X77846000Y-111879884D01*
X77846000Y-110762115D01*
X77841525Y-110746876D01*
X77840135Y-110745671D01*
X77832452Y-110744000D01*
X76710116Y-110744000D01*
X76694877Y-110748475D01*
X76693672Y-110749865D01*
X76692001Y-110757548D01*
X76692001Y-111434669D01*
X51308500Y-111434669D01*
X51308500Y-110217885D01*
X76692000Y-110217885D01*
X76696475Y-110233124D01*
X76697865Y-110234329D01*
X76705548Y-110236000D01*
X77827885Y-110236000D01*
X77843124Y-110231525D01*
X77844329Y-110230135D01*
X77846000Y-110222452D01*
X77846000Y-109100116D01*
X77841525Y-109084877D01*
X77840135Y-109083672D01*
X77832452Y-109082001D01*
X77155331Y-109082001D01*
X77148510Y-109082371D01*
X77097648Y-109087895D01*
X77082396Y-109091521D01*
X76961946Y-109136676D01*
X76946351Y-109145214D01*
X76844276Y-109221715D01*
X76831715Y-109234276D01*
X76755214Y-109336351D01*
X76746676Y-109351946D01*
X76701522Y-109472394D01*
X76697895Y-109487649D01*
X76692369Y-109538514D01*
X76692000Y-109545328D01*
X76692000Y-110217885D01*
X51308500Y-110217885D01*
X51308500Y-102326475D01*
X54602616Y-102326475D01*
X54621072Y-102537419D01*
X54622975Y-102548214D01*
X54677779Y-102752745D01*
X54681525Y-102763037D01*
X54771012Y-102954944D01*
X54776495Y-102964439D01*
X54807640Y-103008919D01*
X54818117Y-103017294D01*
X54831564Y-103010226D01*
X55507978Y-102333812D01*
X55514356Y-102322132D01*
X56244408Y-102322132D01*
X56244539Y-102323965D01*
X56248790Y-102330580D01*
X56929157Y-103010947D01*
X56940932Y-103017377D01*
X56952947Y-103008081D01*
X56983505Y-102964439D01*
X56988988Y-102954944D01*
X57078475Y-102763037D01*
X57082221Y-102752745D01*
X57137025Y-102548214D01*
X57138928Y-102537419D01*
X57157384Y-102326475D01*
X57157384Y-102315525D01*
X57138928Y-102104581D01*
X57137025Y-102093786D01*
X57082221Y-101889255D01*
X57078475Y-101878963D01*
X56988988Y-101687056D01*
X56983505Y-101677561D01*
X56952360Y-101633081D01*
X56941883Y-101624706D01*
X56928436Y-101631774D01*
X56252022Y-102308188D01*
X56244408Y-102322132D01*
X55514356Y-102322132D01*
X55515592Y-102319868D01*
X55515461Y-102318035D01*
X55511210Y-102311420D01*
X54830843Y-101631053D01*
X54819068Y-101624623D01*
X54807053Y-101633919D01*
X54776495Y-101677561D01*
X54771012Y-101687056D01*
X54681525Y-101878963D01*
X54677779Y-101889255D01*
X54622975Y-102093786D01*
X54621072Y-102104581D01*
X54602616Y-102315525D01*
X54602616Y-102326475D01*
X51308500Y-102326475D01*
X51308500Y-70898743D01*
X51685780Y-70898743D01*
X51686526Y-70906635D01*
X51689941Y-70942761D01*
X51690500Y-70954619D01*
X51690500Y-88526233D01*
X51689973Y-88537416D01*
X51688298Y-88544909D01*
X51688547Y-88552835D01*
X51688547Y-88552836D01*
X51690438Y-88612986D01*
X51690500Y-88616945D01*
X51690500Y-88644856D01*
X51690997Y-88648790D01*
X51690997Y-88648791D01*
X51691005Y-88648856D01*
X51691938Y-88660693D01*
X51693327Y-88704889D01*
X51698978Y-88724339D01*
X51702987Y-88743700D01*
X51703720Y-88749498D01*
X51705526Y-88763797D01*
X51708445Y-88771168D01*
X51708445Y-88771170D01*
X51721804Y-88804912D01*
X51725649Y-88816142D01*
X51737982Y-88858593D01*
X51742015Y-88865412D01*
X51742017Y-88865417D01*
X51748293Y-88876028D01*
X51756988Y-88893776D01*
X51764448Y-88912617D01*
X51769110Y-88919033D01*
X51769110Y-88919034D01*
X51790436Y-88948387D01*
X51796952Y-88958307D01*
X51814501Y-88987980D01*
X51819458Y-88996362D01*
X51833779Y-89010683D01*
X51846619Y-89025716D01*
X51858528Y-89042107D01*
X51864634Y-89047158D01*
X51892605Y-89070298D01*
X51901384Y-89078288D01*
X54599424Y-91776328D01*
X54633450Y-91838640D01*
X54632036Y-91898033D01*
X54622480Y-91933697D01*
X54622479Y-91933704D01*
X54621056Y-91939014D01*
X54601635Y-92161000D01*
X54621056Y-92382986D01*
X54678730Y-92598227D01*
X54681052Y-92603208D01*
X54681053Y-92603209D01*
X54770577Y-92795195D01*
X54770580Y-92795200D01*
X54772903Y-92800182D01*
X54900716Y-92982717D01*
X55058283Y-93140284D01*
X55240817Y-93268097D01*
X55245802Y-93270421D01*
X55245808Y-93270425D01*
X55345272Y-93316805D01*
X55398558Y-93363722D01*
X55418019Y-93431999D01*
X55397478Y-93499959D01*
X55345273Y-93545195D01*
X55245805Y-93591577D01*
X55245800Y-93591580D01*
X55240818Y-93593903D01*
X55179822Y-93636613D01*
X55101846Y-93691213D01*
X55058283Y-93721716D01*
X54900716Y-93879283D01*
X54772903Y-94061818D01*
X54770580Y-94066800D01*
X54770577Y-94066805D01*
X54692884Y-94233420D01*
X54678730Y-94263773D01*
X54677308Y-94269081D01*
X54677307Y-94269083D01*
X54675312Y-94276528D01*
X54621056Y-94479014D01*
X54601635Y-94701000D01*
X54621056Y-94922986D01*
X54622479Y-94928296D01*
X54622480Y-94928303D01*
X54632036Y-94963966D01*
X54630346Y-95034942D01*
X54599424Y-95085671D01*
X54217747Y-95467348D01*
X54209461Y-95474888D01*
X54202982Y-95479000D01*
X54197557Y-95484777D01*
X54156357Y-95528651D01*
X54153602Y-95531493D01*
X54133865Y-95551230D01*
X54131385Y-95554427D01*
X54123682Y-95563447D01*
X54093414Y-95595679D01*
X54089595Y-95602625D01*
X54089593Y-95602628D01*
X54083652Y-95613434D01*
X54072801Y-95629953D01*
X54060386Y-95645959D01*
X54057241Y-95653228D01*
X54057238Y-95653232D01*
X54042826Y-95686537D01*
X54037609Y-95697187D01*
X54016305Y-95735940D01*
X54014334Y-95743615D01*
X54014334Y-95743616D01*
X54011267Y-95755562D01*
X54004863Y-95774266D01*
X53996819Y-95792855D01*
X53995580Y-95800678D01*
X53995577Y-95800688D01*
X53989901Y-95836524D01*
X53987495Y-95848144D01*
X53978472Y-95883289D01*
X53976500Y-95890970D01*
X53976500Y-95911224D01*
X53974949Y-95930934D01*
X53971780Y-95950943D01*
X53972526Y-95958835D01*
X53975941Y-95994961D01*
X53976500Y-96006819D01*
X53976500Y-97965233D01*
X53975973Y-97976416D01*
X53974298Y-97983909D01*
X53974547Y-97991835D01*
X53974547Y-97991836D01*
X53976438Y-98051986D01*
X53976500Y-98055945D01*
X53976500Y-98083856D01*
X53976997Y-98087790D01*
X53976997Y-98087791D01*
X53977005Y-98087856D01*
X53977938Y-98099693D01*
X53979327Y-98143889D01*
X53984978Y-98163339D01*
X53988987Y-98182700D01*
X53991526Y-98202797D01*
X53994445Y-98210168D01*
X53994445Y-98210170D01*
X54007804Y-98243912D01*
X54011649Y-98255142D01*
X54023982Y-98297593D01*
X54028015Y-98304412D01*
X54028017Y-98304417D01*
X54034293Y-98315028D01*
X54042988Y-98332776D01*
X54050448Y-98351617D01*
X54055110Y-98358033D01*
X54055110Y-98358034D01*
X54076436Y-98387387D01*
X54082952Y-98397307D01*
X54105458Y-98435362D01*
X54119779Y-98449683D01*
X54132619Y-98464716D01*
X54144528Y-98481107D01*
X54176413Y-98507484D01*
X54178593Y-98509288D01*
X54187374Y-98517278D01*
X54573353Y-98903258D01*
X54580887Y-98911537D01*
X54585000Y-98918018D01*
X54630134Y-98960401D01*
X54634651Y-98964643D01*
X54637493Y-98967398D01*
X54657230Y-98987135D01*
X54660427Y-98989615D01*
X54669447Y-98997318D01*
X54701679Y-99027586D01*
X54708619Y-99031401D01*
X54711068Y-99033181D01*
X54754420Y-99089405D01*
X54760492Y-99160142D01*
X54751198Y-99188364D01*
X54688067Y-99323750D01*
X54678730Y-99343773D01*
X54677308Y-99349081D01*
X54677307Y-99349083D01*
X54667781Y-99384635D01*
X54621056Y-99559014D01*
X54601635Y-99781000D01*
X54621056Y-100002986D01*
X54678730Y-100218227D01*
X54681052Y-100223208D01*
X54681053Y-100223209D01*
X54770577Y-100415195D01*
X54770580Y-100415200D01*
X54772903Y-100420182D01*
X54900716Y-100602717D01*
X55058283Y-100760284D01*
X55062792Y-100763441D01*
X55062794Y-100763443D01*
X55113920Y-100799242D01*
X55240817Y-100888097D01*
X55245802Y-100890421D01*
X55245808Y-100890425D01*
X55345864Y-100937081D01*
X55399150Y-100983998D01*
X55418611Y-101052275D01*
X55398070Y-101120235D01*
X55345865Y-101165471D01*
X55246056Y-101212012D01*
X55236561Y-101217495D01*
X55192081Y-101248640D01*
X55183706Y-101259117D01*
X55190774Y-101272564D01*
X55867188Y-101948978D01*
X55881132Y-101956592D01*
X55882965Y-101956461D01*
X55889580Y-101952210D01*
X56569947Y-101271843D01*
X56576377Y-101260068D01*
X56567084Y-101248055D01*
X56523431Y-101217488D01*
X56513953Y-101212016D01*
X56414136Y-101165471D01*
X56360851Y-101118554D01*
X56341390Y-101050277D01*
X56361932Y-100982317D01*
X56414136Y-100937081D01*
X56514196Y-100890423D01*
X56514201Y-100890420D01*
X56519183Y-100888097D01*
X56646080Y-100799242D01*
X56697206Y-100763443D01*
X56697208Y-100763441D01*
X56701717Y-100760284D01*
X56859284Y-100602717D01*
X56987097Y-100420182D01*
X56989420Y-100415200D01*
X56989423Y-100415195D01*
X57078947Y-100223209D01*
X57078948Y-100223208D01*
X57081270Y-100218227D01*
X57138944Y-100002986D01*
X57158365Y-99781000D01*
X57138944Y-99559014D01*
X57092219Y-99384635D01*
X57082693Y-99349083D01*
X57082692Y-99349081D01*
X57081270Y-99343773D01*
X57071933Y-99323749D01*
X57061272Y-99253559D01*
X57090252Y-99188746D01*
X57149671Y-99149889D01*
X57186128Y-99144500D01*
X58590226Y-99144500D01*
X58658347Y-99164502D01*
X58704840Y-99218158D01*
X58714944Y-99288432D01*
X58710059Y-99309436D01*
X58697981Y-99346610D01*
X58687758Y-99378072D01*
X58667796Y-99568000D01*
X58687758Y-99757928D01*
X58746773Y-99939556D01*
X58750076Y-99945278D01*
X58750077Y-99945279D01*
X58783394Y-100002986D01*
X58842260Y-100104944D01*
X58915437Y-100186215D01*
X58946153Y-100250221D01*
X58947800Y-100270524D01*
X58947800Y-103426105D01*
X58927798Y-103494226D01*
X58910895Y-103515200D01*
X58235500Y-104190595D01*
X58173188Y-104224621D01*
X58146405Y-104227500D01*
X57279500Y-104227500D01*
X57211379Y-104207498D01*
X57164886Y-104153842D01*
X57153500Y-104101500D01*
X57153500Y-104047866D01*
X57146745Y-103985684D01*
X57095615Y-103849295D01*
X57008261Y-103732739D01*
X56891705Y-103645385D01*
X56755316Y-103594255D01*
X56693134Y-103587500D01*
X56674760Y-103587500D01*
X56606639Y-103567498D01*
X56560146Y-103513842D01*
X56550042Y-103443568D01*
X56576305Y-103382904D01*
X56569226Y-103369436D01*
X55892812Y-102693022D01*
X55878868Y-102685408D01*
X55877035Y-102685539D01*
X55870420Y-102689790D01*
X55190053Y-103370157D01*
X55183623Y-103381933D01*
X55185533Y-103384402D01*
X55211395Y-103450521D01*
X55197405Y-103520125D01*
X55148004Y-103571117D01*
X55085874Y-103587500D01*
X55066866Y-103587500D01*
X55004684Y-103594255D01*
X54868295Y-103645385D01*
X54751739Y-103732739D01*
X54664385Y-103849295D01*
X54613255Y-103985684D01*
X54606500Y-104047866D01*
X54606500Y-105674134D01*
X54613255Y-105736316D01*
X54664385Y-105872705D01*
X54751739Y-105989261D01*
X54868295Y-106076615D01*
X55004684Y-106127745D01*
X55066866Y-106134500D01*
X56693134Y-106134500D01*
X56755316Y-106127745D01*
X56891705Y-106076615D01*
X57008261Y-105989261D01*
X57095615Y-105872705D01*
X57146745Y-105736316D01*
X57153500Y-105674134D01*
X57153500Y-105620500D01*
X57173502Y-105552379D01*
X57227158Y-105505886D01*
X57279500Y-105494500D01*
X58382233Y-105494500D01*
X58393416Y-105495027D01*
X58400909Y-105496702D01*
X58408835Y-105496453D01*
X58408836Y-105496453D01*
X58468986Y-105494562D01*
X58472945Y-105494500D01*
X58500856Y-105494500D01*
X58504791Y-105494003D01*
X58504856Y-105493995D01*
X58516693Y-105493062D01*
X58548951Y-105492048D01*
X58552970Y-105491922D01*
X58560889Y-105491673D01*
X58580343Y-105486021D01*
X58599700Y-105482013D01*
X58611930Y-105480468D01*
X58611931Y-105480468D01*
X58619797Y-105479474D01*
X58627168Y-105476555D01*
X58627170Y-105476555D01*
X58660912Y-105463196D01*
X58672142Y-105459351D01*
X58706983Y-105449229D01*
X58706984Y-105449229D01*
X58714593Y-105447018D01*
X58721412Y-105442985D01*
X58721417Y-105442983D01*
X58732028Y-105436707D01*
X58749776Y-105428012D01*
X58768617Y-105420552D01*
X58804387Y-105394564D01*
X58814307Y-105388048D01*
X58845535Y-105369580D01*
X58845538Y-105369578D01*
X58852362Y-105365542D01*
X58866683Y-105351221D01*
X58881717Y-105338380D01*
X58891694Y-105331131D01*
X58898107Y-105326472D01*
X58926298Y-105292395D01*
X58934288Y-105283616D01*
X59973547Y-104244357D01*
X59981837Y-104236813D01*
X59988318Y-104232700D01*
X60034959Y-104183032D01*
X60037713Y-104180191D01*
X60057434Y-104160470D01*
X60059912Y-104157275D01*
X60067618Y-104148253D01*
X60092458Y-104121801D01*
X60097886Y-104116021D01*
X60107646Y-104098268D01*
X60118499Y-104081745D01*
X60126053Y-104072006D01*
X60130913Y-104065741D01*
X60148476Y-104025157D01*
X60153683Y-104014527D01*
X60174995Y-103975760D01*
X60176966Y-103968083D01*
X60176968Y-103968078D01*
X60180032Y-103956142D01*
X60186438Y-103937430D01*
X60191334Y-103926117D01*
X60194481Y-103918845D01*
X60201397Y-103875181D01*
X60203804Y-103863560D01*
X60212828Y-103828411D01*
X60212828Y-103828410D01*
X60214800Y-103820730D01*
X60214800Y-103800469D01*
X60216351Y-103780758D01*
X60218279Y-103768585D01*
X60219519Y-103760757D01*
X60215359Y-103716746D01*
X60214800Y-103704889D01*
X60214800Y-100270524D01*
X60234802Y-100202403D01*
X60247158Y-100186221D01*
X60320340Y-100104944D01*
X60379206Y-100002986D01*
X60412523Y-99945279D01*
X60412524Y-99945278D01*
X60415827Y-99939556D01*
X60474842Y-99757928D01*
X60494804Y-99568000D01*
X60474842Y-99378072D01*
X60464619Y-99346610D01*
X60452541Y-99309436D01*
X60450514Y-99238468D01*
X60487176Y-99177670D01*
X60550889Y-99146345D01*
X60572374Y-99144500D01*
X69813872Y-99144500D01*
X69881993Y-99164502D01*
X69928486Y-99218158D01*
X69938590Y-99288432D01*
X69928067Y-99323749D01*
X69918730Y-99343773D01*
X69917308Y-99349081D01*
X69917307Y-99349083D01*
X69907781Y-99384635D01*
X69861056Y-99559014D01*
X69841635Y-99781000D01*
X69861056Y-100002986D01*
X69918730Y-100218227D01*
X69921052Y-100223208D01*
X69921053Y-100223209D01*
X70010577Y-100415195D01*
X70010580Y-100415200D01*
X70012903Y-100420182D01*
X70140716Y-100602717D01*
X70298283Y-100760284D01*
X70302792Y-100763441D01*
X70302794Y-100763443D01*
X70353920Y-100799242D01*
X70480817Y-100888097D01*
X70485802Y-100890421D01*
X70485808Y-100890425D01*
X70585272Y-100936805D01*
X70638558Y-100983722D01*
X70658019Y-101051999D01*
X70637478Y-101119959D01*
X70585273Y-101165195D01*
X70485805Y-101211577D01*
X70485800Y-101211580D01*
X70480818Y-101213903D01*
X70298283Y-101341716D01*
X70140716Y-101499283D01*
X70012903Y-101681818D01*
X70010580Y-101686800D01*
X70010577Y-101686805D01*
X70010460Y-101687056D01*
X69918730Y-101883773D01*
X69861056Y-102099014D01*
X69841635Y-102321000D01*
X69861056Y-102542986D01*
X69918730Y-102758227D01*
X69921052Y-102763208D01*
X69921053Y-102763209D01*
X70010577Y-102955195D01*
X70010580Y-102955200D01*
X70012903Y-102960182D01*
X70140716Y-103142717D01*
X70298283Y-103300284D01*
X70302792Y-103303441D01*
X70302794Y-103303443D01*
X70381119Y-103358287D01*
X70425447Y-103413745D01*
X70432756Y-103484364D01*
X70400725Y-103547724D01*
X70339523Y-103583709D01*
X70313658Y-103586906D01*
X70313680Y-103587316D01*
X70310282Y-103587500D01*
X70306866Y-103587500D01*
X70244684Y-103594255D01*
X70108295Y-103645385D01*
X69991739Y-103732739D01*
X69904385Y-103849295D01*
X69853255Y-103985684D01*
X69846500Y-104047866D01*
X69846500Y-105674134D01*
X69853255Y-105736316D01*
X69904385Y-105872705D01*
X69991739Y-105989261D01*
X69998919Y-105994642D01*
X70018976Y-106009674D01*
X70061491Y-106066533D01*
X70066517Y-106137352D01*
X70032457Y-106199645D01*
X69970126Y-106233635D01*
X69943411Y-106236500D01*
X62785900Y-106236500D01*
X62717779Y-106216498D01*
X62698553Y-106200157D01*
X62698280Y-106200460D01*
X62693368Y-106196037D01*
X62688953Y-106191134D01*
X62611003Y-106134500D01*
X62539794Y-106082763D01*
X62539793Y-106082762D01*
X62534452Y-106078882D01*
X62528424Y-106076198D01*
X62528422Y-106076197D01*
X62366019Y-106003891D01*
X62366018Y-106003891D01*
X62359988Y-106001206D01*
X62266588Y-105981353D01*
X62179644Y-105962872D01*
X62179639Y-105962872D01*
X62173187Y-105961500D01*
X61982213Y-105961500D01*
X61975761Y-105962872D01*
X61975756Y-105962872D01*
X61888813Y-105981353D01*
X61795412Y-106001206D01*
X61789382Y-106003891D01*
X61789381Y-106003891D01*
X61626978Y-106076197D01*
X61626976Y-106076198D01*
X61620948Y-106078882D01*
X61466447Y-106191134D01*
X61462026Y-106196044D01*
X61462025Y-106196045D01*
X61352903Y-106317238D01*
X61338660Y-106333056D01*
X61243173Y-106498444D01*
X61184158Y-106680072D01*
X61164196Y-106870000D01*
X61184158Y-107059928D01*
X61243173Y-107241556D01*
X61338660Y-107406944D01*
X61466447Y-107548866D01*
X61620948Y-107661118D01*
X61626976Y-107663802D01*
X61626978Y-107663803D01*
X61789381Y-107736109D01*
X61795412Y-107738794D01*
X61888812Y-107758647D01*
X61975756Y-107777128D01*
X61975761Y-107777128D01*
X61982213Y-107778500D01*
X62173187Y-107778500D01*
X62179639Y-107777128D01*
X62179644Y-107777128D01*
X62266588Y-107758647D01*
X62359988Y-107738794D01*
X62366019Y-107736109D01*
X62528422Y-107663803D01*
X62528424Y-107663802D01*
X62534452Y-107661118D01*
X62688953Y-107548866D01*
X62693368Y-107543963D01*
X62698280Y-107539540D01*
X62699405Y-107540789D01*
X62752714Y-107507949D01*
X62785900Y-107503500D01*
X84960406Y-107503500D01*
X85028527Y-107523502D01*
X85049501Y-107540405D01*
X86572095Y-109063000D01*
X86606121Y-109125312D01*
X86609000Y-109152095D01*
X86609000Y-111879884D01*
X86613475Y-111895123D01*
X86614865Y-111896328D01*
X86622548Y-111897999D01*
X87299669Y-111897999D01*
X87306490Y-111897629D01*
X87357352Y-111892105D01*
X87372604Y-111888479D01*
X87493054Y-111843324D01*
X87508649Y-111834786D01*
X87610724Y-111758285D01*
X87623285Y-111745724D01*
X87699786Y-111643649D01*
X87708324Y-111628054D01*
X87729773Y-111570840D01*
X87772415Y-111514075D01*
X87838977Y-111489376D01*
X87908325Y-111504584D01*
X87928240Y-111518126D01*
X88084349Y-111647730D01*
X88284322Y-111764584D01*
X88500694Y-111847209D01*
X88505760Y-111848240D01*
X88505761Y-111848240D01*
X88558846Y-111859040D01*
X88727656Y-111893385D01*
X88858324Y-111898176D01*
X88953949Y-111901683D01*
X88953953Y-111901683D01*
X88959113Y-111901872D01*
X88964233Y-111901216D01*
X88964235Y-111901216D01*
X89063668Y-111888478D01*
X89188847Y-111872442D01*
X89193795Y-111870957D01*
X89193802Y-111870956D01*
X89405747Y-111807369D01*
X89410690Y-111805886D01*
X89491236Y-111766427D01*
X89614049Y-111706262D01*
X89614052Y-111706260D01*
X89618684Y-111703991D01*
X89807243Y-111569494D01*
X89971303Y-111406005D01*
X90106458Y-111217917D01*
X90209078Y-111010280D01*
X90276408Y-110788671D01*
X90306640Y-110559041D01*
X90308327Y-110490000D01*
X90302032Y-110413434D01*
X90289773Y-110264318D01*
X90289772Y-110264312D01*
X90289349Y-110259167D01*
X90232925Y-110034533D01*
X90140570Y-109822131D01*
X90014764Y-109627665D01*
X89858887Y-109456358D01*
X89854836Y-109453159D01*
X89854832Y-109453155D01*
X89681177Y-109316011D01*
X89681172Y-109316008D01*
X89677123Y-109312810D01*
X89672607Y-109310317D01*
X89672604Y-109310315D01*
X89478879Y-109203373D01*
X89478875Y-109203371D01*
X89474355Y-109200876D01*
X89469486Y-109199152D01*
X89469482Y-109199150D01*
X89260903Y-109125288D01*
X89260899Y-109125287D01*
X89256028Y-109123562D01*
X89250935Y-109122655D01*
X89250932Y-109122654D01*
X89033095Y-109083851D01*
X89033089Y-109083850D01*
X89028006Y-109082945D01*
X88950644Y-109082000D01*
X88801581Y-109080179D01*
X88801579Y-109080179D01*
X88796411Y-109080116D01*
X88642589Y-109103654D01*
X88572573Y-109114368D01*
X88572571Y-109114369D01*
X88567464Y-109115150D01*
X88562549Y-109116757D01*
X88562547Y-109116757D01*
X88526889Y-109128412D01*
X88455925Y-109130565D01*
X88398647Y-109097743D01*
X85778652Y-106477747D01*
X85771112Y-106469461D01*
X85767000Y-106462982D01*
X85717348Y-106416356D01*
X85714507Y-106413602D01*
X85694770Y-106393865D01*
X85691573Y-106391385D01*
X85682551Y-106383680D01*
X85656100Y-106358841D01*
X85650321Y-106353414D01*
X85643375Y-106349595D01*
X85643372Y-106349593D01*
X85632566Y-106343652D01*
X85616047Y-106332801D01*
X85610048Y-106328148D01*
X85600041Y-106320386D01*
X85592772Y-106317241D01*
X85592768Y-106317238D01*
X85559463Y-106302826D01*
X85548813Y-106297609D01*
X85510060Y-106276305D01*
X85490437Y-106271267D01*
X85471734Y-106264863D01*
X85460420Y-106259967D01*
X85460419Y-106259967D01*
X85453145Y-106256819D01*
X85445322Y-106255580D01*
X85445312Y-106255577D01*
X85409476Y-106249901D01*
X85397856Y-106247495D01*
X85362711Y-106238472D01*
X85362710Y-106238472D01*
X85355030Y-106236500D01*
X85334776Y-106236500D01*
X85315065Y-106234949D01*
X85302886Y-106233020D01*
X85295057Y-106231780D01*
X85287165Y-106232526D01*
X85251039Y-106235941D01*
X85239181Y-106236500D01*
X72296589Y-106236500D01*
X72228468Y-106216498D01*
X72181975Y-106162842D01*
X72171871Y-106092568D01*
X72201365Y-106027988D01*
X72221024Y-106009674D01*
X72241081Y-105994642D01*
X72248261Y-105989261D01*
X72335615Y-105872705D01*
X72386745Y-105736316D01*
X72393500Y-105674134D01*
X72393500Y-104047866D01*
X72386745Y-103985684D01*
X72335615Y-103849295D01*
X72248261Y-103732739D01*
X72131705Y-103645385D01*
X71995316Y-103594255D01*
X71933134Y-103587500D01*
X71929718Y-103587500D01*
X71926320Y-103587316D01*
X71926386Y-103586101D01*
X71863031Y-103567498D01*
X71816538Y-103513842D01*
X71806434Y-103443568D01*
X71835928Y-103378988D01*
X71858881Y-103358287D01*
X71937206Y-103303443D01*
X71937208Y-103303441D01*
X71941717Y-103300284D01*
X72099284Y-103142717D01*
X72227097Y-102960182D01*
X72229420Y-102955200D01*
X72229423Y-102955195D01*
X72318947Y-102763209D01*
X72318948Y-102763208D01*
X72321270Y-102758227D01*
X72378944Y-102542986D01*
X72398365Y-102321000D01*
X72378944Y-102099014D01*
X72321270Y-101883773D01*
X72229540Y-101687056D01*
X72229423Y-101686805D01*
X72229420Y-101686800D01*
X72227097Y-101681818D01*
X72099284Y-101499283D01*
X71941717Y-101341716D01*
X71759183Y-101213903D01*
X71754201Y-101211580D01*
X71754196Y-101211577D01*
X71654728Y-101165195D01*
X71601443Y-101118278D01*
X71581982Y-101050001D01*
X71602524Y-100982041D01*
X71654728Y-100936805D01*
X71754196Y-100890423D01*
X71754201Y-100890420D01*
X71759183Y-100888097D01*
X71886080Y-100799242D01*
X71937206Y-100763443D01*
X71937208Y-100763441D01*
X71941717Y-100760284D01*
X72099284Y-100602717D01*
X72227097Y-100420182D01*
X72229420Y-100415200D01*
X72229423Y-100415195D01*
X72318947Y-100223209D01*
X72318948Y-100223208D01*
X72321270Y-100218227D01*
X72378944Y-100002986D01*
X72398365Y-99781000D01*
X72378944Y-99559014D01*
X72332219Y-99384635D01*
X72322693Y-99349083D01*
X72322692Y-99349081D01*
X72321270Y-99343773D01*
X72311933Y-99323749D01*
X72301272Y-99253559D01*
X72330252Y-99188746D01*
X72389671Y-99149889D01*
X72426128Y-99144500D01*
X73397506Y-99144500D01*
X73465627Y-99164502D01*
X73486601Y-99181405D01*
X77059443Y-102754247D01*
X77066987Y-102762537D01*
X77071100Y-102769018D01*
X77076877Y-102774443D01*
X77120767Y-102815658D01*
X77123609Y-102818413D01*
X77143330Y-102838134D01*
X77146525Y-102840612D01*
X77155547Y-102848318D01*
X77187779Y-102878586D01*
X77194728Y-102882406D01*
X77205532Y-102888346D01*
X77222056Y-102899199D01*
X77238059Y-102911613D01*
X77278643Y-102929176D01*
X77289273Y-102934383D01*
X77316202Y-102949187D01*
X77366259Y-102999531D01*
X77381500Y-103059601D01*
X77381500Y-103260134D01*
X77388255Y-103322316D01*
X77439385Y-103458705D01*
X77526739Y-103575261D01*
X77643295Y-103662615D01*
X77779684Y-103713745D01*
X77841866Y-103720500D01*
X79638134Y-103720500D01*
X79700316Y-103713745D01*
X79836705Y-103662615D01*
X79953261Y-103575261D01*
X80040615Y-103458705D01*
X80091745Y-103322316D01*
X80098500Y-103260134D01*
X80098500Y-101463866D01*
X80091745Y-101401684D01*
X80040615Y-101265295D01*
X79953261Y-101148739D01*
X79836705Y-101061385D01*
X79809003Y-101051000D01*
X79718203Y-101016960D01*
X79661439Y-100974318D01*
X79636739Y-100907756D01*
X79651947Y-100838408D01*
X79673493Y-100809727D01*
X79774435Y-100709137D01*
X79778096Y-100705489D01*
X79837594Y-100622689D01*
X79905435Y-100528277D01*
X79908453Y-100524077D01*
X79962266Y-100415195D01*
X80005136Y-100328453D01*
X80005137Y-100328451D01*
X80007430Y-100323811D01*
X80072370Y-100110069D01*
X80101529Y-99888590D01*
X80103156Y-99822000D01*
X80084852Y-99599361D01*
X80056821Y-99487765D01*
X80059625Y-99416823D01*
X80089930Y-99367974D01*
X80656247Y-98801657D01*
X80664537Y-98794113D01*
X80671018Y-98790000D01*
X80717659Y-98740332D01*
X80720413Y-98737491D01*
X80740134Y-98717770D01*
X80742612Y-98714575D01*
X80750318Y-98705553D01*
X80775158Y-98679101D01*
X80780586Y-98673321D01*
X80790346Y-98655568D01*
X80801199Y-98639045D01*
X80808753Y-98629306D01*
X80813613Y-98623041D01*
X80831176Y-98582457D01*
X80836383Y-98571827D01*
X80857695Y-98533060D01*
X80859666Y-98525383D01*
X80859668Y-98525378D01*
X80862732Y-98513442D01*
X80869138Y-98494730D01*
X80874034Y-98483417D01*
X80877181Y-98476145D01*
X80879396Y-98462165D01*
X80884097Y-98432481D01*
X80886504Y-98420860D01*
X80895528Y-98385711D01*
X80895528Y-98385710D01*
X80897500Y-98378030D01*
X80897500Y-98357769D01*
X80899051Y-98338058D01*
X80900979Y-98325885D01*
X80902219Y-98318057D01*
X80898059Y-98274046D01*
X80897500Y-98262189D01*
X80897500Y-94058767D01*
X80898027Y-94047584D01*
X80899702Y-94040091D01*
X80897562Y-93972014D01*
X80897500Y-93968055D01*
X80897500Y-93940144D01*
X80896995Y-93936144D01*
X80896062Y-93924301D01*
X80894922Y-93888029D01*
X80894673Y-93880110D01*
X80889022Y-93860658D01*
X80885014Y-93841306D01*
X80883467Y-93829063D01*
X80882474Y-93821203D01*
X80879556Y-93813832D01*
X80866200Y-93780097D01*
X80862355Y-93768870D01*
X80861721Y-93766687D01*
X80850018Y-93726407D01*
X80845376Y-93718557D01*
X80839707Y-93708972D01*
X80831012Y-93691224D01*
X80823552Y-93672383D01*
X80797564Y-93636613D01*
X80791048Y-93626693D01*
X80772580Y-93595465D01*
X80772578Y-93595462D01*
X80768542Y-93588638D01*
X80754221Y-93574317D01*
X80741380Y-93559283D01*
X80734131Y-93549306D01*
X80729472Y-93542893D01*
X80695395Y-93514702D01*
X80686616Y-93506712D01*
X75138652Y-87958747D01*
X75131112Y-87950461D01*
X75127000Y-87943982D01*
X75077348Y-87897356D01*
X75074507Y-87894602D01*
X75054770Y-87874865D01*
X75051573Y-87872385D01*
X75042551Y-87864680D01*
X75016100Y-87839841D01*
X75010321Y-87834414D01*
X75003375Y-87830595D01*
X75003372Y-87830593D01*
X74992566Y-87824652D01*
X74976047Y-87813801D01*
X74975583Y-87813441D01*
X74960041Y-87801386D01*
X74952772Y-87798241D01*
X74952768Y-87798238D01*
X74919463Y-87783826D01*
X74908813Y-87778609D01*
X74870060Y-87757305D01*
X74850437Y-87752267D01*
X74831734Y-87745863D01*
X74820420Y-87740967D01*
X74820419Y-87740967D01*
X74813145Y-87737819D01*
X74805322Y-87736580D01*
X74805312Y-87736577D01*
X74769476Y-87730901D01*
X74757856Y-87728495D01*
X74722711Y-87719472D01*
X74722710Y-87719472D01*
X74715030Y-87717500D01*
X74694776Y-87717500D01*
X74675065Y-87715949D01*
X74662886Y-87714020D01*
X74655057Y-87712780D01*
X74647165Y-87713526D01*
X74611039Y-87716941D01*
X74599181Y-87717500D01*
X72426128Y-87717500D01*
X72358007Y-87697498D01*
X72311514Y-87643842D01*
X72301410Y-87573568D01*
X72311933Y-87538250D01*
X72318947Y-87523209D01*
X72318947Y-87523208D01*
X72321270Y-87518227D01*
X72322774Y-87512616D01*
X72354327Y-87394857D01*
X72378944Y-87302986D01*
X72398365Y-87081000D01*
X72378944Y-86859014D01*
X72321270Y-86643773D01*
X72284349Y-86564595D01*
X72229423Y-86446805D01*
X72229420Y-86446800D01*
X72227097Y-86441818D01*
X72099284Y-86259283D01*
X71941717Y-86101716D01*
X71897304Y-86070617D01*
X71828075Y-86022142D01*
X71759183Y-85973903D01*
X71754201Y-85971580D01*
X71754196Y-85971577D01*
X71654728Y-85925195D01*
X71601443Y-85878278D01*
X71581982Y-85810001D01*
X71602524Y-85742041D01*
X71654728Y-85696805D01*
X71754196Y-85650423D01*
X71754201Y-85650420D01*
X71759183Y-85648097D01*
X71941717Y-85520284D01*
X72099284Y-85362717D01*
X72193454Y-85228229D01*
X72248911Y-85183901D01*
X72296667Y-85174500D01*
X74786333Y-85174500D01*
X74797516Y-85175027D01*
X74805009Y-85176702D01*
X74812935Y-85176453D01*
X74812936Y-85176453D01*
X74873086Y-85174562D01*
X74877045Y-85174500D01*
X74904956Y-85174500D01*
X74908891Y-85174003D01*
X74908956Y-85173995D01*
X74920793Y-85173062D01*
X74953051Y-85172048D01*
X74957070Y-85171922D01*
X74964989Y-85171673D01*
X74984443Y-85166021D01*
X75003800Y-85162013D01*
X75016030Y-85160468D01*
X75016031Y-85160468D01*
X75023897Y-85159474D01*
X75031268Y-85156555D01*
X75031270Y-85156555D01*
X75065012Y-85143196D01*
X75076242Y-85139351D01*
X75111083Y-85129229D01*
X75111084Y-85129229D01*
X75118693Y-85127018D01*
X75125512Y-85122985D01*
X75125517Y-85122983D01*
X75136128Y-85116707D01*
X75153876Y-85108012D01*
X75172717Y-85100552D01*
X75208487Y-85074564D01*
X75218407Y-85068048D01*
X75249635Y-85049580D01*
X75249638Y-85049578D01*
X75256462Y-85045542D01*
X75270783Y-85031221D01*
X75285817Y-85018380D01*
X75295794Y-85011131D01*
X75302207Y-85006472D01*
X75330398Y-84972395D01*
X75338388Y-84963616D01*
X77575742Y-82726262D01*
X77638054Y-82692236D01*
X77708869Y-82697301D01*
X77760074Y-82732860D01*
X77807662Y-82787796D01*
X77811250Y-82791938D01*
X77983126Y-82934632D01*
X78053595Y-82975811D01*
X78056445Y-82977476D01*
X78105169Y-83029114D01*
X78118240Y-83098897D01*
X78091509Y-83164669D01*
X78051055Y-83198027D01*
X78038607Y-83204507D01*
X78034474Y-83207610D01*
X78034471Y-83207612D01*
X77866435Y-83333777D01*
X77859965Y-83338635D01*
X77705629Y-83500138D01*
X77579743Y-83684680D01*
X77550398Y-83747899D01*
X77505808Y-83843961D01*
X77485688Y-83887305D01*
X77425989Y-84102570D01*
X77402251Y-84324695D01*
X77402548Y-84329848D01*
X77402548Y-84329851D01*
X77408011Y-84424590D01*
X77415110Y-84547715D01*
X77416247Y-84552761D01*
X77416248Y-84552767D01*
X77436119Y-84640939D01*
X77464222Y-84765639D01*
X77502461Y-84859811D01*
X77544612Y-84963616D01*
X77548266Y-84972616D01*
X77558133Y-84988717D01*
X77660984Y-85156555D01*
X77664987Y-85163088D01*
X77811250Y-85331938D01*
X77983126Y-85474632D01*
X78053595Y-85515811D01*
X78056445Y-85517476D01*
X78105169Y-85569114D01*
X78118240Y-85638897D01*
X78091509Y-85704669D01*
X78051055Y-85738027D01*
X78038607Y-85744507D01*
X78034474Y-85747610D01*
X78034471Y-85747612D01*
X77883772Y-85860760D01*
X77859965Y-85878635D01*
X77705629Y-86040138D01*
X77702715Y-86044410D01*
X77702714Y-86044411D01*
X77671231Y-86090563D01*
X77579743Y-86224680D01*
X77485688Y-86427305D01*
X77425989Y-86642570D01*
X77402251Y-86864695D01*
X77402548Y-86869848D01*
X77402548Y-86869851D01*
X77408011Y-86964590D01*
X77415110Y-87087715D01*
X77416247Y-87092761D01*
X77416248Y-87092767D01*
X77426201Y-87136931D01*
X77464222Y-87305639D01*
X77548266Y-87512616D01*
X77664987Y-87703088D01*
X77668367Y-87706990D01*
X77674029Y-87713526D01*
X77811250Y-87871938D01*
X77983126Y-88014632D01*
X78176000Y-88127338D01*
X78384692Y-88207030D01*
X78389760Y-88208061D01*
X78389763Y-88208062D01*
X78497017Y-88229883D01*
X78603597Y-88251567D01*
X78608772Y-88251757D01*
X78608774Y-88251757D01*
X78821673Y-88259564D01*
X78821677Y-88259564D01*
X78826837Y-88259753D01*
X78831957Y-88259097D01*
X78831959Y-88259097D01*
X79043288Y-88232025D01*
X79043289Y-88232025D01*
X79048416Y-88231368D01*
X79053366Y-88229883D01*
X79257429Y-88168661D01*
X79257434Y-88168659D01*
X79262384Y-88167174D01*
X79462994Y-88068896D01*
X79644860Y-87939173D01*
X79685971Y-87898206D01*
X79753820Y-87830593D01*
X79803096Y-87781489D01*
X79808567Y-87773876D01*
X79930435Y-87604277D01*
X79933453Y-87600077D01*
X79946555Y-87573568D01*
X80030136Y-87404453D01*
X80030137Y-87404451D01*
X80032430Y-87399811D01*
X80097370Y-87186069D01*
X80126529Y-86964590D01*
X80128156Y-86898000D01*
X80109852Y-86675361D01*
X80055431Y-86458702D01*
X79966354Y-86253840D01*
X79926906Y-86192862D01*
X79847822Y-86070617D01*
X79847820Y-86070614D01*
X79845014Y-86066277D01*
X79694670Y-85901051D01*
X79690619Y-85897852D01*
X79690615Y-85897848D01*
X79523414Y-85765800D01*
X79523410Y-85765798D01*
X79519359Y-85762598D01*
X79478053Y-85739796D01*
X79428084Y-85689364D01*
X79413312Y-85619921D01*
X79438428Y-85553516D01*
X79465780Y-85526909D01*
X79509603Y-85495650D01*
X79644860Y-85399173D01*
X79685971Y-85358206D01*
X79799435Y-85245137D01*
X79803096Y-85241489D01*
X79862030Y-85159474D01*
X79930435Y-85064277D01*
X79933453Y-85060077D01*
X79947715Y-85031221D01*
X80030136Y-84864453D01*
X80030137Y-84864451D01*
X80032430Y-84859811D01*
X80097370Y-84646069D01*
X80126529Y-84424590D01*
X80128156Y-84358000D01*
X80109852Y-84135361D01*
X80055431Y-83918702D01*
X79966354Y-83713840D01*
X79882965Y-83584940D01*
X79847822Y-83530617D01*
X79847820Y-83530614D01*
X79845014Y-83526277D01*
X79694670Y-83361051D01*
X79690619Y-83357852D01*
X79690615Y-83357848D01*
X79523414Y-83225800D01*
X79523410Y-83225798D01*
X79519359Y-83222598D01*
X79478053Y-83199796D01*
X79428084Y-83149364D01*
X79413312Y-83079921D01*
X79438428Y-83013516D01*
X79465780Y-82986909D01*
X79509603Y-82955650D01*
X79644860Y-82859173D01*
X79685971Y-82818206D01*
X79799435Y-82705137D01*
X79803096Y-82701489D01*
X79846496Y-82641092D01*
X79930435Y-82524277D01*
X79933453Y-82520077D01*
X79963690Y-82458898D01*
X80030136Y-82324453D01*
X80030137Y-82324451D01*
X80032430Y-82319811D01*
X80097370Y-82106069D01*
X80126529Y-81884590D01*
X80128156Y-81818000D01*
X80109852Y-81595361D01*
X80055431Y-81378702D01*
X79966354Y-81173840D01*
X79845014Y-80986277D01*
X79694670Y-80821051D01*
X79690619Y-80817852D01*
X79690615Y-80817848D01*
X79523414Y-80685800D01*
X79523410Y-80685798D01*
X79519359Y-80682598D01*
X79478053Y-80659796D01*
X79428084Y-80609364D01*
X79413312Y-80539921D01*
X79438428Y-80473516D01*
X79465780Y-80446909D01*
X79509603Y-80415650D01*
X79644860Y-80319173D01*
X79685971Y-80278206D01*
X79799435Y-80165137D01*
X79803096Y-80161489D01*
X79862594Y-80078689D01*
X79930435Y-79984277D01*
X79933453Y-79980077D01*
X79963690Y-79918898D01*
X80030136Y-79784453D01*
X80030137Y-79784451D01*
X80032430Y-79779811D01*
X80097370Y-79566069D01*
X80126529Y-79344590D01*
X80128156Y-79278000D01*
X80109852Y-79055361D01*
X80055431Y-78838702D01*
X79966354Y-78633840D01*
X79845014Y-78446277D01*
X79694670Y-78281051D01*
X79690619Y-78277852D01*
X79690615Y-78277848D01*
X79523414Y-78145800D01*
X79523410Y-78145798D01*
X79519359Y-78142598D01*
X79478053Y-78119796D01*
X79428084Y-78069364D01*
X79413312Y-77999921D01*
X79438428Y-77933516D01*
X79465780Y-77906909D01*
X79539070Y-77854632D01*
X79644860Y-77779173D01*
X79685971Y-77738206D01*
X79799435Y-77625137D01*
X79803096Y-77621489D01*
X79836860Y-77574502D01*
X79930435Y-77444277D01*
X79933453Y-77440077D01*
X79937367Y-77432159D01*
X80030136Y-77244453D01*
X80030137Y-77244451D01*
X80032430Y-77239811D01*
X80097370Y-77026069D01*
X80126529Y-76804590D01*
X80128156Y-76738000D01*
X80109852Y-76515361D01*
X80055431Y-76298702D01*
X79966354Y-76093840D01*
X79867941Y-75941716D01*
X79847822Y-75910617D01*
X79847820Y-75910614D01*
X79845014Y-75906277D01*
X79694670Y-75741051D01*
X79690619Y-75737852D01*
X79690615Y-75737848D01*
X79523414Y-75605800D01*
X79523410Y-75605798D01*
X79519359Y-75602598D01*
X79478053Y-75579796D01*
X79428084Y-75529364D01*
X79413312Y-75459921D01*
X79438428Y-75393516D01*
X79465780Y-75366909D01*
X79509603Y-75335650D01*
X79644860Y-75239173D01*
X79685971Y-75198206D01*
X79799435Y-75085137D01*
X79803096Y-75081489D01*
X79814958Y-75064982D01*
X79930435Y-74904277D01*
X79933453Y-74900077D01*
X79971444Y-74823209D01*
X80030136Y-74704453D01*
X80030137Y-74704451D01*
X80032430Y-74699811D01*
X80097370Y-74486069D01*
X80126529Y-74264590D01*
X80128156Y-74198000D01*
X80109852Y-73975361D01*
X80055431Y-73758702D01*
X79966354Y-73553840D01*
X79845014Y-73366277D01*
X79694670Y-73201051D01*
X79690619Y-73197852D01*
X79690615Y-73197848D01*
X79523414Y-73065800D01*
X79523410Y-73065798D01*
X79519359Y-73062598D01*
X79478053Y-73039796D01*
X79428084Y-72989364D01*
X79413312Y-72919921D01*
X79438428Y-72853516D01*
X79465780Y-72826909D01*
X79532884Y-72779044D01*
X79644860Y-72699173D01*
X79685971Y-72658206D01*
X79736983Y-72607371D01*
X79803096Y-72541489D01*
X79816985Y-72522161D01*
X79930435Y-72364277D01*
X79933453Y-72360077D01*
X79947715Y-72331221D01*
X80030136Y-72164453D01*
X80030137Y-72164451D01*
X80032430Y-72159811D01*
X80097370Y-71946069D01*
X80126529Y-71724590D01*
X80128156Y-71658000D01*
X80109852Y-71435361D01*
X80055431Y-71218702D01*
X79966354Y-71013840D01*
X79909093Y-70925328D01*
X79847822Y-70830617D01*
X79847820Y-70830614D01*
X79845014Y-70826277D01*
X79694670Y-70661051D01*
X79690619Y-70657852D01*
X79690615Y-70657848D01*
X79523414Y-70525800D01*
X79523410Y-70525798D01*
X79519359Y-70522598D01*
X79478053Y-70499796D01*
X79428084Y-70449364D01*
X79413312Y-70379921D01*
X79438428Y-70313516D01*
X79465780Y-70286909D01*
X79509603Y-70255650D01*
X79644860Y-70159173D01*
X79685971Y-70118206D01*
X79792559Y-70011989D01*
X79803096Y-70001489D01*
X79819260Y-69978995D01*
X79930435Y-69824277D01*
X79933453Y-69820077D01*
X79971444Y-69743209D01*
X80030136Y-69624453D01*
X80030137Y-69624451D01*
X80032430Y-69619811D01*
X80097370Y-69406069D01*
X80126529Y-69184590D01*
X80128156Y-69118000D01*
X80109852Y-68895361D01*
X80055431Y-68678702D01*
X79966354Y-68473840D01*
X79845014Y-68286277D01*
X79694670Y-68121051D01*
X79690619Y-68117852D01*
X79690615Y-68117848D01*
X79523414Y-67985800D01*
X79523410Y-67985798D01*
X79519359Y-67982598D01*
X79477569Y-67959529D01*
X79427598Y-67909097D01*
X79412826Y-67839654D01*
X79437942Y-67773248D01*
X79465294Y-67746641D01*
X79640328Y-67621792D01*
X79648200Y-67615139D01*
X79799052Y-67464812D01*
X79805730Y-67456965D01*
X79930003Y-67284020D01*
X79935313Y-67275183D01*
X80029670Y-67084267D01*
X80033469Y-67074672D01*
X80095377Y-66870910D01*
X80097555Y-66860837D01*
X80098986Y-66849962D01*
X80096775Y-66835778D01*
X80083617Y-66832000D01*
X77448225Y-66832000D01*
X77434694Y-66835973D01*
X77433257Y-66845966D01*
X77463565Y-66980446D01*
X77466645Y-66990275D01*
X77546770Y-67187603D01*
X77551413Y-67196794D01*
X77662694Y-67378388D01*
X77668777Y-67386699D01*
X77808213Y-67547667D01*
X77815580Y-67554883D01*
X77979434Y-67690916D01*
X77987881Y-67696831D01*
X78056969Y-67737203D01*
X78105693Y-67788842D01*
X78118764Y-67858625D01*
X78092033Y-67924396D01*
X78051584Y-67957752D01*
X78038607Y-67964507D01*
X78034474Y-67967610D01*
X78034471Y-67967612D01*
X77910816Y-68060455D01*
X77859965Y-68098635D01*
X77705629Y-68260138D01*
X77579743Y-68444680D01*
X77485688Y-68647305D01*
X77425989Y-68862570D01*
X77402251Y-69084695D01*
X77402548Y-69089848D01*
X77402548Y-69089851D01*
X77408011Y-69184590D01*
X77415110Y-69307715D01*
X77416247Y-69312761D01*
X77416248Y-69312767D01*
X77436119Y-69400939D01*
X77464222Y-69525639D01*
X77548266Y-69732616D01*
X77664987Y-69923088D01*
X77685721Y-69947023D01*
X77715204Y-70011607D01*
X77705090Y-70081879D01*
X77679579Y-70118617D01*
X77341390Y-70456805D01*
X77008142Y-70790053D01*
X76999863Y-70797587D01*
X76993382Y-70801700D01*
X76946757Y-70851351D01*
X76944002Y-70854193D01*
X76924265Y-70873930D01*
X76921785Y-70877127D01*
X76914082Y-70886147D01*
X76883814Y-70918379D01*
X76879995Y-70925325D01*
X76879993Y-70925328D01*
X76874052Y-70936134D01*
X76863201Y-70952653D01*
X76850786Y-70968659D01*
X76847641Y-70975928D01*
X76847638Y-70975932D01*
X76833226Y-71009237D01*
X76828009Y-71019887D01*
X76806705Y-71058640D01*
X76804734Y-71066315D01*
X76804734Y-71066316D01*
X76801667Y-71078262D01*
X76795263Y-71096966D01*
X76787219Y-71115555D01*
X76785980Y-71123378D01*
X76785977Y-71123388D01*
X76780301Y-71159224D01*
X76777895Y-71170844D01*
X76771100Y-71197310D01*
X76766900Y-71213670D01*
X76766900Y-71233924D01*
X76765349Y-71253634D01*
X76762180Y-71273643D01*
X76762926Y-71281535D01*
X76766341Y-71317661D01*
X76766900Y-71329519D01*
X76766900Y-77231756D01*
X76746898Y-77299877D01*
X76729995Y-77320851D01*
X72501239Y-81549606D01*
X72438927Y-81583632D01*
X72368111Y-81578567D01*
X72311276Y-81536020D01*
X72297949Y-81513761D01*
X72229423Y-81366805D01*
X72229420Y-81366800D01*
X72227097Y-81361818D01*
X72115502Y-81202444D01*
X72102443Y-81183794D01*
X72102441Y-81183791D01*
X72099284Y-81179283D01*
X71941717Y-81021716D01*
X71897304Y-80990617D01*
X71848438Y-80956401D01*
X71759183Y-80893903D01*
X71754201Y-80891580D01*
X71754196Y-80891577D01*
X71654728Y-80845195D01*
X71601443Y-80798278D01*
X71581982Y-80730001D01*
X71602524Y-80662041D01*
X71654728Y-80616805D01*
X71754196Y-80570423D01*
X71754201Y-80570420D01*
X71759183Y-80568097D01*
X71941717Y-80440284D01*
X72099284Y-80282717D01*
X72227097Y-80100182D01*
X72229420Y-80095200D01*
X72229423Y-80095195D01*
X72318947Y-79903209D01*
X72318948Y-79903208D01*
X72321270Y-79898227D01*
X72322774Y-79892616D01*
X72354327Y-79774857D01*
X72378944Y-79682986D01*
X72398365Y-79461000D01*
X72378944Y-79239014D01*
X72321270Y-79023773D01*
X72277457Y-78929815D01*
X72229423Y-78826805D01*
X72229420Y-78826800D01*
X72227097Y-78821818D01*
X72099284Y-78639283D01*
X71941717Y-78481716D01*
X71924343Y-78469550D01*
X71853775Y-78420138D01*
X71759183Y-78353903D01*
X71754201Y-78351580D01*
X71754196Y-78351577D01*
X71654728Y-78305195D01*
X71601443Y-78258278D01*
X71581982Y-78190001D01*
X71602524Y-78122041D01*
X71654728Y-78076805D01*
X71754196Y-78030423D01*
X71754201Y-78030420D01*
X71759183Y-78028097D01*
X71941717Y-77900284D01*
X72099284Y-77742717D01*
X72227097Y-77560182D01*
X72229420Y-77555200D01*
X72229423Y-77555195D01*
X72318947Y-77363209D01*
X72318948Y-77363208D01*
X72321270Y-77358227D01*
X72333323Y-77313247D01*
X72377520Y-77148299D01*
X72378944Y-77142986D01*
X72398365Y-76921000D01*
X72378944Y-76699014D01*
X72321270Y-76483773D01*
X72318947Y-76478791D01*
X72229423Y-76286805D01*
X72229420Y-76286800D01*
X72227097Y-76281818D01*
X72134748Y-76149931D01*
X72102443Y-76103794D01*
X72102441Y-76103791D01*
X72099284Y-76099283D01*
X71941717Y-75941716D01*
X71897304Y-75910617D01*
X71861890Y-75885820D01*
X71759183Y-75813903D01*
X71754201Y-75811580D01*
X71754196Y-75811577D01*
X71654728Y-75765195D01*
X71601443Y-75718278D01*
X71581982Y-75650001D01*
X71602524Y-75582041D01*
X71654728Y-75536805D01*
X71754196Y-75490423D01*
X71754201Y-75490420D01*
X71759183Y-75488097D01*
X71941717Y-75360284D01*
X72099284Y-75202717D01*
X72107043Y-75191637D01*
X72187108Y-75077292D01*
X72227097Y-75020182D01*
X72229420Y-75015200D01*
X72229423Y-75015195D01*
X72318947Y-74823209D01*
X72318948Y-74823208D01*
X72321270Y-74818227D01*
X72378944Y-74602986D01*
X72398365Y-74381000D01*
X72378944Y-74159014D01*
X72321270Y-73943773D01*
X72318947Y-73938791D01*
X72229423Y-73746805D01*
X72229420Y-73746800D01*
X72227097Y-73741818D01*
X72099284Y-73559283D01*
X71941717Y-73401716D01*
X71897304Y-73370617D01*
X71861890Y-73345820D01*
X71759183Y-73273903D01*
X71754201Y-73271580D01*
X71754196Y-73271577D01*
X71654728Y-73225195D01*
X71601443Y-73178278D01*
X71581982Y-73110001D01*
X71602524Y-73042041D01*
X71654728Y-72996805D01*
X71754196Y-72950423D01*
X71754201Y-72950420D01*
X71759183Y-72948097D01*
X71907286Y-72844393D01*
X71937206Y-72823443D01*
X71937208Y-72823441D01*
X71941717Y-72820284D01*
X72099284Y-72662717D01*
X72121734Y-72630656D01*
X72223940Y-72484690D01*
X72227097Y-72480182D01*
X72229420Y-72475200D01*
X72229423Y-72475195D01*
X72318947Y-72283209D01*
X72318948Y-72283208D01*
X72321270Y-72278227D01*
X72378944Y-72062986D01*
X72398365Y-71841000D01*
X72378944Y-71619014D01*
X72321270Y-71403773D01*
X72283873Y-71323575D01*
X72229423Y-71206805D01*
X72229420Y-71206800D01*
X72227097Y-71201818D01*
X72099284Y-71019283D01*
X71941717Y-70861716D01*
X71930974Y-70854193D01*
X71780012Y-70748488D01*
X71759183Y-70733903D01*
X71754201Y-70731580D01*
X71754196Y-70731577D01*
X71654728Y-70685195D01*
X71601443Y-70638278D01*
X71581982Y-70570001D01*
X71602524Y-70502041D01*
X71654728Y-70456805D01*
X71754196Y-70410423D01*
X71754201Y-70410420D01*
X71759183Y-70408097D01*
X71941717Y-70280284D01*
X72099284Y-70122717D01*
X72227097Y-69940182D01*
X72229420Y-69935200D01*
X72229423Y-69935195D01*
X72318947Y-69743209D01*
X72318948Y-69743208D01*
X72321270Y-69738227D01*
X72322774Y-69732616D01*
X72354327Y-69614857D01*
X72378944Y-69522986D01*
X72398365Y-69301000D01*
X72378944Y-69079014D01*
X72321270Y-68863773D01*
X72318386Y-68857588D01*
X72229423Y-68666805D01*
X72229420Y-68666800D01*
X72227097Y-68661818D01*
X72099284Y-68479283D01*
X71941717Y-68321716D01*
X71897304Y-68290617D01*
X71848438Y-68256401D01*
X71759183Y-68193903D01*
X71754201Y-68191580D01*
X71754196Y-68191577D01*
X71562209Y-68102053D01*
X71562208Y-68102053D01*
X71557227Y-68099730D01*
X71551919Y-68098308D01*
X71551917Y-68098307D01*
X71485535Y-68080520D01*
X71341986Y-68042056D01*
X71120000Y-68022635D01*
X70898014Y-68042056D01*
X70754465Y-68080520D01*
X70688083Y-68098307D01*
X70688081Y-68098308D01*
X70682773Y-68099730D01*
X70677792Y-68102052D01*
X70677791Y-68102053D01*
X70485805Y-68191577D01*
X70485800Y-68191580D01*
X70480818Y-68193903D01*
X70298283Y-68321716D01*
X70140716Y-68479283D01*
X70012903Y-68661818D01*
X70010580Y-68666800D01*
X70010577Y-68666805D01*
X69921614Y-68857588D01*
X69918730Y-68863773D01*
X69861056Y-69079014D01*
X69841635Y-69301000D01*
X69861056Y-69522986D01*
X69885673Y-69614857D01*
X69917227Y-69732616D01*
X69918730Y-69738227D01*
X69921052Y-69743208D01*
X69921053Y-69743209D01*
X70010577Y-69935195D01*
X70010580Y-69935200D01*
X70012903Y-69940182D01*
X70140716Y-70122717D01*
X70298283Y-70280284D01*
X70480817Y-70408097D01*
X70485802Y-70410421D01*
X70485808Y-70410425D01*
X70585272Y-70456805D01*
X70638558Y-70503722D01*
X70658019Y-70571999D01*
X70637478Y-70639959D01*
X70585273Y-70685195D01*
X70485805Y-70731577D01*
X70485800Y-70731580D01*
X70480818Y-70733903D01*
X70459989Y-70748488D01*
X70309027Y-70854193D01*
X70298283Y-70861716D01*
X70140716Y-71019283D01*
X70012903Y-71201818D01*
X70010580Y-71206800D01*
X70010577Y-71206805D01*
X69956127Y-71323575D01*
X69918730Y-71403773D01*
X69861056Y-71619014D01*
X69841635Y-71841000D01*
X69861056Y-72062986D01*
X69918730Y-72278227D01*
X69921052Y-72283208D01*
X69921053Y-72283209D01*
X70010577Y-72475195D01*
X70010580Y-72475200D01*
X70012903Y-72480182D01*
X70016060Y-72484690D01*
X70118267Y-72630656D01*
X70140716Y-72662717D01*
X70298283Y-72820284D01*
X70302792Y-72823441D01*
X70302794Y-72823443D01*
X70332714Y-72844393D01*
X70480817Y-72948097D01*
X70485802Y-72950421D01*
X70485808Y-72950425D01*
X70585272Y-72996805D01*
X70638558Y-73043722D01*
X70658019Y-73111999D01*
X70637478Y-73179959D01*
X70585273Y-73225195D01*
X70485805Y-73271577D01*
X70485800Y-73271580D01*
X70480818Y-73273903D01*
X70298283Y-73401716D01*
X70140716Y-73559283D01*
X70012903Y-73741818D01*
X70010580Y-73746800D01*
X70010577Y-73746805D01*
X69921053Y-73938791D01*
X69918730Y-73943773D01*
X69861056Y-74159014D01*
X69841635Y-74381000D01*
X69861056Y-74602986D01*
X69918730Y-74818227D01*
X69921052Y-74823208D01*
X69921053Y-74823209D01*
X70010577Y-75015195D01*
X70010580Y-75015200D01*
X70012903Y-75020182D01*
X70052892Y-75077292D01*
X70132958Y-75191637D01*
X70140716Y-75202717D01*
X70298283Y-75360284D01*
X70480817Y-75488097D01*
X70485802Y-75490421D01*
X70485808Y-75490425D01*
X70585272Y-75536805D01*
X70638558Y-75583722D01*
X70658019Y-75651999D01*
X70637478Y-75719959D01*
X70585273Y-75765195D01*
X70485805Y-75811577D01*
X70485800Y-75811580D01*
X70480818Y-75813903D01*
X70298283Y-75941716D01*
X70140716Y-76099283D01*
X70137559Y-76103791D01*
X70137557Y-76103794D01*
X70046546Y-76233771D01*
X69991089Y-76278099D01*
X69943333Y-76287500D01*
X68588594Y-76287500D01*
X68520473Y-76267498D01*
X68499499Y-76250595D01*
X65313450Y-73064545D01*
X65279424Y-73002233D01*
X65284489Y-72931417D01*
X65308908Y-72891140D01*
X65308993Y-72891046D01*
X65409840Y-72779044D01*
X65505327Y-72613656D01*
X65564342Y-72432028D01*
X65571067Y-72368048D01*
X65581707Y-72266807D01*
X65608720Y-72201150D01*
X65617922Y-72190882D01*
X71830399Y-65978405D01*
X71892711Y-65944379D01*
X71919494Y-65941500D01*
X77367062Y-65941500D01*
X77435183Y-65961502D01*
X77481676Y-66015158D01*
X77491780Y-66085432D01*
X77485313Y-66111005D01*
X77484776Y-66112464D01*
X77429389Y-66312183D01*
X77430912Y-66320607D01*
X77443292Y-66324000D01*
X80083344Y-66324000D01*
X80096875Y-66320027D01*
X80098180Y-66310947D01*
X80056214Y-66143875D01*
X80052893Y-66134118D01*
X80046033Y-66118343D01*
X80037212Y-66047897D01*
X80067878Y-65983865D01*
X80128294Y-65946577D01*
X80170421Y-65942922D01*
X80173909Y-65943702D01*
X80181830Y-65943453D01*
X80241986Y-65941562D01*
X80245945Y-65941500D01*
X80273856Y-65941500D01*
X80277791Y-65941003D01*
X80277856Y-65940995D01*
X80289693Y-65940062D01*
X80321951Y-65939048D01*
X80325970Y-65938922D01*
X80333889Y-65938673D01*
X80353343Y-65933021D01*
X80372700Y-65929013D01*
X80384930Y-65927468D01*
X80384931Y-65927468D01*
X80392797Y-65926474D01*
X80400168Y-65923555D01*
X80400170Y-65923555D01*
X80433912Y-65910196D01*
X80445142Y-65906351D01*
X80479983Y-65896229D01*
X80479984Y-65896229D01*
X80487593Y-65894018D01*
X80494412Y-65889985D01*
X80494417Y-65889983D01*
X80505028Y-65883707D01*
X80522776Y-65875012D01*
X80541617Y-65867552D01*
X80577387Y-65841564D01*
X80587307Y-65835048D01*
X80618535Y-65816580D01*
X80618538Y-65816578D01*
X80625362Y-65812542D01*
X80639683Y-65798221D01*
X80654717Y-65785380D01*
X80664694Y-65778131D01*
X80671107Y-65773472D01*
X80699298Y-65739395D01*
X80707288Y-65730616D01*
X85731904Y-60706000D01*
X92964000Y-60706000D01*
X92964000Y-39624000D01*
X64770000Y-39624000D01*
X64770000Y-43541130D01*
X63953350Y-42724480D01*
X63947496Y-42718215D01*
X63947101Y-42717762D01*
X63909461Y-42674615D01*
X63857180Y-42637871D01*
X63851886Y-42633939D01*
X63807593Y-42599209D01*
X63801618Y-42594524D01*
X63794702Y-42591401D01*
X63792416Y-42590017D01*
X63777735Y-42581643D01*
X63775375Y-42580378D01*
X63769161Y-42576010D01*
X63762082Y-42573250D01*
X63762080Y-42573249D01*
X63709625Y-42552798D01*
X63703551Y-42550245D01*
X63687646Y-42543063D01*
X63633793Y-42496799D01*
X63613500Y-42428228D01*
X63613500Y-42306866D01*
X63606745Y-42244684D01*
X63555615Y-42108295D01*
X63468261Y-41991739D01*
X63351705Y-41904385D01*
X63215316Y-41853255D01*
X63153134Y-41846500D01*
X61356866Y-41846500D01*
X61294684Y-41853255D01*
X61158295Y-41904385D01*
X61041739Y-41991739D01*
X60954385Y-42108295D01*
X60903255Y-42244684D01*
X60896500Y-42306866D01*
X60896500Y-44103134D01*
X60903255Y-44165316D01*
X60954385Y-44301705D01*
X61041739Y-44418261D01*
X61158295Y-44505615D01*
X61166704Y-44508767D01*
X61166705Y-44508768D01*
X61275451Y-44549535D01*
X61332216Y-44592176D01*
X61356916Y-44658738D01*
X61341709Y-44728087D01*
X61322316Y-44754568D01*
X61195629Y-44887138D01*
X61192715Y-44891410D01*
X61192714Y-44891411D01*
X61180409Y-44909450D01*
X61069743Y-45071680D01*
X60975688Y-45274305D01*
X60915989Y-45489570D01*
X60892251Y-45711695D01*
X60892548Y-45716848D01*
X60892548Y-45716851D01*
X60898011Y-45811590D01*
X60905110Y-45934715D01*
X60906247Y-45939761D01*
X60906248Y-45939767D01*
X60926119Y-46027939D01*
X60954222Y-46152639D01*
X60956166Y-46157427D01*
X60957714Y-46162367D01*
X60955391Y-46163095D01*
X60961523Y-46223636D01*
X60929352Y-46286926D01*
X60868072Y-46322776D01*
X60837665Y-46326500D01*
X58971560Y-46326500D01*
X58903439Y-46306498D01*
X58882465Y-46289595D01*
X55317350Y-42724480D01*
X55311496Y-42718215D01*
X55311101Y-42717762D01*
X55273461Y-42674615D01*
X55221180Y-42637871D01*
X55215886Y-42633939D01*
X55171593Y-42599209D01*
X55165618Y-42594524D01*
X55158702Y-42591401D01*
X55156416Y-42590017D01*
X55141735Y-42581643D01*
X55139375Y-42580378D01*
X55133161Y-42576010D01*
X55126082Y-42573250D01*
X55126080Y-42573249D01*
X55073625Y-42552798D01*
X55067551Y-42550245D01*
X55051646Y-42543063D01*
X54997793Y-42496799D01*
X54977500Y-42428228D01*
X54977500Y-42306866D01*
X54970745Y-42244684D01*
X54919615Y-42108295D01*
X54832261Y-41991739D01*
X54715705Y-41904385D01*
X54579316Y-41853255D01*
X54517134Y-41846500D01*
X52720866Y-41846500D01*
X52658684Y-41853255D01*
X52522295Y-41904385D01*
X52405739Y-41991739D01*
X52318385Y-42108295D01*
X52267255Y-42244684D01*
X52260500Y-42306866D01*
X52260500Y-44103134D01*
X52267255Y-44165316D01*
X52318385Y-44301705D01*
X52405739Y-44418261D01*
X52522295Y-44505615D01*
X52530704Y-44508767D01*
X52530705Y-44508768D01*
X52639451Y-44549535D01*
X52696216Y-44592176D01*
X52720916Y-44658738D01*
X52705709Y-44728087D01*
X52686316Y-44754568D01*
X52559629Y-44887138D01*
X52556715Y-44891410D01*
X52556714Y-44891411D01*
X52544409Y-44909450D01*
X52433743Y-45071680D01*
X52339688Y-45274305D01*
X52279989Y-45489570D01*
X52256251Y-45711695D01*
X52256548Y-45716848D01*
X52256548Y-45716851D01*
X52262011Y-45811590D01*
X52269110Y-45934715D01*
X52270247Y-45939761D01*
X52270248Y-45939767D01*
X52290119Y-46027939D01*
X52318222Y-46152639D01*
X52402266Y-46359616D01*
X52453019Y-46442438D01*
X52501775Y-46522000D01*
X52518987Y-46550088D01*
X52665250Y-46718938D01*
X52837126Y-46861632D01*
X52907595Y-46902811D01*
X52910445Y-46904476D01*
X52959169Y-46956114D01*
X52972240Y-47025897D01*
X52945509Y-47091669D01*
X52905055Y-47125027D01*
X52892607Y-47131507D01*
X52888474Y-47134610D01*
X52888471Y-47134612D01*
X52718100Y-47262530D01*
X52713965Y-47265635D01*
X52559629Y-47427138D01*
X52433743Y-47611680D01*
X52339688Y-47814305D01*
X52279989Y-48029570D01*
X52256251Y-48251695D01*
X52256548Y-48256848D01*
X52256548Y-48256851D01*
X52262011Y-48351590D01*
X52269110Y-48474715D01*
X52270247Y-48479761D01*
X52270248Y-48479767D01*
X52290119Y-48567939D01*
X52318222Y-48692639D01*
X52359220Y-48793606D01*
X52400315Y-48894810D01*
X52402266Y-48899616D01*
X52404965Y-48904020D01*
X52491550Y-49045314D01*
X52518987Y-49090088D01*
X52665250Y-49258938D01*
X52837126Y-49401632D01*
X52907595Y-49442811D01*
X52910445Y-49444476D01*
X52959169Y-49496114D01*
X52972240Y-49565897D01*
X52945509Y-49631669D01*
X52905055Y-49665027D01*
X52892607Y-49671507D01*
X52888474Y-49674610D01*
X52888471Y-49674612D01*
X52718100Y-49802530D01*
X52713965Y-49805635D01*
X52559629Y-49967138D01*
X52556715Y-49971410D01*
X52556714Y-49971411D01*
X52497269Y-50058554D01*
X52433743Y-50151680D01*
X52406592Y-50210173D01*
X52372243Y-50284172D01*
X52339688Y-50354305D01*
X52279989Y-50569570D01*
X52256251Y-50791695D01*
X52256548Y-50796848D01*
X52256548Y-50796851D01*
X52262011Y-50891590D01*
X52269110Y-51014715D01*
X52270247Y-51019761D01*
X52270248Y-51019767D01*
X52290119Y-51107939D01*
X52318222Y-51232639D01*
X52402266Y-51439616D01*
X52417891Y-51465114D01*
X52487921Y-51579392D01*
X52518987Y-51630088D01*
X52665250Y-51798938D01*
X52837126Y-51941632D01*
X52910955Y-51984774D01*
X52959679Y-52036412D01*
X52972750Y-52106195D01*
X52946019Y-52171967D01*
X52905562Y-52205327D01*
X52897457Y-52209546D01*
X52888738Y-52215036D01*
X52718433Y-52342905D01*
X52710726Y-52349748D01*
X52563590Y-52503717D01*
X52557104Y-52511727D01*
X52437098Y-52687649D01*
X52432000Y-52696623D01*
X52342338Y-52889783D01*
X52338775Y-52899470D01*
X52283389Y-53099183D01*
X52284912Y-53107607D01*
X52297292Y-53111000D01*
X54937344Y-53111000D01*
X54950875Y-53107027D01*
X54952180Y-53097947D01*
X54910214Y-52930875D01*
X54906894Y-52921124D01*
X54821972Y-52725814D01*
X54817105Y-52716739D01*
X54701426Y-52537926D01*
X54695136Y-52529757D01*
X54551806Y-52372240D01*
X54544273Y-52365215D01*
X54377139Y-52233222D01*
X54368556Y-52227520D01*
X54331602Y-52207120D01*
X54281631Y-52156687D01*
X54266859Y-52087245D01*
X54291975Y-52020839D01*
X54319327Y-51994232D01*
X54342797Y-51977491D01*
X54498860Y-51866173D01*
X54509601Y-51855470D01*
X54589349Y-51776000D01*
X54657096Y-51708489D01*
X54716594Y-51625689D01*
X54784435Y-51531277D01*
X54787453Y-51527077D01*
X54792342Y-51517186D01*
X54884136Y-51331453D01*
X54884137Y-51331451D01*
X54886430Y-51326811D01*
X54951370Y-51113069D01*
X54980529Y-50891590D01*
X54982156Y-50825000D01*
X54963852Y-50602361D01*
X54909431Y-50385702D01*
X54820354Y-50180840D01*
X54777541Y-50114661D01*
X54701822Y-49997617D01*
X54701820Y-49997614D01*
X54699014Y-49993277D01*
X54548670Y-49828051D01*
X54544619Y-49824852D01*
X54544615Y-49824848D01*
X54377414Y-49692800D01*
X54377410Y-49692798D01*
X54373359Y-49689598D01*
X54332053Y-49666796D01*
X54282084Y-49616364D01*
X54267312Y-49546921D01*
X54292428Y-49480516D01*
X54319780Y-49453909D01*
X54363603Y-49422650D01*
X54498860Y-49326173D01*
X54657096Y-49168489D01*
X54714304Y-49088876D01*
X54784435Y-48991277D01*
X54787453Y-48987077D01*
X54810806Y-48939827D01*
X54884136Y-48791453D01*
X54884137Y-48791451D01*
X54886430Y-48786811D01*
X54951370Y-48573069D01*
X54980529Y-48351590D01*
X54982156Y-48285000D01*
X54963852Y-48062361D01*
X54909431Y-47845702D01*
X54820354Y-47640840D01*
X54739281Y-47515520D01*
X54701822Y-47457617D01*
X54701820Y-47457614D01*
X54699014Y-47453277D01*
X54548670Y-47288051D01*
X54544619Y-47284852D01*
X54544615Y-47284848D01*
X54377414Y-47152800D01*
X54377410Y-47152798D01*
X54373359Y-47149598D01*
X54332053Y-47126796D01*
X54282084Y-47076364D01*
X54267312Y-47006921D01*
X54292428Y-46940516D01*
X54319780Y-46913909D01*
X54363603Y-46882650D01*
X54498860Y-46786173D01*
X54657096Y-46628489D01*
X54716594Y-46545689D01*
X54784435Y-46451277D01*
X54787453Y-46447077D01*
X54797621Y-46426505D01*
X54884136Y-46251453D01*
X54884137Y-46251451D01*
X54886430Y-46246811D01*
X54951370Y-46033069D01*
X54980529Y-45811590D01*
X54982156Y-45745000D01*
X54963852Y-45522361D01*
X54909431Y-45305702D01*
X54820354Y-45100840D01*
X54761439Y-45009771D01*
X54701822Y-44917617D01*
X54701820Y-44917614D01*
X54699014Y-44913277D01*
X54693762Y-44907505D01*
X54551798Y-44751488D01*
X54520746Y-44687642D01*
X54529141Y-44617143D01*
X54574317Y-44562375D01*
X54600761Y-44548706D01*
X54707297Y-44508767D01*
X54715705Y-44505615D01*
X54785954Y-44452966D01*
X54825079Y-44423644D01*
X54825081Y-44423642D01*
X54832261Y-44418261D01*
X54833089Y-44417156D01*
X54892049Y-44384965D01*
X54962865Y-44390033D01*
X55007922Y-44418992D01*
X58104450Y-47515520D01*
X58110304Y-47521785D01*
X58148339Y-47565385D01*
X58154553Y-47569752D01*
X58200619Y-47602128D01*
X58205914Y-47606061D01*
X58256182Y-47645476D01*
X58263098Y-47648599D01*
X58265384Y-47649983D01*
X58280065Y-47658357D01*
X58282425Y-47659622D01*
X58288639Y-47663990D01*
X58295718Y-47666750D01*
X58295720Y-47666751D01*
X58348175Y-47687202D01*
X58354244Y-47689753D01*
X58412473Y-47716045D01*
X58419940Y-47717429D01*
X58422495Y-47718230D01*
X58438748Y-47722859D01*
X58441328Y-47723522D01*
X58448409Y-47726282D01*
X58455940Y-47727273D01*
X58455942Y-47727274D01*
X58485561Y-47731173D01*
X58511761Y-47734622D01*
X58518259Y-47735652D01*
X58581086Y-47747296D01*
X58588666Y-47746859D01*
X58588667Y-47746859D01*
X58643292Y-47743709D01*
X58650546Y-47743500D01*
X60829626Y-47743500D01*
X60897747Y-47763502D01*
X60944240Y-47817158D01*
X60954344Y-47887432D01*
X60951045Y-47903164D01*
X60915989Y-48029570D01*
X60892251Y-48251695D01*
X60892548Y-48256848D01*
X60892548Y-48256851D01*
X60898011Y-48351590D01*
X60905110Y-48474715D01*
X60906247Y-48479761D01*
X60906248Y-48479767D01*
X60926119Y-48567939D01*
X60954222Y-48692639D01*
X60956166Y-48697427D01*
X60957714Y-48702367D01*
X60955391Y-48703095D01*
X60961523Y-48763636D01*
X60929352Y-48826926D01*
X60868072Y-48862776D01*
X60837665Y-48866500D01*
X58657912Y-48866500D01*
X58649342Y-48866208D01*
X58599224Y-48862791D01*
X58599220Y-48862791D01*
X58591648Y-48862275D01*
X58584171Y-48863580D01*
X58584170Y-48863580D01*
X58569113Y-48866208D01*
X58528703Y-48873261D01*
X58522186Y-48874222D01*
X58458758Y-48881898D01*
X58451650Y-48884584D01*
X58449056Y-48885221D01*
X58432750Y-48889682D01*
X58430199Y-48890452D01*
X58422716Y-48891758D01*
X58415764Y-48894810D01*
X58415763Y-48894810D01*
X58364212Y-48917439D01*
X58358105Y-48919931D01*
X58305452Y-48939827D01*
X58298344Y-48942513D01*
X58292083Y-48946816D01*
X58289717Y-48948053D01*
X58274937Y-48956280D01*
X58272652Y-48957631D01*
X58265695Y-48960685D01*
X58259675Y-48965305D01*
X58259669Y-48965308D01*
X58231301Y-48987077D01*
X58214998Y-48999587D01*
X58209668Y-49003459D01*
X58163280Y-49035339D01*
X58163275Y-49035344D01*
X58157019Y-49039643D01*
X58151968Y-49045313D01*
X58151966Y-49045314D01*
X58115565Y-49086170D01*
X58110584Y-49091446D01*
X56161480Y-51040550D01*
X56155215Y-51046404D01*
X56111615Y-51084439D01*
X56088012Y-51118023D01*
X56074872Y-51136719D01*
X56070939Y-51142014D01*
X56031524Y-51192282D01*
X56028401Y-51199198D01*
X56027017Y-51201484D01*
X56018643Y-51216165D01*
X56017378Y-51218525D01*
X56013010Y-51224739D01*
X56010250Y-51231818D01*
X56010249Y-51231820D01*
X55989798Y-51284275D01*
X55987247Y-51290344D01*
X55960955Y-51348573D01*
X55959571Y-51356040D01*
X55958770Y-51358595D01*
X55954141Y-51374848D01*
X55953478Y-51377428D01*
X55950718Y-51384509D01*
X55944503Y-51431721D01*
X55942379Y-51447852D01*
X55941348Y-51454359D01*
X55929704Y-51517186D01*
X55930141Y-51524766D01*
X55930141Y-51524767D01*
X55933291Y-51579392D01*
X55933500Y-51586646D01*
X55933500Y-53756340D01*
X55913498Y-53824461D01*
X55896595Y-53845435D01*
X54777994Y-54964036D01*
X54715682Y-54998062D01*
X54644867Y-54992997D01*
X54595706Y-54959741D01*
X54552152Y-54911876D01*
X54552142Y-54911867D01*
X54548670Y-54908051D01*
X54544619Y-54904852D01*
X54544615Y-54904848D01*
X54377414Y-54772800D01*
X54377410Y-54772798D01*
X54373359Y-54769598D01*
X54331569Y-54746529D01*
X54281598Y-54696097D01*
X54266826Y-54626654D01*
X54291942Y-54560248D01*
X54319294Y-54533641D01*
X54494328Y-54408792D01*
X54502200Y-54402139D01*
X54653052Y-54251812D01*
X54659730Y-54243965D01*
X54784003Y-54071020D01*
X54789313Y-54062183D01*
X54883670Y-53871267D01*
X54887469Y-53861672D01*
X54949377Y-53657910D01*
X54951555Y-53647837D01*
X54952986Y-53636962D01*
X54950775Y-53622778D01*
X54937617Y-53619000D01*
X52302225Y-53619000D01*
X52288694Y-53622973D01*
X52287257Y-53632966D01*
X52317565Y-53767446D01*
X52320645Y-53777275D01*
X52400770Y-53974603D01*
X52405413Y-53983794D01*
X52516694Y-54165388D01*
X52522777Y-54173699D01*
X52662213Y-54334667D01*
X52669580Y-54341883D01*
X52833434Y-54477916D01*
X52841881Y-54483831D01*
X52910969Y-54524203D01*
X52959693Y-54575842D01*
X52972764Y-54645625D01*
X52946033Y-54711396D01*
X52905584Y-54744752D01*
X52892607Y-54751507D01*
X52888474Y-54754610D01*
X52888471Y-54754612D01*
X52737503Y-54867962D01*
X52713965Y-54885635D01*
X52559629Y-55047138D01*
X52433743Y-55231680D01*
X52431564Y-55236375D01*
X52362664Y-55384808D01*
X52339688Y-55434305D01*
X52279989Y-55649570D01*
X52256251Y-55871695D01*
X52256548Y-55876848D01*
X52256548Y-55876851D01*
X52265009Y-56023592D01*
X52269110Y-56094715D01*
X52270247Y-56099761D01*
X52270248Y-56099767D01*
X52290037Y-56187573D01*
X52318222Y-56312639D01*
X52367780Y-56434686D01*
X52398086Y-56509321D01*
X52402266Y-56519616D01*
X52423196Y-56553770D01*
X52493699Y-56668821D01*
X52518987Y-56710088D01*
X52522367Y-56713990D01*
X52552035Y-56748239D01*
X52665250Y-56878938D01*
X52837126Y-57021632D01*
X53030000Y-57134338D01*
X53238692Y-57214030D01*
X53243760Y-57215061D01*
X53243763Y-57215062D01*
X53351017Y-57236883D01*
X53457597Y-57258567D01*
X53462772Y-57258757D01*
X53462774Y-57258757D01*
X53675673Y-57266564D01*
X53675677Y-57266564D01*
X53680837Y-57266753D01*
X53685957Y-57266097D01*
X53685959Y-57266097D01*
X53897288Y-57239025D01*
X53897289Y-57239025D01*
X53902416Y-57238368D01*
X53907366Y-57236883D01*
X54111429Y-57175661D01*
X54111434Y-57175659D01*
X54116384Y-57174174D01*
X54316994Y-57075896D01*
X54498860Y-56946173D01*
X54522489Y-56922627D01*
X54580209Y-56865107D01*
X54657096Y-56788489D01*
X54686019Y-56748239D01*
X54727362Y-56690703D01*
X54783357Y-56647055D01*
X54838253Y-56638521D01*
X54846874Y-56639109D01*
X54846879Y-56639109D01*
X54854452Y-56639625D01*
X54861929Y-56638320D01*
X54861930Y-56638320D01*
X54905069Y-56630791D01*
X54917403Y-56628638D01*
X54923921Y-56627677D01*
X54987342Y-56620002D01*
X54994443Y-56617319D01*
X54997052Y-56616678D01*
X55013362Y-56612215D01*
X55015898Y-56611450D01*
X55023384Y-56610143D01*
X55081900Y-56584456D01*
X55088004Y-56581965D01*
X55140648Y-56562073D01*
X55140649Y-56562072D01*
X55147756Y-56559387D01*
X55154019Y-56555083D01*
X55156385Y-56553846D01*
X55171197Y-56545601D01*
X55173451Y-56544268D01*
X55180405Y-56541215D01*
X55231102Y-56502313D01*
X55236432Y-56498441D01*
X55282820Y-56466561D01*
X55282825Y-56466556D01*
X55289081Y-56462257D01*
X55304759Y-56444661D01*
X55330535Y-56415730D01*
X55335516Y-56410454D01*
X57122528Y-54623443D01*
X57128793Y-54617589D01*
X57166664Y-54584552D01*
X57166665Y-54584551D01*
X57172385Y-54579561D01*
X57209136Y-54527271D01*
X57213028Y-54522029D01*
X57252476Y-54471718D01*
X57255600Y-54464799D01*
X57256988Y-54462507D01*
X57265357Y-54447835D01*
X57266622Y-54445475D01*
X57270990Y-54439261D01*
X57294203Y-54379723D01*
X57296759Y-54373642D01*
X57299847Y-54366805D01*
X57323045Y-54315427D01*
X57324430Y-54307954D01*
X57325234Y-54305388D01*
X57329855Y-54289165D01*
X57330520Y-54286573D01*
X57333282Y-54279491D01*
X57341622Y-54216139D01*
X57342654Y-54209623D01*
X57352911Y-54154281D01*
X57354295Y-54146814D01*
X57353373Y-54130813D01*
X57350709Y-54084620D01*
X57350500Y-54077367D01*
X57350500Y-51907660D01*
X57370502Y-51839539D01*
X57387405Y-51818565D01*
X58885566Y-50320405D01*
X58947878Y-50286379D01*
X58974661Y-50283500D01*
X60829626Y-50283500D01*
X60897747Y-50303502D01*
X60944240Y-50357158D01*
X60954344Y-50427432D01*
X60951045Y-50443164D01*
X60915989Y-50569570D01*
X60892251Y-50791695D01*
X60892548Y-50796848D01*
X60892548Y-50796851D01*
X60898011Y-50891590D01*
X60905110Y-51014715D01*
X60906247Y-51019761D01*
X60906248Y-51019767D01*
X60926119Y-51107939D01*
X60954222Y-51232639D01*
X61038266Y-51439616D01*
X61053891Y-51465114D01*
X61123921Y-51579392D01*
X61154987Y-51630088D01*
X61301250Y-51798938D01*
X61473126Y-51941632D01*
X61546955Y-51984774D01*
X61595679Y-52036412D01*
X61608750Y-52106195D01*
X61582019Y-52171967D01*
X61541562Y-52205327D01*
X61533457Y-52209546D01*
X61524738Y-52215036D01*
X61354433Y-52342905D01*
X61346726Y-52349748D01*
X61199590Y-52503717D01*
X61193104Y-52511727D01*
X61073098Y-52687649D01*
X61068000Y-52696623D01*
X60978338Y-52889783D01*
X60974775Y-52899470D01*
X60919389Y-53099183D01*
X60920912Y-53107607D01*
X60933292Y-53111000D01*
X63573344Y-53111000D01*
X63586875Y-53107027D01*
X63588180Y-53097947D01*
X63546214Y-52930875D01*
X63542894Y-52921124D01*
X63457972Y-52725814D01*
X63453105Y-52716739D01*
X63337426Y-52537926D01*
X63331136Y-52529757D01*
X63187806Y-52372240D01*
X63180273Y-52365215D01*
X63013139Y-52233222D01*
X63004556Y-52227520D01*
X62967602Y-52207120D01*
X62917631Y-52156687D01*
X62902859Y-52087245D01*
X62927975Y-52020839D01*
X62955327Y-51994232D01*
X62978797Y-51977491D01*
X63134860Y-51866173D01*
X63145601Y-51855470D01*
X63225349Y-51776000D01*
X63293096Y-51708489D01*
X63352594Y-51625689D01*
X63420435Y-51531277D01*
X63423453Y-51527077D01*
X63428342Y-51517186D01*
X63520136Y-51331453D01*
X63520137Y-51331451D01*
X63522430Y-51326811D01*
X63587370Y-51113069D01*
X63616529Y-50891590D01*
X63618156Y-50825000D01*
X63599852Y-50602361D01*
X63591616Y-50569570D01*
X63559119Y-50440195D01*
X63561923Y-50369254D01*
X63602636Y-50311091D01*
X63668331Y-50284172D01*
X63681323Y-50283500D01*
X64770000Y-50283500D01*
X64770000Y-53564930D01*
X63393459Y-54941471D01*
X63331147Y-54975497D01*
X63260332Y-54970432D01*
X63211171Y-54937175D01*
X63192638Y-54916808D01*
X63188147Y-54911872D01*
X63188146Y-54911871D01*
X63184670Y-54908051D01*
X63112671Y-54851189D01*
X63013414Y-54772800D01*
X63013410Y-54772798D01*
X63009359Y-54769598D01*
X62967569Y-54746529D01*
X62917598Y-54696097D01*
X62902826Y-54626654D01*
X62927942Y-54560248D01*
X62955294Y-54533641D01*
X63130328Y-54408792D01*
X63138200Y-54402139D01*
X63289052Y-54251812D01*
X63295730Y-54243965D01*
X63420003Y-54071020D01*
X63425313Y-54062183D01*
X63519670Y-53871267D01*
X63523469Y-53861672D01*
X63585377Y-53657910D01*
X63587555Y-53647837D01*
X63588986Y-53636962D01*
X63586775Y-53622778D01*
X63573617Y-53619000D01*
X60938225Y-53619000D01*
X60924694Y-53622973D01*
X60923257Y-53632966D01*
X60953565Y-53767446D01*
X60956645Y-53777275D01*
X61036770Y-53974603D01*
X61041413Y-53983794D01*
X61152694Y-54165388D01*
X61158777Y-54173699D01*
X61298213Y-54334667D01*
X61305580Y-54341883D01*
X61469434Y-54477916D01*
X61477881Y-54483831D01*
X61546969Y-54524203D01*
X61595693Y-54575842D01*
X61608764Y-54645625D01*
X61582033Y-54711396D01*
X61541584Y-54744752D01*
X61528607Y-54751507D01*
X61524474Y-54754610D01*
X61524471Y-54754612D01*
X61373503Y-54867962D01*
X61349965Y-54885635D01*
X61195629Y-55047138D01*
X61069743Y-55231680D01*
X61067564Y-55236375D01*
X60998664Y-55384808D01*
X60975688Y-55434305D01*
X60915989Y-55649570D01*
X60892251Y-55871695D01*
X60892548Y-55876848D01*
X60892548Y-55876851D01*
X60901009Y-56023592D01*
X60905110Y-56094715D01*
X60906247Y-56099761D01*
X60906248Y-56099767D01*
X60926037Y-56187573D01*
X60954222Y-56312639D01*
X61003780Y-56434686D01*
X61034086Y-56509321D01*
X61038266Y-56519616D01*
X61059196Y-56553770D01*
X61129699Y-56668821D01*
X61154987Y-56710088D01*
X61158367Y-56713990D01*
X61188035Y-56748239D01*
X61301250Y-56878938D01*
X61473126Y-57021632D01*
X61666000Y-57134338D01*
X61874692Y-57214030D01*
X61879760Y-57215061D01*
X61879763Y-57215062D01*
X61987017Y-57236883D01*
X62093597Y-57258567D01*
X62098772Y-57258757D01*
X62098774Y-57258757D01*
X62311673Y-57266564D01*
X62311677Y-57266564D01*
X62316837Y-57266753D01*
X62321957Y-57266097D01*
X62321959Y-57266097D01*
X62533288Y-57239025D01*
X62533289Y-57239025D01*
X62538416Y-57238368D01*
X62543366Y-57236883D01*
X62747429Y-57175661D01*
X62747434Y-57175659D01*
X62752384Y-57174174D01*
X62952994Y-57075896D01*
X63134860Y-56946173D01*
X63158489Y-56922627D01*
X63216209Y-56865107D01*
X63293096Y-56788489D01*
X63319023Y-56752408D01*
X63379086Y-56668821D01*
X63435081Y-56625173D01*
X63469253Y-56617732D01*
X63469252Y-56617725D01*
X63476729Y-56616420D01*
X63476731Y-56616420D01*
X63530194Y-56607089D01*
X63532203Y-56606738D01*
X63538721Y-56605777D01*
X63602142Y-56598102D01*
X63609243Y-56595419D01*
X63611852Y-56594778D01*
X63628162Y-56590315D01*
X63630698Y-56589550D01*
X63638184Y-56588243D01*
X63696700Y-56562556D01*
X63702804Y-56560065D01*
X63704599Y-56559387D01*
X63732725Y-56548759D01*
X63755448Y-56540173D01*
X63755449Y-56540172D01*
X63762556Y-56537487D01*
X63768819Y-56533183D01*
X63771185Y-56531946D01*
X63785997Y-56523701D01*
X63788251Y-56522368D01*
X63795205Y-56519315D01*
X63845902Y-56480413D01*
X63851232Y-56476541D01*
X63897620Y-56444661D01*
X63897625Y-56444656D01*
X63903881Y-56440357D01*
X63929422Y-56411691D01*
X63945335Y-56393830D01*
X63950316Y-56388554D01*
X64770000Y-55568870D01*
X64770000Y-57576895D01*
X51931747Y-70415148D01*
X51923461Y-70422688D01*
X51916982Y-70426800D01*
X51911557Y-70432577D01*
X51870357Y-70476451D01*
X51867602Y-70479293D01*
X51847865Y-70499030D01*
X51845385Y-70502227D01*
X51837682Y-70511247D01*
X51807414Y-70543479D01*
X51803595Y-70550425D01*
X51803593Y-70550428D01*
X51797652Y-70561234D01*
X51786801Y-70577753D01*
X51774386Y-70593759D01*
X51771241Y-70601028D01*
X51771238Y-70601032D01*
X51756826Y-70634337D01*
X51751609Y-70644987D01*
X51730305Y-70683740D01*
X51728334Y-70691415D01*
X51728334Y-70691416D01*
X51725267Y-70703362D01*
X51718863Y-70722066D01*
X51710819Y-70740655D01*
X51709580Y-70748478D01*
X51709577Y-70748488D01*
X51703901Y-70784324D01*
X51701495Y-70795944D01*
X51692593Y-70830617D01*
X51690500Y-70838770D01*
X51690500Y-70859024D01*
X51688949Y-70878734D01*
X51685780Y-70898743D01*
X51308500Y-70898743D01*
X51308500Y-38734500D01*
X51328502Y-38666379D01*
X51382158Y-38619886D01*
X51434500Y-38608500D01*
X93345500Y-38608500D01*
X93413621Y-38628502D01*
G37*
%TD.AperFunction*%
%TA.AperFunction,Conductor*%
G36*
X77683871Y-95621302D02*
G01*
X77735076Y-95656861D01*
X77786250Y-95715938D01*
X77958126Y-95858632D01*
X78000322Y-95883289D01*
X78031955Y-95901774D01*
X78080679Y-95953412D01*
X78093750Y-96023195D01*
X78067019Y-96088967D01*
X78026562Y-96122327D01*
X78018457Y-96126546D01*
X78009738Y-96132036D01*
X77839433Y-96259905D01*
X77831726Y-96266748D01*
X77684590Y-96420717D01*
X77678104Y-96428727D01*
X77558098Y-96604649D01*
X77553000Y-96613623D01*
X77463338Y-96806783D01*
X77459775Y-96816470D01*
X77404389Y-97016183D01*
X77405912Y-97024607D01*
X77418292Y-97028000D01*
X78868000Y-97028000D01*
X78936121Y-97048002D01*
X78982614Y-97101658D01*
X78994000Y-97154000D01*
X78994000Y-97410000D01*
X78973998Y-97478121D01*
X78920342Y-97524614D01*
X78868000Y-97536000D01*
X77423225Y-97536000D01*
X77409694Y-97539973D01*
X77408257Y-97549966D01*
X77438565Y-97684446D01*
X77441645Y-97694275D01*
X77521770Y-97891603D01*
X77526413Y-97900794D01*
X77637694Y-98082388D01*
X77643777Y-98090699D01*
X77783213Y-98251667D01*
X77790580Y-98258883D01*
X77954434Y-98394916D01*
X77962881Y-98400831D01*
X78031969Y-98441203D01*
X78080693Y-98492842D01*
X78093764Y-98562625D01*
X78067033Y-98628396D01*
X78026584Y-98661752D01*
X78013607Y-98668507D01*
X78009474Y-98671610D01*
X78009471Y-98671612D01*
X77844589Y-98795409D01*
X77834965Y-98802635D01*
X77680629Y-98964138D01*
X77677715Y-98968410D01*
X77677714Y-98968411D01*
X77660767Y-98993255D01*
X77554743Y-99148680D01*
X77536145Y-99188746D01*
X77466497Y-99338791D01*
X77460688Y-99351305D01*
X77400989Y-99566570D01*
X77377251Y-99788695D01*
X77377548Y-99793848D01*
X77377548Y-99793851D01*
X77383011Y-99888590D01*
X77390110Y-100011715D01*
X77391247Y-100016761D01*
X77391248Y-100016767D01*
X77409832Y-100099226D01*
X77439222Y-100229639D01*
X77523266Y-100436616D01*
X77525965Y-100441020D01*
X77627441Y-100606614D01*
X77639987Y-100627088D01*
X77786250Y-100795938D01*
X77790230Y-100799242D01*
X77794981Y-100803187D01*
X77834616Y-100862090D01*
X77836113Y-100933071D01*
X77798997Y-100993593D01*
X77758725Y-101018112D01*
X77670997Y-101051000D01*
X77643295Y-101061385D01*
X77526739Y-101148739D01*
X77493519Y-101193065D01*
X77436662Y-101235579D01*
X77365844Y-101240605D01*
X77303599Y-101206594D01*
X74215752Y-98118747D01*
X74208212Y-98110461D01*
X74204100Y-98103982D01*
X74154448Y-98057356D01*
X74151607Y-98054602D01*
X74131870Y-98034865D01*
X74128673Y-98032385D01*
X74119651Y-98024680D01*
X74093200Y-97999841D01*
X74087421Y-97994414D01*
X74080475Y-97990595D01*
X74080472Y-97990593D01*
X74069666Y-97984652D01*
X74053147Y-97973801D01*
X74052683Y-97973441D01*
X74037141Y-97961386D01*
X74029872Y-97958241D01*
X74029868Y-97958238D01*
X73996563Y-97943826D01*
X73985913Y-97938609D01*
X73947160Y-97917305D01*
X73927537Y-97912267D01*
X73908834Y-97905863D01*
X73897520Y-97900967D01*
X73897519Y-97900967D01*
X73890245Y-97897819D01*
X73882422Y-97896580D01*
X73882412Y-97896577D01*
X73846576Y-97890901D01*
X73834956Y-97888495D01*
X73799811Y-97879472D01*
X73799810Y-97879472D01*
X73792130Y-97877500D01*
X73771876Y-97877500D01*
X73752165Y-97875949D01*
X73739986Y-97874020D01*
X73732157Y-97872780D01*
X73724265Y-97873526D01*
X73688139Y-97876941D01*
X73676281Y-97877500D01*
X72425576Y-97877500D01*
X72357455Y-97857498D01*
X72310962Y-97803842D01*
X72300858Y-97733568D01*
X72311381Y-97698250D01*
X72318475Y-97683038D01*
X72322221Y-97672745D01*
X72377025Y-97468214D01*
X72378928Y-97457419D01*
X72397384Y-97246475D01*
X72397384Y-97235525D01*
X72378928Y-97024581D01*
X72377025Y-97013786D01*
X72322221Y-96809255D01*
X72318475Y-96798963D01*
X72284988Y-96727150D01*
X72274327Y-96656958D01*
X72303307Y-96592145D01*
X72362727Y-96553289D01*
X72399183Y-96547900D01*
X76311933Y-96547900D01*
X76323116Y-96548427D01*
X76330609Y-96550102D01*
X76338535Y-96549853D01*
X76338536Y-96549853D01*
X76398686Y-96547962D01*
X76402645Y-96547900D01*
X76430556Y-96547900D01*
X76434491Y-96547403D01*
X76434556Y-96547395D01*
X76446393Y-96546462D01*
X76478651Y-96545448D01*
X76482670Y-96545322D01*
X76490589Y-96545073D01*
X76510043Y-96539421D01*
X76529400Y-96535413D01*
X76541630Y-96533868D01*
X76541631Y-96533868D01*
X76549497Y-96532874D01*
X76556868Y-96529955D01*
X76556870Y-96529955D01*
X76590612Y-96516596D01*
X76601842Y-96512751D01*
X76636683Y-96502629D01*
X76636684Y-96502629D01*
X76644293Y-96500418D01*
X76651112Y-96496385D01*
X76651117Y-96496383D01*
X76661728Y-96490107D01*
X76679476Y-96481412D01*
X76698317Y-96473952D01*
X76734087Y-96447964D01*
X76744007Y-96441448D01*
X76775235Y-96422980D01*
X76775238Y-96422978D01*
X76782062Y-96418942D01*
X76796383Y-96404621D01*
X76811417Y-96391780D01*
X76821394Y-96384531D01*
X76827807Y-96379872D01*
X76832857Y-96373768D01*
X76832862Y-96373763D01*
X76855993Y-96345802D01*
X76863983Y-96337021D01*
X77550743Y-95650262D01*
X77613055Y-95616237D01*
X77683871Y-95621302D01*
G37*
%TD.AperFunction*%
%TA.AperFunction,Conductor*%
G36*
X80338595Y-64307500D02*
G01*
X80276283Y-64341526D01*
X80205468Y-64336461D01*
X80148632Y-64293914D01*
X80123821Y-64227394D01*
X80123500Y-64218405D01*
X80123500Y-63139866D01*
X80116745Y-63077684D01*
X80065615Y-62941295D01*
X79978261Y-62824739D01*
X79861705Y-62737385D01*
X79725316Y-62686255D01*
X79663134Y-62679500D01*
X79524500Y-62679500D01*
X79456379Y-62659498D01*
X79409886Y-62605842D01*
X79398500Y-62553500D01*
X79398500Y-60706000D01*
X83940095Y-60706000D01*
X80338595Y-64307500D01*
G37*
%TD.AperFunction*%
%TD*%
M02*
