%TF.GenerationSoftware,KiCad,Pcbnew,(6.0.7)*%
%TF.CreationDate,2023-08-30T15:26:21+09:00*%
%TF.ProjectId,graduate-project,67726164-7561-4746-952d-70726f6a6563,rev?*%
%TF.SameCoordinates,Original*%
%TF.FileFunction,Soldermask,Top*%
%TF.FilePolarity,Negative*%
%FSLAX46Y46*%
G04 Gerber Fmt 4.6, Leading zero omitted, Abs format (unit mm)*
G04 Created by KiCad (PCBNEW (6.0.7)) date 2023-08-30 15:26:21*
%MOMM*%
%LPD*%
G01*
G04 APERTURE LIST*
G04 Aperture macros list*
%AMRoundRect*
0 Rectangle with rounded corners*
0 $1 Rounding radius*
0 $2 $3 $4 $5 $6 $7 $8 $9 X,Y pos of 4 corners*
0 Add a 4 corners polygon primitive as box body*
4,1,4,$2,$3,$4,$5,$6,$7,$8,$9,$2,$3,0*
0 Add four circle primitives for the rounded corners*
1,1,$1+$1,$2,$3*
1,1,$1+$1,$4,$5*
1,1,$1+$1,$6,$7*
1,1,$1+$1,$8,$9*
0 Add four rect primitives between the rounded corners*
20,1,$1+$1,$2,$3,$4,$5,0*
20,1,$1+$1,$4,$5,$6,$7,0*
20,1,$1+$1,$6,$7,$8,$9,0*
20,1,$1+$1,$8,$9,$2,$3,0*%
G04 Aperture macros list end*
%ADD10RoundRect,0.122500X-0.764500X-0.184500X0.764500X-0.184500X0.764500X0.184500X-0.764500X0.184500X0*%
%ADD11RoundRect,0.102000X-1.240000X-1.700000X1.240000X-1.700000X1.240000X1.700000X-1.240000X1.700000X0*%
%ADD12R,1.700000X1.700000*%
%ADD13O,1.700000X1.700000*%
%ADD14R,1.800000X1.800000*%
%ADD15C,1.800000*%
%ADD16RoundRect,0.200000X0.275000X-0.200000X0.275000X0.200000X-0.275000X0.200000X-0.275000X-0.200000X0*%
%ADD17RoundRect,0.225000X0.250000X-0.225000X0.250000X0.225000X-0.250000X0.225000X-0.250000X-0.225000X0*%
%ADD18RoundRect,0.225000X-0.250000X0.225000X-0.250000X-0.225000X0.250000X-0.225000X0.250000X0.225000X0*%
%ADD19R,1.530000X1.530000*%
%ADD20C,1.530000*%
%ADD21R,3.800000X3.800000*%
%ADD22C,4.000000*%
G04 APERTURE END LIST*
D10*
%TO.C,U2*%
X69774000Y-53605000D03*
X69774000Y-54255000D03*
X69774000Y-54905000D03*
X69774000Y-55555000D03*
X69774000Y-56205000D03*
X69774000Y-56855000D03*
X69774000Y-57505000D03*
X69774000Y-58155000D03*
X75514000Y-58155000D03*
X75514000Y-57505000D03*
X75514000Y-56855000D03*
X75514000Y-56205000D03*
X75514000Y-55555000D03*
X75514000Y-54905000D03*
X75514000Y-54255000D03*
X75514000Y-53605000D03*
D11*
X72644000Y-55880000D03*
%TD*%
D10*
%TO.C,U3*%
X69774000Y-41159000D03*
X69774000Y-41809000D03*
X69774000Y-42459000D03*
X69774000Y-43109000D03*
X69774000Y-43759000D03*
X69774000Y-44409000D03*
X69774000Y-45059000D03*
X69774000Y-45709000D03*
X75514000Y-45709000D03*
X75514000Y-45059000D03*
X75514000Y-44409000D03*
X75514000Y-43759000D03*
X75514000Y-43109000D03*
X75514000Y-42459000D03*
X75514000Y-41809000D03*
X75514000Y-41159000D03*
D11*
X72644000Y-43434000D03*
%TD*%
D12*
%TO.C,J2*%
X78765000Y-64038000D03*
D13*
X78765000Y-66578000D03*
X78765000Y-69118000D03*
X78765000Y-71658000D03*
X78765000Y-74198000D03*
X78765000Y-76738000D03*
X78765000Y-79278000D03*
X78765000Y-81818000D03*
X78765000Y-84358000D03*
X78765000Y-86898000D03*
%TD*%
D14*
%TO.C,D1*%
X78100000Y-110490000D03*
D15*
X80640000Y-110490000D03*
%TD*%
D16*
%TO.C,R2*%
X63500000Y-80390000D03*
X63500000Y-78740000D03*
%TD*%
D17*
%TO.C,C3*%
X81026000Y-55131000D03*
X81026000Y-53581000D03*
%TD*%
D18*
%TO.C,C2*%
X81026000Y-44183000D03*
X81026000Y-45733000D03*
%TD*%
D16*
%TO.C,R1*%
X63500000Y-74485000D03*
X63500000Y-72835000D03*
%TD*%
D14*
%TO.C,D2*%
X86355000Y-110490000D03*
D15*
X88895000Y-110490000D03*
%TD*%
D16*
%TO.C,R4*%
X66040000Y-106870000D03*
X66040000Y-105220000D03*
%TD*%
%TO.C,R5*%
X60960000Y-106870000D03*
X60960000Y-105220000D03*
%TD*%
D19*
%TO.C,U1*%
X71120000Y-104861000D03*
D20*
X71120000Y-102321000D03*
X71120000Y-99781000D03*
X71120000Y-97241000D03*
X71120000Y-94701000D03*
X71120000Y-92161000D03*
X71120000Y-89621000D03*
X71120000Y-87081000D03*
X71120000Y-84541000D03*
X71120000Y-82001000D03*
X71120000Y-79461000D03*
X71120000Y-76921000D03*
X71120000Y-74381000D03*
X71120000Y-71841000D03*
X71120000Y-69301000D03*
D19*
X55880000Y-104861000D03*
D20*
X55880000Y-102321000D03*
X55880000Y-99781000D03*
X55880000Y-97241000D03*
X55880000Y-94701000D03*
X55880000Y-92161000D03*
X55880000Y-89621000D03*
X55880000Y-87081000D03*
X55880000Y-84541000D03*
X55880000Y-82001000D03*
X55880000Y-79461000D03*
X55880000Y-76921000D03*
X55880000Y-74381000D03*
X55880000Y-71841000D03*
X55880000Y-69301000D03*
%TD*%
D18*
%TO.C,C5*%
X83820000Y-48755000D03*
X83820000Y-50305000D03*
%TD*%
D12*
%TO.C,J5*%
X53619000Y-43205000D03*
D13*
X53619000Y-45745000D03*
X53619000Y-48285000D03*
X53619000Y-50825000D03*
X53619000Y-53365000D03*
X53619000Y-55905000D03*
%TD*%
D18*
%TO.C,C6*%
X81026000Y-48755000D03*
X81026000Y-50305000D03*
%TD*%
D12*
%TO.C,J3*%
X78740000Y-102362000D03*
D13*
X78740000Y-99822000D03*
X78740000Y-97282000D03*
X78740000Y-94742000D03*
%TD*%
D21*
%TO.C,J1*%
X89408000Y-46776000D03*
D22*
X89408000Y-51776000D03*
%TD*%
D18*
%TO.C,C4*%
X81026000Y-56629000D03*
X81026000Y-58179000D03*
%TD*%
D17*
%TO.C,C1*%
X81026000Y-42685000D03*
X81026000Y-41135000D03*
%TD*%
D13*
%TO.C,J4*%
X62255000Y-55905000D03*
X62255000Y-53365000D03*
X62255000Y-50825000D03*
X62255000Y-48285000D03*
X62255000Y-45745000D03*
D12*
X62255000Y-43205000D03*
%TD*%
M02*
