M48
; DRILL file {KiCad (6.0.7)} date Wed Aug 30 15:26:21 2023
; FORMAT={-:-/ absolute / inch / decimal}
; #@! TF.CreationDate,2023-08-30T15:26:21+09:00
; #@! TF.GenerationSoftware,Kicad,Pcbnew,(6.0.7)
; #@! TF.FileFunction,Plated,1,2,PTH
FMAT,2
INCH
; #@! TA.AperFunction,Plated,PTH,ViaDrill
T1C0.0157
; #@! TA.AperFunction,Plated,PTH,ComponentDrill
T2C0.0157
; #@! TA.AperFunction,Plated,PTH,ComponentDrill
T3C0.0354
; #@! TA.AperFunction,Plated,PTH,ComponentDrill
T4C0.0394
; #@! TA.AperFunction,Plated,PTH,ComponentDrill
T5C0.0402
; #@! TA.AperFunction,Plated,PTH,ComponentDrill
T6C0.1063
%
G90
G05
T1
X2.3457Y-3.92
X2.444Y-4.2075
X2.5461Y-2.8442
X2.6503Y-1.7728
X2.6681Y-2.2637
X2.6792Y-2.1729
X2.6914Y-2.1327
X2.6919Y-2.2957
X2.7281Y-2.0785
X2.747Y-1.8442
X2.9434Y-1.9309
X2.9863Y-2.3224
X3.0437Y-2.0397
T2
X2.84Y-1.67
X2.84Y-1.71
X2.84Y-1.75
X2.84Y-2.16
X2.84Y-2.2
X2.84Y-2.24
X2.88Y-1.67
X2.88Y-1.71
X2.88Y-1.75
X2.88Y-2.16
X2.88Y-2.2
X2.88Y-2.24
T3
X3.0748Y-4.35
X3.1748Y-4.35
X3.3998Y-4.35
X3.4998Y-4.35
T4
X2.111Y-1.701
X2.111Y-1.801
X2.111Y-1.901
X2.111Y-2.001
X2.111Y-2.101
X2.111Y-2.201
X2.451Y-1.701
X2.451Y-1.801
X2.451Y-1.901
X2.451Y-2.001
X2.451Y-2.101
X2.451Y-2.201
X3.1Y-3.73
X3.1Y-3.83
X3.1Y-3.93
X3.1Y-4.03
X3.101Y-2.5212
X3.101Y-2.6212
X3.101Y-2.7212
X3.101Y-2.8212
X3.101Y-2.9212
X3.101Y-3.0212
X3.101Y-3.1212
X3.101Y-3.2212
X3.101Y-3.3212
X3.101Y-3.4212
T5
X2.2Y-2.7284
X2.2Y-2.8284
X2.2Y-2.9284
X2.2Y-3.0284
X2.2Y-3.1284
X2.2Y-3.2284
X2.2Y-3.3284
X2.2Y-3.4284
X2.2Y-3.5284
X2.2Y-3.6284
X2.2Y-3.7284
X2.2Y-3.8284
X2.2Y-3.9284
X2.2Y-4.0284
X2.2Y-4.1284
X2.8Y-2.7284
X2.8Y-2.8284
X2.8Y-2.9284
X2.8Y-3.0284
X2.8Y-3.1284
X2.8Y-3.2284
X2.8Y-3.3284
X2.8Y-3.4284
X2.8Y-3.5284
X2.8Y-3.6284
X2.8Y-3.7284
X2.8Y-3.8284
X2.8Y-3.9284
X2.8Y-4.0284
X2.8Y-4.1284
T6
X3.52Y-1.8416
X3.52Y-2.0384
T0
M30
