%TF.GenerationSoftware,KiCad,Pcbnew,(6.0.7)*%
%TF.CreationDate,2023-08-30T15:26:21+09:00*%
%TF.ProjectId,graduate-project,67726164-7561-4746-952d-70726f6a6563,rev?*%
%TF.SameCoordinates,Original*%
%TF.FileFunction,Paste,Top*%
%TF.FilePolarity,Positive*%
%FSLAX46Y46*%
G04 Gerber Fmt 4.6, Leading zero omitted, Abs format (unit mm)*
G04 Created by KiCad (PCBNEW (6.0.7)) date 2023-08-30 15:26:21*
%MOMM*%
%LPD*%
G01*
G04 APERTURE LIST*
G04 Aperture macros list*
%AMRoundRect*
0 Rectangle with rounded corners*
0 $1 Rounding radius*
0 $2 $3 $4 $5 $6 $7 $8 $9 X,Y pos of 4 corners*
0 Add a 4 corners polygon primitive as box body*
4,1,4,$2,$3,$4,$5,$6,$7,$8,$9,$2,$3,0*
0 Add four circle primitives for the rounded corners*
1,1,$1+$1,$2,$3*
1,1,$1+$1,$4,$5*
1,1,$1+$1,$6,$7*
1,1,$1+$1,$8,$9*
0 Add four rect primitives between the rounded corners*
20,1,$1+$1,$2,$3,$4,$5,0*
20,1,$1+$1,$4,$5,$6,$7,0*
20,1,$1+$1,$6,$7,$8,$9,0*
20,1,$1+$1,$8,$9,$2,$3,0*%
G04 Aperture macros list end*
%ADD10C,0.010000*%
%ADD11RoundRect,0.020500X-0.764500X-0.184500X0.764500X-0.184500X0.764500X0.184500X-0.764500X0.184500X0*%
%ADD12RoundRect,0.200000X0.275000X-0.200000X0.275000X0.200000X-0.275000X0.200000X-0.275000X-0.200000X0*%
%ADD13RoundRect,0.225000X0.250000X-0.225000X0.250000X0.225000X-0.250000X0.225000X-0.250000X-0.225000X0*%
%ADD14RoundRect,0.225000X-0.250000X0.225000X-0.250000X-0.225000X0.250000X-0.225000X0.250000X0.225000X0*%
G04 APERTURE END LIST*
%TO.C,U2*%
G36*
X73444000Y-56955000D02*
G01*
X71844000Y-56955000D01*
X71844000Y-54805000D01*
X73444000Y-54805000D01*
X73444000Y-56955000D01*
G37*
D10*
X73444000Y-56955000D02*
X71844000Y-56955000D01*
X71844000Y-54805000D01*
X73444000Y-54805000D01*
X73444000Y-56955000D01*
%TO.C,U3*%
G36*
X73444000Y-44509000D02*
G01*
X71844000Y-44509000D01*
X71844000Y-42359000D01*
X73444000Y-42359000D01*
X73444000Y-44509000D01*
G37*
X73444000Y-44509000D02*
X71844000Y-44509000D01*
X71844000Y-42359000D01*
X73444000Y-42359000D01*
X73444000Y-44509000D01*
%TD*%
D11*
%TO.C,U2*%
X69774000Y-53605000D03*
X69774000Y-54255000D03*
X69774000Y-54905000D03*
X69774000Y-55555000D03*
X69774000Y-56205000D03*
X69774000Y-56855000D03*
X69774000Y-57505000D03*
X69774000Y-58155000D03*
X75514000Y-58155000D03*
X75514000Y-57505000D03*
X75514000Y-56855000D03*
X75514000Y-56205000D03*
X75514000Y-55555000D03*
X75514000Y-54905000D03*
X75514000Y-54255000D03*
X75514000Y-53605000D03*
%TD*%
%TO.C,U3*%
X69774000Y-41159000D03*
X69774000Y-41809000D03*
X69774000Y-42459000D03*
X69774000Y-43109000D03*
X69774000Y-43759000D03*
X69774000Y-44409000D03*
X69774000Y-45059000D03*
X69774000Y-45709000D03*
X75514000Y-45709000D03*
X75514000Y-45059000D03*
X75514000Y-44409000D03*
X75514000Y-43759000D03*
X75514000Y-43109000D03*
X75514000Y-42459000D03*
X75514000Y-41809000D03*
X75514000Y-41159000D03*
%TD*%
D12*
%TO.C,R2*%
X63500000Y-80390000D03*
X63500000Y-78740000D03*
%TD*%
D13*
%TO.C,C3*%
X81026000Y-55131000D03*
X81026000Y-53581000D03*
%TD*%
D14*
%TO.C,C2*%
X81026000Y-44183000D03*
X81026000Y-45733000D03*
%TD*%
D12*
%TO.C,R1*%
X63500000Y-74485000D03*
X63500000Y-72835000D03*
%TD*%
%TO.C,R4*%
X66040000Y-106870000D03*
X66040000Y-105220000D03*
%TD*%
%TO.C,R5*%
X60960000Y-106870000D03*
X60960000Y-105220000D03*
%TD*%
D14*
%TO.C,C5*%
X83820000Y-48755000D03*
X83820000Y-50305000D03*
%TD*%
%TO.C,C6*%
X81026000Y-48755000D03*
X81026000Y-50305000D03*
%TD*%
%TO.C,C4*%
X81026000Y-56629000D03*
X81026000Y-58179000D03*
%TD*%
D13*
%TO.C,C1*%
X81026000Y-42685000D03*
X81026000Y-41135000D03*
%TD*%
M02*
