%TF.GenerationSoftware,KiCad,Pcbnew,(6.0.7)*%
%TF.CreationDate,2023-08-30T15:26:21+09:00*%
%TF.ProjectId,graduate-project,67726164-7561-4746-952d-70726f6a6563,rev?*%
%TF.SameCoordinates,Original*%
%TF.FileFunction,Copper,L1,Top*%
%TF.FilePolarity,Positive*%
%FSLAX46Y46*%
G04 Gerber Fmt 4.6, Leading zero omitted, Abs format (unit mm)*
G04 Created by KiCad (PCBNEW (6.0.7)) date 2023-08-30 15:26:21*
%MOMM*%
%LPD*%
G01*
G04 APERTURE LIST*
G04 Aperture macros list*
%AMRoundRect*
0 Rectangle with rounded corners*
0 $1 Rounding radius*
0 $2 $3 $4 $5 $6 $7 $8 $9 X,Y pos of 4 corners*
0 Add a 4 corners polygon primitive as box body*
4,1,4,$2,$3,$4,$5,$6,$7,$8,$9,$2,$3,0*
0 Add four circle primitives for the rounded corners*
1,1,$1+$1,$2,$3*
1,1,$1+$1,$4,$5*
1,1,$1+$1,$6,$7*
1,1,$1+$1,$8,$9*
0 Add four rect primitives between the rounded corners*
20,1,$1+$1,$2,$3,$4,$5,0*
20,1,$1+$1,$4,$5,$6,$7,0*
20,1,$1+$1,$6,$7,$8,$9,0*
20,1,$1+$1,$8,$9,$2,$3,0*%
G04 Aperture macros list end*
%TA.AperFunction,SMDPad,CuDef*%
%ADD10RoundRect,0.020500X-0.764500X-0.184500X0.764500X-0.184500X0.764500X0.184500X-0.764500X0.184500X0*%
%TD*%
%TA.AperFunction,SMDPad,CuDef*%
%ADD11R,2.480000X3.400000*%
%TD*%
%TA.AperFunction,ComponentPad*%
%ADD12C,0.600000*%
%TD*%
%TA.AperFunction,ComponentPad*%
%ADD13R,1.700000X1.700000*%
%TD*%
%TA.AperFunction,ComponentPad*%
%ADD14O,1.700000X1.700000*%
%TD*%
%TA.AperFunction,ComponentPad*%
%ADD15R,1.800000X1.800000*%
%TD*%
%TA.AperFunction,ComponentPad*%
%ADD16C,1.800000*%
%TD*%
%TA.AperFunction,SMDPad,CuDef*%
%ADD17RoundRect,0.200000X0.275000X-0.200000X0.275000X0.200000X-0.275000X0.200000X-0.275000X-0.200000X0*%
%TD*%
%TA.AperFunction,SMDPad,CuDef*%
%ADD18RoundRect,0.225000X0.250000X-0.225000X0.250000X0.225000X-0.250000X0.225000X-0.250000X-0.225000X0*%
%TD*%
%TA.AperFunction,SMDPad,CuDef*%
%ADD19RoundRect,0.225000X-0.250000X0.225000X-0.250000X-0.225000X0.250000X-0.225000X0.250000X0.225000X0*%
%TD*%
%TA.AperFunction,ComponentPad*%
%ADD20R,1.530000X1.530000*%
%TD*%
%TA.AperFunction,ComponentPad*%
%ADD21C,1.530000*%
%TD*%
%TA.AperFunction,ComponentPad*%
%ADD22R,3.800000X3.800000*%
%TD*%
%TA.AperFunction,ComponentPad*%
%ADD23C,4.000000*%
%TD*%
%TA.AperFunction,ViaPad*%
%ADD24C,0.800000*%
%TD*%
%TA.AperFunction,Conductor*%
%ADD25C,0.250000*%
%TD*%
%TA.AperFunction,Conductor*%
%ADD26C,0.400000*%
%TD*%
G04 APERTURE END LIST*
D10*
%TO.P,U2,1,EN/IN1*%
%TO.N,M_IN3*%
X69774000Y-53605000D03*
%TO.P,U2,2,PH/IN2*%
%TO.N,M_IN4*%
X69774000Y-54255000D03*
%TO.P,U2,3,NSLEEP*%
%TO.N,M_OFF*%
X69774000Y-54905000D03*
%TO.P,U2,4,NFAULT*%
%TO.N,M_FAULT2*%
X69774000Y-55555000D03*
%TO.P,U2,5,VREF*%
%TO.N,3_3V*%
X69774000Y-56205000D03*
%TO.P,U2,6,IPROPI*%
%TO.N,BATT_GND*%
X69774000Y-56855000D03*
%TO.P,U2,7,IMODE*%
X69774000Y-57505000D03*
%TO.P,U2,8,OUT1*%
%TO.N,Net-(U2-Pad8)*%
X69774000Y-58155000D03*
%TO.P,U2,9,PGND*%
%TO.N,BATT_GND*%
X75514000Y-58155000D03*
%TO.P,U2,10,OUT2*%
%TO.N,Net-(U2-Pad10)*%
X75514000Y-57505000D03*
%TO.P,U2,11,VM*%
%TO.N,BATT_VIN*%
X75514000Y-56855000D03*
%TO.P,U2,12,VCP*%
%TO.N,Net-(C4-Pad1)*%
X75514000Y-56205000D03*
%TO.P,U2,13,CPH*%
%TO.N,Net-(C3-Pad1)*%
X75514000Y-55555000D03*
%TO.P,U2,14,CPL*%
%TO.N,Net-(C3-Pad2)*%
X75514000Y-54905000D03*
%TO.P,U2,15,GND*%
%TO.N,BATT_GND*%
X75514000Y-54255000D03*
%TO.P,U2,16,PMODE*%
%TO.N,ENC_VCC*%
X75514000Y-53605000D03*
D11*
%TO.P,U2,17*%
%TO.N,BATT_GND*%
X72644000Y-55880000D03*
%TD*%
D10*
%TO.P,U3,1,EN/IN1*%
%TO.N,M_IN1*%
X69774000Y-41159000D03*
%TO.P,U3,2,PH/IN2*%
%TO.N,M_IN2*%
X69774000Y-41809000D03*
%TO.P,U3,3,NSLEEP*%
%TO.N,M_OFF*%
X69774000Y-42459000D03*
%TO.P,U3,4,NFAULT*%
%TO.N,M_FAULT1*%
X69774000Y-43109000D03*
%TO.P,U3,5,VREF*%
%TO.N,3_3V*%
X69774000Y-43759000D03*
%TO.P,U3,6,IPROPI*%
%TO.N,BATT_GND*%
X69774000Y-44409000D03*
%TO.P,U3,7,IMODE*%
X69774000Y-45059000D03*
%TO.P,U3,8,OUT1*%
%TO.N,Net-(J5-Pad1)*%
X69774000Y-45709000D03*
%TO.P,U3,9,PGND*%
%TO.N,BATT_GND*%
X75514000Y-45709000D03*
%TO.P,U3,10,OUT2*%
%TO.N,Net-(J5-Pad6)*%
X75514000Y-45059000D03*
%TO.P,U3,11,VM*%
%TO.N,BATT_VIN*%
X75514000Y-44409000D03*
%TO.P,U3,12,VCP*%
%TO.N,Net-(C2-Pad1)*%
X75514000Y-43759000D03*
%TO.P,U3,13,CPH*%
%TO.N,Net-(C1-Pad1)*%
X75514000Y-43109000D03*
%TO.P,U3,14,CPL*%
%TO.N,Net-(C1-Pad2)*%
X75514000Y-42459000D03*
%TO.P,U3,15,GND*%
%TO.N,BATT_GND*%
X75514000Y-41809000D03*
%TO.P,U3,16,PMODE*%
%TO.N,ENC_VCC*%
X75514000Y-41159000D03*
D11*
%TO.P,U3,17*%
%TO.N,BATT_GND*%
X72644000Y-43434000D03*
%TD*%
D12*
%TO.P,,17,PPAD*%
%TO.N,BATT_GND*%
X72136000Y-55880000D03*
%TD*%
%TO.P,,17,PPAD*%
%TO.N,BATT_GND*%
X73152000Y-56896000D03*
%TD*%
%TO.P,,17,PPAD*%
%TO.N,BATT_GND*%
X72136000Y-44450000D03*
%TD*%
%TO.P,,17,PPAD*%
%TO.N,BATT_GND*%
X73152000Y-44450000D03*
%TD*%
%TO.P,,17,PPAD*%
%TO.N,BATT_GND*%
X72136000Y-43434000D03*
%TD*%
%TO.P,,17,PPAD*%
%TO.N,BATT_GND*%
X73152000Y-42418000D03*
%TD*%
%TO.P,,17,PPAD*%
%TO.N,BATT_GND*%
X72136000Y-54864000D03*
%TD*%
%TO.P,,17,PPAD*%
%TO.N,BATT_GND*%
X73152000Y-54864000D03*
%TD*%
%TO.P,,17,PPAD*%
%TO.N,BATT_GND*%
X73152000Y-43434000D03*
%TD*%
%TO.P,,17,PPAD*%
%TO.N,BATT_GND*%
X72136000Y-42418000D03*
%TD*%
%TO.P,,17,PPAD*%
%TO.N,BATT_GND*%
X73152000Y-55880000D03*
%TD*%
%TO.P,,17,PPAD*%
%TO.N,BATT_GND*%
X72136000Y-56896000D03*
%TD*%
D13*
%TO.P,J2,1,VCC*%
%TO.N,ENC_VCC*%
X78765000Y-64038000D03*
D14*
%TO.P,J2,2,GND*%
%TO.N,BATT_GND*%
X78765000Y-66578000D03*
%TO.P,J2,3,SCL*%
%TO.N,GY_SCL*%
X78765000Y-69118000D03*
%TO.P,J2,4,SDA*%
%TO.N,GY_SDA*%
X78765000Y-71658000D03*
%TO.P,J2,5,EDA*%
%TO.N,unconnected-(J2-Pad5)*%
X78765000Y-74198000D03*
%TO.P,J2,6,ECL*%
%TO.N,unconnected-(J2-Pad6)*%
X78765000Y-76738000D03*
%TO.P,J2,7,AD0*%
%TO.N,unconnected-(J2-Pad7)*%
X78765000Y-79278000D03*
%TO.P,J2,8,INT*%
%TO.N,GY_INT*%
X78765000Y-81818000D03*
%TO.P,J2,9,NCS*%
%TO.N,unconnected-(J2-Pad9)*%
X78765000Y-84358000D03*
%TO.P,J2,10,FSYNC*%
%TO.N,unconnected-(J2-Pad10)*%
X78765000Y-86898000D03*
%TD*%
D15*
%TO.P,D1,1,K*%
%TO.N,BATT_GND*%
X78100000Y-110490000D03*
D16*
%TO.P,D1,2,A*%
%TO.N,Net-(D1-Pad2)*%
X80640000Y-110490000D03*
%TD*%
D17*
%TO.P,R2,1*%
%TO.N,BATT_GND*%
X63500000Y-80390000D03*
%TO.P,R2,2*%
%TO.N,Net-(R1-Pad1)*%
X63500000Y-78740000D03*
%TD*%
D18*
%TO.P,C3,1*%
%TO.N,Net-(C3-Pad1)*%
X81026000Y-55131000D03*
%TO.P,C3,2*%
%TO.N,Net-(C3-Pad2)*%
X81026000Y-53581000D03*
%TD*%
D19*
%TO.P,C2,1*%
%TO.N,Net-(C2-Pad1)*%
X81026000Y-44183000D03*
%TO.P,C2,2*%
%TO.N,BATT_VIN*%
X81026000Y-45733000D03*
%TD*%
D17*
%TO.P,R1,1*%
%TO.N,Net-(R1-Pad1)*%
X63500000Y-74485000D03*
%TO.P,R1,2*%
%TO.N,BATT_VIN*%
X63500000Y-72835000D03*
%TD*%
D15*
%TO.P,D2,1,K*%
%TO.N,BATT_GND*%
X86355000Y-110490000D03*
D16*
%TO.P,D2,2,A*%
%TO.N,Net-(D2-Pad2)*%
X88895000Y-110490000D03*
%TD*%
D17*
%TO.P,R4,1*%
%TO.N,Net-(D1-Pad2)*%
X66040000Y-106870000D03*
%TO.P,R4,2*%
%TO.N,LED_ERR*%
X66040000Y-105220000D03*
%TD*%
%TO.P,R5,1*%
%TO.N,Net-(D2-Pad2)*%
X60960000Y-106870000D03*
%TO.P,R5,2*%
%TO.N,LED_RUN*%
X60960000Y-105220000D03*
%TD*%
D20*
%TO.P,U1,CN3_1,PA9*%
%TO.N,ENC_1B*%
X71120000Y-104861000D03*
D21*
%TO.P,U1,CN3_2,PA10*%
%TO.N,M_IN2*%
X71120000Y-102321000D03*
%TO.P,U1,CN3_3,NRST_CN3*%
%TO.N,unconnected-(U1-PadCN3_3)*%
X71120000Y-99781000D03*
%TO.P,U1,CN3_4,GND_CN3*%
%TO.N,BATT_GND*%
X71120000Y-97241000D03*
%TO.P,U1,CN3_5,PA12*%
%TO.N,unconnected-(U1-PadCN3_5)*%
X71120000Y-94701000D03*
%TO.P,U1,CN3_6,PB0*%
%TO.N,M_FAULT1*%
X71120000Y-92161000D03*
%TO.P,U1,CN3_7,PB7*%
%TO.N,GY_SDA*%
X71120000Y-89621000D03*
%TO.P,U1,CN3_8,PB6*%
%TO.N,GY_SCL*%
X71120000Y-87081000D03*
%TO.P,U1,CN3_9,PB1*%
%TO.N,GY_INT*%
X71120000Y-84541000D03*
%TO.P,U1,CN3_10,PC14*%
%TO.N,unconnected-(U1-PadCN3_10)*%
X71120000Y-82001000D03*
%TO.P,U1,CN3_11,PC15*%
%TO.N,unconnected-(U1-PadCN3_11)*%
X71120000Y-79461000D03*
%TO.P,U1,CN3_12,PA8*%
%TO.N,ENC_1A*%
X71120000Y-76921000D03*
%TO.P,U1,CN3_13,PA11*%
%TO.N,M_IN1*%
X71120000Y-74381000D03*
%TO.P,U1,CN3_14,PB5*%
%TO.N,unconnected-(U1-PadCN3_14)*%
X71120000Y-71841000D03*
%TO.P,U1,CN3_15,PB4*%
%TO.N,LED_ERR*%
X71120000Y-69301000D03*
D20*
%TO.P,U1,CN4_1,VIN*%
%TO.N,BATT_VIN*%
X55880000Y-104861000D03*
D21*
%TO.P,U1,CN4_2,GND_CN4*%
%TO.N,BATT_GND*%
X55880000Y-102321000D03*
%TO.P,U1,CN4_3,NRST_CN4*%
%TO.N,unconnected-(U1-PadCN4_3)*%
X55880000Y-99781000D03*
%TO.P,U1,CN4_4,+5V*%
%TO.N,ENC_VCC*%
X55880000Y-97241000D03*
%TO.P,U1,CN4_5,PA2*%
%TO.N,HM_RX*%
X55880000Y-94701000D03*
%TO.P,U1,CN4_6,PA7*%
%TO.N,M_OFF*%
X55880000Y-92161000D03*
%TO.P,U1,CN4_7,PA6*%
%TO.N,M_FAULT2*%
X55880000Y-89621000D03*
%TO.P,U1,CN4_8,PA5*%
%TO.N,M_IN4*%
X55880000Y-87081000D03*
%TO.P,U1,CN4_9,PA4*%
%TO.N,unconnected-(U1-PadCN4_9)*%
X55880000Y-84541000D03*
%TO.P,U1,CN4_10,PA3*%
%TO.N,HM_TX*%
X55880000Y-82001000D03*
%TO.P,U1,CN4_11,PA1*%
%TO.N,M_IN3*%
X55880000Y-79461000D03*
%TO.P,U1,CN4_12,PA0*%
%TO.N,Net-(R1-Pad1)*%
X55880000Y-76921000D03*
%TO.P,U1,CN4_13,AREF*%
%TO.N,unconnected-(U1-PadCN4_13)*%
X55880000Y-74381000D03*
%TO.P,U1,CN4_14,+3V3*%
%TO.N,3_3V*%
X55880000Y-71841000D03*
%TO.P,U1,CN4_15,PB3*%
%TO.N,LED_RUN*%
X55880000Y-69301000D03*
%TD*%
D19*
%TO.P,C5,1*%
%TO.N,BATT_GND*%
X83820000Y-48755000D03*
%TO.P,C5,2*%
%TO.N,BATT_VIN*%
X83820000Y-50305000D03*
%TD*%
D13*
%TO.P,J5,1,M+*%
%TO.N,Net-(J5-Pad1)*%
X53619000Y-43205000D03*
D14*
%TO.P,J5,2,ENC_VCC*%
%TO.N,ENC_VCC*%
X53619000Y-45745000D03*
%TO.P,J5,3,ENC_A*%
%TO.N,unconnected-(J5-Pad3)*%
X53619000Y-48285000D03*
%TO.P,J5,4,ENC_B*%
%TO.N,unconnected-(J5-Pad4)*%
X53619000Y-50825000D03*
%TO.P,J5,5,ENC_GND*%
%TO.N,BATT_GND*%
X53619000Y-53365000D03*
%TO.P,J5,6,M-*%
%TO.N,Net-(J5-Pad6)*%
X53619000Y-55905000D03*
%TD*%
D19*
%TO.P,C6,1*%
%TO.N,BATT_GND*%
X81026000Y-48755000D03*
%TO.P,C6,2*%
%TO.N,BATT_VIN*%
X81026000Y-50305000D03*
%TD*%
D13*
%TO.P,J3,1,RX*%
%TO.N,HM_RX*%
X78740000Y-102362000D03*
D14*
%TO.P,J3,2,TX*%
%TO.N,HM_TX*%
X78740000Y-99822000D03*
%TO.P,J3,3,GND*%
%TO.N,BATT_GND*%
X78740000Y-97282000D03*
%TO.P,J3,4,VCC*%
%TO.N,ENC_VCC*%
X78740000Y-94742000D03*
%TD*%
D22*
%TO.P,J1,1,Pin_1*%
%TO.N,BATT_GND*%
X89408000Y-46776000D03*
D23*
%TO.P,J1,2,Pin_2*%
%TO.N,BATT_VIN*%
X89408000Y-51776000D03*
%TD*%
D19*
%TO.P,C4,1*%
%TO.N,Net-(C4-Pad1)*%
X81026000Y-56629000D03*
%TO.P,C4,2*%
%TO.N,BATT_VIN*%
X81026000Y-58179000D03*
%TD*%
D18*
%TO.P,C1,1*%
%TO.N,Net-(C1-Pad1)*%
X81026000Y-42685000D03*
%TO.P,C1,2*%
%TO.N,Net-(C1-Pad2)*%
X81026000Y-41135000D03*
%TD*%
D14*
%TO.P,J4,6,M-*%
%TO.N,Net-(U2-Pad10)*%
X62255000Y-55905000D03*
%TO.P,J4,5,ENC_GND*%
%TO.N,BATT_GND*%
X62255000Y-53365000D03*
%TO.P,J4,4,ENC_B*%
%TO.N,ENC_1B*%
X62255000Y-50825000D03*
%TO.P,J4,3,ENC_A*%
%TO.N,ENC_1A*%
X62255000Y-48285000D03*
%TO.P,J4,2,ENC_VCC*%
%TO.N,ENC_VCC*%
X62255000Y-45745000D03*
D13*
%TO.P,J4,1,M+*%
%TO.N,Net-(U2-Pad8)*%
X62255000Y-43205000D03*
%TD*%
D24*
%TO.N,BATT_VIN*%
X59581300Y-99568000D03*
X64670800Y-72242100D03*
%TO.N,Net-(D2-Pad2)*%
X62077700Y-106870000D03*
%TO.N,ENC_VCC*%
X77310000Y-51809000D03*
%TO.N,Net-(J5-Pad1)*%
X69774000Y-46842500D03*
%TO.N,Net-(J5-Pad6)*%
X74762300Y-49045300D03*
%TO.N,M_OFF*%
X68050900Y-55191900D03*
%TO.N,M_IN4*%
X68361200Y-54170600D03*
%TO.N,M_IN3*%
X69293100Y-52794800D03*
%TO.N,Net-(U2-Pad8)*%
X67317100Y-45029200D03*
%TO.N,Net-(U2-Pad10)*%
X75851100Y-58990100D03*
%TO.N,M_FAULT2*%
X67770500Y-57496900D03*
%TO.N,3_3V*%
X68374900Y-58309600D03*
%TD*%
D25*
%TO.N,BATT_VIN*%
X63043300Y-79565000D02*
X59581300Y-83027000D01*
X63911800Y-79565000D02*
X63043300Y-79565000D01*
X59581300Y-83027000D02*
X59581300Y-99568000D01*
X64947700Y-73473800D02*
X64947700Y-78529100D01*
X64308900Y-72835000D02*
X64947700Y-73473800D01*
X64947700Y-78529100D02*
X63911800Y-79565000D01*
%TO.N,LED_ERR*%
X72207000Y-70388000D02*
X71120000Y-69301000D01*
X79786000Y-70388000D02*
X72207000Y-70388000D01*
X81280000Y-88743800D02*
X81280000Y-71882000D01*
X74676000Y-95347800D02*
X81280000Y-88743800D01*
X74676000Y-103632000D02*
X74676000Y-95347800D01*
X81280000Y-71882000D02*
X79786000Y-70388000D01*
X67246000Y-106426000D02*
X71882000Y-106426000D01*
X71882000Y-106426000D02*
X74676000Y-103632000D01*
X66040000Y-105220000D02*
X67246000Y-106426000D01*
%TO.N,M_IN2*%
X68933400Y-41809000D02*
X69774000Y-41809000D01*
X66432000Y-44310400D02*
X68933400Y-41809000D01*
X66432000Y-69001700D02*
X66432000Y-44310400D01*
X70582300Y-73152000D02*
X66432000Y-69001700D01*
X72390000Y-73152000D02*
X70582300Y-73152000D01*
X73152000Y-73914000D02*
X72390000Y-73152000D01*
X73152000Y-87376000D02*
X73152000Y-73914000D01*
X72136000Y-88392000D02*
X73152000Y-87376000D01*
X69342000Y-89662000D02*
X70612000Y-88392000D01*
X70612000Y-90932000D02*
X69342000Y-89662000D01*
X71882000Y-90932000D02*
X70612000Y-90932000D01*
X74168000Y-93218000D02*
X71882000Y-90932000D01*
X70612000Y-88392000D02*
X72136000Y-88392000D01*
X72177000Y-102321000D02*
X74168000Y-100330000D01*
X74168000Y-100330000D02*
X74168000Y-93218000D01*
X71120000Y-102321000D02*
X72177000Y-102321000D01*
%TO.N,M_FAULT1*%
X69809000Y-92161000D02*
X71120000Y-92161000D01*
X67818000Y-90170000D02*
X69809000Y-92161000D01*
X67818000Y-72163300D02*
X67818000Y-90170000D01*
X65532000Y-43897000D02*
X65532000Y-69877300D01*
X70894500Y-40833400D02*
X70633100Y-40572000D01*
X70633100Y-40572000D02*
X68857000Y-40572000D01*
X70894500Y-42804600D02*
X70894500Y-40833400D01*
X65532000Y-69877300D02*
X67818000Y-72163300D01*
X70590100Y-43109000D02*
X70894500Y-42804600D01*
X69774000Y-43109000D02*
X70590100Y-43109000D01*
X68857000Y-40572000D02*
X65532000Y-43897000D01*
%TO.N,ENC_1B*%
X62622800Y-52001900D02*
X62255000Y-52001900D01*
X64399000Y-69618000D02*
X64399000Y-53778100D01*
X67212100Y-72431100D02*
X64399000Y-69618000D01*
X70063000Y-93431000D02*
X67212100Y-90580100D01*
X72095000Y-93431000D02*
X70063000Y-93431000D01*
X73660000Y-94996000D02*
X72095000Y-93431000D01*
X73660000Y-99314000D02*
X73660000Y-94996000D01*
X71923000Y-101051000D02*
X73660000Y-99314000D01*
X69342000Y-102108000D02*
X70399000Y-101051000D01*
X67212100Y-90580100D02*
X67212100Y-72431100D01*
X69342000Y-102870000D02*
X69342000Y-102108000D01*
X70399000Y-101051000D02*
X71923000Y-101051000D01*
X71120000Y-103769000D02*
X70241000Y-103769000D01*
X62255000Y-52001900D02*
X62255000Y-50825000D01*
X71120000Y-104861000D02*
X71120000Y-103769000D01*
X70241000Y-103769000D02*
X69342000Y-102870000D01*
X64399000Y-53778100D02*
X62622800Y-52001900D01*
%TO.N,BATT_GND*%
X60681000Y-53365000D02*
X62255000Y-53365000D01*
X65397700Y-71941000D02*
X60198000Y-66741300D01*
X60198000Y-66741300D02*
X60198000Y-53848000D01*
X63729000Y-80390000D02*
X65397700Y-78721300D01*
X65397700Y-78721300D02*
X65397700Y-71941000D01*
X63500000Y-80390000D02*
X63729000Y-80390000D01*
X60198000Y-53848000D02*
X60681000Y-53365000D01*
X59867700Y-52501700D02*
X59867700Y-52154600D01*
X60731000Y-53365000D02*
X59867700Y-52501700D01*
X62255000Y-53365000D02*
X60731000Y-53365000D01*
%TO.N,LED_RUN*%
X54610000Y-106426000D02*
X59754000Y-106426000D01*
X53594000Y-105410000D02*
X54610000Y-106426000D01*
X53594000Y-71587000D02*
X53594000Y-105410000D01*
X59754000Y-106426000D02*
X60960000Y-105220000D01*
X55880000Y-69301000D02*
X53594000Y-71587000D01*
%TO.N,Net-(D1-Pad2)*%
X71184000Y-112014000D02*
X79116000Y-112014000D01*
X66040000Y-106870000D02*
X71184000Y-112014000D01*
X79116000Y-112014000D02*
X80640000Y-110490000D01*
%TO.N,BATT_GND*%
X77216000Y-97282000D02*
X78740000Y-97282000D01*
X76708000Y-97790000D02*
X77216000Y-97282000D01*
X76708000Y-107442000D02*
X76708000Y-97790000D01*
X78100000Y-108834000D02*
X76708000Y-107442000D01*
X78100000Y-110490000D02*
X78100000Y-108834000D01*
D26*
%TO.N,BATT_VIN*%
X89408000Y-51776000D02*
X85291000Y-51776000D01*
X80010000Y-46749000D02*
X81026000Y-45733000D01*
X80963800Y-57969100D02*
X82238900Y-57969100D01*
D25*
X81026000Y-58031300D02*
X80963800Y-57969100D01*
X81026000Y-58179000D02*
X81026000Y-58031300D01*
D26*
X79461000Y-56855000D02*
X75514000Y-56855000D01*
X85291000Y-51776000D02*
X83820000Y-50305000D01*
D25*
X64670800Y-72242100D02*
X64308900Y-72604000D01*
D26*
X80010000Y-49289000D02*
X80010000Y-46749000D01*
X79702000Y-44409000D02*
X75514000Y-44409000D01*
X80963800Y-57969100D02*
X80575100Y-57969100D01*
X85291000Y-54917000D02*
X85291000Y-51776000D01*
D25*
X64308900Y-72604000D02*
X64308900Y-72835000D01*
D26*
X83820000Y-50305000D02*
X81026000Y-50305000D01*
X82238900Y-57969100D02*
X85291000Y-54917000D01*
X81026000Y-50305000D02*
X80010000Y-49289000D01*
D25*
X63500000Y-72835000D02*
X64308900Y-72835000D01*
D26*
X80575100Y-57969100D02*
X79461000Y-56855000D01*
X81026000Y-45733000D02*
X79702000Y-44409000D01*
%TO.N,BATT_GND*%
X75514000Y-41809000D02*
X74370695Y-41809000D01*
D25*
X72738100Y-40110700D02*
X68671600Y-40110700D01*
D26*
X73660000Y-46454300D02*
X73660000Y-53294677D01*
X74370695Y-41809000D02*
X73710848Y-42468848D01*
X74405300Y-45709000D02*
X73992500Y-46121800D01*
D25*
X71910800Y-46121800D02*
X70848000Y-45059000D01*
D26*
X73710848Y-42468848D02*
X72745695Y-43434000D01*
X76324000Y-41809000D02*
X76555000Y-41809000D01*
X72922000Y-44172000D02*
X72644000Y-43894000D01*
D25*
X70848000Y-45059000D02*
X69774000Y-45059000D01*
X74269000Y-54255000D02*
X72644000Y-55880000D01*
X74459000Y-45709000D02*
X74405300Y-45709000D01*
X76324000Y-41809000D02*
X75514000Y-41809000D01*
X84108000Y-48467000D02*
X83820000Y-48755000D01*
D26*
X73660000Y-53294677D02*
X74620323Y-54255000D01*
D25*
X61838200Y-49555000D02*
X59867700Y-51525500D01*
D26*
X83058000Y-40132000D02*
X84108000Y-41182000D01*
D25*
X62967000Y-49555000D02*
X61838200Y-49555000D01*
X72644000Y-43894000D02*
X72644000Y-43434000D01*
D26*
X74620323Y-54255000D02*
X74708500Y-54255000D01*
X74459000Y-45709000D02*
X72922000Y-44172000D01*
D25*
X75514000Y-54255000D02*
X74269000Y-54255000D01*
X75514000Y-45709000D02*
X74459000Y-45709000D01*
X58420000Y-102321000D02*
X55880000Y-102321000D01*
X72745695Y-43434000D02*
X72644000Y-43434000D01*
X71019000Y-57505000D02*
X72644000Y-55880000D01*
X75514000Y-58155000D02*
X74459000Y-58155000D01*
X74459000Y-58155000D02*
X72644000Y-56340000D01*
X69774000Y-45059000D02*
X69774000Y-44409000D01*
D26*
X73992500Y-46121800D02*
X73660000Y-46454300D01*
D25*
X64313400Y-48208600D02*
X62967000Y-49555000D01*
X75514000Y-41809000D02*
X74436400Y-41809000D01*
X74708500Y-54255000D02*
X75514000Y-54255000D01*
X63500000Y-97241000D02*
X71120000Y-97241000D01*
X84108000Y-46776000D02*
X84108000Y-48467000D01*
X69774000Y-56855000D02*
X69774000Y-57505000D01*
X78765000Y-66578000D02*
X75124200Y-62937200D01*
X63500000Y-80390000D02*
X63500000Y-97241000D01*
X75124200Y-62937200D02*
X75124200Y-58544800D01*
X68671600Y-40110700D02*
X64313400Y-44468900D01*
X63500000Y-97241000D02*
X58420000Y-102321000D01*
D26*
X89408000Y-46776000D02*
X84108000Y-46776000D01*
X84108000Y-41182000D02*
X84108000Y-46776000D01*
D25*
X56006300Y-52154600D02*
X54795900Y-53365000D01*
X74436400Y-41809000D02*
X72738100Y-40110700D01*
X75124200Y-58544800D02*
X75514000Y-58155000D01*
D26*
X76555000Y-41809000D02*
X78232000Y-40132000D01*
D25*
X72644000Y-56340000D02*
X72644000Y-55880000D01*
X64313400Y-44468900D02*
X64313400Y-48208600D01*
X73992500Y-46121800D02*
X71910800Y-46121800D01*
X59867700Y-52154600D02*
X56006300Y-52154600D01*
X69774000Y-57505000D02*
X71019000Y-57505000D01*
X54795900Y-53365000D02*
X53619000Y-53365000D01*
X59867700Y-51525500D02*
X59867700Y-52154600D01*
X83820000Y-48755000D02*
X81026000Y-48755000D01*
D26*
X78232000Y-40132000D02*
X83058000Y-40132000D01*
D25*
%TO.N,Net-(D2-Pad2)*%
X60960000Y-106870000D02*
X62077700Y-106870000D01*
%TO.N,ENC_VCC*%
X78740000Y-93565100D02*
X81788000Y-90517100D01*
X63431900Y-45745000D02*
X62255000Y-45745000D01*
X81788000Y-90517100D02*
X81788000Y-66294000D01*
X68447600Y-39642400D02*
X63431900Y-44658100D01*
X79532000Y-64038000D02*
X78765000Y-64038000D01*
X62255000Y-45745000D02*
X53619000Y-45745000D01*
X78740000Y-94742000D02*
X78740000Y-93565100D01*
X77310000Y-51809000D02*
X75514000Y-53605000D01*
X81788000Y-66294000D02*
X79532000Y-64038000D01*
X73997400Y-39642400D02*
X68447600Y-39642400D01*
X63431900Y-44658100D02*
X63431900Y-45745000D01*
X75514000Y-41159000D02*
X73997400Y-39642400D01*
%TO.N,GY_SDA*%
X71120000Y-89621000D02*
X72177000Y-89621000D01*
X78456000Y-71658000D02*
X78765000Y-71658000D01*
X73777400Y-76336600D02*
X78456000Y-71658000D01*
X73777400Y-88020600D02*
X73777400Y-76336600D01*
X72177000Y-89621000D02*
X73777400Y-88020600D01*
%TO.N,Net-(C1-Pad1)*%
X81026000Y-42685000D02*
X80602000Y-43109000D01*
X80602000Y-43109000D02*
X75514000Y-43109000D01*
%TO.N,Net-(C1-Pad2)*%
X81026000Y-41135000D02*
X79702000Y-42459000D01*
X79702000Y-42459000D02*
X75514000Y-42459000D01*
D26*
%TO.N,Net-(J5-Pad1)*%
X69774000Y-46842500D02*
X69774000Y-45709000D01*
D25*
%TO.N,Net-(J5-Pad6)*%
X75535900Y-45080900D02*
X75514000Y-45059000D01*
D26*
X77491200Y-46316400D02*
X77491200Y-45487900D01*
X77491200Y-45487900D02*
X77084200Y-45080900D01*
X75535900Y-45080900D02*
X75535200Y-45080900D01*
X74762300Y-49045300D02*
X77491200Y-46316400D01*
X77084200Y-45080900D02*
X75535900Y-45080900D01*
D25*
%TO.N,Net-(R1-Pad1)*%
X61681000Y-76921000D02*
X63500000Y-78740000D01*
X63500000Y-75102000D02*
X61681000Y-76921000D01*
X63500000Y-74485000D02*
X63500000Y-75102000D01*
X55880000Y-76921000D02*
X61681000Y-76921000D01*
%TO.N,M_OFF*%
X67623200Y-45752700D02*
X68044000Y-45331900D01*
X68050900Y-54905000D02*
X68050900Y-55191900D01*
X68958900Y-42459000D02*
X69774000Y-42459000D01*
X69774000Y-54905000D02*
X68050900Y-54905000D01*
X68044000Y-43373900D02*
X68958900Y-42459000D01*
X68050900Y-54905000D02*
X67623200Y-54477300D01*
X67623200Y-54477300D02*
X67623200Y-45752700D01*
X68044000Y-45331900D02*
X68044000Y-43373900D01*
%TO.N,Net-(C2-Pad1)*%
X80602000Y-43759000D02*
X75514000Y-43759000D01*
X81026000Y-44183000D02*
X80602000Y-43759000D01*
%TO.N,M_IN1*%
X65982000Y-44121300D02*
X68944300Y-41159000D01*
X71120000Y-74381000D02*
X70825000Y-74381000D01*
X68944300Y-41159000D02*
X69774000Y-41159000D01*
X65982000Y-69538000D02*
X65982000Y-44121300D01*
X70825000Y-74381000D02*
X65982000Y-69538000D01*
%TO.N,Net-(C3-Pad1)*%
X80602000Y-55555000D02*
X75514000Y-55555000D01*
X81026000Y-55131000D02*
X80602000Y-55555000D01*
%TO.N,Net-(C3-Pad2)*%
X79702000Y-54905000D02*
X75514000Y-54905000D01*
X81026000Y-53581000D02*
X79702000Y-54905000D01*
%TO.N,M_IN4*%
X68445600Y-54255000D02*
X68361200Y-54170600D01*
X69774000Y-54255000D02*
X68445600Y-54255000D01*
%TO.N,M_IN3*%
X69774000Y-53605000D02*
X69774000Y-53275700D01*
X69774000Y-53275700D02*
X69293100Y-52794800D01*
%TO.N,Net-(C4-Pad1)*%
X80602000Y-56205000D02*
X75514000Y-56205000D01*
X81026000Y-56629000D02*
X80602000Y-56205000D01*
D26*
%TO.N,Net-(U2-Pad8)*%
X67691400Y-59109600D02*
X66970500Y-58388700D01*
X68819400Y-59109600D02*
X67691400Y-59109600D01*
X66970500Y-58388700D02*
X66970500Y-45375800D01*
X66970500Y-45375800D02*
X67317100Y-45029200D01*
X69774000Y-58155000D02*
X68819400Y-59109600D01*
%TO.N,Net-(U2-Pad10)*%
X76608300Y-57505000D02*
X76973700Y-57870400D01*
X76973700Y-57870400D02*
X76973700Y-58577600D01*
X76561200Y-58990100D02*
X75851100Y-58990100D01*
X75514000Y-57505000D02*
X76608300Y-57505000D01*
X76973700Y-58577600D02*
X76561200Y-58990100D01*
D25*
%TO.N,M_FAULT2*%
X68978600Y-55555000D02*
X67770500Y-56763100D01*
X69774000Y-55555000D02*
X68978600Y-55555000D01*
X67770500Y-56763100D02*
X67770500Y-57496900D01*
%TO.N,3_3V*%
X68978400Y-43759000D02*
X68615400Y-44122000D01*
X69774000Y-43759000D02*
X68978400Y-43759000D01*
X68497400Y-58187100D02*
X68497400Y-56691100D01*
X70887900Y-55924000D02*
X70606900Y-56205000D01*
X68374900Y-58309600D02*
X68497400Y-58187100D01*
X68983500Y-56205000D02*
X69774000Y-56205000D01*
X68615400Y-47299500D02*
X70887900Y-49572000D01*
X70887900Y-49572000D02*
X70887900Y-55924000D01*
X68497400Y-56691100D02*
X68983500Y-56205000D01*
X68615400Y-44122000D02*
X68615400Y-47299500D01*
X70606900Y-56205000D02*
X69774000Y-56205000D01*
%TD*%
%TA.AperFunction,Conductor*%
%TO.N,BATT_GND*%
G36*
X92964000Y-60706000D02*
G01*
X67065500Y-60706000D01*
X67065500Y-59778290D01*
X67085502Y-59710169D01*
X67139158Y-59663676D01*
X67209432Y-59653572D01*
X67263952Y-59675205D01*
X67265895Y-59676570D01*
X67266100Y-59676714D01*
X67271393Y-59680645D01*
X67321682Y-59720077D01*
X67328604Y-59723202D01*
X67330852Y-59724564D01*
X67345585Y-59732968D01*
X67347924Y-59734222D01*
X67354139Y-59738590D01*
X67361215Y-59741349D01*
X67361219Y-59741351D01*
X67413674Y-59761802D01*
X67419752Y-59764357D01*
X67477974Y-59790645D01*
X67485445Y-59792029D01*
X67487999Y-59792830D01*
X67504278Y-59797467D01*
X67506833Y-59798123D01*
X67513909Y-59800882D01*
X67534662Y-59803614D01*
X67577251Y-59809221D01*
X67583767Y-59810253D01*
X67637265Y-59820168D01*
X67646587Y-59821896D01*
X67654167Y-59821459D01*
X67654168Y-59821459D01*
X67708798Y-59818309D01*
X67716051Y-59818100D01*
X68790488Y-59818100D01*
X68799058Y-59818392D01*
X68849176Y-59821809D01*
X68849180Y-59821809D01*
X68856752Y-59822325D01*
X68864229Y-59821020D01*
X68864230Y-59821020D01*
X68890708Y-59816399D01*
X68919703Y-59811338D01*
X68926221Y-59810377D01*
X68989642Y-59802702D01*
X68996743Y-59800019D01*
X68999352Y-59799378D01*
X69015662Y-59794915D01*
X69018198Y-59794150D01*
X69025684Y-59792843D01*
X69084200Y-59767156D01*
X69090304Y-59764665D01*
X69091117Y-59764358D01*
X69150056Y-59742087D01*
X69156319Y-59737783D01*
X69158685Y-59736546D01*
X69173497Y-59728301D01*
X69175751Y-59726968D01*
X69182705Y-59723915D01*
X69233402Y-59685013D01*
X69238732Y-59681141D01*
X69285120Y-59649261D01*
X69285125Y-59649256D01*
X69291381Y-59644957D01*
X69332836Y-59598429D01*
X69337816Y-59593154D01*
X70025566Y-58905404D01*
X70087878Y-58871378D01*
X70114661Y-58868499D01*
X70579592Y-58868499D01*
X70583349Y-58868044D01*
X70583355Y-58868044D01*
X70657837Y-58859031D01*
X70665870Y-58858059D01*
X70673393Y-58855081D01*
X70673395Y-58855080D01*
X70723089Y-58835405D01*
X70800629Y-58804705D01*
X70916076Y-58717076D01*
X71003705Y-58601629D01*
X71057059Y-58466870D01*
X71067500Y-58380593D01*
X71067499Y-57929408D01*
X71063341Y-57895040D01*
X71058031Y-57851163D01*
X71057059Y-57843130D01*
X71053068Y-57833048D01*
X71025557Y-57763565D01*
X71003705Y-57708371D01*
X70916076Y-57592924D01*
X70800629Y-57505295D01*
X70665870Y-57451941D01*
X70579593Y-57441500D01*
X70537301Y-57441500D01*
X69256900Y-57441501D01*
X69188779Y-57421499D01*
X69142286Y-57367843D01*
X69130900Y-57315501D01*
X69130900Y-57044500D01*
X69150902Y-56976379D01*
X69204558Y-56929886D01*
X69256900Y-56918500D01*
X70523009Y-56918499D01*
X70579592Y-56918499D01*
X70583349Y-56918044D01*
X70583355Y-56918044D01*
X70657837Y-56909031D01*
X70665870Y-56908059D01*
X70673393Y-56905081D01*
X70673395Y-56905080D01*
X70723089Y-56885405D01*
X70800629Y-56854705D01*
X70916076Y-56767076D01*
X70919736Y-56762254D01*
X70931443Y-56752255D01*
X70950291Y-56738562D01*
X70960209Y-56732047D01*
X70991434Y-56713580D01*
X70998262Y-56709542D01*
X71012586Y-56695218D01*
X71027613Y-56682383D01*
X71044007Y-56670472D01*
X71072189Y-56636406D01*
X71080178Y-56627628D01*
X71280158Y-56427648D01*
X71288438Y-56420113D01*
X71294918Y-56416000D01*
X71341545Y-56366347D01*
X71344299Y-56363506D01*
X71364035Y-56343770D01*
X71366515Y-56340573D01*
X71374220Y-56331551D01*
X71399059Y-56305100D01*
X71404486Y-56299321D01*
X71408305Y-56292375D01*
X71408307Y-56292372D01*
X71414248Y-56281566D01*
X71425099Y-56265047D01*
X71432658Y-56255301D01*
X71437514Y-56249041D01*
X71440659Y-56241772D01*
X71440662Y-56241768D01*
X71455074Y-56208463D01*
X71460291Y-56197813D01*
X71481595Y-56159060D01*
X71486633Y-56139437D01*
X71493037Y-56120734D01*
X71497933Y-56109420D01*
X71497933Y-56109419D01*
X71501081Y-56102145D01*
X71502320Y-56094322D01*
X71502323Y-56094312D01*
X71507999Y-56058476D01*
X71510405Y-56046856D01*
X71519428Y-56011711D01*
X71519428Y-56011710D01*
X71521400Y-56004030D01*
X71521400Y-55983776D01*
X71522951Y-55964065D01*
X71524880Y-55951886D01*
X71526120Y-55944057D01*
X71521959Y-55900038D01*
X71521400Y-55888181D01*
X71521400Y-49650763D01*
X71521927Y-49639579D01*
X71523601Y-49632091D01*
X71521462Y-49564032D01*
X71521400Y-49560075D01*
X71521400Y-49532144D01*
X71520894Y-49528138D01*
X71519961Y-49516292D01*
X71519489Y-49501248D01*
X71518573Y-49472110D01*
X71512922Y-49452658D01*
X71508914Y-49433306D01*
X71507367Y-49421063D01*
X71506374Y-49413203D01*
X71496004Y-49387010D01*
X71490100Y-49372097D01*
X71486255Y-49360870D01*
X71482080Y-49346500D01*
X71473918Y-49318407D01*
X71469884Y-49311585D01*
X71469881Y-49311579D01*
X71463606Y-49300968D01*
X71454910Y-49283218D01*
X71450372Y-49271756D01*
X71450369Y-49271751D01*
X71447452Y-49264383D01*
X71421502Y-49228665D01*
X71421473Y-49228625D01*
X71414957Y-49218707D01*
X71396475Y-49187457D01*
X71392442Y-49180637D01*
X71378118Y-49166313D01*
X71365276Y-49151278D01*
X71353372Y-49134893D01*
X71319306Y-49106711D01*
X71310527Y-49098722D01*
X70093765Y-47881960D01*
X70059739Y-47819648D01*
X70064804Y-47748833D01*
X70107351Y-47691997D01*
X70131612Y-47677758D01*
X70224719Y-47636305D01*
X70224726Y-47636301D01*
X70230752Y-47633618D01*
X70385253Y-47521366D01*
X70513040Y-47379444D01*
X70608527Y-47214056D01*
X70667542Y-47032428D01*
X70670366Y-47005565D01*
X70686814Y-46849065D01*
X70687504Y-46842500D01*
X70671936Y-46694379D01*
X70668232Y-46659135D01*
X70668232Y-46659133D01*
X70667542Y-46652572D01*
X70646575Y-46588042D01*
X70634675Y-46551417D01*
X70632648Y-46480449D01*
X70669310Y-46419651D01*
X70708124Y-46395330D01*
X70800629Y-46358705D01*
X70916076Y-46271076D01*
X71003705Y-46155629D01*
X71057059Y-46020870D01*
X71067500Y-45934593D01*
X71067499Y-45483408D01*
X71057059Y-45397130D01*
X71052001Y-45384353D01*
X71034405Y-45339911D01*
X71003705Y-45262371D01*
X70916076Y-45146924D01*
X70800629Y-45059295D01*
X70665870Y-45005941D01*
X70579593Y-44995500D01*
X70540745Y-44995500D01*
X69374900Y-44995501D01*
X69306779Y-44975499D01*
X69260286Y-44921843D01*
X69248900Y-44869501D01*
X69248900Y-44598500D01*
X69268902Y-44530379D01*
X69322558Y-44483886D01*
X69374900Y-44472500D01*
X70540695Y-44472499D01*
X70579592Y-44472499D01*
X70583349Y-44472044D01*
X70583355Y-44472044D01*
X70657837Y-44463031D01*
X70665870Y-44462059D01*
X70673393Y-44459081D01*
X70673395Y-44459080D01*
X70723089Y-44439405D01*
X70800629Y-44408705D01*
X70916076Y-44321076D01*
X71003705Y-44205629D01*
X71057059Y-44070870D01*
X71067500Y-43984593D01*
X71067499Y-43579695D01*
X71087501Y-43511575D01*
X71104404Y-43490600D01*
X71286747Y-43308257D01*
X71295037Y-43300713D01*
X71301518Y-43296600D01*
X71348159Y-43246932D01*
X71350913Y-43244091D01*
X71370635Y-43224369D01*
X71373112Y-43221176D01*
X71380817Y-43212155D01*
X71405659Y-43185700D01*
X71411086Y-43179921D01*
X71414907Y-43172971D01*
X71420846Y-43162168D01*
X71431702Y-43145641D01*
X71439257Y-43135902D01*
X71439258Y-43135900D01*
X71444114Y-43129640D01*
X71461674Y-43089060D01*
X71466891Y-43078412D01*
X71484375Y-43046609D01*
X71484376Y-43046607D01*
X71488195Y-43039660D01*
X71493233Y-43020037D01*
X71499637Y-43001334D01*
X71504533Y-42990020D01*
X71504533Y-42990019D01*
X71507681Y-42982745D01*
X71508920Y-42974922D01*
X71508923Y-42974912D01*
X71514599Y-42939076D01*
X71517005Y-42927456D01*
X71526028Y-42892311D01*
X71526028Y-42892310D01*
X71528000Y-42884630D01*
X71528000Y-42864376D01*
X71529551Y-42844665D01*
X71531480Y-42832486D01*
X71532720Y-42824657D01*
X71528559Y-42780638D01*
X71528000Y-42768781D01*
X71528000Y-40912163D01*
X71528527Y-40900979D01*
X71530201Y-40893491D01*
X71528062Y-40825432D01*
X71528000Y-40821475D01*
X71528000Y-40793544D01*
X71527494Y-40789538D01*
X71526561Y-40777692D01*
X71525422Y-40741437D01*
X71525173Y-40733510D01*
X71519522Y-40714058D01*
X71515514Y-40694706D01*
X71513968Y-40682468D01*
X71513967Y-40682466D01*
X71512974Y-40674603D01*
X71496694Y-40633486D01*
X71492859Y-40622285D01*
X71480518Y-40579806D01*
X71476485Y-40572987D01*
X71476483Y-40572982D01*
X71470207Y-40562371D01*
X71461510Y-40544621D01*
X71454052Y-40525783D01*
X71428071Y-40490023D01*
X71421551Y-40480097D01*
X71413235Y-40466034D01*
X71395778Y-40397217D01*
X71418298Y-40329887D01*
X71473644Y-40285420D01*
X71521691Y-40275900D01*
X73682806Y-40275900D01*
X73750927Y-40295902D01*
X73771901Y-40312805D01*
X74196376Y-40737280D01*
X74230402Y-40799592D01*
X74229583Y-40846966D01*
X74230941Y-40847130D01*
X74220500Y-40933407D01*
X74220501Y-41384592D01*
X74220956Y-41388349D01*
X74220956Y-41388355D01*
X74223033Y-41405515D01*
X74230941Y-41470870D01*
X74284295Y-41605629D01*
X74371924Y-41721076D01*
X74373831Y-41722523D01*
X74406427Y-41782217D01*
X74401362Y-41853032D01*
X74374325Y-41895102D01*
X74371924Y-41896924D01*
X74284295Y-42012371D01*
X74230941Y-42147130D01*
X74220500Y-42233407D01*
X74220501Y-42684592D01*
X74220956Y-42688352D01*
X74220957Y-42688369D01*
X74230698Y-42768866D01*
X74230698Y-42799138D01*
X74220500Y-42883407D01*
X74220501Y-43334592D01*
X74220956Y-43338352D01*
X74220957Y-43338369D01*
X74230698Y-43418866D01*
X74230698Y-43449138D01*
X74220500Y-43533407D01*
X74220501Y-43984592D01*
X74220956Y-43988352D01*
X74220957Y-43988369D01*
X74230698Y-44068866D01*
X74230698Y-44099138D01*
X74220500Y-44183407D01*
X74220501Y-44634592D01*
X74220956Y-44638352D01*
X74220957Y-44638369D01*
X74230698Y-44718866D01*
X74230698Y-44749138D01*
X74220500Y-44833407D01*
X74220501Y-45284592D01*
X74230941Y-45370870D01*
X74233919Y-45378393D01*
X74233920Y-45378395D01*
X74241338Y-45397130D01*
X74284295Y-45505629D01*
X74371924Y-45621076D01*
X74487371Y-45708705D01*
X74622130Y-45762059D01*
X74708407Y-45772500D01*
X75351864Y-45772500D01*
X75368309Y-45773578D01*
X75488494Y-45789400D01*
X76656700Y-45789400D01*
X76724821Y-45809402D01*
X76771314Y-45863058D01*
X76782700Y-45915400D01*
X76782700Y-45970740D01*
X76762698Y-46038861D01*
X76745795Y-46059835D01*
X74695767Y-48109863D01*
X74632869Y-48144015D01*
X74480012Y-48176506D01*
X74473982Y-48179191D01*
X74473981Y-48179191D01*
X74311578Y-48251497D01*
X74311576Y-48251498D01*
X74305548Y-48254182D01*
X74151047Y-48366434D01*
X74023260Y-48508356D01*
X73927773Y-48673744D01*
X73868758Y-48855372D01*
X73848796Y-49045300D01*
X73849486Y-49051865D01*
X73867022Y-49218707D01*
X73868758Y-49235228D01*
X73927773Y-49416856D01*
X74023260Y-49582244D01*
X74027678Y-49587151D01*
X74027679Y-49587152D01*
X74089799Y-49656143D01*
X74151047Y-49724166D01*
X74305548Y-49836418D01*
X74311576Y-49839102D01*
X74311578Y-49839103D01*
X74473981Y-49911409D01*
X74480012Y-49914094D01*
X74573412Y-49933947D01*
X74660356Y-49952428D01*
X74660361Y-49952428D01*
X74666813Y-49953800D01*
X74857787Y-49953800D01*
X74864239Y-49952428D01*
X74864244Y-49952428D01*
X74951187Y-49933947D01*
X75044588Y-49914094D01*
X75050619Y-49911409D01*
X75213022Y-49839103D01*
X75213024Y-49839102D01*
X75219052Y-49836418D01*
X75373553Y-49724166D01*
X75434801Y-49656143D01*
X75496921Y-49587152D01*
X75496922Y-49587151D01*
X75501340Y-49582244D01*
X75596827Y-49416856D01*
X75631034Y-49311579D01*
X75653802Y-49241507D01*
X75653802Y-49241505D01*
X75655842Y-49235228D01*
X75660750Y-49188530D01*
X75687763Y-49122873D01*
X75696965Y-49112605D01*
X77971728Y-46837843D01*
X77977993Y-46831989D01*
X78015864Y-46798952D01*
X78015865Y-46798951D01*
X78021585Y-46793961D01*
X78058336Y-46741671D01*
X78062228Y-46736429D01*
X78101676Y-46686118D01*
X78104800Y-46679199D01*
X78106188Y-46676907D01*
X78114557Y-46662235D01*
X78115822Y-46659875D01*
X78120190Y-46653661D01*
X78123063Y-46646294D01*
X78143402Y-46594125D01*
X78145959Y-46588042D01*
X78153425Y-46571509D01*
X78172245Y-46529827D01*
X78173630Y-46522354D01*
X78174434Y-46519788D01*
X78179055Y-46503565D01*
X78179720Y-46500973D01*
X78182482Y-46493891D01*
X78184659Y-46477358D01*
X78190822Y-46430539D01*
X78191854Y-46424023D01*
X78202111Y-46368681D01*
X78203495Y-46361214D01*
X78199909Y-46299020D01*
X78199700Y-46291767D01*
X78199700Y-45516822D01*
X78199992Y-45508252D01*
X78203410Y-45458124D01*
X78203410Y-45458120D01*
X78203926Y-45450548D01*
X78192936Y-45387581D01*
X78191975Y-45381065D01*
X78189769Y-45362837D01*
X78184302Y-45317658D01*
X78181619Y-45310557D01*
X78180978Y-45307948D01*
X78176519Y-45291650D01*
X78175749Y-45289100D01*
X78174443Y-45281617D01*
X78172964Y-45278248D01*
X78172436Y-45208925D01*
X78210362Y-45148908D01*
X78274716Y-45118923D01*
X78293599Y-45117500D01*
X79356340Y-45117500D01*
X79424461Y-45137502D01*
X79445435Y-45154405D01*
X79934935Y-45643905D01*
X79968961Y-45706217D01*
X79963896Y-45777032D01*
X79934935Y-45822095D01*
X79529480Y-46227550D01*
X79523215Y-46233404D01*
X79479615Y-46271439D01*
X79460231Y-46299020D01*
X79442872Y-46323719D01*
X79438939Y-46329014D01*
X79399524Y-46379282D01*
X79396401Y-46386198D01*
X79395017Y-46388484D01*
X79386643Y-46403165D01*
X79385378Y-46405525D01*
X79381010Y-46411739D01*
X79378250Y-46418818D01*
X79378249Y-46418820D01*
X79357798Y-46471275D01*
X79355247Y-46477344D01*
X79328955Y-46535573D01*
X79327571Y-46543040D01*
X79326770Y-46545595D01*
X79322141Y-46561848D01*
X79321478Y-46564428D01*
X79318718Y-46571509D01*
X79317727Y-46579040D01*
X79317726Y-46579042D01*
X79310379Y-46634852D01*
X79309348Y-46641359D01*
X79297704Y-46704186D01*
X79298141Y-46711766D01*
X79298141Y-46711767D01*
X79301291Y-46766392D01*
X79301500Y-46773646D01*
X79301500Y-49260088D01*
X79301208Y-49268658D01*
X79297817Y-49318407D01*
X79297275Y-49326352D01*
X79298580Y-49333829D01*
X79298580Y-49333830D01*
X79302598Y-49356851D01*
X79307862Y-49387010D01*
X79308261Y-49389299D01*
X79309223Y-49395821D01*
X79316898Y-49459242D01*
X79319581Y-49466343D01*
X79320222Y-49468952D01*
X79324685Y-49485262D01*
X79325450Y-49487798D01*
X79326757Y-49495284D01*
X79329811Y-49502241D01*
X79352442Y-49553795D01*
X79354933Y-49559899D01*
X79377513Y-49619656D01*
X79381817Y-49625919D01*
X79383054Y-49628285D01*
X79391299Y-49643097D01*
X79392632Y-49645351D01*
X79395685Y-49652305D01*
X79400307Y-49658328D01*
X79434579Y-49702991D01*
X79438459Y-49708332D01*
X79470339Y-49754720D01*
X79470344Y-49754725D01*
X79474643Y-49760981D01*
X79480313Y-49766032D01*
X79480314Y-49766034D01*
X79521170Y-49802435D01*
X79526446Y-49807416D01*
X80005595Y-50286565D01*
X80039621Y-50348877D01*
X80042500Y-50375660D01*
X80042500Y-50578732D01*
X80053113Y-50681019D01*
X80107244Y-50843268D01*
X80111096Y-50849492D01*
X80111096Y-50849493D01*
X80192126Y-50980436D01*
X80197248Y-50988713D01*
X80318298Y-51109552D01*
X80324528Y-51113392D01*
X80324529Y-51113393D01*
X80391751Y-51154829D01*
X80463899Y-51199302D01*
X80626243Y-51253149D01*
X80633080Y-51253849D01*
X80633082Y-51253850D01*
X80674401Y-51258083D01*
X80727268Y-51263500D01*
X81324732Y-51263500D01*
X81327978Y-51263163D01*
X81327982Y-51263163D01*
X81362083Y-51259625D01*
X81427019Y-51252887D01*
X81580726Y-51201606D01*
X81582324Y-51201073D01*
X81582326Y-51201072D01*
X81589268Y-51198756D01*
X81734713Y-51108752D01*
X81739886Y-51103570D01*
X81739891Y-51103566D01*
X81792881Y-51050483D01*
X81855163Y-51016403D01*
X81882054Y-51013500D01*
X82963951Y-51013500D01*
X83032072Y-51033502D01*
X83052968Y-51050326D01*
X83069350Y-51066679D01*
X83112298Y-51109552D01*
X83118528Y-51113392D01*
X83118529Y-51113393D01*
X83185751Y-51154829D01*
X83257899Y-51199302D01*
X83420243Y-51253149D01*
X83427080Y-51253849D01*
X83427082Y-51253850D01*
X83468401Y-51258083D01*
X83521268Y-51263500D01*
X83724339Y-51263500D01*
X83792460Y-51283502D01*
X83813435Y-51300405D01*
X84545596Y-52032567D01*
X84579621Y-52094879D01*
X84582500Y-52121662D01*
X84582500Y-54571340D01*
X84562498Y-54639461D01*
X84545595Y-54660435D01*
X82224595Y-56981435D01*
X82162283Y-57015461D01*
X82091468Y-57010396D01*
X82034632Y-56967849D01*
X82009821Y-56901329D01*
X82009500Y-56892340D01*
X82009500Y-56355268D01*
X81998887Y-56252981D01*
X81987304Y-56218263D01*
X81947073Y-56097676D01*
X81947072Y-56097674D01*
X81944756Y-56090732D01*
X81940904Y-56084507D01*
X81855444Y-55946405D01*
X81836606Y-55877953D01*
X81856488Y-55814279D01*
X81855552Y-55813702D01*
X81941462Y-55674331D01*
X81941463Y-55674329D01*
X81945302Y-55668101D01*
X81999149Y-55505757D01*
X82009500Y-55404732D01*
X82009500Y-54857268D01*
X81998887Y-54754981D01*
X81987304Y-54720263D01*
X81947073Y-54599676D01*
X81947072Y-54599674D01*
X81944756Y-54592732D01*
X81854752Y-54447287D01*
X81849570Y-54442114D01*
X81845025Y-54436380D01*
X81846945Y-54434858D01*
X81818455Y-54382794D01*
X81823456Y-54311974D01*
X81846882Y-54275448D01*
X81845843Y-54274628D01*
X81850381Y-54268882D01*
X81855552Y-54263702D01*
X81915113Y-54167076D01*
X81941462Y-54124331D01*
X81941463Y-54124329D01*
X81945302Y-54118101D01*
X81999149Y-53955757D01*
X82002363Y-53924394D01*
X82009172Y-53857930D01*
X82009500Y-53854732D01*
X82009500Y-53307268D01*
X82007253Y-53285606D01*
X82005012Y-53264016D01*
X81998887Y-53204981D01*
X81956358Y-53077506D01*
X81947073Y-53049676D01*
X81947072Y-53049674D01*
X81944756Y-53042732D01*
X81854752Y-52897287D01*
X81733702Y-52776448D01*
X81588101Y-52686698D01*
X81425757Y-52632851D01*
X81418920Y-52632151D01*
X81418918Y-52632150D01*
X81377599Y-52627917D01*
X81324732Y-52622500D01*
X80727268Y-52622500D01*
X80724022Y-52622837D01*
X80724018Y-52622837D01*
X80689917Y-52626375D01*
X80624981Y-52633113D01*
X80618440Y-52635295D01*
X80618441Y-52635295D01*
X80469676Y-52684927D01*
X80469674Y-52684928D01*
X80462732Y-52687244D01*
X80456508Y-52691096D01*
X80456507Y-52691096D01*
X80434271Y-52704856D01*
X80317287Y-52777248D01*
X80196448Y-52898298D01*
X80192608Y-52904528D01*
X80192607Y-52904529D01*
X80111255Y-53036507D01*
X80106698Y-53043899D01*
X80052851Y-53206243D01*
X80042500Y-53307268D01*
X80042500Y-53616405D01*
X80022498Y-53684526D01*
X80005595Y-53705501D01*
X79476499Y-54234596D01*
X79414187Y-54268621D01*
X79387404Y-54271500D01*
X76830639Y-54271500D01*
X76762518Y-54251498D01*
X76716025Y-54197842D01*
X76705921Y-54127568D01*
X76730275Y-54069322D01*
X76743705Y-54051629D01*
X76797059Y-53916870D01*
X76807500Y-53830593D01*
X76807499Y-53379408D01*
X76807044Y-53375643D01*
X76797059Y-53293130D01*
X76798983Y-53292897D01*
X76801217Y-53232435D01*
X76831625Y-53183279D01*
X77260499Y-52754405D01*
X77322811Y-52720379D01*
X77349594Y-52717500D01*
X77405487Y-52717500D01*
X77411939Y-52716128D01*
X77411944Y-52716128D01*
X77529707Y-52691096D01*
X77592288Y-52677794D01*
X77687743Y-52635295D01*
X77760722Y-52602803D01*
X77760724Y-52602802D01*
X77766752Y-52600118D01*
X77921253Y-52487866D01*
X77925675Y-52482955D01*
X78044621Y-52350852D01*
X78044622Y-52350851D01*
X78049040Y-52345944D01*
X78144527Y-52180556D01*
X78203542Y-51998928D01*
X78209546Y-51941809D01*
X78222814Y-51815565D01*
X78223504Y-51809000D01*
X78203542Y-51619072D01*
X78144527Y-51437444D01*
X78049040Y-51272056D01*
X78032421Y-51253598D01*
X77925675Y-51135045D01*
X77925674Y-51135044D01*
X77921253Y-51130134D01*
X77766752Y-51017882D01*
X77760724Y-51015198D01*
X77760722Y-51015197D01*
X77598319Y-50942891D01*
X77598318Y-50942891D01*
X77592288Y-50940206D01*
X77498887Y-50920353D01*
X77411944Y-50901872D01*
X77411939Y-50901872D01*
X77405487Y-50900500D01*
X77214513Y-50900500D01*
X77208061Y-50901872D01*
X77208056Y-50901872D01*
X77121113Y-50920353D01*
X77027712Y-50940206D01*
X77021682Y-50942891D01*
X77021681Y-50942891D01*
X76859278Y-51015197D01*
X76859276Y-51015198D01*
X76853248Y-51017882D01*
X76698747Y-51130134D01*
X76694326Y-51135044D01*
X76694325Y-51135045D01*
X76587580Y-51253598D01*
X76570960Y-51272056D01*
X76475473Y-51437444D01*
X76416458Y-51619072D01*
X76399549Y-51779958D01*
X76399093Y-51784293D01*
X76372080Y-51849950D01*
X76362878Y-51860218D01*
X75368500Y-52854596D01*
X75306188Y-52888622D01*
X75279405Y-52891501D01*
X74708408Y-52891501D01*
X74704651Y-52891956D01*
X74704645Y-52891956D01*
X74652236Y-52898298D01*
X74622130Y-52901941D01*
X74614607Y-52904919D01*
X74614605Y-52904920D01*
X74564911Y-52924595D01*
X74487371Y-52955295D01*
X74371924Y-53042924D01*
X74284295Y-53158371D01*
X74230941Y-53293130D01*
X74220500Y-53379407D01*
X74220501Y-53830592D01*
X74220956Y-53834349D01*
X74220956Y-53834355D01*
X74223033Y-53851515D01*
X74230941Y-53916870D01*
X74284295Y-54051629D01*
X74371924Y-54167076D01*
X74373831Y-54168523D01*
X74406427Y-54228217D01*
X74401362Y-54299032D01*
X74374325Y-54341102D01*
X74371924Y-54342924D01*
X74284295Y-54458371D01*
X74230941Y-54593130D01*
X74220500Y-54679407D01*
X74220501Y-55130592D01*
X74220956Y-55134352D01*
X74220957Y-55134369D01*
X74230698Y-55214866D01*
X74230698Y-55245138D01*
X74220500Y-55329407D01*
X74220501Y-55780592D01*
X74220956Y-55784352D01*
X74220957Y-55784369D01*
X74230698Y-55864866D01*
X74230698Y-55895138D01*
X74220500Y-55979407D01*
X74220501Y-56430592D01*
X74220956Y-56434352D01*
X74220957Y-56434369D01*
X74230698Y-56514866D01*
X74230698Y-56545138D01*
X74220500Y-56629407D01*
X74220501Y-57080592D01*
X74220956Y-57084352D01*
X74220957Y-57084369D01*
X74230698Y-57164866D01*
X74230698Y-57195138D01*
X74220500Y-57279407D01*
X74220501Y-57730592D01*
X74230941Y-57816870D01*
X74233919Y-57824393D01*
X74233920Y-57824395D01*
X74240346Y-57840625D01*
X74284295Y-57951629D01*
X74371924Y-58067076D01*
X74487371Y-58154705D01*
X74622130Y-58208059D01*
X74708407Y-58218500D01*
X75040345Y-58218500D01*
X75108466Y-58238502D01*
X75154959Y-58292158D01*
X75165063Y-58362432D01*
X75133983Y-58428808D01*
X75112060Y-58453156D01*
X75061550Y-58540641D01*
X75034323Y-58587801D01*
X75016573Y-58618544D01*
X74957558Y-58800172D01*
X74956868Y-58806733D01*
X74956868Y-58806735D01*
X74941465Y-58953290D01*
X74937596Y-58990100D01*
X74938286Y-58996665D01*
X74945879Y-59068904D01*
X74957558Y-59180028D01*
X75016573Y-59361656D01*
X75112060Y-59527044D01*
X75116478Y-59531951D01*
X75116479Y-59531952D01*
X75225986Y-59653572D01*
X75239847Y-59668966D01*
X75394348Y-59781218D01*
X75400376Y-59783902D01*
X75400378Y-59783903D01*
X75486676Y-59822325D01*
X75568812Y-59858894D01*
X75662212Y-59878747D01*
X75749156Y-59897228D01*
X75749161Y-59897228D01*
X75755613Y-59898600D01*
X75946587Y-59898600D01*
X75953039Y-59897228D01*
X75953044Y-59897228D01*
X76039988Y-59878747D01*
X76133388Y-59858894D01*
X76215524Y-59822325D01*
X76301822Y-59783903D01*
X76301824Y-59783902D01*
X76307852Y-59781218D01*
X76388444Y-59722664D01*
X76455311Y-59698806D01*
X76462505Y-59698600D01*
X76532288Y-59698600D01*
X76540858Y-59698892D01*
X76590976Y-59702309D01*
X76590980Y-59702309D01*
X76598552Y-59702825D01*
X76606029Y-59701520D01*
X76606030Y-59701520D01*
X76632508Y-59696899D01*
X76661503Y-59691838D01*
X76668021Y-59690877D01*
X76731442Y-59683202D01*
X76738543Y-59680519D01*
X76741152Y-59679878D01*
X76757462Y-59675415D01*
X76759998Y-59674650D01*
X76767484Y-59673343D01*
X76826000Y-59647656D01*
X76832104Y-59645165D01*
X76832655Y-59644957D01*
X76891856Y-59622587D01*
X76898119Y-59618283D01*
X76900485Y-59617046D01*
X76915297Y-59608801D01*
X76917551Y-59607468D01*
X76924505Y-59604415D01*
X76975202Y-59565513D01*
X76980532Y-59561641D01*
X77026920Y-59529761D01*
X77026925Y-59529756D01*
X77033181Y-59525457D01*
X77074635Y-59478931D01*
X77079615Y-59473656D01*
X77454232Y-59099038D01*
X77460499Y-59093183D01*
X77498360Y-59060155D01*
X77504085Y-59055161D01*
X77540836Y-59002871D01*
X77544728Y-58997629D01*
X77584176Y-58947318D01*
X77587300Y-58940399D01*
X77588688Y-58938107D01*
X77597057Y-58923435D01*
X77598322Y-58921075D01*
X77602690Y-58914861D01*
X77625903Y-58855323D01*
X77628459Y-58849242D01*
X77651618Y-58797952D01*
X77654745Y-58791027D01*
X77656130Y-58783554D01*
X77656934Y-58780988D01*
X77661555Y-58764765D01*
X77662220Y-58762173D01*
X77664982Y-58755091D01*
X77669987Y-58717076D01*
X77673322Y-58691739D01*
X77674354Y-58685223D01*
X77684611Y-58629881D01*
X77685995Y-58622414D01*
X77682409Y-58560220D01*
X77682200Y-58552967D01*
X77682200Y-57899327D01*
X77682492Y-57890758D01*
X77685910Y-57840625D01*
X77685910Y-57840621D01*
X77686426Y-57833048D01*
X77675436Y-57770081D01*
X77674475Y-57763565D01*
X77667344Y-57704637D01*
X77679017Y-57634607D01*
X77726699Y-57582005D01*
X77792431Y-57563500D01*
X79115339Y-57563500D01*
X79183460Y-57583502D01*
X79204435Y-57600405D01*
X80009233Y-58405204D01*
X80043258Y-58467516D01*
X80045464Y-58481296D01*
X80052401Y-58548162D01*
X80052402Y-58548167D01*
X80053113Y-58555019D01*
X80055295Y-58561559D01*
X80098144Y-58689991D01*
X80107244Y-58717268D01*
X80111096Y-58723492D01*
X80111096Y-58723493D01*
X80157173Y-58797952D01*
X80197248Y-58862713D01*
X80318298Y-58983552D01*
X80324528Y-58987392D01*
X80324529Y-58987393D01*
X80442571Y-59060155D01*
X80463899Y-59073302D01*
X80626243Y-59127149D01*
X80633080Y-59127849D01*
X80633082Y-59127850D01*
X80674401Y-59132083D01*
X80727268Y-59137500D01*
X81324732Y-59137500D01*
X81327978Y-59137163D01*
X81327982Y-59137163D01*
X81362083Y-59133625D01*
X81427019Y-59126887D01*
X81519604Y-59095998D01*
X81582324Y-59075073D01*
X81582326Y-59075072D01*
X81589268Y-59072756D01*
X81734713Y-58982752D01*
X81855552Y-58861702D01*
X81863233Y-58849242D01*
X81894848Y-58797952D01*
X81932122Y-58737483D01*
X81984893Y-58689991D01*
X82039381Y-58677600D01*
X82209988Y-58677600D01*
X82218558Y-58677892D01*
X82268676Y-58681309D01*
X82268680Y-58681309D01*
X82276252Y-58681825D01*
X82283729Y-58680520D01*
X82283730Y-58680520D01*
X82310208Y-58675899D01*
X82339203Y-58670838D01*
X82345721Y-58669877D01*
X82409142Y-58662202D01*
X82416243Y-58659519D01*
X82418852Y-58658878D01*
X82435162Y-58654415D01*
X82437698Y-58653650D01*
X82445184Y-58652343D01*
X82503700Y-58626656D01*
X82509804Y-58624165D01*
X82562448Y-58604273D01*
X82562449Y-58604272D01*
X82569556Y-58601587D01*
X82575819Y-58597283D01*
X82578185Y-58596046D01*
X82592997Y-58587801D01*
X82595251Y-58586468D01*
X82602205Y-58583415D01*
X82652902Y-58544513D01*
X82658232Y-58540641D01*
X82704620Y-58508761D01*
X82704625Y-58508756D01*
X82710881Y-58504457D01*
X82752336Y-58457929D01*
X82757316Y-58452654D01*
X85771528Y-55438443D01*
X85777793Y-55432589D01*
X85815664Y-55399552D01*
X85815665Y-55399551D01*
X85821385Y-55394561D01*
X85858136Y-55342271D01*
X85862028Y-55337029D01*
X85901476Y-55286718D01*
X85904600Y-55279799D01*
X85905988Y-55277507D01*
X85914357Y-55262835D01*
X85915622Y-55260475D01*
X85919990Y-55254261D01*
X85943203Y-55194723D01*
X85945759Y-55188642D01*
X85968918Y-55137352D01*
X85972045Y-55130427D01*
X85973430Y-55122954D01*
X85974234Y-55120388D01*
X85978855Y-55104165D01*
X85979520Y-55101573D01*
X85982282Y-55094491D01*
X85990622Y-55031139D01*
X85991654Y-55024623D01*
X86001911Y-54969281D01*
X86003295Y-54961814D01*
X85999709Y-54899620D01*
X85999500Y-54892367D01*
X85999500Y-52610500D01*
X86019502Y-52542379D01*
X86073158Y-52495886D01*
X86125500Y-52484500D01*
X86909068Y-52484500D01*
X86977189Y-52504502D01*
X87023682Y-52558158D01*
X87028901Y-52571564D01*
X87067740Y-52691096D01*
X87071044Y-52701266D01*
X87072731Y-52704852D01*
X87072733Y-52704856D01*
X87203750Y-52983283D01*
X87203754Y-52983290D01*
X87205438Y-52986869D01*
X87374568Y-53253375D01*
X87575767Y-53496582D01*
X87805860Y-53712654D01*
X88061221Y-53898184D01*
X88064690Y-53900091D01*
X88064693Y-53900093D01*
X88320100Y-54040505D01*
X88337821Y-54050247D01*
X88341490Y-54051700D01*
X88341495Y-54051702D01*
X88509200Y-54118101D01*
X88631298Y-54166443D01*
X88937025Y-54244940D01*
X89250179Y-54284500D01*
X89565821Y-54284500D01*
X89878975Y-54244940D01*
X90184702Y-54166443D01*
X90306800Y-54118101D01*
X90474505Y-54051702D01*
X90474510Y-54051700D01*
X90478179Y-54050247D01*
X90495900Y-54040505D01*
X90751307Y-53900093D01*
X90751310Y-53900091D01*
X90754779Y-53898184D01*
X91010140Y-53712654D01*
X91240233Y-53496582D01*
X91441432Y-53253375D01*
X91610562Y-52986869D01*
X91612246Y-52983290D01*
X91612250Y-52983283D01*
X91743267Y-52704856D01*
X91743269Y-52704852D01*
X91744956Y-52701266D01*
X91748261Y-52691096D01*
X91796582Y-52542379D01*
X91842495Y-52401072D01*
X91901641Y-52091020D01*
X91921460Y-51776000D01*
X91901641Y-51460980D01*
X91842495Y-51150928D01*
X91744956Y-50850734D01*
X91741443Y-50843268D01*
X91612250Y-50568717D01*
X91612246Y-50568710D01*
X91610562Y-50565131D01*
X91441432Y-50298625D01*
X91240233Y-50055418D01*
X91010140Y-49839346D01*
X90754779Y-49653816D01*
X90735282Y-49643097D01*
X90481648Y-49503660D01*
X90481647Y-49503659D01*
X90478179Y-49501753D01*
X90474510Y-49500300D01*
X90474505Y-49500298D01*
X90188372Y-49387010D01*
X90188371Y-49387010D01*
X90184702Y-49385557D01*
X89878975Y-49307060D01*
X89565821Y-49267500D01*
X89250179Y-49267500D01*
X88937025Y-49307060D01*
X88631298Y-49385557D01*
X88627629Y-49387010D01*
X88627628Y-49387010D01*
X88341495Y-49500298D01*
X88341490Y-49500300D01*
X88337821Y-49501753D01*
X88334353Y-49503659D01*
X88334352Y-49503660D01*
X88080719Y-49643097D01*
X88061221Y-49653816D01*
X87805860Y-49839346D01*
X87575767Y-50055418D01*
X87374568Y-50298625D01*
X87205438Y-50565131D01*
X87203754Y-50568710D01*
X87203750Y-50568717D01*
X87074557Y-50843268D01*
X87071044Y-50850734D01*
X87069818Y-50854506D01*
X87069818Y-50854507D01*
X87028901Y-50980436D01*
X86988827Y-51039042D01*
X86923431Y-51066679D01*
X86909068Y-51067500D01*
X85636660Y-51067500D01*
X85568539Y-51047498D01*
X85547565Y-51030595D01*
X84840405Y-50323435D01*
X84806379Y-50261123D01*
X84803500Y-50234340D01*
X84803500Y-50031268D01*
X84792887Y-49928981D01*
X84762901Y-49839103D01*
X84741073Y-49773676D01*
X84741072Y-49773674D01*
X84738756Y-49766732D01*
X84648752Y-49621287D01*
X84527702Y-49500448D01*
X84521471Y-49496607D01*
X84388331Y-49414538D01*
X84388329Y-49414537D01*
X84382101Y-49410698D01*
X84219757Y-49356851D01*
X84212920Y-49356151D01*
X84212918Y-49356150D01*
X84171599Y-49351917D01*
X84118732Y-49346500D01*
X83521268Y-49346500D01*
X83518022Y-49346837D01*
X83518018Y-49346837D01*
X83483917Y-49350375D01*
X83418981Y-49357113D01*
X83412440Y-49359295D01*
X83412441Y-49359295D01*
X83263676Y-49408927D01*
X83263674Y-49408928D01*
X83256732Y-49411244D01*
X83250508Y-49415096D01*
X83250507Y-49415096D01*
X83150806Y-49476793D01*
X83111287Y-49501248D01*
X83106114Y-49506430D01*
X83106109Y-49506434D01*
X83053119Y-49559517D01*
X82990837Y-49593597D01*
X82963946Y-49596500D01*
X81882049Y-49596500D01*
X81813928Y-49576498D01*
X81793032Y-49559674D01*
X81738883Y-49505620D01*
X81738882Y-49505619D01*
X81733702Y-49500448D01*
X81727471Y-49496607D01*
X81594331Y-49414538D01*
X81594329Y-49414537D01*
X81588101Y-49410698D01*
X81425757Y-49356851D01*
X81418920Y-49356151D01*
X81418918Y-49356150D01*
X81377599Y-49351917D01*
X81324732Y-49346500D01*
X81121660Y-49346500D01*
X81053539Y-49326498D01*
X81032565Y-49309595D01*
X80755405Y-49032435D01*
X80721379Y-48970123D01*
X80718500Y-48943340D01*
X80718500Y-47094660D01*
X80738502Y-47026539D01*
X80755405Y-47005565D01*
X81032565Y-46728405D01*
X81094877Y-46694379D01*
X81121660Y-46691500D01*
X81324732Y-46691500D01*
X81327978Y-46691163D01*
X81327982Y-46691163D01*
X81362083Y-46687625D01*
X81427019Y-46680887D01*
X81462597Y-46669017D01*
X81582324Y-46629073D01*
X81582326Y-46629072D01*
X81589268Y-46626756D01*
X81734713Y-46536752D01*
X81855552Y-46415702D01*
X81863280Y-46403165D01*
X81941462Y-46276331D01*
X81941463Y-46276329D01*
X81945302Y-46270101D01*
X81999149Y-46107757D01*
X82009500Y-46006732D01*
X82009500Y-45459268D01*
X82007820Y-45443071D01*
X81999598Y-45363837D01*
X81998887Y-45356981D01*
X81944756Y-45194732D01*
X81897844Y-45118923D01*
X81858605Y-45055513D01*
X81858604Y-45055512D01*
X81854752Y-45049287D01*
X81849570Y-45044114D01*
X81845025Y-45038380D01*
X81846945Y-45036858D01*
X81818455Y-44984794D01*
X81823456Y-44913974D01*
X81846882Y-44877448D01*
X81845843Y-44876628D01*
X81850381Y-44870882D01*
X81855552Y-44865702D01*
X81859393Y-44859471D01*
X81941462Y-44726331D01*
X81941463Y-44726329D01*
X81945302Y-44720101D01*
X81999149Y-44557757D01*
X82009500Y-44456732D01*
X82009500Y-43909268D01*
X81998887Y-43806981D01*
X81944756Y-43644732D01*
X81855444Y-43500405D01*
X81836606Y-43431953D01*
X81856488Y-43368279D01*
X81855552Y-43367702D01*
X81941462Y-43228331D01*
X81941463Y-43228329D01*
X81945302Y-43222101D01*
X81999149Y-43059757D01*
X82009500Y-42958732D01*
X82009500Y-42411268D01*
X81998887Y-42308981D01*
X81987304Y-42274263D01*
X81947073Y-42153676D01*
X81947072Y-42153674D01*
X81944756Y-42146732D01*
X81854752Y-42001287D01*
X81849570Y-41996114D01*
X81845025Y-41990380D01*
X81846945Y-41988858D01*
X81818455Y-41936794D01*
X81823456Y-41865974D01*
X81846882Y-41829448D01*
X81845843Y-41828628D01*
X81850381Y-41822882D01*
X81855552Y-41817702D01*
X81919329Y-41714237D01*
X81941462Y-41678331D01*
X81941463Y-41678329D01*
X81945302Y-41672101D01*
X81999149Y-41509757D01*
X82002363Y-41478394D01*
X82009172Y-41411930D01*
X82009500Y-41408732D01*
X82009500Y-40861268D01*
X81998887Y-40758981D01*
X81953275Y-40622265D01*
X81947073Y-40603676D01*
X81947072Y-40603674D01*
X81944756Y-40596732D01*
X81900852Y-40525783D01*
X81858606Y-40457515D01*
X81854752Y-40451287D01*
X81733702Y-40330448D01*
X81677658Y-40295902D01*
X81594331Y-40244538D01*
X81594329Y-40244537D01*
X81588101Y-40240698D01*
X81425757Y-40186851D01*
X81418920Y-40186151D01*
X81418918Y-40186150D01*
X81377599Y-40181917D01*
X81324732Y-40176500D01*
X80727268Y-40176500D01*
X80724022Y-40176837D01*
X80724018Y-40176837D01*
X80689917Y-40180375D01*
X80624981Y-40187113D01*
X80618440Y-40189295D01*
X80618441Y-40189295D01*
X80469676Y-40238927D01*
X80469674Y-40238928D01*
X80462732Y-40241244D01*
X80456508Y-40245096D01*
X80456507Y-40245096D01*
X80347091Y-40312805D01*
X80317287Y-40331248D01*
X80196448Y-40452298D01*
X80192608Y-40458528D01*
X80192607Y-40458529D01*
X80111255Y-40590507D01*
X80106698Y-40597899D01*
X80052851Y-40760243D01*
X80052151Y-40767080D01*
X80052150Y-40767082D01*
X80049474Y-40793198D01*
X80042500Y-40861268D01*
X80042500Y-41170405D01*
X80022498Y-41238526D01*
X80005595Y-41259501D01*
X79476499Y-41788596D01*
X79414187Y-41822621D01*
X79387404Y-41825500D01*
X76830639Y-41825500D01*
X76762518Y-41805498D01*
X76716025Y-41751842D01*
X76705921Y-41681568D01*
X76730275Y-41623322D01*
X76743705Y-41605629D01*
X76797059Y-41470870D01*
X76807500Y-41384593D01*
X76807499Y-40933408D01*
X76807044Y-40929643D01*
X76798031Y-40855163D01*
X76797059Y-40847130D01*
X76743705Y-40712371D01*
X76656076Y-40596924D01*
X76540629Y-40509295D01*
X76405870Y-40455941D01*
X76319593Y-40445500D01*
X75748595Y-40445500D01*
X75680474Y-40425498D01*
X75659500Y-40408595D01*
X74874905Y-39624000D01*
X92964000Y-39624000D01*
X92964000Y-60706000D01*
G37*
%TD.AperFunction*%
%TA.AperFunction,Conductor*%
G36*
X64816532Y-44273538D02*
G01*
X64873368Y-44316085D01*
X64898179Y-44382605D01*
X64898500Y-44391594D01*
X64898500Y-53077506D01*
X64878498Y-53145627D01*
X64824842Y-53192120D01*
X64770000Y-53200005D01*
X64770000Y-44270210D01*
X64816532Y-44273538D01*
G37*
%TD.AperFunction*%
%TA.AperFunction,Conductor*%
G36*
X65473020Y-41721076D02*
G01*
X64770000Y-42424095D01*
X64770000Y-39624000D01*
X67570096Y-39624000D01*
X65473020Y-41721076D01*
G37*
%TD.AperFunction*%
%TD*%
%TA.AperFunction,Conductor*%
%TO.N,BATT_GND*%
G36*
X93413621Y-38628502D02*
G01*
X93460114Y-38682158D01*
X93471500Y-38734500D01*
X93471500Y-113665500D01*
X93451498Y-113733621D01*
X93397842Y-113780114D01*
X93345500Y-113791500D01*
X51434500Y-113791500D01*
X51366379Y-113771498D01*
X51319886Y-113717842D01*
X51308500Y-113665500D01*
X51308500Y-55871695D01*
X52256251Y-55871695D01*
X52256548Y-55876848D01*
X52256548Y-55876851D01*
X52263881Y-56004030D01*
X52269110Y-56094715D01*
X52270247Y-56099761D01*
X52270248Y-56099767D01*
X52290119Y-56187939D01*
X52318222Y-56312639D01*
X52402266Y-56519616D01*
X52417120Y-56543856D01*
X52505578Y-56688206D01*
X52518987Y-56710088D01*
X52665250Y-56878938D01*
X52837126Y-57021632D01*
X53030000Y-57134338D01*
X53238692Y-57214030D01*
X53243760Y-57215061D01*
X53243763Y-57215062D01*
X53351017Y-57236883D01*
X53457597Y-57258567D01*
X53462772Y-57258757D01*
X53462774Y-57258757D01*
X53675673Y-57266564D01*
X53675677Y-57266564D01*
X53680837Y-57266753D01*
X53685957Y-57266097D01*
X53685959Y-57266097D01*
X53897288Y-57239025D01*
X53897289Y-57239025D01*
X53902416Y-57238368D01*
X53907366Y-57236883D01*
X54111429Y-57175661D01*
X54111434Y-57175659D01*
X54116384Y-57174174D01*
X54316994Y-57075896D01*
X54498860Y-56946173D01*
X54537108Y-56908059D01*
X54653435Y-56792137D01*
X54657096Y-56788489D01*
X54716594Y-56705689D01*
X54784435Y-56611277D01*
X54787453Y-56607077D01*
X54819058Y-56543130D01*
X54884136Y-56411453D01*
X54884139Y-56411446D01*
X54886430Y-56406811D01*
X54945845Y-56211253D01*
X54949865Y-56198023D01*
X54949865Y-56198021D01*
X54951370Y-56193069D01*
X54980529Y-55971590D01*
X54980611Y-55968240D01*
X54982074Y-55908365D01*
X54982074Y-55908361D01*
X54982156Y-55905000D01*
X54963852Y-55682361D01*
X54909431Y-55465702D01*
X54820354Y-55260840D01*
X54780906Y-55199862D01*
X54701822Y-55077617D01*
X54701820Y-55077614D01*
X54699014Y-55073277D01*
X54548670Y-54908051D01*
X54544619Y-54904852D01*
X54544615Y-54904848D01*
X54377414Y-54772800D01*
X54377410Y-54772798D01*
X54373359Y-54769598D01*
X54331569Y-54746529D01*
X54281598Y-54696097D01*
X54266826Y-54626654D01*
X54291942Y-54560248D01*
X54319294Y-54533641D01*
X54494328Y-54408792D01*
X54502200Y-54402139D01*
X54653052Y-54251812D01*
X54659730Y-54243965D01*
X54784003Y-54071020D01*
X54789313Y-54062183D01*
X54883670Y-53871267D01*
X54887469Y-53861672D01*
X54949377Y-53657910D01*
X54951555Y-53647837D01*
X54952986Y-53636962D01*
X54950775Y-53622778D01*
X54937617Y-53619000D01*
X52302225Y-53619000D01*
X52288694Y-53622973D01*
X52287257Y-53632966D01*
X52317565Y-53767446D01*
X52320645Y-53777275D01*
X52400770Y-53974603D01*
X52405413Y-53983794D01*
X52516694Y-54165388D01*
X52522777Y-54173699D01*
X52662213Y-54334667D01*
X52669580Y-54341883D01*
X52833434Y-54477916D01*
X52841881Y-54483831D01*
X52910969Y-54524203D01*
X52959693Y-54575842D01*
X52972764Y-54645625D01*
X52946033Y-54711396D01*
X52905584Y-54744752D01*
X52892607Y-54751507D01*
X52888474Y-54754610D01*
X52888471Y-54754612D01*
X52751746Y-54857268D01*
X52713965Y-54885635D01*
X52559629Y-55047138D01*
X52556715Y-55051410D01*
X52556714Y-55051411D01*
X52498089Y-55137352D01*
X52433743Y-55231680D01*
X52412471Y-55277507D01*
X52348045Y-55416302D01*
X52339688Y-55434305D01*
X52279989Y-55649570D01*
X52256251Y-55871695D01*
X51308500Y-55871695D01*
X51308500Y-50791695D01*
X52256251Y-50791695D01*
X52256548Y-50796848D01*
X52256548Y-50796851D01*
X52267252Y-50982485D01*
X52269110Y-51014715D01*
X52270247Y-51019761D01*
X52270248Y-51019767D01*
X52289134Y-51103566D01*
X52318222Y-51232639D01*
X52402266Y-51439616D01*
X52518987Y-51630088D01*
X52665250Y-51798938D01*
X52837126Y-51941632D01*
X52910953Y-51984773D01*
X52910955Y-51984774D01*
X52959679Y-52036412D01*
X52972750Y-52106195D01*
X52946019Y-52171967D01*
X52905562Y-52205327D01*
X52897457Y-52209546D01*
X52888738Y-52215036D01*
X52718433Y-52342905D01*
X52710726Y-52349748D01*
X52563590Y-52503717D01*
X52557104Y-52511727D01*
X52437098Y-52687649D01*
X52432000Y-52696623D01*
X52342338Y-52889783D01*
X52338775Y-52899470D01*
X52283389Y-53099183D01*
X52284912Y-53107607D01*
X52297292Y-53111000D01*
X54937344Y-53111000D01*
X54950875Y-53107027D01*
X54952180Y-53097947D01*
X54910214Y-52930875D01*
X54906894Y-52921124D01*
X54821972Y-52725814D01*
X54817105Y-52716739D01*
X54701426Y-52537926D01*
X54695136Y-52529757D01*
X54551806Y-52372240D01*
X54544273Y-52365215D01*
X54377139Y-52233222D01*
X54368556Y-52227520D01*
X54331602Y-52207120D01*
X54281631Y-52156687D01*
X54266859Y-52087245D01*
X54291975Y-52020839D01*
X54319327Y-51994232D01*
X54342797Y-51977491D01*
X54498860Y-51866173D01*
X54540252Y-51824926D01*
X54589349Y-51776000D01*
X54657096Y-51708489D01*
X54716594Y-51625689D01*
X54784435Y-51531277D01*
X54787453Y-51527077D01*
X54818162Y-51464943D01*
X54884136Y-51331453D01*
X54884137Y-51331451D01*
X54886430Y-51326811D01*
X54951370Y-51113069D01*
X54980529Y-50891590D01*
X54981710Y-50843268D01*
X54982074Y-50828365D01*
X54982074Y-50828361D01*
X54982156Y-50825000D01*
X54963852Y-50602361D01*
X54909431Y-50385702D01*
X54820354Y-50180840D01*
X54739215Y-50055418D01*
X54701822Y-49997617D01*
X54701820Y-49997614D01*
X54699014Y-49993277D01*
X54548670Y-49828051D01*
X54544619Y-49824852D01*
X54544615Y-49824848D01*
X54377414Y-49692800D01*
X54377410Y-49692798D01*
X54373359Y-49689598D01*
X54332053Y-49666796D01*
X54282084Y-49616364D01*
X54267312Y-49546921D01*
X54292428Y-49480516D01*
X54319780Y-49453909D01*
X54380538Y-49410571D01*
X54498860Y-49326173D01*
X54553468Y-49271756D01*
X54636985Y-49188530D01*
X54657096Y-49168489D01*
X54689024Y-49124057D01*
X54784435Y-48991277D01*
X54787453Y-48987077D01*
X54886430Y-48786811D01*
X54918900Y-48679940D01*
X54949865Y-48578023D01*
X54949865Y-48578021D01*
X54951370Y-48573069D01*
X54980529Y-48351590D01*
X54982156Y-48285000D01*
X54963852Y-48062361D01*
X54909431Y-47845702D01*
X54820354Y-47640840D01*
X54699014Y-47453277D01*
X54548670Y-47288051D01*
X54544619Y-47284852D01*
X54544615Y-47284848D01*
X54377414Y-47152800D01*
X54377410Y-47152798D01*
X54373359Y-47149598D01*
X54332053Y-47126796D01*
X54282084Y-47076364D01*
X54267312Y-47006921D01*
X54292428Y-46940516D01*
X54319780Y-46913909D01*
X54363603Y-46882650D01*
X54498860Y-46786173D01*
X54657096Y-46628489D01*
X54716594Y-46545689D01*
X54784435Y-46451277D01*
X54787453Y-46447077D01*
X54789746Y-46442437D01*
X54791446Y-46439608D01*
X54843674Y-46391518D01*
X54899451Y-46378500D01*
X60979274Y-46378500D01*
X61047395Y-46398502D01*
X61086707Y-46438665D01*
X61154987Y-46550088D01*
X61301250Y-46718938D01*
X61473126Y-46861632D01*
X61543595Y-46902811D01*
X61546445Y-46904476D01*
X61595169Y-46956114D01*
X61608240Y-47025897D01*
X61581509Y-47091669D01*
X61541055Y-47125027D01*
X61528607Y-47131507D01*
X61524474Y-47134610D01*
X61524471Y-47134612D01*
X61354100Y-47262530D01*
X61349965Y-47265635D01*
X61195629Y-47427138D01*
X61069743Y-47611680D01*
X61054003Y-47645590D01*
X60982386Y-47799876D01*
X60975688Y-47814305D01*
X60915989Y-48029570D01*
X60892251Y-48251695D01*
X60892548Y-48256848D01*
X60892548Y-48256851D01*
X60900063Y-48387190D01*
X60905110Y-48474715D01*
X60906247Y-48479761D01*
X60906248Y-48479767D01*
X60911585Y-48503448D01*
X60954222Y-48692639D01*
X60995220Y-48793606D01*
X61020301Y-48855372D01*
X61038266Y-48899616D01*
X61040965Y-48904020D01*
X61119222Y-49031724D01*
X61154987Y-49090088D01*
X61301250Y-49258938D01*
X61473126Y-49401632D01*
X61523657Y-49431160D01*
X61546445Y-49444476D01*
X61595169Y-49496114D01*
X61608240Y-49565897D01*
X61581509Y-49631669D01*
X61541055Y-49665027D01*
X61528607Y-49671507D01*
X61524474Y-49674610D01*
X61524471Y-49674612D01*
X61401779Y-49766732D01*
X61349965Y-49805635D01*
X61195629Y-49967138D01*
X61192715Y-49971410D01*
X61192714Y-49971411D01*
X61107556Y-50096249D01*
X61069743Y-50151680D01*
X61054003Y-50185590D01*
X60978208Y-50348877D01*
X60975688Y-50354305D01*
X60915989Y-50569570D01*
X60892251Y-50791695D01*
X60892548Y-50796848D01*
X60892548Y-50796851D01*
X60903252Y-50982485D01*
X60905110Y-51014715D01*
X60906247Y-51019761D01*
X60906248Y-51019767D01*
X60925134Y-51103566D01*
X60954222Y-51232639D01*
X61038266Y-51439616D01*
X61154987Y-51630088D01*
X61301250Y-51798938D01*
X61473126Y-51941632D01*
X61477593Y-51944242D01*
X61546954Y-51984773D01*
X61595678Y-52036411D01*
X61608749Y-52106194D01*
X61582018Y-52171966D01*
X61541568Y-52205323D01*
X61533463Y-52209542D01*
X61524732Y-52215041D01*
X61354433Y-52342905D01*
X61346726Y-52349748D01*
X61199590Y-52503717D01*
X61193104Y-52511727D01*
X61073098Y-52687649D01*
X61068000Y-52696623D01*
X60978338Y-52889783D01*
X60974775Y-52899470D01*
X60919389Y-53099183D01*
X60920912Y-53107607D01*
X60933292Y-53111000D01*
X62383000Y-53111000D01*
X62451121Y-53131002D01*
X62497614Y-53184658D01*
X62509000Y-53237000D01*
X62509000Y-53493000D01*
X62488998Y-53561121D01*
X62435342Y-53607614D01*
X62383000Y-53619000D01*
X60938225Y-53619000D01*
X60924694Y-53622973D01*
X60923257Y-53632966D01*
X60953565Y-53767446D01*
X60956645Y-53777275D01*
X61036770Y-53974603D01*
X61041413Y-53983794D01*
X61152694Y-54165388D01*
X61158777Y-54173699D01*
X61298213Y-54334667D01*
X61305580Y-54341883D01*
X61469434Y-54477916D01*
X61477881Y-54483831D01*
X61546969Y-54524203D01*
X61595693Y-54575842D01*
X61608764Y-54645625D01*
X61582033Y-54711396D01*
X61541584Y-54744752D01*
X61528607Y-54751507D01*
X61524474Y-54754610D01*
X61524471Y-54754612D01*
X61387746Y-54857268D01*
X61349965Y-54885635D01*
X61195629Y-55047138D01*
X61192715Y-55051410D01*
X61192714Y-55051411D01*
X61134089Y-55137352D01*
X61069743Y-55231680D01*
X61048471Y-55277507D01*
X60984045Y-55416302D01*
X60975688Y-55434305D01*
X60915989Y-55649570D01*
X60892251Y-55871695D01*
X60892548Y-55876848D01*
X60892548Y-55876851D01*
X60899881Y-56004030D01*
X60905110Y-56094715D01*
X60906247Y-56099761D01*
X60906248Y-56099767D01*
X60926119Y-56187939D01*
X60954222Y-56312639D01*
X61038266Y-56519616D01*
X61053120Y-56543856D01*
X61141578Y-56688206D01*
X61154987Y-56710088D01*
X61301250Y-56878938D01*
X61473126Y-57021632D01*
X61666000Y-57134338D01*
X61874692Y-57214030D01*
X61879760Y-57215061D01*
X61879763Y-57215062D01*
X61987017Y-57236883D01*
X62093597Y-57258567D01*
X62098772Y-57258757D01*
X62098774Y-57258757D01*
X62311673Y-57266564D01*
X62311677Y-57266564D01*
X62316837Y-57266753D01*
X62321957Y-57266097D01*
X62321959Y-57266097D01*
X62533288Y-57239025D01*
X62533289Y-57239025D01*
X62538416Y-57238368D01*
X62543366Y-57236883D01*
X62747429Y-57175661D01*
X62747434Y-57175659D01*
X62752384Y-57174174D01*
X62952994Y-57075896D01*
X63134860Y-56946173D01*
X63173108Y-56908059D01*
X63289435Y-56792137D01*
X63293096Y-56788489D01*
X63352594Y-56705689D01*
X63420435Y-56611277D01*
X63423453Y-56607077D01*
X63522430Y-56406811D01*
X63522952Y-56405092D01*
X63566023Y-56349892D01*
X63633027Y-56326416D01*
X63702085Y-56342892D01*
X63751273Y-56394088D01*
X63765500Y-56452250D01*
X63765500Y-69539233D01*
X63764973Y-69550416D01*
X63763298Y-69557909D01*
X63763547Y-69565835D01*
X63763547Y-69565836D01*
X63765438Y-69625986D01*
X63765500Y-69629945D01*
X63765500Y-69657856D01*
X63765997Y-69661790D01*
X63765997Y-69661791D01*
X63766005Y-69661856D01*
X63766938Y-69673693D01*
X63768327Y-69717889D01*
X63773978Y-69737339D01*
X63777987Y-69756700D01*
X63780526Y-69776797D01*
X63783445Y-69784168D01*
X63783445Y-69784170D01*
X63796804Y-69817912D01*
X63800649Y-69829142D01*
X63808707Y-69856879D01*
X63812982Y-69871593D01*
X63817015Y-69878412D01*
X63817017Y-69878417D01*
X63823293Y-69889028D01*
X63831988Y-69906776D01*
X63839448Y-69925617D01*
X63844110Y-69932033D01*
X63844110Y-69932034D01*
X63865436Y-69961387D01*
X63871952Y-69971307D01*
X63882713Y-69989502D01*
X63894458Y-70009362D01*
X63908779Y-70023683D01*
X63921619Y-70038716D01*
X63933528Y-70055107D01*
X63939634Y-70060158D01*
X63967605Y-70083298D01*
X63976384Y-70091288D01*
X65040035Y-71154939D01*
X65074061Y-71217251D01*
X65068996Y-71288066D01*
X65026449Y-71344902D01*
X64959929Y-71369713D01*
X64924743Y-71367281D01*
X64772744Y-71334972D01*
X64772739Y-71334972D01*
X64766287Y-71333600D01*
X64575313Y-71333600D01*
X64568861Y-71334972D01*
X64568856Y-71334972D01*
X64481912Y-71353453D01*
X64388512Y-71373306D01*
X64382482Y-71375991D01*
X64382481Y-71375991D01*
X64220078Y-71448297D01*
X64220076Y-71448298D01*
X64214048Y-71450982D01*
X64059547Y-71563234D01*
X64055126Y-71568144D01*
X64055125Y-71568145D01*
X64009323Y-71619014D01*
X63931760Y-71705156D01*
X63867329Y-71816753D01*
X63840340Y-71863500D01*
X63788958Y-71912493D01*
X63731221Y-71926500D01*
X63189236Y-71926501D01*
X63168366Y-71926501D01*
X63165508Y-71926764D01*
X63165499Y-71926764D01*
X63129996Y-71930026D01*
X63094938Y-71933247D01*
X63088560Y-71935246D01*
X63088559Y-71935246D01*
X62938550Y-71982256D01*
X62938548Y-71982257D01*
X62931301Y-71984528D01*
X62784619Y-72073361D01*
X62663361Y-72194619D01*
X62574528Y-72341301D01*
X62572257Y-72348548D01*
X62572256Y-72348550D01*
X62566527Y-72366832D01*
X62523247Y-72504938D01*
X62516500Y-72578365D01*
X62516501Y-73091634D01*
X62523247Y-73165062D01*
X62525246Y-73171440D01*
X62525246Y-73171441D01*
X62567926Y-73307631D01*
X62574528Y-73328699D01*
X62663361Y-73475381D01*
X62758885Y-73570905D01*
X62792911Y-73633217D01*
X62787846Y-73704032D01*
X62758885Y-73749095D01*
X62663361Y-73844619D01*
X62574528Y-73991301D01*
X62523247Y-74154938D01*
X62516500Y-74228365D01*
X62516501Y-74741634D01*
X62523247Y-74815062D01*
X62525246Y-74821440D01*
X62525246Y-74821441D01*
X62553684Y-74912185D01*
X62574528Y-74978699D01*
X62578461Y-74985193D01*
X62581011Y-74989403D01*
X62599188Y-75058033D01*
X62577376Y-75125596D01*
X62562328Y-75143767D01*
X61455500Y-76250595D01*
X61393188Y-76284621D01*
X61366405Y-76287500D01*
X57056667Y-76287500D01*
X56988546Y-76267498D01*
X56953454Y-76233771D01*
X56862443Y-76103794D01*
X56862441Y-76103791D01*
X56859284Y-76099283D01*
X56701717Y-75941716D01*
X56657304Y-75910617D01*
X56608438Y-75876401D01*
X56519183Y-75813903D01*
X56514201Y-75811580D01*
X56514196Y-75811577D01*
X56414728Y-75765195D01*
X56361443Y-75718278D01*
X56341982Y-75650001D01*
X56362524Y-75582041D01*
X56414728Y-75536805D01*
X56514196Y-75490423D01*
X56514201Y-75490420D01*
X56519183Y-75488097D01*
X56672108Y-75381017D01*
X56697206Y-75363443D01*
X56697208Y-75363441D01*
X56701717Y-75360284D01*
X56859284Y-75202717D01*
X56897724Y-75147820D01*
X56983940Y-75024690D01*
X56987097Y-75020182D01*
X56989420Y-75015200D01*
X56989423Y-75015195D01*
X57078947Y-74823209D01*
X57078948Y-74823208D01*
X57081270Y-74818227D01*
X57082774Y-74812616D01*
X57114327Y-74694857D01*
X57138944Y-74602986D01*
X57158365Y-74381000D01*
X57138944Y-74159014D01*
X57081270Y-73943773D01*
X57078947Y-73938791D01*
X56989423Y-73746805D01*
X56989420Y-73746800D01*
X56987097Y-73741818D01*
X56867422Y-73570905D01*
X56862443Y-73563794D01*
X56862441Y-73563791D01*
X56859284Y-73559283D01*
X56701717Y-73401716D01*
X56657304Y-73370617D01*
X56613775Y-73340138D01*
X56519183Y-73273903D01*
X56514201Y-73271580D01*
X56514196Y-73271577D01*
X56414728Y-73225195D01*
X56361443Y-73178278D01*
X56341982Y-73110001D01*
X56362524Y-73042041D01*
X56414728Y-72996805D01*
X56514196Y-72950423D01*
X56514201Y-72950420D01*
X56519183Y-72948097D01*
X56689418Y-72828896D01*
X56697206Y-72823443D01*
X56697208Y-72823441D01*
X56701717Y-72820284D01*
X56859284Y-72662717D01*
X56881078Y-72631593D01*
X56918348Y-72578365D01*
X56987097Y-72480182D01*
X56989420Y-72475200D01*
X56989423Y-72475195D01*
X57078947Y-72283209D01*
X57078948Y-72283208D01*
X57081270Y-72278227D01*
X57138944Y-72062986D01*
X57158365Y-71841000D01*
X57138944Y-71619014D01*
X57081270Y-71403773D01*
X57064254Y-71367281D01*
X56989423Y-71206805D01*
X56989420Y-71206800D01*
X56987097Y-71201818D01*
X56867165Y-71030538D01*
X56862443Y-71023794D01*
X56862441Y-71023791D01*
X56859284Y-71019283D01*
X56701717Y-70861716D01*
X56519183Y-70733903D01*
X56514201Y-70731580D01*
X56514196Y-70731577D01*
X56414728Y-70685195D01*
X56361443Y-70638278D01*
X56341982Y-70570001D01*
X56362524Y-70502041D01*
X56414728Y-70456805D01*
X56514196Y-70410423D01*
X56514201Y-70410420D01*
X56519183Y-70408097D01*
X56701717Y-70280284D01*
X56859284Y-70122717D01*
X56903089Y-70060158D01*
X56928629Y-70023683D01*
X56987097Y-69940182D01*
X56989420Y-69935200D01*
X56989423Y-69935195D01*
X57078947Y-69743209D01*
X57078948Y-69743208D01*
X57081270Y-69738227D01*
X57082774Y-69732616D01*
X57114327Y-69614857D01*
X57138944Y-69522986D01*
X57158365Y-69301000D01*
X57138944Y-69079014D01*
X57081270Y-68863773D01*
X56998889Y-68687105D01*
X56989423Y-68666805D01*
X56989420Y-68666800D01*
X56987097Y-68661818D01*
X56859284Y-68479283D01*
X56701717Y-68321716D01*
X56657304Y-68290617D01*
X56608438Y-68256401D01*
X56519183Y-68193903D01*
X56514201Y-68191580D01*
X56514196Y-68191577D01*
X56322209Y-68102053D01*
X56322208Y-68102053D01*
X56317227Y-68099730D01*
X56311919Y-68098308D01*
X56311917Y-68098307D01*
X56245535Y-68080520D01*
X56101986Y-68042056D01*
X55880000Y-68022635D01*
X55658014Y-68042056D01*
X55514465Y-68080520D01*
X55448083Y-68098307D01*
X55448081Y-68098308D01*
X55442773Y-68099730D01*
X55437792Y-68102052D01*
X55437791Y-68102053D01*
X55245805Y-68191577D01*
X55245800Y-68191580D01*
X55240818Y-68193903D01*
X55058283Y-68321716D01*
X54900716Y-68479283D01*
X54772903Y-68661818D01*
X54770580Y-68666800D01*
X54770577Y-68666805D01*
X54761111Y-68687105D01*
X54678730Y-68863773D01*
X54621056Y-69079014D01*
X54601635Y-69301000D01*
X54621056Y-69522986D01*
X54622479Y-69528296D01*
X54622480Y-69528303D01*
X54632036Y-69563966D01*
X54630346Y-69634942D01*
X54599424Y-69685671D01*
X53201747Y-71083348D01*
X53193461Y-71090888D01*
X53186982Y-71095000D01*
X53181557Y-71100777D01*
X53140357Y-71144651D01*
X53137602Y-71147493D01*
X53117865Y-71167230D01*
X53115385Y-71170427D01*
X53107682Y-71179447D01*
X53077414Y-71211679D01*
X53073595Y-71218625D01*
X53073593Y-71218628D01*
X53067652Y-71229434D01*
X53056801Y-71245953D01*
X53044386Y-71261959D01*
X53041241Y-71269228D01*
X53041238Y-71269232D01*
X53026826Y-71302537D01*
X53021609Y-71313187D01*
X53000305Y-71351940D01*
X52998334Y-71359615D01*
X52998334Y-71359616D01*
X52995267Y-71371562D01*
X52988863Y-71390266D01*
X52985695Y-71397588D01*
X52980819Y-71408855D01*
X52979580Y-71416678D01*
X52979577Y-71416688D01*
X52973901Y-71452524D01*
X52971495Y-71464144D01*
X52960500Y-71506970D01*
X52960500Y-71527224D01*
X52958949Y-71546934D01*
X52955780Y-71566943D01*
X52956526Y-71574835D01*
X52959941Y-71610961D01*
X52960500Y-71622819D01*
X52960500Y-105331233D01*
X52959973Y-105342416D01*
X52958298Y-105349909D01*
X52958547Y-105357835D01*
X52958547Y-105357836D01*
X52960438Y-105417986D01*
X52960500Y-105421945D01*
X52960500Y-105449856D01*
X52960997Y-105453790D01*
X52960997Y-105453791D01*
X52961005Y-105453856D01*
X52961938Y-105465693D01*
X52963327Y-105509889D01*
X52968181Y-105526596D01*
X52968978Y-105529339D01*
X52972987Y-105548700D01*
X52975526Y-105568797D01*
X52978445Y-105576168D01*
X52978445Y-105576170D01*
X52991804Y-105609912D01*
X52995649Y-105621142D01*
X53007982Y-105663593D01*
X53012015Y-105670412D01*
X53012017Y-105670417D01*
X53018293Y-105681028D01*
X53026988Y-105698776D01*
X53034448Y-105717617D01*
X53039110Y-105724033D01*
X53039110Y-105724034D01*
X53060436Y-105753387D01*
X53066952Y-105763307D01*
X53072388Y-105772498D01*
X53089458Y-105801362D01*
X53103779Y-105815683D01*
X53116619Y-105830716D01*
X53128528Y-105847107D01*
X53134632Y-105852157D01*
X53134637Y-105852162D01*
X53162598Y-105875293D01*
X53171379Y-105883283D01*
X54106353Y-106818258D01*
X54113887Y-106826537D01*
X54118000Y-106833018D01*
X54139095Y-106852827D01*
X54167651Y-106879643D01*
X54170493Y-106882398D01*
X54190230Y-106902135D01*
X54193427Y-106904615D01*
X54202447Y-106912318D01*
X54234679Y-106942586D01*
X54241625Y-106946405D01*
X54241628Y-106946407D01*
X54252434Y-106952348D01*
X54268953Y-106963199D01*
X54284959Y-106975614D01*
X54292228Y-106978759D01*
X54292232Y-106978762D01*
X54325537Y-106993174D01*
X54336187Y-106998391D01*
X54374940Y-107019695D01*
X54382615Y-107021666D01*
X54382616Y-107021666D01*
X54394562Y-107024733D01*
X54413267Y-107031137D01*
X54431855Y-107039181D01*
X54439678Y-107040420D01*
X54439688Y-107040423D01*
X54475524Y-107046099D01*
X54487144Y-107048505D01*
X54518959Y-107056673D01*
X54529970Y-107059500D01*
X54550224Y-107059500D01*
X54569934Y-107061051D01*
X54589943Y-107064220D01*
X54597835Y-107063474D01*
X54616580Y-107061702D01*
X54633962Y-107060059D01*
X54645819Y-107059500D01*
X59675233Y-107059500D01*
X59686416Y-107060027D01*
X59693909Y-107061702D01*
X59701835Y-107061453D01*
X59701836Y-107061453D01*
X59761986Y-107059562D01*
X59765945Y-107059500D01*
X59793856Y-107059500D01*
X59797791Y-107059003D01*
X59797856Y-107058995D01*
X59809693Y-107058062D01*
X59829963Y-107057425D01*
X59851163Y-107056759D01*
X59919879Y-107074612D01*
X59968034Y-107126781D01*
X59980593Y-107171170D01*
X59983247Y-107200062D01*
X59985246Y-107206440D01*
X59985246Y-107206441D01*
X59996251Y-107241556D01*
X60034528Y-107363699D01*
X60123361Y-107510381D01*
X60244619Y-107631639D01*
X60391301Y-107720472D01*
X60398548Y-107722743D01*
X60398550Y-107722744D01*
X60441198Y-107736109D01*
X60554938Y-107771753D01*
X60628365Y-107778500D01*
X60631263Y-107778500D01*
X60960860Y-107778499D01*
X61291634Y-107778499D01*
X61294492Y-107778236D01*
X61294501Y-107778236D01*
X61330004Y-107774974D01*
X61365062Y-107771753D01*
X61478802Y-107736109D01*
X61521450Y-107722744D01*
X61521452Y-107722743D01*
X61528699Y-107720472D01*
X61567922Y-107696718D01*
X61636552Y-107678539D01*
X61684442Y-107689387D01*
X61795412Y-107738794D01*
X61888812Y-107758647D01*
X61975756Y-107777128D01*
X61975761Y-107777128D01*
X61982213Y-107778500D01*
X62173187Y-107778500D01*
X62179639Y-107777128D01*
X62179644Y-107777128D01*
X62266588Y-107758647D01*
X62359988Y-107738794D01*
X62396037Y-107722744D01*
X62528422Y-107663803D01*
X62528424Y-107663802D01*
X62534452Y-107661118D01*
X62569608Y-107635576D01*
X62589857Y-107620864D01*
X62688953Y-107548866D01*
X62693375Y-107543955D01*
X62812321Y-107411852D01*
X62812322Y-107411851D01*
X62816740Y-107406944D01*
X62912227Y-107241556D01*
X62971242Y-107059928D01*
X62972600Y-107047013D01*
X62990514Y-106876565D01*
X62991204Y-106870000D01*
X62971242Y-106680072D01*
X62912227Y-106498444D01*
X62816740Y-106333056D01*
X62718765Y-106224243D01*
X62693375Y-106196045D01*
X62693374Y-106196044D01*
X62688953Y-106191134D01*
X62534452Y-106078882D01*
X62528424Y-106076198D01*
X62528422Y-106076197D01*
X62366019Y-106003891D01*
X62366018Y-106003891D01*
X62359988Y-106001206D01*
X62266588Y-105981353D01*
X62179644Y-105962872D01*
X62179639Y-105962872D01*
X62173187Y-105961500D01*
X61982213Y-105961500D01*
X61975753Y-105962873D01*
X61970606Y-105963414D01*
X61900767Y-105950641D01*
X61848921Y-105902139D01*
X61831527Y-105833306D01*
X61849659Y-105772834D01*
X61861436Y-105753387D01*
X61885472Y-105713699D01*
X61936753Y-105550062D01*
X61943500Y-105476635D01*
X61943499Y-104963366D01*
X61943234Y-104960474D01*
X61937364Y-104896592D01*
X61936753Y-104889938D01*
X61885472Y-104726301D01*
X61796639Y-104579619D01*
X61675381Y-104458361D01*
X61528699Y-104369528D01*
X61521452Y-104367257D01*
X61521450Y-104367256D01*
X61455164Y-104346483D01*
X61365062Y-104318247D01*
X61291635Y-104311500D01*
X61288737Y-104311500D01*
X60959140Y-104311501D01*
X60628366Y-104311501D01*
X60625508Y-104311764D01*
X60625499Y-104311764D01*
X60589996Y-104315026D01*
X60554938Y-104318247D01*
X60548560Y-104320246D01*
X60548559Y-104320246D01*
X60398550Y-104367256D01*
X60398548Y-104367257D01*
X60391301Y-104369528D01*
X60244619Y-104458361D01*
X60123361Y-104579619D01*
X60034528Y-104726301D01*
X59983247Y-104889938D01*
X59976500Y-104963365D01*
X59976501Y-105122187D01*
X59976501Y-105255404D01*
X59956499Y-105323524D01*
X59939596Y-105344500D01*
X59528499Y-105755596D01*
X59466187Y-105789621D01*
X59439404Y-105792500D01*
X57279500Y-105792500D01*
X57211379Y-105772498D01*
X57164886Y-105718842D01*
X57153500Y-105666500D01*
X57153500Y-104047866D01*
X57146745Y-103985684D01*
X57095615Y-103849295D01*
X57008261Y-103732739D01*
X56891705Y-103645385D01*
X56755316Y-103594255D01*
X56693134Y-103587500D01*
X56674760Y-103587500D01*
X56606639Y-103567498D01*
X56560146Y-103513842D01*
X56550042Y-103443568D01*
X56576305Y-103382904D01*
X56569226Y-103369436D01*
X55892812Y-102693022D01*
X55878868Y-102685408D01*
X55877035Y-102685539D01*
X55870420Y-102689790D01*
X55190053Y-103370157D01*
X55183623Y-103381933D01*
X55185533Y-103384402D01*
X55211395Y-103450521D01*
X55197405Y-103520125D01*
X55148004Y-103571117D01*
X55085874Y-103587500D01*
X55066866Y-103587500D01*
X55004684Y-103594255D01*
X54868295Y-103645385D01*
X54751739Y-103732739D01*
X54664385Y-103849295D01*
X54613255Y-103985684D01*
X54606500Y-104047866D01*
X54606500Y-105222404D01*
X54586498Y-105290525D01*
X54532842Y-105337018D01*
X54462568Y-105347122D01*
X54397988Y-105317628D01*
X54391405Y-105311499D01*
X54264405Y-105184499D01*
X54230379Y-105122187D01*
X54227500Y-105095404D01*
X54227500Y-102326475D01*
X54602616Y-102326475D01*
X54621072Y-102537419D01*
X54622975Y-102548214D01*
X54677779Y-102752745D01*
X54681525Y-102763037D01*
X54771012Y-102954944D01*
X54776495Y-102964439D01*
X54807640Y-103008919D01*
X54818117Y-103017294D01*
X54831564Y-103010226D01*
X55507978Y-102333812D01*
X55514356Y-102322132D01*
X56244408Y-102322132D01*
X56244539Y-102323965D01*
X56248790Y-102330580D01*
X56929157Y-103010947D01*
X56940932Y-103017377D01*
X56952947Y-103008081D01*
X56983505Y-102964439D01*
X56988988Y-102954944D01*
X57078475Y-102763037D01*
X57082221Y-102752745D01*
X57137025Y-102548214D01*
X57138928Y-102537419D01*
X57157384Y-102326475D01*
X57157384Y-102315525D01*
X57138928Y-102104581D01*
X57137025Y-102093786D01*
X57082221Y-101889255D01*
X57078475Y-101878963D01*
X56988988Y-101687056D01*
X56983505Y-101677561D01*
X56952360Y-101633081D01*
X56941883Y-101624706D01*
X56928436Y-101631774D01*
X56252022Y-102308188D01*
X56244408Y-102322132D01*
X55514356Y-102322132D01*
X55515592Y-102319868D01*
X55515461Y-102318035D01*
X55511210Y-102311420D01*
X54830843Y-101631053D01*
X54819068Y-101624623D01*
X54807053Y-101633919D01*
X54776495Y-101677561D01*
X54771012Y-101687056D01*
X54681525Y-101878963D01*
X54677779Y-101889255D01*
X54622975Y-102093786D01*
X54621072Y-102104581D01*
X54602616Y-102315525D01*
X54602616Y-102326475D01*
X54227500Y-102326475D01*
X54227500Y-71901594D01*
X54247502Y-71833473D01*
X54264405Y-71812499D01*
X54391912Y-71684992D01*
X54454224Y-71650966D01*
X54525039Y-71656031D01*
X54581875Y-71698578D01*
X54606686Y-71765098D01*
X54606528Y-71785068D01*
X54604747Y-71805424D01*
X54601635Y-71841000D01*
X54621056Y-72062986D01*
X54678730Y-72278227D01*
X54681052Y-72283208D01*
X54681053Y-72283209D01*
X54770577Y-72475195D01*
X54770580Y-72475200D01*
X54772903Y-72480182D01*
X54841652Y-72578365D01*
X54878923Y-72631593D01*
X54900716Y-72662717D01*
X55058283Y-72820284D01*
X55062792Y-72823441D01*
X55062794Y-72823443D01*
X55070582Y-72828896D01*
X55240817Y-72948097D01*
X55245802Y-72950421D01*
X55245808Y-72950425D01*
X55345272Y-72996805D01*
X55398558Y-73043722D01*
X55418019Y-73111999D01*
X55397478Y-73179959D01*
X55345273Y-73225195D01*
X55245805Y-73271577D01*
X55245800Y-73271580D01*
X55240818Y-73273903D01*
X55058283Y-73401716D01*
X54900716Y-73559283D01*
X54897559Y-73563791D01*
X54897557Y-73563794D01*
X54892578Y-73570905D01*
X54772903Y-73741818D01*
X54770580Y-73746800D01*
X54770577Y-73746805D01*
X54681053Y-73938791D01*
X54678730Y-73943773D01*
X54621056Y-74159014D01*
X54601635Y-74381000D01*
X54621056Y-74602986D01*
X54645673Y-74694857D01*
X54677227Y-74812616D01*
X54678730Y-74818227D01*
X54681052Y-74823208D01*
X54681053Y-74823209D01*
X54770577Y-75015195D01*
X54770580Y-75015200D01*
X54772903Y-75020182D01*
X54776060Y-75024690D01*
X54862277Y-75147820D01*
X54900716Y-75202717D01*
X55058283Y-75360284D01*
X55062792Y-75363441D01*
X55062794Y-75363443D01*
X55087892Y-75381017D01*
X55240817Y-75488097D01*
X55245802Y-75490421D01*
X55245808Y-75490425D01*
X55345272Y-75536805D01*
X55398558Y-75583722D01*
X55418019Y-75651999D01*
X55397478Y-75719959D01*
X55345273Y-75765195D01*
X55245805Y-75811577D01*
X55245800Y-75811580D01*
X55240818Y-75813903D01*
X55058283Y-75941716D01*
X54900716Y-76099283D01*
X54772903Y-76281818D01*
X54770580Y-76286800D01*
X54770577Y-76286805D01*
X54688369Y-76463102D01*
X54678730Y-76483773D01*
X54621056Y-76699014D01*
X54601635Y-76921000D01*
X54621056Y-77142986D01*
X54645673Y-77234857D01*
X54677227Y-77352616D01*
X54678730Y-77358227D01*
X54681052Y-77363208D01*
X54681053Y-77363209D01*
X54770577Y-77555195D01*
X54770580Y-77555200D01*
X54772903Y-77560182D01*
X54900716Y-77742717D01*
X55058283Y-77900284D01*
X55062792Y-77903441D01*
X55062794Y-77903443D01*
X55128019Y-77949114D01*
X55240817Y-78028097D01*
X55245802Y-78030421D01*
X55245808Y-78030425D01*
X55345272Y-78076805D01*
X55398558Y-78123722D01*
X55418019Y-78191999D01*
X55397478Y-78259959D01*
X55345273Y-78305195D01*
X55245805Y-78351577D01*
X55245800Y-78351580D01*
X55240818Y-78353903D01*
X55058283Y-78481716D01*
X54900716Y-78639283D01*
X54897559Y-78643791D01*
X54897557Y-78643794D01*
X54853128Y-78707245D01*
X54772903Y-78821818D01*
X54770580Y-78826800D01*
X54770577Y-78826805D01*
X54692729Y-78993751D01*
X54678730Y-79023773D01*
X54621056Y-79239014D01*
X54601635Y-79461000D01*
X54621056Y-79682986D01*
X54645673Y-79774857D01*
X54677227Y-79892616D01*
X54678730Y-79898227D01*
X54681052Y-79903208D01*
X54681053Y-79903209D01*
X54770577Y-80095195D01*
X54770580Y-80095200D01*
X54772903Y-80100182D01*
X54900716Y-80282717D01*
X55058283Y-80440284D01*
X55240817Y-80568097D01*
X55245802Y-80570421D01*
X55245808Y-80570425D01*
X55345272Y-80616805D01*
X55398558Y-80663722D01*
X55418019Y-80731999D01*
X55397478Y-80799959D01*
X55345273Y-80845195D01*
X55245805Y-80891577D01*
X55245800Y-80891580D01*
X55240818Y-80893903D01*
X55151562Y-80956401D01*
X55096866Y-80994700D01*
X55058283Y-81021716D01*
X54900716Y-81179283D01*
X54772903Y-81361818D01*
X54770580Y-81366800D01*
X54770577Y-81366805D01*
X54688369Y-81543102D01*
X54678730Y-81563773D01*
X54621056Y-81779014D01*
X54601635Y-82001000D01*
X54621056Y-82222986D01*
X54645673Y-82314857D01*
X54677227Y-82432616D01*
X54678730Y-82438227D01*
X54681052Y-82443208D01*
X54681053Y-82443209D01*
X54770577Y-82635195D01*
X54770580Y-82635200D01*
X54772903Y-82640182D01*
X54811777Y-82695699D01*
X54879166Y-82791940D01*
X54900716Y-82822717D01*
X55058283Y-82980284D01*
X55062792Y-82983441D01*
X55062794Y-82983443D01*
X55105743Y-83013516D01*
X55240817Y-83108097D01*
X55245802Y-83110421D01*
X55245808Y-83110425D01*
X55345272Y-83156805D01*
X55398558Y-83203722D01*
X55418019Y-83271999D01*
X55397478Y-83339959D01*
X55345273Y-83385195D01*
X55245805Y-83431577D01*
X55245800Y-83431580D01*
X55240818Y-83433903D01*
X55058283Y-83561716D01*
X54900716Y-83719283D01*
X54772903Y-83901818D01*
X54770580Y-83906800D01*
X54770577Y-83906805D01*
X54688369Y-84083102D01*
X54678730Y-84103773D01*
X54621056Y-84319014D01*
X54601635Y-84541000D01*
X54621056Y-84762986D01*
X54645673Y-84854857D01*
X54677227Y-84972616D01*
X54678730Y-84978227D01*
X54681052Y-84983208D01*
X54681053Y-84983209D01*
X54770577Y-85175195D01*
X54770580Y-85175200D01*
X54772903Y-85180182D01*
X54900716Y-85362717D01*
X55058283Y-85520284D01*
X55240817Y-85648097D01*
X55245802Y-85650421D01*
X55245808Y-85650425D01*
X55345272Y-85696805D01*
X55398558Y-85743722D01*
X55418019Y-85811999D01*
X55397478Y-85879959D01*
X55345273Y-85925195D01*
X55245805Y-85971577D01*
X55245800Y-85971580D01*
X55240818Y-85973903D01*
X55058283Y-86101716D01*
X54900716Y-86259283D01*
X54772903Y-86441818D01*
X54770580Y-86446800D01*
X54770577Y-86446805D01*
X54688369Y-86623102D01*
X54678730Y-86643773D01*
X54621056Y-86859014D01*
X54601635Y-87081000D01*
X54621056Y-87302986D01*
X54645673Y-87394857D01*
X54677227Y-87512616D01*
X54678730Y-87518227D01*
X54681052Y-87523208D01*
X54681053Y-87523209D01*
X54770577Y-87715195D01*
X54770580Y-87715200D01*
X54772903Y-87720182D01*
X54900716Y-87902717D01*
X55058283Y-88060284D01*
X55240817Y-88188097D01*
X55245802Y-88190421D01*
X55245808Y-88190425D01*
X55345272Y-88236805D01*
X55398558Y-88283722D01*
X55418019Y-88351999D01*
X55397478Y-88419959D01*
X55345273Y-88465195D01*
X55245805Y-88511577D01*
X55245800Y-88511580D01*
X55240818Y-88513903D01*
X55058283Y-88641716D01*
X54900716Y-88799283D01*
X54772903Y-88981818D01*
X54770580Y-88986800D01*
X54770577Y-88986805D01*
X54688286Y-89163280D01*
X54678730Y-89183773D01*
X54621056Y-89399014D01*
X54601635Y-89621000D01*
X54621056Y-89842986D01*
X54626207Y-89862208D01*
X54661490Y-89993885D01*
X54678730Y-90058227D01*
X54681052Y-90063208D01*
X54681053Y-90063209D01*
X54770577Y-90255195D01*
X54770580Y-90255200D01*
X54772903Y-90260182D01*
X54842986Y-90360270D01*
X54871421Y-90400879D01*
X54900716Y-90442717D01*
X55058283Y-90600284D01*
X55062792Y-90603441D01*
X55062794Y-90603443D01*
X55100521Y-90629860D01*
X55240817Y-90728097D01*
X55245802Y-90730421D01*
X55245808Y-90730425D01*
X55345272Y-90776805D01*
X55398558Y-90823722D01*
X55418019Y-90891999D01*
X55397478Y-90959959D01*
X55345273Y-91005195D01*
X55245805Y-91051577D01*
X55245800Y-91051580D01*
X55240818Y-91053903D01*
X55058283Y-91181716D01*
X54900716Y-91339283D01*
X54772903Y-91521818D01*
X54770580Y-91526800D01*
X54770577Y-91526805D01*
X54681053Y-91718791D01*
X54678730Y-91723773D01*
X54621056Y-91939014D01*
X54601635Y-92161000D01*
X54621056Y-92382986D01*
X54678730Y-92598227D01*
X54681052Y-92603208D01*
X54681053Y-92603209D01*
X54770577Y-92795195D01*
X54770580Y-92795200D01*
X54772903Y-92800182D01*
X54817467Y-92863826D01*
X54895034Y-92974602D01*
X54900716Y-92982717D01*
X55058283Y-93140284D01*
X55062792Y-93143441D01*
X55062794Y-93143443D01*
X55106732Y-93174209D01*
X55240817Y-93268097D01*
X55245802Y-93270421D01*
X55245808Y-93270425D01*
X55345272Y-93316805D01*
X55398558Y-93363722D01*
X55418019Y-93431999D01*
X55397478Y-93499959D01*
X55345273Y-93545195D01*
X55245805Y-93591577D01*
X55245800Y-93591580D01*
X55240818Y-93593903D01*
X55058283Y-93721716D01*
X54900716Y-93879283D01*
X54897559Y-93883791D01*
X54897557Y-93883794D01*
X54875975Y-93914617D01*
X54772903Y-94061818D01*
X54770580Y-94066800D01*
X54770577Y-94066805D01*
X54729492Y-94154913D01*
X54678730Y-94263773D01*
X54621056Y-94479014D01*
X54601635Y-94701000D01*
X54621056Y-94922986D01*
X54678730Y-95138227D01*
X54681052Y-95143208D01*
X54681053Y-95143209D01*
X54770577Y-95335195D01*
X54770580Y-95335200D01*
X54772903Y-95340182D01*
X54900716Y-95522717D01*
X55058283Y-95680284D01*
X55062792Y-95683441D01*
X55062794Y-95683443D01*
X55113917Y-95719240D01*
X55240817Y-95808097D01*
X55245802Y-95810421D01*
X55245808Y-95810425D01*
X55345272Y-95856805D01*
X55398558Y-95903722D01*
X55418019Y-95971999D01*
X55397478Y-96039959D01*
X55345273Y-96085195D01*
X55245805Y-96131577D01*
X55245800Y-96131580D01*
X55240818Y-96133903D01*
X55058283Y-96261716D01*
X54900716Y-96419283D01*
X54772903Y-96601818D01*
X54770580Y-96606800D01*
X54770577Y-96606805D01*
X54770460Y-96607056D01*
X54678730Y-96803773D01*
X54621056Y-97019014D01*
X54601635Y-97241000D01*
X54621056Y-97462986D01*
X54678730Y-97678227D01*
X54681052Y-97683208D01*
X54681053Y-97683209D01*
X54770577Y-97875195D01*
X54770580Y-97875200D01*
X54772903Y-97880182D01*
X54900716Y-98062717D01*
X55058283Y-98220284D01*
X55062792Y-98223441D01*
X55062794Y-98223443D01*
X55138110Y-98276180D01*
X55240817Y-98348097D01*
X55245802Y-98350421D01*
X55245808Y-98350425D01*
X55345272Y-98396805D01*
X55398558Y-98443722D01*
X55418019Y-98511999D01*
X55397478Y-98579959D01*
X55345273Y-98625195D01*
X55245805Y-98671577D01*
X55245800Y-98671580D01*
X55240818Y-98673903D01*
X55058283Y-98801716D01*
X54900716Y-98959283D01*
X54897559Y-98963791D01*
X54897557Y-98963794D01*
X54875975Y-98994617D01*
X54772903Y-99141818D01*
X54770580Y-99146800D01*
X54770577Y-99146805D01*
X54681053Y-99338791D01*
X54678730Y-99343773D01*
X54677308Y-99349081D01*
X54677307Y-99349083D01*
X54668299Y-99382702D01*
X54621056Y-99559014D01*
X54601635Y-99781000D01*
X54621056Y-100002986D01*
X54678730Y-100218227D01*
X54681052Y-100223208D01*
X54681053Y-100223209D01*
X54770577Y-100415195D01*
X54770580Y-100415200D01*
X54772903Y-100420182D01*
X54815525Y-100481052D01*
X54892956Y-100591634D01*
X54900716Y-100602717D01*
X55058283Y-100760284D01*
X55062792Y-100763441D01*
X55062794Y-100763443D01*
X55113920Y-100799242D01*
X55240817Y-100888097D01*
X55245802Y-100890421D01*
X55245808Y-100890425D01*
X55345864Y-100937081D01*
X55399150Y-100983998D01*
X55418611Y-101052275D01*
X55398070Y-101120235D01*
X55345865Y-101165471D01*
X55246056Y-101212012D01*
X55236561Y-101217495D01*
X55192081Y-101248640D01*
X55183706Y-101259117D01*
X55190774Y-101272564D01*
X55867188Y-101948978D01*
X55881132Y-101956592D01*
X55882965Y-101956461D01*
X55889580Y-101952210D01*
X56569947Y-101271843D01*
X56576377Y-101260068D01*
X56567084Y-101248055D01*
X56523431Y-101217488D01*
X56513953Y-101212016D01*
X56414136Y-101165471D01*
X56360851Y-101118554D01*
X56341390Y-101050277D01*
X56361932Y-100982317D01*
X56414136Y-100937081D01*
X56514196Y-100890423D01*
X56514201Y-100890420D01*
X56519183Y-100888097D01*
X56646080Y-100799242D01*
X56697206Y-100763443D01*
X56697208Y-100763441D01*
X56701717Y-100760284D01*
X56859284Y-100602717D01*
X56867045Y-100591634D01*
X56944475Y-100481052D01*
X56987097Y-100420182D01*
X56989420Y-100415200D01*
X56989423Y-100415195D01*
X57078947Y-100223209D01*
X57078948Y-100223208D01*
X57081270Y-100218227D01*
X57138944Y-100002986D01*
X57158365Y-99781000D01*
X57138944Y-99559014D01*
X57091701Y-99382702D01*
X57082693Y-99349083D01*
X57082692Y-99349081D01*
X57081270Y-99343773D01*
X57078947Y-99338791D01*
X56989423Y-99146805D01*
X56989420Y-99146800D01*
X56987097Y-99141818D01*
X56884025Y-98994617D01*
X56862443Y-98963794D01*
X56862441Y-98963791D01*
X56859284Y-98959283D01*
X56701717Y-98801716D01*
X56519183Y-98673903D01*
X56514201Y-98671580D01*
X56514196Y-98671577D01*
X56414728Y-98625195D01*
X56361443Y-98578278D01*
X56341982Y-98510001D01*
X56362524Y-98442041D01*
X56414728Y-98396805D01*
X56514196Y-98350423D01*
X56514201Y-98350420D01*
X56519183Y-98348097D01*
X56621890Y-98276180D01*
X56697206Y-98223443D01*
X56697208Y-98223441D01*
X56701717Y-98220284D01*
X56859284Y-98062717D01*
X56987097Y-97880182D01*
X56989420Y-97875200D01*
X56989423Y-97875195D01*
X57078947Y-97683209D01*
X57078948Y-97683208D01*
X57081270Y-97678227D01*
X57138944Y-97462986D01*
X57158365Y-97241000D01*
X57138944Y-97019014D01*
X57081270Y-96803773D01*
X56989540Y-96607056D01*
X56989423Y-96606805D01*
X56989420Y-96606800D01*
X56987097Y-96601818D01*
X56859284Y-96419283D01*
X56701717Y-96261716D01*
X56519183Y-96133903D01*
X56514201Y-96131580D01*
X56514196Y-96131577D01*
X56414728Y-96085195D01*
X56361443Y-96038278D01*
X56341982Y-95970001D01*
X56362524Y-95902041D01*
X56414728Y-95856805D01*
X56514196Y-95810423D01*
X56514201Y-95810420D01*
X56519183Y-95808097D01*
X56646083Y-95719240D01*
X56697206Y-95683443D01*
X56697208Y-95683441D01*
X56701717Y-95680284D01*
X56859284Y-95522717D01*
X56987097Y-95340182D01*
X56989420Y-95335200D01*
X56989423Y-95335195D01*
X57078947Y-95143209D01*
X57078948Y-95143208D01*
X57081270Y-95138227D01*
X57138944Y-94922986D01*
X57158365Y-94701000D01*
X57138944Y-94479014D01*
X57081270Y-94263773D01*
X57030508Y-94154913D01*
X56989423Y-94066805D01*
X56989420Y-94066800D01*
X56987097Y-94061818D01*
X56884025Y-93914617D01*
X56862443Y-93883794D01*
X56862441Y-93883791D01*
X56859284Y-93879283D01*
X56701717Y-93721716D01*
X56643037Y-93680627D01*
X56600361Y-93650745D01*
X56519183Y-93593903D01*
X56514201Y-93591580D01*
X56514196Y-93591577D01*
X56414728Y-93545195D01*
X56361443Y-93498278D01*
X56341982Y-93430001D01*
X56362524Y-93362041D01*
X56414728Y-93316805D01*
X56514196Y-93270423D01*
X56514201Y-93270420D01*
X56519183Y-93268097D01*
X56653268Y-93174209D01*
X56697206Y-93143443D01*
X56697208Y-93143441D01*
X56701717Y-93140284D01*
X56859284Y-92982717D01*
X56864967Y-92974602D01*
X56942533Y-92863826D01*
X56987097Y-92800182D01*
X56989420Y-92795200D01*
X56989423Y-92795195D01*
X57078947Y-92603209D01*
X57078948Y-92603208D01*
X57081270Y-92598227D01*
X57138944Y-92382986D01*
X57158365Y-92161000D01*
X57138944Y-91939014D01*
X57081270Y-91723773D01*
X57078947Y-91718791D01*
X56989423Y-91526805D01*
X56989420Y-91526800D01*
X56987097Y-91521818D01*
X56859284Y-91339283D01*
X56701717Y-91181716D01*
X56519183Y-91053903D01*
X56514201Y-91051580D01*
X56514196Y-91051577D01*
X56414728Y-91005195D01*
X56361443Y-90958278D01*
X56341982Y-90890001D01*
X56362524Y-90822041D01*
X56414728Y-90776805D01*
X56514196Y-90730423D01*
X56514201Y-90730420D01*
X56519183Y-90728097D01*
X56659479Y-90629860D01*
X56697206Y-90603443D01*
X56697208Y-90603441D01*
X56701717Y-90600284D01*
X56859284Y-90442717D01*
X56888580Y-90400879D01*
X56917014Y-90360270D01*
X56987097Y-90260182D01*
X56989420Y-90255200D01*
X56989423Y-90255195D01*
X57078947Y-90063209D01*
X57078948Y-90063208D01*
X57081270Y-90058227D01*
X57098511Y-89993885D01*
X57133793Y-89862208D01*
X57138944Y-89842986D01*
X57158365Y-89621000D01*
X57138944Y-89399014D01*
X57081270Y-89183773D01*
X57071714Y-89163280D01*
X56989423Y-88986805D01*
X56989420Y-88986800D01*
X56987097Y-88981818D01*
X56859284Y-88799283D01*
X56701717Y-88641716D01*
X56519183Y-88513903D01*
X56514201Y-88511580D01*
X56514196Y-88511577D01*
X56414728Y-88465195D01*
X56361443Y-88418278D01*
X56341982Y-88350001D01*
X56362524Y-88282041D01*
X56414728Y-88236805D01*
X56514196Y-88190423D01*
X56514201Y-88190420D01*
X56519183Y-88188097D01*
X56701717Y-88060284D01*
X56859284Y-87902717D01*
X56987097Y-87720182D01*
X56989420Y-87715200D01*
X56989423Y-87715195D01*
X57078947Y-87523209D01*
X57078948Y-87523208D01*
X57081270Y-87518227D01*
X57082774Y-87512616D01*
X57114327Y-87394857D01*
X57138944Y-87302986D01*
X57158365Y-87081000D01*
X57138944Y-86859014D01*
X57081270Y-86643773D01*
X57071631Y-86623102D01*
X56989423Y-86446805D01*
X56989420Y-86446800D01*
X56987097Y-86441818D01*
X56859284Y-86259283D01*
X56701717Y-86101716D01*
X56657304Y-86070617D01*
X56608438Y-86036401D01*
X56519183Y-85973903D01*
X56514201Y-85971580D01*
X56514196Y-85971577D01*
X56414728Y-85925195D01*
X56361443Y-85878278D01*
X56341982Y-85810001D01*
X56362524Y-85742041D01*
X56414728Y-85696805D01*
X56514196Y-85650423D01*
X56514201Y-85650420D01*
X56519183Y-85648097D01*
X56701717Y-85520284D01*
X56859284Y-85362717D01*
X56987097Y-85180182D01*
X56989420Y-85175200D01*
X56989423Y-85175195D01*
X57078947Y-84983209D01*
X57078948Y-84983208D01*
X57081270Y-84978227D01*
X57082774Y-84972616D01*
X57114327Y-84854857D01*
X57138944Y-84762986D01*
X57158365Y-84541000D01*
X57138944Y-84319014D01*
X57081270Y-84103773D01*
X57071631Y-84083102D01*
X56989423Y-83906805D01*
X56989420Y-83906800D01*
X56987097Y-83901818D01*
X56859284Y-83719283D01*
X56701717Y-83561716D01*
X56657304Y-83530617D01*
X56608438Y-83496401D01*
X56519183Y-83433903D01*
X56514201Y-83431580D01*
X56514196Y-83431577D01*
X56414728Y-83385195D01*
X56361443Y-83338278D01*
X56341982Y-83270001D01*
X56362524Y-83202041D01*
X56414728Y-83156805D01*
X56514196Y-83110423D01*
X56514201Y-83110420D01*
X56519183Y-83108097D01*
X56654257Y-83013516D01*
X56697206Y-82983443D01*
X56697208Y-82983441D01*
X56701717Y-82980284D01*
X56859284Y-82822717D01*
X56880835Y-82791940D01*
X56948223Y-82695699D01*
X56987097Y-82640182D01*
X56989420Y-82635200D01*
X56989423Y-82635195D01*
X57078947Y-82443209D01*
X57078948Y-82443208D01*
X57081270Y-82438227D01*
X57082774Y-82432616D01*
X57114327Y-82314857D01*
X57138944Y-82222986D01*
X57158365Y-82001000D01*
X57138944Y-81779014D01*
X57081270Y-81563773D01*
X57071631Y-81543102D01*
X56989423Y-81366805D01*
X56989420Y-81366800D01*
X56987097Y-81361818D01*
X56859284Y-81179283D01*
X56701717Y-81021716D01*
X56657304Y-80990617D01*
X56608438Y-80956401D01*
X56519183Y-80893903D01*
X56514201Y-80891580D01*
X56514196Y-80891577D01*
X56414728Y-80845195D01*
X56361443Y-80798278D01*
X56341982Y-80730001D01*
X56362524Y-80662041D01*
X56414728Y-80616805D01*
X56514196Y-80570423D01*
X56514201Y-80570420D01*
X56519183Y-80568097D01*
X56701717Y-80440284D01*
X56859284Y-80282717D01*
X56987097Y-80100182D01*
X56989420Y-80095200D01*
X56989423Y-80095195D01*
X57078947Y-79903209D01*
X57078948Y-79903208D01*
X57081270Y-79898227D01*
X57082774Y-79892616D01*
X57114327Y-79774857D01*
X57138944Y-79682986D01*
X57158365Y-79461000D01*
X57138944Y-79239014D01*
X57081270Y-79023773D01*
X57067271Y-78993751D01*
X56989423Y-78826805D01*
X56989420Y-78826800D01*
X56987097Y-78821818D01*
X56906872Y-78707245D01*
X56862443Y-78643794D01*
X56862441Y-78643791D01*
X56859284Y-78639283D01*
X56701717Y-78481716D01*
X56657304Y-78450617D01*
X56608438Y-78416401D01*
X56519183Y-78353903D01*
X56514201Y-78351580D01*
X56514196Y-78351577D01*
X56414728Y-78305195D01*
X56361443Y-78258278D01*
X56341982Y-78190001D01*
X56362524Y-78122041D01*
X56414728Y-78076805D01*
X56514196Y-78030423D01*
X56514201Y-78030420D01*
X56519183Y-78028097D01*
X56631981Y-77949114D01*
X56697206Y-77903443D01*
X56697208Y-77903441D01*
X56701717Y-77900284D01*
X56859284Y-77742717D01*
X56953454Y-77608229D01*
X57008911Y-77563901D01*
X57056667Y-77554500D01*
X61366406Y-77554500D01*
X61434527Y-77574502D01*
X61455501Y-77591405D01*
X62479595Y-78615499D01*
X62513621Y-78677811D01*
X62516500Y-78704594D01*
X62516501Y-78854141D01*
X62516501Y-78996634D01*
X62516764Y-78999492D01*
X62516764Y-78999501D01*
X62519356Y-79027707D01*
X62523247Y-79070062D01*
X62525244Y-79076435D01*
X62525245Y-79076439D01*
X62528843Y-79087920D01*
X62530126Y-79158905D01*
X62497703Y-79214692D01*
X59189047Y-82523348D01*
X59180761Y-82530888D01*
X59174282Y-82535000D01*
X59168857Y-82540777D01*
X59127657Y-82584651D01*
X59124902Y-82587493D01*
X59105165Y-82607230D01*
X59102685Y-82610427D01*
X59094982Y-82619447D01*
X59064714Y-82651679D01*
X59060895Y-82658625D01*
X59060893Y-82658628D01*
X59054952Y-82669434D01*
X59044101Y-82685953D01*
X59031686Y-82701959D01*
X59028541Y-82709228D01*
X59028538Y-82709232D01*
X59014126Y-82742537D01*
X59008909Y-82753187D01*
X58987605Y-82791940D01*
X58985634Y-82799615D01*
X58985634Y-82799616D01*
X58982567Y-82811562D01*
X58976163Y-82830266D01*
X58968119Y-82848855D01*
X58966880Y-82856678D01*
X58966877Y-82856688D01*
X58961201Y-82892524D01*
X58958795Y-82904144D01*
X58947800Y-82946970D01*
X58947800Y-82967224D01*
X58946249Y-82986934D01*
X58943080Y-83006943D01*
X58946899Y-83047338D01*
X58947241Y-83050961D01*
X58947800Y-83062819D01*
X58947800Y-98865476D01*
X58927798Y-98933597D01*
X58915442Y-98949779D01*
X58842260Y-99031056D01*
X58809094Y-99088501D01*
X58754772Y-99182590D01*
X58746773Y-99196444D01*
X58687758Y-99378072D01*
X58667796Y-99568000D01*
X58668486Y-99574565D01*
X58680396Y-99687878D01*
X58687758Y-99757928D01*
X58746773Y-99939556D01*
X58750076Y-99945278D01*
X58750077Y-99945279D01*
X58783394Y-100002986D01*
X58842260Y-100104944D01*
X58846678Y-100109851D01*
X58846679Y-100109852D01*
X58851335Y-100115023D01*
X58970047Y-100246866D01*
X59124548Y-100359118D01*
X59130576Y-100361802D01*
X59130578Y-100361803D01*
X59287860Y-100431829D01*
X59299012Y-100436794D01*
X59392412Y-100456647D01*
X59479356Y-100475128D01*
X59479361Y-100475128D01*
X59485813Y-100476500D01*
X59676787Y-100476500D01*
X59683239Y-100475128D01*
X59683244Y-100475128D01*
X59770188Y-100456647D01*
X59863588Y-100436794D01*
X59874740Y-100431829D01*
X60032022Y-100361803D01*
X60032024Y-100361802D01*
X60038052Y-100359118D01*
X60192553Y-100246866D01*
X60311265Y-100115023D01*
X60315921Y-100109852D01*
X60315922Y-100109851D01*
X60320340Y-100104944D01*
X60379206Y-100002986D01*
X60412523Y-99945279D01*
X60412524Y-99945278D01*
X60415827Y-99939556D01*
X60474842Y-99757928D01*
X60482205Y-99687878D01*
X60494114Y-99574565D01*
X60494804Y-99568000D01*
X60474842Y-99378072D01*
X60415827Y-99196444D01*
X60407829Y-99182590D01*
X60353506Y-99088501D01*
X60320340Y-99031056D01*
X60247163Y-98949785D01*
X60216447Y-98885779D01*
X60214800Y-98865476D01*
X60214800Y-97246475D01*
X69842616Y-97246475D01*
X69861072Y-97457419D01*
X69862975Y-97468214D01*
X69917779Y-97672745D01*
X69921525Y-97683037D01*
X70011012Y-97874944D01*
X70016495Y-97884439D01*
X70047640Y-97928919D01*
X70058117Y-97937294D01*
X70071564Y-97930226D01*
X70747978Y-97253812D01*
X70754356Y-97242132D01*
X71484408Y-97242132D01*
X71484539Y-97243965D01*
X71488790Y-97250580D01*
X72169157Y-97930947D01*
X72180932Y-97937377D01*
X72192947Y-97928081D01*
X72223505Y-97884439D01*
X72228988Y-97874944D01*
X72318475Y-97683037D01*
X72322221Y-97672745D01*
X72377025Y-97468214D01*
X72378928Y-97457419D01*
X72397384Y-97246475D01*
X72397384Y-97235525D01*
X72378928Y-97024581D01*
X72377025Y-97013786D01*
X72322221Y-96809255D01*
X72318475Y-96798963D01*
X72228988Y-96607056D01*
X72223505Y-96597561D01*
X72192360Y-96553081D01*
X72181883Y-96544706D01*
X72168436Y-96551774D01*
X71492022Y-97228188D01*
X71484408Y-97242132D01*
X70754356Y-97242132D01*
X70755592Y-97239868D01*
X70755461Y-97238035D01*
X70751210Y-97231420D01*
X70070843Y-96551053D01*
X70059068Y-96544623D01*
X70047053Y-96553919D01*
X70016495Y-96597561D01*
X70011012Y-96607056D01*
X69921525Y-96798963D01*
X69917779Y-96809255D01*
X69862975Y-97013786D01*
X69861072Y-97024581D01*
X69842616Y-97235525D01*
X69842616Y-97246475D01*
X60214800Y-97246475D01*
X60214800Y-83341594D01*
X60234802Y-83273473D01*
X60251705Y-83252499D01*
X62480543Y-81023661D01*
X62542855Y-80989635D01*
X62613670Y-80994700D01*
X62663031Y-81030797D01*
X62663758Y-81030070D01*
X62668444Y-81034756D01*
X62668794Y-81035012D01*
X62669135Y-81035447D01*
X62779557Y-81145869D01*
X62791426Y-81155176D01*
X62925012Y-81236079D01*
X62938757Y-81242285D01*
X63088644Y-81289256D01*
X63101694Y-81291869D01*
X63165521Y-81297734D01*
X63171309Y-81298000D01*
X63227885Y-81298000D01*
X63243124Y-81293525D01*
X63244329Y-81292135D01*
X63246000Y-81284452D01*
X63246000Y-81279884D01*
X63754000Y-81279884D01*
X63758475Y-81295123D01*
X63759865Y-81296328D01*
X63767548Y-81297999D01*
X63828705Y-81297999D01*
X63834454Y-81297736D01*
X63898315Y-81291868D01*
X63911351Y-81289257D01*
X64061243Y-81242285D01*
X64074988Y-81236079D01*
X64208574Y-81155176D01*
X64220443Y-81145869D01*
X64330869Y-81035443D01*
X64340176Y-81023574D01*
X64421079Y-80889988D01*
X64427285Y-80876243D01*
X64474256Y-80726356D01*
X64476869Y-80713306D01*
X64481913Y-80658414D01*
X64478525Y-80646876D01*
X64477135Y-80645671D01*
X64469452Y-80644000D01*
X63772115Y-80644000D01*
X63756876Y-80648475D01*
X63755671Y-80649865D01*
X63754000Y-80657548D01*
X63754000Y-81279884D01*
X63246000Y-81279884D01*
X63246000Y-80324500D01*
X63266002Y-80256379D01*
X63319658Y-80209886D01*
X63372000Y-80198500D01*
X63833033Y-80198500D01*
X63844216Y-80199027D01*
X63851709Y-80200702D01*
X63859635Y-80200453D01*
X63859636Y-80200453D01*
X63919786Y-80198562D01*
X63923745Y-80198500D01*
X63951656Y-80198500D01*
X63955591Y-80198003D01*
X63955656Y-80197995D01*
X63967493Y-80197062D01*
X63999751Y-80196048D01*
X64003770Y-80195922D01*
X64011689Y-80195673D01*
X64031143Y-80190021D01*
X64050500Y-80186013D01*
X64062730Y-80184468D01*
X64062731Y-80184468D01*
X64070597Y-80183474D01*
X64077968Y-80180555D01*
X64077970Y-80180555D01*
X64111712Y-80167196D01*
X64122942Y-80163351D01*
X64157779Y-80153230D01*
X64165393Y-80151018D01*
X64172219Y-80146981D01*
X64173647Y-80146363D01*
X64223688Y-80136000D01*
X64464884Y-80136000D01*
X64480123Y-80131525D01*
X64481328Y-80130135D01*
X64482291Y-80125706D01*
X64476868Y-80066685D01*
X64474258Y-80053653D01*
X64460044Y-80008297D01*
X64458759Y-79937312D01*
X64491183Y-79881521D01*
X64899938Y-79472767D01*
X65339958Y-79032747D01*
X65348237Y-79025213D01*
X65354718Y-79021100D01*
X65401344Y-78971448D01*
X65404098Y-78968607D01*
X65423835Y-78948870D01*
X65426315Y-78945673D01*
X65434020Y-78936651D01*
X65458859Y-78910200D01*
X65464286Y-78904421D01*
X65468105Y-78897475D01*
X65468107Y-78897472D01*
X65474048Y-78886666D01*
X65484899Y-78870147D01*
X65492458Y-78860401D01*
X65497314Y-78854141D01*
X65500459Y-78846872D01*
X65500462Y-78846868D01*
X65514874Y-78813563D01*
X65520091Y-78802913D01*
X65541395Y-78764160D01*
X65546433Y-78744537D01*
X65552837Y-78725834D01*
X65557733Y-78714520D01*
X65557733Y-78714519D01*
X65560881Y-78707245D01*
X65562120Y-78699422D01*
X65562123Y-78699412D01*
X65567799Y-78663576D01*
X65570205Y-78651956D01*
X65579228Y-78616811D01*
X65579228Y-78616810D01*
X65581200Y-78609130D01*
X65581200Y-78588876D01*
X65582751Y-78569165D01*
X65584680Y-78556986D01*
X65585920Y-78549157D01*
X65581759Y-78505138D01*
X65581200Y-78493281D01*
X65581200Y-73552568D01*
X65581727Y-73541385D01*
X65583402Y-73533892D01*
X65583113Y-73524680D01*
X65581262Y-73465802D01*
X65581200Y-73461844D01*
X65581200Y-73433944D01*
X65580696Y-73429953D01*
X65579763Y-73418111D01*
X65579371Y-73405613D01*
X65578374Y-73373911D01*
X65576156Y-73366277D01*
X65572721Y-73354452D01*
X65568712Y-73335093D01*
X65567904Y-73328699D01*
X65566174Y-73315003D01*
X65563258Y-73307637D01*
X65563256Y-73307631D01*
X65549900Y-73273898D01*
X65546055Y-73262668D01*
X65535930Y-73227817D01*
X65535930Y-73227816D01*
X65533719Y-73220207D01*
X65523405Y-73202766D01*
X65514708Y-73185013D01*
X65510172Y-73173558D01*
X65507252Y-73166183D01*
X65481263Y-73130412D01*
X65474747Y-73120492D01*
X65452242Y-73082438D01*
X65437921Y-73068117D01*
X65425080Y-73053083D01*
X65417832Y-73043107D01*
X65413172Y-73036693D01*
X65379548Y-73008877D01*
X65339810Y-72950043D01*
X65338187Y-72879065D01*
X65366226Y-72827482D01*
X65405425Y-72783947D01*
X65409840Y-72779044D01*
X65505327Y-72613656D01*
X65564342Y-72432028D01*
X65574496Y-72335423D01*
X65583614Y-72248665D01*
X65584304Y-72242100D01*
X65564342Y-72052172D01*
X65547031Y-71998894D01*
X65545004Y-71927926D01*
X65581666Y-71867129D01*
X65645378Y-71835803D01*
X65715912Y-71843896D01*
X65755959Y-71870863D01*
X66541695Y-72656599D01*
X66575721Y-72718911D01*
X66578600Y-72745694D01*
X66578600Y-90501333D01*
X66578073Y-90512516D01*
X66576398Y-90520009D01*
X66576647Y-90527935D01*
X66576647Y-90527936D01*
X66578538Y-90588086D01*
X66578600Y-90592045D01*
X66578600Y-90619956D01*
X66579097Y-90623890D01*
X66579097Y-90623891D01*
X66579105Y-90623956D01*
X66580038Y-90635793D01*
X66581427Y-90679989D01*
X66587078Y-90699439D01*
X66591087Y-90718800D01*
X66592262Y-90728097D01*
X66593626Y-90738897D01*
X66596545Y-90746268D01*
X66596545Y-90746270D01*
X66609904Y-90780012D01*
X66613749Y-90791242D01*
X66622697Y-90822041D01*
X66626082Y-90833693D01*
X66630115Y-90840512D01*
X66630117Y-90840517D01*
X66636393Y-90851128D01*
X66645088Y-90868876D01*
X66652548Y-90887717D01*
X66657210Y-90894133D01*
X66657210Y-90894134D01*
X66678536Y-90923487D01*
X66685052Y-90933407D01*
X66700620Y-90959730D01*
X66707558Y-90971462D01*
X66721879Y-90985783D01*
X66734719Y-91000816D01*
X66746628Y-91017207D01*
X66752734Y-91022258D01*
X66780705Y-91045398D01*
X66789484Y-91053388D01*
X69559343Y-93823247D01*
X69566887Y-93831537D01*
X69571000Y-93838018D01*
X69576777Y-93843443D01*
X69620667Y-93884658D01*
X69623509Y-93887413D01*
X69643230Y-93907134D01*
X69646425Y-93909612D01*
X69655447Y-93917318D01*
X69687679Y-93947586D01*
X69694628Y-93951406D01*
X69705432Y-93957346D01*
X69721956Y-93968199D01*
X69737959Y-93980613D01*
X69778543Y-93998176D01*
X69789173Y-94003383D01*
X69827940Y-94024695D01*
X69835617Y-94026666D01*
X69835622Y-94026668D01*
X69847558Y-94029732D01*
X69866266Y-94036137D01*
X69879337Y-94041793D01*
X69933910Y-94087206D01*
X69955268Y-94154913D01*
X69943488Y-94210679D01*
X69918730Y-94263773D01*
X69861056Y-94479014D01*
X69841635Y-94701000D01*
X69861056Y-94922986D01*
X69918730Y-95138227D01*
X69921052Y-95143208D01*
X69921053Y-95143209D01*
X70010577Y-95335195D01*
X70010580Y-95335200D01*
X70012903Y-95340182D01*
X70140716Y-95522717D01*
X70298283Y-95680284D01*
X70302792Y-95683441D01*
X70302794Y-95683443D01*
X70353917Y-95719240D01*
X70480817Y-95808097D01*
X70485802Y-95810421D01*
X70485808Y-95810425D01*
X70585864Y-95857081D01*
X70639150Y-95903998D01*
X70658611Y-95972275D01*
X70638070Y-96040235D01*
X70585865Y-96085471D01*
X70486056Y-96132012D01*
X70476561Y-96137495D01*
X70432081Y-96168640D01*
X70423706Y-96179117D01*
X70430774Y-96192564D01*
X71107188Y-96868978D01*
X71121132Y-96876592D01*
X71122965Y-96876461D01*
X71129580Y-96872210D01*
X71809947Y-96191843D01*
X71816377Y-96180068D01*
X71807084Y-96168055D01*
X71763431Y-96137488D01*
X71753953Y-96132016D01*
X71654136Y-96085471D01*
X71600851Y-96038554D01*
X71581390Y-95970277D01*
X71601932Y-95902317D01*
X71654136Y-95857081D01*
X71754196Y-95810423D01*
X71754201Y-95810420D01*
X71759183Y-95808097D01*
X71886083Y-95719240D01*
X71937206Y-95683443D01*
X71937208Y-95683441D01*
X71941717Y-95680284D01*
X72099284Y-95522717D01*
X72227097Y-95340182D01*
X72229420Y-95335200D01*
X72229423Y-95335195D01*
X72318947Y-95143209D01*
X72318948Y-95143208D01*
X72321270Y-95138227D01*
X72378944Y-94922986D01*
X72379423Y-94917512D01*
X72379424Y-94917506D01*
X72380505Y-94905141D01*
X72406367Y-94839022D01*
X72463869Y-94797382D01*
X72534756Y-94793439D01*
X72595121Y-94827025D01*
X72989595Y-95221499D01*
X73023621Y-95283811D01*
X73026500Y-95310594D01*
X73026500Y-98999406D01*
X73006498Y-99067527D01*
X72989595Y-99088501D01*
X72562876Y-99515220D01*
X72500564Y-99549246D01*
X72429749Y-99544181D01*
X72372913Y-99501634D01*
X72352074Y-99458736D01*
X72322693Y-99349083D01*
X72322692Y-99349081D01*
X72321270Y-99343773D01*
X72318947Y-99338791D01*
X72229423Y-99146805D01*
X72229420Y-99146800D01*
X72227097Y-99141818D01*
X72124025Y-98994617D01*
X72102443Y-98963794D01*
X72102441Y-98963791D01*
X72099284Y-98959283D01*
X71941717Y-98801716D01*
X71759183Y-98673903D01*
X71754201Y-98671580D01*
X71754196Y-98671577D01*
X71654136Y-98624919D01*
X71600851Y-98578002D01*
X71581390Y-98509725D01*
X71601932Y-98441765D01*
X71654136Y-98396529D01*
X71753953Y-98349984D01*
X71763431Y-98344512D01*
X71807920Y-98313359D01*
X71816294Y-98302883D01*
X71809226Y-98289436D01*
X71132812Y-97613022D01*
X71118868Y-97605408D01*
X71117035Y-97605539D01*
X71110420Y-97609790D01*
X70430053Y-98290157D01*
X70423623Y-98301932D01*
X70432916Y-98313945D01*
X70476569Y-98344512D01*
X70486051Y-98349986D01*
X70585864Y-98396529D01*
X70639150Y-98443446D01*
X70658611Y-98511723D01*
X70638070Y-98579683D01*
X70585865Y-98624919D01*
X70485805Y-98671577D01*
X70485800Y-98671580D01*
X70480818Y-98673903D01*
X70298283Y-98801716D01*
X70140716Y-98959283D01*
X70137559Y-98963791D01*
X70137557Y-98963794D01*
X70115975Y-98994617D01*
X70012903Y-99141818D01*
X70010580Y-99146800D01*
X70010577Y-99146805D01*
X69921053Y-99338791D01*
X69918730Y-99343773D01*
X69917308Y-99349081D01*
X69917307Y-99349083D01*
X69908299Y-99382702D01*
X69861056Y-99559014D01*
X69841635Y-99781000D01*
X69861056Y-100002986D01*
X69918730Y-100218227D01*
X69921052Y-100223208D01*
X69921053Y-100223209D01*
X70012903Y-100420182D01*
X70010952Y-100421092D01*
X70025482Y-100481052D01*
X70002243Y-100548137D01*
X69973688Y-100576958D01*
X69968308Y-100580867D01*
X69961893Y-100585528D01*
X69956842Y-100591634D01*
X69933702Y-100619605D01*
X69925722Y-100628374D01*
X68949736Y-101604359D01*
X68941462Y-101611888D01*
X68934982Y-101616000D01*
X68929557Y-101621777D01*
X68888357Y-101665651D01*
X68885602Y-101668493D01*
X68865865Y-101688230D01*
X68863385Y-101691427D01*
X68855682Y-101700447D01*
X68825414Y-101732679D01*
X68821595Y-101739625D01*
X68821593Y-101739628D01*
X68815652Y-101750434D01*
X68804801Y-101766953D01*
X68792386Y-101782959D01*
X68789241Y-101790228D01*
X68789238Y-101790232D01*
X68774826Y-101823537D01*
X68769609Y-101834187D01*
X68748305Y-101872940D01*
X68746334Y-101880615D01*
X68746334Y-101880616D01*
X68743267Y-101892562D01*
X68736863Y-101911266D01*
X68728819Y-101929855D01*
X68727580Y-101937678D01*
X68727577Y-101937688D01*
X68721901Y-101973524D01*
X68719495Y-101985144D01*
X68708500Y-102027970D01*
X68708500Y-102048224D01*
X68706949Y-102067934D01*
X68703780Y-102087943D01*
X68704526Y-102095835D01*
X68707941Y-102131961D01*
X68708500Y-102143819D01*
X68708500Y-102791233D01*
X68707973Y-102802416D01*
X68706298Y-102809909D01*
X68706547Y-102817835D01*
X68706547Y-102817836D01*
X68708438Y-102877986D01*
X68708500Y-102881945D01*
X68708500Y-102909856D01*
X68708997Y-102913790D01*
X68708997Y-102913791D01*
X68709005Y-102913856D01*
X68709938Y-102925693D01*
X68711327Y-102969889D01*
X68716978Y-102989339D01*
X68720987Y-103008700D01*
X68723526Y-103028797D01*
X68726445Y-103036168D01*
X68726445Y-103036170D01*
X68739804Y-103069912D01*
X68743649Y-103081142D01*
X68755982Y-103123593D01*
X68760015Y-103130412D01*
X68760017Y-103130417D01*
X68766293Y-103141028D01*
X68774988Y-103158776D01*
X68782448Y-103177617D01*
X68787110Y-103184033D01*
X68787110Y-103184034D01*
X68808436Y-103213387D01*
X68814952Y-103223307D01*
X68837458Y-103261362D01*
X68851779Y-103275683D01*
X68864619Y-103290716D01*
X68876528Y-103307107D01*
X68882633Y-103312158D01*
X68882638Y-103312163D01*
X68910604Y-103335299D01*
X68919382Y-103343287D01*
X69737348Y-104161253D01*
X69744888Y-104169539D01*
X69749000Y-104176018D01*
X69754777Y-104181443D01*
X69798651Y-104222643D01*
X69801493Y-104225398D01*
X69809595Y-104233500D01*
X69843621Y-104295812D01*
X69846500Y-104322595D01*
X69846500Y-105666500D01*
X69826498Y-105734621D01*
X69772842Y-105781114D01*
X69720500Y-105792500D01*
X67560595Y-105792500D01*
X67492474Y-105772498D01*
X67471499Y-105755595D01*
X67060404Y-105344499D01*
X67026379Y-105282187D01*
X67023500Y-105255404D01*
X67023499Y-104966249D01*
X67023499Y-104963366D01*
X67023234Y-104960474D01*
X67017364Y-104896592D01*
X67016753Y-104889938D01*
X66965472Y-104726301D01*
X66876639Y-104579619D01*
X66755381Y-104458361D01*
X66608699Y-104369528D01*
X66601452Y-104367257D01*
X66601450Y-104367256D01*
X66535164Y-104346483D01*
X66445062Y-104318247D01*
X66371635Y-104311500D01*
X66368737Y-104311500D01*
X66039140Y-104311501D01*
X65708366Y-104311501D01*
X65705508Y-104311764D01*
X65705499Y-104311764D01*
X65669996Y-104315026D01*
X65634938Y-104318247D01*
X65628560Y-104320246D01*
X65628559Y-104320246D01*
X65478550Y-104367256D01*
X65478548Y-104367257D01*
X65471301Y-104369528D01*
X65324619Y-104458361D01*
X65203361Y-104579619D01*
X65114528Y-104726301D01*
X65063247Y-104889938D01*
X65056500Y-104963365D01*
X65056501Y-105476634D01*
X65056764Y-105479492D01*
X65056764Y-105479501D01*
X65058829Y-105501970D01*
X65063247Y-105550062D01*
X65065246Y-105556440D01*
X65065246Y-105556441D01*
X65099737Y-105666500D01*
X65114528Y-105713699D01*
X65203361Y-105860381D01*
X65298885Y-105955905D01*
X65332911Y-106018217D01*
X65327846Y-106089032D01*
X65298885Y-106134095D01*
X65203361Y-106229619D01*
X65114528Y-106376301D01*
X65063247Y-106539938D01*
X65056500Y-106613365D01*
X65056500Y-106616263D01*
X65056501Y-106870665D01*
X65056501Y-107126634D01*
X65063247Y-107200062D01*
X65065246Y-107206440D01*
X65065246Y-107206441D01*
X65076251Y-107241556D01*
X65114528Y-107363699D01*
X65203361Y-107510381D01*
X65324619Y-107631639D01*
X65471301Y-107720472D01*
X65478548Y-107722743D01*
X65478550Y-107722744D01*
X65521198Y-107736109D01*
X65634938Y-107771753D01*
X65708365Y-107778500D01*
X65726474Y-107778500D01*
X66000406Y-107778499D01*
X66068525Y-107798501D01*
X66089500Y-107815404D01*
X70680343Y-112406247D01*
X70687887Y-112414537D01*
X70692000Y-112421018D01*
X70697777Y-112426443D01*
X70741667Y-112467658D01*
X70744509Y-112470413D01*
X70764231Y-112490135D01*
X70767355Y-112492558D01*
X70767359Y-112492562D01*
X70767424Y-112492612D01*
X70776445Y-112500317D01*
X70808679Y-112530586D01*
X70815627Y-112534405D01*
X70815629Y-112534407D01*
X70826432Y-112540346D01*
X70842959Y-112551202D01*
X70852698Y-112558757D01*
X70852700Y-112558758D01*
X70858960Y-112563614D01*
X70899540Y-112581174D01*
X70910188Y-112586391D01*
X70934976Y-112600018D01*
X70948940Y-112607695D01*
X70956616Y-112609666D01*
X70956619Y-112609667D01*
X70968562Y-112612733D01*
X70987267Y-112619137D01*
X71005855Y-112627181D01*
X71013678Y-112628420D01*
X71013688Y-112628423D01*
X71049524Y-112634099D01*
X71061144Y-112636505D01*
X71092959Y-112644673D01*
X71103970Y-112647500D01*
X71124224Y-112647500D01*
X71143934Y-112649051D01*
X71163943Y-112652220D01*
X71171835Y-112651474D01*
X71190580Y-112649702D01*
X71207962Y-112648059D01*
X71219819Y-112647500D01*
X79037233Y-112647500D01*
X79048416Y-112648027D01*
X79055909Y-112649702D01*
X79063835Y-112649453D01*
X79063836Y-112649453D01*
X79123986Y-112647562D01*
X79127945Y-112647500D01*
X79155856Y-112647500D01*
X79159791Y-112647003D01*
X79159856Y-112646995D01*
X79171693Y-112646062D01*
X79203951Y-112645048D01*
X79207970Y-112644922D01*
X79215889Y-112644673D01*
X79235343Y-112639021D01*
X79254700Y-112635013D01*
X79266930Y-112633468D01*
X79266931Y-112633468D01*
X79274797Y-112632474D01*
X79282168Y-112629555D01*
X79282170Y-112629555D01*
X79315912Y-112616196D01*
X79327142Y-112612351D01*
X79361983Y-112602229D01*
X79361984Y-112602229D01*
X79369593Y-112600018D01*
X79376412Y-112595985D01*
X79376417Y-112595983D01*
X79387028Y-112589707D01*
X79404776Y-112581012D01*
X79423617Y-112573552D01*
X79459387Y-112547564D01*
X79469307Y-112541048D01*
X79500535Y-112522580D01*
X79500538Y-112522578D01*
X79507362Y-112518542D01*
X79521683Y-112504221D01*
X79536717Y-112491380D01*
X79538431Y-112490135D01*
X79553107Y-112479472D01*
X79581298Y-112445395D01*
X79589288Y-112436616D01*
X80142148Y-111883756D01*
X80204460Y-111849730D01*
X80256363Y-111849380D01*
X80362414Y-111870956D01*
X80472656Y-111893385D01*
X80603324Y-111898176D01*
X80698949Y-111901683D01*
X80698953Y-111901683D01*
X80704113Y-111901872D01*
X80709233Y-111901216D01*
X80709235Y-111901216D01*
X80808668Y-111888478D01*
X80933847Y-111872442D01*
X80938795Y-111870957D01*
X80938802Y-111870956D01*
X81150747Y-111807369D01*
X81155690Y-111805886D01*
X81236236Y-111766427D01*
X81359049Y-111706262D01*
X81359052Y-111706260D01*
X81363684Y-111703991D01*
X81552243Y-111569494D01*
X81687539Y-111434669D01*
X84947001Y-111434669D01*
X84947371Y-111441490D01*
X84952895Y-111492352D01*
X84956521Y-111507604D01*
X85001676Y-111628054D01*
X85010214Y-111643649D01*
X85086715Y-111745724D01*
X85099276Y-111758285D01*
X85201351Y-111834786D01*
X85216946Y-111843324D01*
X85337394Y-111888478D01*
X85352649Y-111892105D01*
X85403514Y-111897631D01*
X85410328Y-111898000D01*
X86082885Y-111898000D01*
X86098124Y-111893525D01*
X86099329Y-111892135D01*
X86101000Y-111884452D01*
X86101000Y-111879884D01*
X86609000Y-111879884D01*
X86613475Y-111895123D01*
X86614865Y-111896328D01*
X86622548Y-111897999D01*
X87299669Y-111897999D01*
X87306490Y-111897629D01*
X87357352Y-111892105D01*
X87372604Y-111888479D01*
X87493054Y-111843324D01*
X87508649Y-111834786D01*
X87610724Y-111758285D01*
X87623285Y-111745724D01*
X87699786Y-111643649D01*
X87708324Y-111628054D01*
X87729773Y-111570840D01*
X87772415Y-111514075D01*
X87838977Y-111489376D01*
X87908325Y-111504584D01*
X87928240Y-111518126D01*
X88084349Y-111647730D01*
X88284322Y-111764584D01*
X88500694Y-111847209D01*
X88505760Y-111848240D01*
X88505761Y-111848240D01*
X88513085Y-111849730D01*
X88727656Y-111893385D01*
X88858324Y-111898176D01*
X88953949Y-111901683D01*
X88953953Y-111901683D01*
X88959113Y-111901872D01*
X88964233Y-111901216D01*
X88964235Y-111901216D01*
X89063668Y-111888478D01*
X89188847Y-111872442D01*
X89193795Y-111870957D01*
X89193802Y-111870956D01*
X89405747Y-111807369D01*
X89410690Y-111805886D01*
X89491236Y-111766427D01*
X89614049Y-111706262D01*
X89614052Y-111706260D01*
X89618684Y-111703991D01*
X89807243Y-111569494D01*
X89971303Y-111406005D01*
X90106458Y-111217917D01*
X90209078Y-111010280D01*
X90276408Y-110788671D01*
X90306640Y-110559041D01*
X90308327Y-110490000D01*
X90302032Y-110413434D01*
X90289773Y-110264318D01*
X90289772Y-110264312D01*
X90289349Y-110259167D01*
X90232925Y-110034533D01*
X90140570Y-109822131D01*
X90014764Y-109627665D01*
X89858887Y-109456358D01*
X89854836Y-109453159D01*
X89854832Y-109453155D01*
X89681177Y-109316011D01*
X89681172Y-109316008D01*
X89677123Y-109312810D01*
X89672607Y-109310317D01*
X89672604Y-109310315D01*
X89478879Y-109203373D01*
X89478875Y-109203371D01*
X89474355Y-109200876D01*
X89469486Y-109199152D01*
X89469482Y-109199150D01*
X89260903Y-109125288D01*
X89260899Y-109125287D01*
X89256028Y-109123562D01*
X89250935Y-109122655D01*
X89250932Y-109122654D01*
X89033095Y-109083851D01*
X89033089Y-109083850D01*
X89028006Y-109082945D01*
X88950644Y-109082000D01*
X88801581Y-109080179D01*
X88801579Y-109080179D01*
X88796411Y-109080116D01*
X88567464Y-109115150D01*
X88347314Y-109187106D01*
X88342726Y-109189494D01*
X88342722Y-109189496D01*
X88146461Y-109291663D01*
X88141872Y-109294052D01*
X88137739Y-109297155D01*
X88137736Y-109297157D01*
X87960790Y-109430012D01*
X87956655Y-109433117D01*
X87953083Y-109436855D01*
X87938787Y-109451815D01*
X87877263Y-109487245D01*
X87806351Y-109483788D01*
X87748564Y-109442543D01*
X87729711Y-109408994D01*
X87708324Y-109351946D01*
X87699786Y-109336351D01*
X87623285Y-109234276D01*
X87610724Y-109221715D01*
X87508649Y-109145214D01*
X87493054Y-109136676D01*
X87372606Y-109091522D01*
X87357351Y-109087895D01*
X87306486Y-109082369D01*
X87299672Y-109082000D01*
X86627115Y-109082000D01*
X86611876Y-109086475D01*
X86610671Y-109087865D01*
X86609000Y-109095548D01*
X86609000Y-111879884D01*
X86101000Y-111879884D01*
X86101000Y-110762115D01*
X86096525Y-110746876D01*
X86095135Y-110745671D01*
X86087452Y-110744000D01*
X84965116Y-110744000D01*
X84949877Y-110748475D01*
X84948672Y-110749865D01*
X84947001Y-110757548D01*
X84947001Y-111434669D01*
X81687539Y-111434669D01*
X81716303Y-111406005D01*
X81851458Y-111217917D01*
X81954078Y-111010280D01*
X82021408Y-110788671D01*
X82051640Y-110559041D01*
X82053327Y-110490000D01*
X82047032Y-110413434D01*
X82034773Y-110264318D01*
X82034772Y-110264312D01*
X82034349Y-110259167D01*
X82023980Y-110217885D01*
X84947000Y-110217885D01*
X84951475Y-110233124D01*
X84952865Y-110234329D01*
X84960548Y-110236000D01*
X86082885Y-110236000D01*
X86098124Y-110231525D01*
X86099329Y-110230135D01*
X86101000Y-110222452D01*
X86101000Y-109100116D01*
X86096525Y-109084877D01*
X86095135Y-109083672D01*
X86087452Y-109082001D01*
X85410331Y-109082001D01*
X85403510Y-109082371D01*
X85352648Y-109087895D01*
X85337396Y-109091521D01*
X85216946Y-109136676D01*
X85201351Y-109145214D01*
X85099276Y-109221715D01*
X85086715Y-109234276D01*
X85010214Y-109336351D01*
X85001676Y-109351946D01*
X84956522Y-109472394D01*
X84952895Y-109487649D01*
X84947369Y-109538514D01*
X84947000Y-109545328D01*
X84947000Y-110217885D01*
X82023980Y-110217885D01*
X81977925Y-110034533D01*
X81885570Y-109822131D01*
X81759764Y-109627665D01*
X81603887Y-109456358D01*
X81599836Y-109453159D01*
X81599832Y-109453155D01*
X81426177Y-109316011D01*
X81426172Y-109316008D01*
X81422123Y-109312810D01*
X81417607Y-109310317D01*
X81417604Y-109310315D01*
X81223879Y-109203373D01*
X81223875Y-109203371D01*
X81219355Y-109200876D01*
X81214486Y-109199152D01*
X81214482Y-109199150D01*
X81005903Y-109125288D01*
X81005899Y-109125287D01*
X81001028Y-109123562D01*
X80995935Y-109122655D01*
X80995932Y-109122654D01*
X80778095Y-109083851D01*
X80778089Y-109083850D01*
X80773006Y-109082945D01*
X80695644Y-109082000D01*
X80546581Y-109080179D01*
X80546579Y-109080179D01*
X80541411Y-109080116D01*
X80312464Y-109115150D01*
X80092314Y-109187106D01*
X80087726Y-109189494D01*
X80087722Y-109189496D01*
X79891461Y-109291663D01*
X79886872Y-109294052D01*
X79882739Y-109297155D01*
X79882736Y-109297157D01*
X79705790Y-109430012D01*
X79701655Y-109433117D01*
X79698083Y-109436855D01*
X79683787Y-109451815D01*
X79622263Y-109487245D01*
X79551351Y-109483788D01*
X79493564Y-109442543D01*
X79474711Y-109408994D01*
X79453324Y-109351946D01*
X79444786Y-109336351D01*
X79368285Y-109234276D01*
X79355724Y-109221715D01*
X79253649Y-109145214D01*
X79238054Y-109136676D01*
X79117606Y-109091522D01*
X79102351Y-109087895D01*
X79051486Y-109082369D01*
X79044672Y-109082000D01*
X78372115Y-109082000D01*
X78356876Y-109086475D01*
X78355671Y-109087865D01*
X78354000Y-109095548D01*
X78354000Y-110618000D01*
X78333998Y-110686121D01*
X78280342Y-110732614D01*
X78228000Y-110744000D01*
X76710116Y-110744000D01*
X76694877Y-110748475D01*
X76693672Y-110749865D01*
X76692001Y-110757548D01*
X76692001Y-111254500D01*
X76671999Y-111322621D01*
X76618343Y-111369114D01*
X76566001Y-111380500D01*
X71498594Y-111380500D01*
X71430473Y-111360498D01*
X71409499Y-111343595D01*
X70283789Y-110217885D01*
X76692000Y-110217885D01*
X76696475Y-110233124D01*
X76697865Y-110234329D01*
X76705548Y-110236000D01*
X77827885Y-110236000D01*
X77843124Y-110231525D01*
X77844329Y-110230135D01*
X77846000Y-110222452D01*
X77846000Y-109100116D01*
X77841525Y-109084877D01*
X77840135Y-109083672D01*
X77832452Y-109082001D01*
X77155331Y-109082001D01*
X77148510Y-109082371D01*
X77097648Y-109087895D01*
X77082396Y-109091521D01*
X76961946Y-109136676D01*
X76946351Y-109145214D01*
X76844276Y-109221715D01*
X76831715Y-109234276D01*
X76755214Y-109336351D01*
X76746676Y-109351946D01*
X76701522Y-109472394D01*
X76697895Y-109487649D01*
X76692369Y-109538514D01*
X76692000Y-109545328D01*
X76692000Y-110217885D01*
X70283789Y-110217885D01*
X67340499Y-107274595D01*
X67306473Y-107212283D01*
X67311538Y-107141468D01*
X67354085Y-107084632D01*
X67420605Y-107059821D01*
X67429594Y-107059500D01*
X71803233Y-107059500D01*
X71814416Y-107060027D01*
X71821909Y-107061702D01*
X71829835Y-107061453D01*
X71829836Y-107061453D01*
X71889986Y-107059562D01*
X71893945Y-107059500D01*
X71921856Y-107059500D01*
X71925791Y-107059003D01*
X71925856Y-107058995D01*
X71937693Y-107058062D01*
X71969951Y-107057048D01*
X71973970Y-107056922D01*
X71981889Y-107056673D01*
X72001343Y-107051021D01*
X72020700Y-107047013D01*
X72032930Y-107045468D01*
X72032931Y-107045468D01*
X72040797Y-107044474D01*
X72048168Y-107041555D01*
X72048170Y-107041555D01*
X72081912Y-107028196D01*
X72093142Y-107024351D01*
X72127983Y-107014229D01*
X72127984Y-107014229D01*
X72135593Y-107012018D01*
X72142412Y-107007985D01*
X72142417Y-107007983D01*
X72153028Y-107001707D01*
X72170776Y-106993012D01*
X72189617Y-106985552D01*
X72225387Y-106959564D01*
X72235307Y-106953048D01*
X72266535Y-106934580D01*
X72266538Y-106934578D01*
X72273362Y-106930542D01*
X72287683Y-106916221D01*
X72302717Y-106903380D01*
X72312694Y-106896131D01*
X72319107Y-106891472D01*
X72347298Y-106857395D01*
X72355288Y-106848616D01*
X75068247Y-104135657D01*
X75076537Y-104128113D01*
X75083018Y-104124000D01*
X75129659Y-104074332D01*
X75132413Y-104071491D01*
X75152135Y-104051769D01*
X75154619Y-104048567D01*
X75162317Y-104039555D01*
X75187161Y-104013098D01*
X75192586Y-104007321D01*
X75202347Y-103989566D01*
X75213198Y-103973047D01*
X75225614Y-103957041D01*
X75243174Y-103916463D01*
X75248391Y-103905813D01*
X75269695Y-103867060D01*
X75272098Y-103857703D01*
X75274733Y-103847438D01*
X75281137Y-103828734D01*
X75286033Y-103817420D01*
X75286033Y-103817419D01*
X75289181Y-103810145D01*
X75290420Y-103802322D01*
X75290423Y-103802312D01*
X75296099Y-103766476D01*
X75298505Y-103754856D01*
X75307528Y-103719711D01*
X75307528Y-103719710D01*
X75309500Y-103712030D01*
X75309500Y-103691776D01*
X75311051Y-103672065D01*
X75312980Y-103659886D01*
X75314220Y-103652057D01*
X75310059Y-103608038D01*
X75309500Y-103596181D01*
X75309500Y-99788695D01*
X77377251Y-99788695D01*
X77377548Y-99793848D01*
X77377548Y-99793851D01*
X77383011Y-99888590D01*
X77390110Y-100011715D01*
X77391247Y-100016761D01*
X77391248Y-100016767D01*
X77409832Y-100099226D01*
X77439222Y-100229639D01*
X77523266Y-100436616D01*
X77525965Y-100441020D01*
X77627441Y-100606614D01*
X77639987Y-100627088D01*
X77786250Y-100795938D01*
X77790230Y-100799242D01*
X77794981Y-100803187D01*
X77834616Y-100862090D01*
X77836113Y-100933071D01*
X77798997Y-100993593D01*
X77758725Y-101018112D01*
X77667596Y-101052275D01*
X77643295Y-101061385D01*
X77526739Y-101148739D01*
X77439385Y-101265295D01*
X77388255Y-101401684D01*
X77381500Y-101463866D01*
X77381500Y-103260134D01*
X77388255Y-103322316D01*
X77439385Y-103458705D01*
X77526739Y-103575261D01*
X77643295Y-103662615D01*
X77779684Y-103713745D01*
X77841866Y-103720500D01*
X79638134Y-103720500D01*
X79700316Y-103713745D01*
X79836705Y-103662615D01*
X79953261Y-103575261D01*
X80040615Y-103458705D01*
X80091745Y-103322316D01*
X80098500Y-103260134D01*
X80098500Y-101463866D01*
X80091745Y-101401684D01*
X80040615Y-101265295D01*
X79953261Y-101148739D01*
X79836705Y-101061385D01*
X79812404Y-101052275D01*
X79718203Y-101016960D01*
X79661439Y-100974318D01*
X79636739Y-100907756D01*
X79651947Y-100838408D01*
X79673493Y-100809727D01*
X79774435Y-100709137D01*
X79778096Y-100705489D01*
X79837594Y-100622689D01*
X79905435Y-100528277D01*
X79908453Y-100524077D01*
X79962266Y-100415195D01*
X80005136Y-100328453D01*
X80005137Y-100328451D01*
X80007430Y-100323811D01*
X80072370Y-100110069D01*
X80101529Y-99888590D01*
X80103156Y-99822000D01*
X80084852Y-99599361D01*
X80030431Y-99382702D01*
X79941354Y-99177840D01*
X79820014Y-98990277D01*
X79669670Y-98825051D01*
X79665619Y-98821852D01*
X79665615Y-98821848D01*
X79498414Y-98689800D01*
X79498410Y-98689798D01*
X79494359Y-98686598D01*
X79452569Y-98663529D01*
X79402598Y-98613097D01*
X79387826Y-98543654D01*
X79412942Y-98477248D01*
X79440294Y-98450641D01*
X79615328Y-98325792D01*
X79623200Y-98319139D01*
X79774052Y-98168812D01*
X79780730Y-98160965D01*
X79905003Y-97988020D01*
X79910313Y-97979183D01*
X80004670Y-97788267D01*
X80008469Y-97778672D01*
X80070377Y-97574910D01*
X80072555Y-97564837D01*
X80073986Y-97553962D01*
X80071775Y-97539778D01*
X80058617Y-97536000D01*
X77423225Y-97536000D01*
X77409694Y-97539973D01*
X77408257Y-97549966D01*
X77438565Y-97684446D01*
X77441645Y-97694275D01*
X77521770Y-97891603D01*
X77526413Y-97900794D01*
X77637694Y-98082388D01*
X77643777Y-98090699D01*
X77783213Y-98251667D01*
X77790580Y-98258883D01*
X77954434Y-98394916D01*
X77962881Y-98400831D01*
X78031969Y-98441203D01*
X78080693Y-98492842D01*
X78093764Y-98562625D01*
X78067033Y-98628396D01*
X78026584Y-98661752D01*
X78013607Y-98668507D01*
X78009474Y-98671610D01*
X78009471Y-98671612D01*
X77985247Y-98689800D01*
X77834965Y-98802635D01*
X77831393Y-98806373D01*
X77685269Y-98959283D01*
X77680629Y-98964138D01*
X77554743Y-99148680D01*
X77507716Y-99249992D01*
X77466497Y-99338791D01*
X77460688Y-99351305D01*
X77400989Y-99566570D01*
X77377251Y-99788695D01*
X75309500Y-99788695D01*
X75309500Y-95662394D01*
X75329502Y-95594273D01*
X75346405Y-95573299D01*
X80939405Y-89980299D01*
X81001717Y-89946273D01*
X81072532Y-89951338D01*
X81129368Y-89993885D01*
X81154179Y-90060405D01*
X81154500Y-90069394D01*
X81154500Y-90202506D01*
X81134498Y-90270627D01*
X81117595Y-90291601D01*
X78347747Y-93061448D01*
X78339461Y-93068988D01*
X78332982Y-93073100D01*
X78327557Y-93078877D01*
X78286357Y-93122751D01*
X78283602Y-93125593D01*
X78263865Y-93145330D01*
X78261385Y-93148527D01*
X78253682Y-93157547D01*
X78223414Y-93189779D01*
X78219595Y-93196725D01*
X78219593Y-93196728D01*
X78213652Y-93207534D01*
X78202801Y-93224053D01*
X78190386Y-93240059D01*
X78187241Y-93247328D01*
X78187238Y-93247332D01*
X78172826Y-93280637D01*
X78167609Y-93291287D01*
X78146305Y-93330040D01*
X78144334Y-93337715D01*
X78144334Y-93337716D01*
X78141267Y-93349662D01*
X78134863Y-93368366D01*
X78126819Y-93386955D01*
X78125580Y-93394778D01*
X78125577Y-93394788D01*
X78119901Y-93430624D01*
X78117495Y-93442244D01*
X78108210Y-93478411D01*
X78108208Y-93478415D01*
X78106500Y-93485069D01*
X78105426Y-93484793D01*
X78080011Y-93543060D01*
X78041574Y-93573948D01*
X78013607Y-93588507D01*
X78009474Y-93591610D01*
X78009471Y-93591612D01*
X77890914Y-93680627D01*
X77834965Y-93722635D01*
X77831393Y-93726373D01*
X77685269Y-93879283D01*
X77680629Y-93884138D01*
X77677715Y-93888410D01*
X77677714Y-93888411D01*
X77665404Y-93906457D01*
X77554743Y-94068680D01*
X77539003Y-94102590D01*
X77466497Y-94258791D01*
X77460688Y-94271305D01*
X77400989Y-94486570D01*
X77377251Y-94708695D01*
X77377548Y-94713848D01*
X77377548Y-94713851D01*
X77383011Y-94808590D01*
X77390110Y-94931715D01*
X77391247Y-94936761D01*
X77391248Y-94936767D01*
X77411119Y-95024939D01*
X77439222Y-95149639D01*
X77523266Y-95356616D01*
X77525965Y-95361020D01*
X77627441Y-95526614D01*
X77639987Y-95547088D01*
X77786250Y-95715938D01*
X77958126Y-95858632D01*
X78031955Y-95901774D01*
X78080679Y-95953412D01*
X78093750Y-96023195D01*
X78067019Y-96088967D01*
X78026562Y-96122327D01*
X78018457Y-96126546D01*
X78009738Y-96132036D01*
X77839433Y-96259905D01*
X77831726Y-96266748D01*
X77684590Y-96420717D01*
X77678104Y-96428727D01*
X77558098Y-96604649D01*
X77553000Y-96613623D01*
X77463338Y-96806783D01*
X77459775Y-96816470D01*
X77404389Y-97016183D01*
X77405912Y-97024607D01*
X77418292Y-97028000D01*
X80058344Y-97028000D01*
X80071875Y-97024027D01*
X80073180Y-97014947D01*
X80031214Y-96847875D01*
X80027894Y-96838124D01*
X79942972Y-96642814D01*
X79938105Y-96633739D01*
X79822426Y-96454926D01*
X79816136Y-96446757D01*
X79672806Y-96289240D01*
X79665273Y-96282215D01*
X79498139Y-96150222D01*
X79489556Y-96144520D01*
X79452602Y-96124120D01*
X79402631Y-96073687D01*
X79387859Y-96004245D01*
X79412975Y-95937839D01*
X79440327Y-95911232D01*
X79463797Y-95894491D01*
X79619860Y-95783173D01*
X79778096Y-95625489D01*
X79837594Y-95542689D01*
X79905435Y-95448277D01*
X79908453Y-95444077D01*
X79962266Y-95335195D01*
X80005136Y-95248453D01*
X80005137Y-95248451D01*
X80007430Y-95243811D01*
X80072370Y-95030069D01*
X80101529Y-94808590D01*
X80103156Y-94742000D01*
X80084852Y-94519361D01*
X80030431Y-94302702D01*
X79941354Y-94097840D01*
X79867553Y-93983761D01*
X79822822Y-93914617D01*
X79822820Y-93914614D01*
X79820014Y-93910277D01*
X79669670Y-93745051D01*
X79661433Y-93738545D01*
X79620372Y-93680627D01*
X79617142Y-93609704D01*
X79650433Y-93550571D01*
X80871480Y-92329525D01*
X82180253Y-91020752D01*
X82188539Y-91013212D01*
X82195018Y-91009100D01*
X82241644Y-90959448D01*
X82244398Y-90956607D01*
X82264135Y-90936870D01*
X82266615Y-90933673D01*
X82274320Y-90924651D01*
X82299159Y-90898200D01*
X82304586Y-90892421D01*
X82308405Y-90885475D01*
X82308407Y-90885472D01*
X82314348Y-90874666D01*
X82325199Y-90858147D01*
X82332758Y-90848401D01*
X82337614Y-90842141D01*
X82340759Y-90834872D01*
X82340762Y-90834868D01*
X82355174Y-90801563D01*
X82360391Y-90790913D01*
X82381695Y-90752160D01*
X82386733Y-90732537D01*
X82393137Y-90713834D01*
X82398033Y-90702520D01*
X82398033Y-90702519D01*
X82401181Y-90695245D01*
X82402420Y-90687422D01*
X82402423Y-90687412D01*
X82408099Y-90651576D01*
X82410505Y-90639956D01*
X82419528Y-90604811D01*
X82419528Y-90604810D01*
X82421500Y-90597130D01*
X82421500Y-90576876D01*
X82423051Y-90557165D01*
X82424980Y-90544986D01*
X82426220Y-90537157D01*
X82422059Y-90493138D01*
X82421500Y-90481281D01*
X82421500Y-66372767D01*
X82422027Y-66361584D01*
X82423702Y-66354091D01*
X82421562Y-66286000D01*
X82421500Y-66282043D01*
X82421500Y-66254144D01*
X82420996Y-66250153D01*
X82420063Y-66238311D01*
X82418923Y-66202036D01*
X82418674Y-66194111D01*
X82416462Y-66186497D01*
X82416461Y-66186492D01*
X82413023Y-66174659D01*
X82409012Y-66155295D01*
X82407467Y-66143064D01*
X82406474Y-66135203D01*
X82403557Y-66127836D01*
X82403556Y-66127831D01*
X82390198Y-66094092D01*
X82386354Y-66082865D01*
X82376230Y-66048022D01*
X82374018Y-66040407D01*
X82363707Y-66022972D01*
X82355012Y-66005224D01*
X82347552Y-65986383D01*
X82321564Y-65950613D01*
X82315048Y-65940693D01*
X82296580Y-65909465D01*
X82296578Y-65909462D01*
X82292542Y-65902638D01*
X82278221Y-65888317D01*
X82265380Y-65873283D01*
X82258131Y-65863306D01*
X82253472Y-65856893D01*
X82219395Y-65828702D01*
X82210616Y-65820712D01*
X80160405Y-63770500D01*
X80126379Y-63708188D01*
X80123500Y-63681405D01*
X80123500Y-63139866D01*
X80116745Y-63077684D01*
X80065615Y-62941295D01*
X79978261Y-62824739D01*
X79861705Y-62737385D01*
X79725316Y-62686255D01*
X79663134Y-62679500D01*
X77866866Y-62679500D01*
X77804684Y-62686255D01*
X77668295Y-62737385D01*
X77551739Y-62824739D01*
X77464385Y-62941295D01*
X77413255Y-63077684D01*
X77406500Y-63139866D01*
X77406500Y-64936134D01*
X77413255Y-64998316D01*
X77464385Y-65134705D01*
X77551739Y-65251261D01*
X77668295Y-65338615D01*
X77676704Y-65341767D01*
X77676705Y-65341768D01*
X77785960Y-65382726D01*
X77842725Y-65425367D01*
X77867425Y-65491929D01*
X77852218Y-65561278D01*
X77832825Y-65587759D01*
X77709590Y-65716717D01*
X77703104Y-65724727D01*
X77583098Y-65900649D01*
X77578000Y-65909623D01*
X77488338Y-66102783D01*
X77484775Y-66112470D01*
X77429389Y-66312183D01*
X77430912Y-66320607D01*
X77443292Y-66324000D01*
X80083344Y-66324000D01*
X80096875Y-66320027D01*
X80098180Y-66310947D01*
X80056214Y-66143875D01*
X80052894Y-66134124D01*
X79967972Y-65938814D01*
X79963105Y-65929739D01*
X79847426Y-65750926D01*
X79841136Y-65742757D01*
X79697293Y-65584677D01*
X79666241Y-65520831D01*
X79674635Y-65450333D01*
X79719812Y-65395564D01*
X79746256Y-65381895D01*
X79840298Y-65346640D01*
X79911105Y-65341457D01*
X79973623Y-65375527D01*
X80548708Y-65950613D01*
X81117595Y-66519500D01*
X81151621Y-66581812D01*
X81154500Y-66608595D01*
X81154500Y-70556405D01*
X81134498Y-70624526D01*
X81080842Y-70671019D01*
X81010568Y-70681123D01*
X80945988Y-70651629D01*
X80939404Y-70645500D01*
X80704330Y-70410425D01*
X80289647Y-69995742D01*
X80282113Y-69987463D01*
X80278000Y-69980982D01*
X80228348Y-69934356D01*
X80225507Y-69931602D01*
X80205770Y-69911865D01*
X80202573Y-69909385D01*
X80193551Y-69901680D01*
X80167100Y-69876841D01*
X80161321Y-69871414D01*
X80154375Y-69867595D01*
X80154372Y-69867593D01*
X80143566Y-69861652D01*
X80127047Y-69850801D01*
X80126583Y-69850441D01*
X80111041Y-69838386D01*
X80078929Y-69824490D01*
X80024355Y-69779078D01*
X80002996Y-69711371D01*
X80016014Y-69653026D01*
X80027421Y-69629945D01*
X80032430Y-69619811D01*
X80097370Y-69406069D01*
X80126529Y-69184590D01*
X80128156Y-69118000D01*
X80109852Y-68895361D01*
X80055431Y-68678702D01*
X79966354Y-68473840D01*
X79845014Y-68286277D01*
X79694670Y-68121051D01*
X79690619Y-68117852D01*
X79690615Y-68117848D01*
X79523414Y-67985800D01*
X79523410Y-67985798D01*
X79519359Y-67982598D01*
X79477569Y-67959529D01*
X79427598Y-67909097D01*
X79412826Y-67839654D01*
X79437942Y-67773248D01*
X79465294Y-67746641D01*
X79640328Y-67621792D01*
X79648200Y-67615139D01*
X79799052Y-67464812D01*
X79805730Y-67456965D01*
X79930003Y-67284020D01*
X79935313Y-67275183D01*
X80029670Y-67084267D01*
X80033469Y-67074672D01*
X80095377Y-66870910D01*
X80097555Y-66860837D01*
X80098986Y-66849962D01*
X80096775Y-66835778D01*
X80083617Y-66832000D01*
X77448225Y-66832000D01*
X77434694Y-66835973D01*
X77433257Y-66845966D01*
X77463565Y-66980446D01*
X77466645Y-66990275D01*
X77546770Y-67187603D01*
X77551413Y-67196794D01*
X77662694Y-67378388D01*
X77668777Y-67386699D01*
X77808213Y-67547667D01*
X77815580Y-67554883D01*
X77979434Y-67690916D01*
X77987881Y-67696831D01*
X78056969Y-67737203D01*
X78105693Y-67788842D01*
X78118764Y-67858625D01*
X78092033Y-67924396D01*
X78051584Y-67957752D01*
X78038607Y-67964507D01*
X78034474Y-67967610D01*
X78034471Y-67967612D01*
X77864100Y-68095530D01*
X77859965Y-68098635D01*
X77705629Y-68260138D01*
X77579743Y-68444680D01*
X77485688Y-68647305D01*
X77425989Y-68862570D01*
X77402251Y-69084695D01*
X77402548Y-69089848D01*
X77402548Y-69089851D01*
X77408011Y-69184590D01*
X77415110Y-69307715D01*
X77416247Y-69312761D01*
X77416248Y-69312767D01*
X77436119Y-69400939D01*
X77464222Y-69525639D01*
X77466164Y-69530422D01*
X77466167Y-69530431D01*
X77486740Y-69581095D01*
X77493837Y-69651736D01*
X77461615Y-69715000D01*
X77400306Y-69750801D01*
X77369998Y-69754500D01*
X72521595Y-69754500D01*
X72453474Y-69734498D01*
X72432498Y-69717594D01*
X72400574Y-69685669D01*
X72366550Y-69623356D01*
X72367964Y-69563964D01*
X72372226Y-69548058D01*
X72378944Y-69522986D01*
X72398365Y-69301000D01*
X72378944Y-69079014D01*
X72321270Y-68863773D01*
X72238889Y-68687105D01*
X72229423Y-68666805D01*
X72229420Y-68666800D01*
X72227097Y-68661818D01*
X72099284Y-68479283D01*
X71941717Y-68321716D01*
X71897304Y-68290617D01*
X71848438Y-68256401D01*
X71759183Y-68193903D01*
X71754201Y-68191580D01*
X71754196Y-68191577D01*
X71562209Y-68102053D01*
X71562208Y-68102053D01*
X71557227Y-68099730D01*
X71551919Y-68098308D01*
X71551917Y-68098307D01*
X71485535Y-68080520D01*
X71341986Y-68042056D01*
X71120000Y-68022635D01*
X70898014Y-68042056D01*
X70754465Y-68080520D01*
X70688083Y-68098307D01*
X70688081Y-68098308D01*
X70682773Y-68099730D01*
X70677792Y-68102052D01*
X70677791Y-68102053D01*
X70485805Y-68191577D01*
X70485800Y-68191580D01*
X70480818Y-68193903D01*
X70298283Y-68321716D01*
X70140716Y-68479283D01*
X70012903Y-68661818D01*
X70010580Y-68666800D01*
X70010577Y-68666805D01*
X70001111Y-68687105D01*
X69918730Y-68863773D01*
X69861056Y-69079014D01*
X69841635Y-69301000D01*
X69861056Y-69522986D01*
X69885673Y-69614857D01*
X69917227Y-69732616D01*
X69918730Y-69738227D01*
X69921052Y-69743208D01*
X69921053Y-69743209D01*
X70010577Y-69935195D01*
X70010580Y-69935200D01*
X70012903Y-69940182D01*
X70071371Y-70023683D01*
X70096912Y-70060158D01*
X70140716Y-70122717D01*
X70298283Y-70280284D01*
X70480817Y-70408097D01*
X70485802Y-70410421D01*
X70485808Y-70410425D01*
X70585272Y-70456805D01*
X70638558Y-70503722D01*
X70658019Y-70571999D01*
X70637478Y-70639959D01*
X70585273Y-70685195D01*
X70485805Y-70731577D01*
X70485800Y-70731580D01*
X70480818Y-70733903D01*
X70298283Y-70861716D01*
X70140716Y-71019283D01*
X70137559Y-71023791D01*
X70137557Y-71023794D01*
X70132835Y-71030538D01*
X70012903Y-71201818D01*
X70010578Y-71206803D01*
X70010575Y-71206809D01*
X69981467Y-71269232D01*
X69935747Y-71367281D01*
X69934753Y-71369412D01*
X69887836Y-71422698D01*
X69819559Y-71442159D01*
X69751599Y-71421617D01*
X69731463Y-71405258D01*
X67102405Y-68776200D01*
X67068379Y-68713888D01*
X67065500Y-68687105D01*
X67065500Y-60706000D01*
X92964000Y-60706000D01*
X92964000Y-39624000D01*
X74874905Y-39624000D01*
X74501052Y-39250147D01*
X74493512Y-39241861D01*
X74489400Y-39235382D01*
X74439748Y-39188756D01*
X74436907Y-39186002D01*
X74417170Y-39166265D01*
X74413973Y-39163785D01*
X74404951Y-39156080D01*
X74391522Y-39143469D01*
X74372721Y-39125814D01*
X74365775Y-39121995D01*
X74365772Y-39121993D01*
X74354966Y-39116052D01*
X74338447Y-39105201D01*
X74337983Y-39104841D01*
X74322441Y-39092786D01*
X74315172Y-39089641D01*
X74315168Y-39089638D01*
X74281863Y-39075226D01*
X74271213Y-39070009D01*
X74232460Y-39048705D01*
X74212837Y-39043667D01*
X74194134Y-39037263D01*
X74182820Y-39032367D01*
X74182819Y-39032367D01*
X74175545Y-39029219D01*
X74167722Y-39027980D01*
X74167712Y-39027977D01*
X74131876Y-39022301D01*
X74120256Y-39019895D01*
X74085111Y-39010872D01*
X74085110Y-39010872D01*
X74077430Y-39008900D01*
X74057176Y-39008900D01*
X74037465Y-39007349D01*
X74025286Y-39005420D01*
X74017457Y-39004180D01*
X73988186Y-39006947D01*
X73973439Y-39008341D01*
X73961581Y-39008900D01*
X68526367Y-39008900D01*
X68515184Y-39008373D01*
X68507691Y-39006698D01*
X68499765Y-39006947D01*
X68499764Y-39006947D01*
X68439601Y-39008838D01*
X68435643Y-39008900D01*
X68407744Y-39008900D01*
X68403754Y-39009404D01*
X68391920Y-39010336D01*
X68347711Y-39011726D01*
X68340097Y-39013938D01*
X68340092Y-39013939D01*
X68328259Y-39017377D01*
X68308896Y-39021388D01*
X68288803Y-39023926D01*
X68281436Y-39026843D01*
X68281431Y-39026844D01*
X68247692Y-39040202D01*
X68236465Y-39044046D01*
X68194007Y-39056382D01*
X68187181Y-39060419D01*
X68176572Y-39066693D01*
X68158824Y-39075388D01*
X68139983Y-39082848D01*
X68133567Y-39087510D01*
X68133566Y-39087510D01*
X68104213Y-39108836D01*
X68094293Y-39115352D01*
X68063065Y-39133820D01*
X68063062Y-39133822D01*
X68056238Y-39137858D01*
X68041917Y-39152179D01*
X68026884Y-39165019D01*
X68010493Y-39176928D01*
X68001817Y-39187416D01*
X67982302Y-39211005D01*
X67974312Y-39219784D01*
X67570096Y-39624000D01*
X64770000Y-39624000D01*
X64770000Y-42424095D01*
X63828595Y-43365500D01*
X63766283Y-43399526D01*
X63695467Y-43394461D01*
X63638632Y-43351914D01*
X63613821Y-43285394D01*
X63613500Y-43276405D01*
X63613500Y-42306866D01*
X63606745Y-42244684D01*
X63555615Y-42108295D01*
X63468261Y-41991739D01*
X63351705Y-41904385D01*
X63215316Y-41853255D01*
X63153134Y-41846500D01*
X61356866Y-41846500D01*
X61294684Y-41853255D01*
X61158295Y-41904385D01*
X61041739Y-41991739D01*
X60954385Y-42108295D01*
X60903255Y-42244684D01*
X60896500Y-42306866D01*
X60896500Y-44103134D01*
X60903255Y-44165316D01*
X60954385Y-44301705D01*
X61041739Y-44418261D01*
X61158295Y-44505615D01*
X61166704Y-44508767D01*
X61166705Y-44508768D01*
X61275451Y-44549535D01*
X61332216Y-44592176D01*
X61356916Y-44658738D01*
X61341709Y-44728087D01*
X61322316Y-44754568D01*
X61205673Y-44876628D01*
X61195629Y-44887138D01*
X61192715Y-44891410D01*
X61192714Y-44891411D01*
X61080095Y-45056504D01*
X61025184Y-45101507D01*
X60976007Y-45111500D01*
X54895805Y-45111500D01*
X54827684Y-45091498D01*
X54790013Y-45053940D01*
X54701822Y-44917617D01*
X54701820Y-44917614D01*
X54699014Y-44913277D01*
X54691094Y-44904573D01*
X54551798Y-44751488D01*
X54520746Y-44687642D01*
X54529141Y-44617143D01*
X54574317Y-44562375D01*
X54600761Y-44548706D01*
X54707297Y-44508767D01*
X54715705Y-44505615D01*
X54832261Y-44418261D01*
X54919615Y-44301705D01*
X54970745Y-44165316D01*
X54977500Y-44103134D01*
X54977500Y-42306866D01*
X54970745Y-42244684D01*
X54919615Y-42108295D01*
X54832261Y-41991739D01*
X54715705Y-41904385D01*
X54579316Y-41853255D01*
X54517134Y-41846500D01*
X52720866Y-41846500D01*
X52658684Y-41853255D01*
X52522295Y-41904385D01*
X52405739Y-41991739D01*
X52318385Y-42108295D01*
X52267255Y-42244684D01*
X52260500Y-42306866D01*
X52260500Y-44103134D01*
X52267255Y-44165316D01*
X52318385Y-44301705D01*
X52405739Y-44418261D01*
X52522295Y-44505615D01*
X52530704Y-44508767D01*
X52530705Y-44508768D01*
X52639451Y-44549535D01*
X52696216Y-44592176D01*
X52720916Y-44658738D01*
X52705709Y-44728087D01*
X52686316Y-44754568D01*
X52569673Y-44876628D01*
X52559629Y-44887138D01*
X52433743Y-45071680D01*
X52394026Y-45157244D01*
X52345228Y-45262371D01*
X52339688Y-45274305D01*
X52279989Y-45489570D01*
X52256251Y-45711695D01*
X52256548Y-45716848D01*
X52256548Y-45716851D01*
X52262152Y-45814034D01*
X52269110Y-45934715D01*
X52270247Y-45939761D01*
X52270248Y-45939767D01*
X52288526Y-46020870D01*
X52318222Y-46152639D01*
X52363537Y-46264237D01*
X52399837Y-46353633D01*
X52402266Y-46359616D01*
X52436901Y-46416135D01*
X52516291Y-46545688D01*
X52518987Y-46550088D01*
X52665250Y-46718938D01*
X52837126Y-46861632D01*
X52907595Y-46902811D01*
X52910445Y-46904476D01*
X52959169Y-46956114D01*
X52972240Y-47025897D01*
X52945509Y-47091669D01*
X52905055Y-47125027D01*
X52892607Y-47131507D01*
X52888474Y-47134610D01*
X52888471Y-47134612D01*
X52718100Y-47262530D01*
X52713965Y-47265635D01*
X52559629Y-47427138D01*
X52433743Y-47611680D01*
X52418003Y-47645590D01*
X52346386Y-47799876D01*
X52339688Y-47814305D01*
X52279989Y-48029570D01*
X52256251Y-48251695D01*
X52256548Y-48256848D01*
X52256548Y-48256851D01*
X52264063Y-48387190D01*
X52269110Y-48474715D01*
X52270247Y-48479761D01*
X52270248Y-48479767D01*
X52275585Y-48503448D01*
X52318222Y-48692639D01*
X52359220Y-48793606D01*
X52384301Y-48855372D01*
X52402266Y-48899616D01*
X52404965Y-48904020D01*
X52483222Y-49031724D01*
X52518987Y-49090088D01*
X52665250Y-49258938D01*
X52837126Y-49401632D01*
X52887657Y-49431160D01*
X52910445Y-49444476D01*
X52959169Y-49496114D01*
X52972240Y-49565897D01*
X52945509Y-49631669D01*
X52905055Y-49665027D01*
X52892607Y-49671507D01*
X52888474Y-49674610D01*
X52888471Y-49674612D01*
X52765779Y-49766732D01*
X52713965Y-49805635D01*
X52559629Y-49967138D01*
X52556715Y-49971410D01*
X52556714Y-49971411D01*
X52471556Y-50096249D01*
X52433743Y-50151680D01*
X52418003Y-50185590D01*
X52342208Y-50348877D01*
X52339688Y-50354305D01*
X52279989Y-50569570D01*
X52256251Y-50791695D01*
X51308500Y-50791695D01*
X51308500Y-38734500D01*
X51328502Y-38666379D01*
X51382158Y-38619886D01*
X51434500Y-38608500D01*
X93345500Y-38608500D01*
X93413621Y-38628502D01*
G37*
%TD.AperFunction*%
%TA.AperFunction,Conductor*%
G36*
X64770000Y-44270210D02*
G01*
X64770000Y-53200005D01*
X64754568Y-53202224D01*
X64689988Y-53172730D01*
X64683405Y-53166601D01*
X64035291Y-52518486D01*
X63340439Y-51823634D01*
X63306413Y-51761322D01*
X63311478Y-51690506D01*
X63327211Y-51661013D01*
X63420435Y-51531277D01*
X63423453Y-51527077D01*
X63454162Y-51464943D01*
X63520136Y-51331453D01*
X63520137Y-51331451D01*
X63522430Y-51326811D01*
X63587370Y-51113069D01*
X63616529Y-50891590D01*
X63617710Y-50843268D01*
X63618074Y-50828365D01*
X63618074Y-50828361D01*
X63618156Y-50825000D01*
X63599852Y-50602361D01*
X63545431Y-50385702D01*
X63456354Y-50180840D01*
X63375215Y-50055418D01*
X63337822Y-49997617D01*
X63337820Y-49997614D01*
X63335014Y-49993277D01*
X63184670Y-49828051D01*
X63180619Y-49824852D01*
X63180615Y-49824848D01*
X63013414Y-49692800D01*
X63013410Y-49692798D01*
X63009359Y-49689598D01*
X62968053Y-49666796D01*
X62918084Y-49616364D01*
X62903312Y-49546921D01*
X62928428Y-49480516D01*
X62955780Y-49453909D01*
X63016538Y-49410571D01*
X63134860Y-49326173D01*
X63189468Y-49271756D01*
X63272985Y-49188530D01*
X63293096Y-49168489D01*
X63325024Y-49124057D01*
X63420435Y-48991277D01*
X63423453Y-48987077D01*
X63522430Y-48786811D01*
X63554900Y-48679940D01*
X63585865Y-48578023D01*
X63585865Y-48578021D01*
X63587370Y-48573069D01*
X63616529Y-48351590D01*
X63618156Y-48285000D01*
X63599852Y-48062361D01*
X63545431Y-47845702D01*
X63456354Y-47640840D01*
X63335014Y-47453277D01*
X63184670Y-47288051D01*
X63180619Y-47284852D01*
X63180615Y-47284848D01*
X63013414Y-47152800D01*
X63013410Y-47152798D01*
X63009359Y-47149598D01*
X62968053Y-47126796D01*
X62918084Y-47076364D01*
X62903312Y-47006921D01*
X62928428Y-46940516D01*
X62955780Y-46913909D01*
X62999603Y-46882650D01*
X63134860Y-46786173D01*
X63293096Y-46628489D01*
X63352594Y-46545689D01*
X63420435Y-46451277D01*
X63423453Y-46447077D01*
X63425746Y-46442438D01*
X63428405Y-46438012D01*
X63429606Y-46438734D01*
X63473346Y-46391278D01*
X63530270Y-46373564D01*
X63543637Y-46372723D01*
X63543638Y-46372723D01*
X63551550Y-46372225D01*
X63559091Y-46369775D01*
X63559387Y-46369679D01*
X63582531Y-46364506D01*
X63582835Y-46364468D01*
X63582840Y-46364467D01*
X63590697Y-46363474D01*
X63598062Y-46360558D01*
X63598066Y-46360557D01*
X63642911Y-46342801D01*
X63650330Y-46340129D01*
X63703775Y-46322764D01*
X63710472Y-46318514D01*
X63710731Y-46318350D01*
X63731858Y-46307585D01*
X63732146Y-46307471D01*
X63732151Y-46307468D01*
X63739517Y-46304552D01*
X63745925Y-46299896D01*
X63745931Y-46299893D01*
X63784952Y-46271542D01*
X63791489Y-46267099D01*
X63838918Y-46237000D01*
X63844559Y-46230993D01*
X63862346Y-46215312D01*
X63862591Y-46215134D01*
X63862593Y-46215132D01*
X63869007Y-46210472D01*
X63874062Y-46204362D01*
X63904803Y-46167204D01*
X63910034Y-46161270D01*
X63943058Y-46126102D01*
X63943060Y-46126099D01*
X63948486Y-46120321D01*
X63952458Y-46113097D01*
X63965781Y-46093494D01*
X63965980Y-46093254D01*
X63965984Y-46093247D01*
X63971033Y-46087144D01*
X63994947Y-46036324D01*
X63998529Y-46029292D01*
X64025595Y-45980060D01*
X64027565Y-45972385D01*
X64027568Y-45972379D01*
X64027644Y-45972081D01*
X64035676Y-45949772D01*
X64035806Y-45949497D01*
X64035809Y-45949489D01*
X64039183Y-45942318D01*
X64049706Y-45887151D01*
X64051432Y-45879429D01*
X64051880Y-45877687D01*
X64065400Y-45825030D01*
X64065400Y-45816793D01*
X64067632Y-45793184D01*
X64067690Y-45792881D01*
X64067690Y-45792877D01*
X64069175Y-45785094D01*
X64065649Y-45729049D01*
X64065400Y-45721138D01*
X64065400Y-44972694D01*
X64085402Y-44904573D01*
X64102305Y-44883599D01*
X64683405Y-44302499D01*
X64745717Y-44268473D01*
X64770000Y-44270210D01*
G37*
%TD.AperFunction*%
%TD*%
M02*
