%TF.GenerationSoftware,KiCad,Pcbnew,(6.0.7)*%
%TF.CreationDate,2023-08-18T16:06:47+09:00*%
%TF.ProjectId,graduate-project,67726164-7561-4746-952d-70726f6a6563,rev?*%
%TF.SameCoordinates,Original*%
%TF.FileFunction,Soldermask,Top*%
%TF.FilePolarity,Negative*%
%FSLAX46Y46*%
G04 Gerber Fmt 4.6, Leading zero omitted, Abs format (unit mm)*
G04 Created by KiCad (PCBNEW (6.0.7)) date 2023-08-18 16:06:47*
%MOMM*%
%LPD*%
G01*
G04 APERTURE LIST*
G04 Aperture macros list*
%AMRoundRect*
0 Rectangle with rounded corners*
0 $1 Rounding radius*
0 $2 $3 $4 $5 $6 $7 $8 $9 X,Y pos of 4 corners*
0 Add a 4 corners polygon primitive as box body*
4,1,4,$2,$3,$4,$5,$6,$7,$8,$9,$2,$3,0*
0 Add four circle primitives for the rounded corners*
1,1,$1+$1,$2,$3*
1,1,$1+$1,$4,$5*
1,1,$1+$1,$6,$7*
1,1,$1+$1,$8,$9*
0 Add four rect primitives between the rounded corners*
20,1,$1+$1,$2,$3,$4,$5,0*
20,1,$1+$1,$4,$5,$6,$7,0*
20,1,$1+$1,$6,$7,$8,$9,0*
20,1,$1+$1,$8,$9,$2,$3,0*%
G04 Aperture macros list end*
%ADD10R,1.700000X1.700000*%
%ADD11O,1.700000X1.700000*%
%ADD12RoundRect,0.200000X0.200000X0.275000X-0.200000X0.275000X-0.200000X-0.275000X0.200000X-0.275000X0*%
%ADD13RoundRect,0.225000X0.250000X-0.225000X0.250000X0.225000X-0.250000X0.225000X-0.250000X-0.225000X0*%
%ADD14R,1.800000X1.800000*%
%ADD15C,1.800000*%
%ADD16RoundRect,0.200000X0.275000X-0.200000X0.275000X0.200000X-0.275000X0.200000X-0.275000X-0.200000X0*%
%ADD17R,1.530000X1.530000*%
%ADD18C,1.530000*%
%ADD19R,2.460000X2.310000*%
%ADD20RoundRect,0.100000X-0.687500X-0.100000X0.687500X-0.100000X0.687500X0.100000X-0.687500X0.100000X0*%
%ADD21R,3.800000X3.800000*%
%ADD22C,4.000000*%
G04 APERTURE END LIST*
D10*
%TO.C,J2*%
X78740000Y-61625000D03*
D11*
X78740000Y-64165000D03*
X78740000Y-66705000D03*
X78740000Y-69245000D03*
X78740000Y-71785000D03*
X78740000Y-74325000D03*
X78740000Y-76865000D03*
X78740000Y-79405000D03*
X78740000Y-81945000D03*
X78740000Y-84485000D03*
%TD*%
D12*
%TO.C,R3*%
X72707000Y-55626000D03*
X71057000Y-55626000D03*
%TD*%
D13*
%TO.C,C2*%
X81280000Y-50305000D03*
X81280000Y-48755000D03*
%TD*%
D14*
%TO.C,D1*%
X78100000Y-110490000D03*
D15*
X80640000Y-110490000D03*
%TD*%
D16*
%TO.C,R2*%
X63500000Y-80390000D03*
X63500000Y-78740000D03*
%TD*%
%TO.C,R1*%
X63500000Y-74485000D03*
X63500000Y-72835000D03*
%TD*%
D14*
%TO.C,D2*%
X86355000Y-110490000D03*
D15*
X88895000Y-110490000D03*
%TD*%
D16*
%TO.C,R4*%
X66040000Y-106870000D03*
X66040000Y-105220000D03*
%TD*%
D13*
%TO.C,C1*%
X78740000Y-50305000D03*
X78740000Y-48755000D03*
%TD*%
D16*
%TO.C,R5*%
X60960000Y-106870000D03*
X60960000Y-105220000D03*
%TD*%
D17*
%TO.C,U1*%
X71120000Y-102575000D03*
D18*
X71120000Y-100035000D03*
X71120000Y-97495000D03*
X71120000Y-94955000D03*
X71120000Y-92415000D03*
X71120000Y-89875000D03*
X71120000Y-87335000D03*
X71120000Y-84795000D03*
X71120000Y-82255000D03*
X71120000Y-79715000D03*
X71120000Y-77175000D03*
X71120000Y-74635000D03*
X71120000Y-72095000D03*
X71120000Y-69555000D03*
X71120000Y-67015000D03*
D17*
X55880000Y-102575000D03*
D18*
X55880000Y-100035000D03*
X55880000Y-97495000D03*
X55880000Y-94955000D03*
X55880000Y-92415000D03*
X55880000Y-89875000D03*
X55880000Y-87335000D03*
X55880000Y-84795000D03*
X55880000Y-82255000D03*
X55880000Y-79715000D03*
X55880000Y-77175000D03*
X55880000Y-74635000D03*
X55880000Y-72095000D03*
X55880000Y-69555000D03*
X55880000Y-67015000D03*
%TD*%
D19*
%TO.C,U2*%
X71120000Y-49530000D03*
D20*
X68257500Y-47255000D03*
X68257500Y-47905000D03*
X68257500Y-48555000D03*
X68257500Y-49205000D03*
X68257500Y-49855000D03*
X68257500Y-50505000D03*
X68257500Y-51155000D03*
X68257500Y-51805000D03*
X73982500Y-51805000D03*
X73982500Y-51155000D03*
X73982500Y-50505000D03*
X73982500Y-49855000D03*
X73982500Y-49205000D03*
X73982500Y-48555000D03*
X73982500Y-47905000D03*
X73982500Y-47255000D03*
%TD*%
D10*
%TO.C,J5*%
X55905000Y-41935000D03*
D11*
X55905000Y-44475000D03*
X55905000Y-47015000D03*
X55905000Y-49555000D03*
X55905000Y-52095000D03*
X55905000Y-54635000D03*
%TD*%
D10*
%TO.C,J3*%
X78715000Y-100955000D03*
D11*
X78715000Y-98415000D03*
X78715000Y-95875000D03*
X78715000Y-93335000D03*
%TD*%
D21*
%TO.C,J1*%
X88265000Y-46990000D03*
D22*
X88265000Y-51990000D03*
%TD*%
D10*
%TO.C,J4*%
X60985000Y-41935000D03*
D11*
X60985000Y-44475000D03*
X60985000Y-47015000D03*
X60985000Y-49555000D03*
X60985000Y-52095000D03*
X60985000Y-54635000D03*
%TD*%
M02*
