M48
; DRILL file {KiCad (6.0.7)} date Fri Aug 18 16:07:23 2023
; FORMAT={-:-/ absolute / metric / decimal}
; #@! TF.CreationDate,2023-08-18T16:07:23+09:00
; #@! TF.GenerationSoftware,Kicad,Pcbnew,(6.0.7)
; #@! TF.FileFunction,Plated,1,2,PTH
FMAT,2
METRIC
; #@! TA.AperFunction,Plated,PTH,ViaDrill
T1C0.400
; #@! TA.AperFunction,Plated,PTH,ComponentDrill
T2C0.400
; #@! TA.AperFunction,Plated,PTH,ComponentDrill
T3C0.900
; #@! TA.AperFunction,Plated,PTH,ComponentDrill
T4C1.000
; #@! TA.AperFunction,Plated,PTH,ComponentDrill
T5C1.020
; #@! TA.AperFunction,Plated,PTH,ComponentDrill
T6C2.700
%
G90
G05
T1
X56.972Y-58.809
X57.912Y-58.085
X62.074Y-106.87
X62.398Y-74.29
X64.77Y-52.07
X64.943Y-74.715
X66.675Y-50.165
X67.564Y-89.662
X71.164Y-53.751
X73.444Y-53.848
X73.66Y-106.045
X73.983Y-46.45
X74.93Y-61.976
X76.2Y-47.498
X79.375Y-106.045
T2
X70.37Y-48.03
X70.37Y-49.53
X70.37Y-51.03
X71.87Y-48.03
X71.87Y-49.53
X71.87Y-51.03
T3
X78.1Y-110.49
X80.64Y-110.49
X86.355Y-110.49
X88.895Y-110.49
T4
X55.905Y-41.935
X55.905Y-44.475
X55.905Y-47.015
X55.905Y-49.555
X55.905Y-52.095
X55.905Y-54.635
X60.985Y-41.935
X60.985Y-44.475
X60.985Y-47.015
X60.985Y-49.555
X60.985Y-52.095
X60.985Y-54.635
X78.715Y-93.335
X78.715Y-95.875
X78.715Y-98.415
X78.715Y-100.955
X78.74Y-61.625
X78.74Y-64.165
X78.74Y-66.705
X78.74Y-69.245
X78.74Y-71.785
X78.74Y-74.325
X78.74Y-76.865
X78.74Y-79.405
X78.74Y-81.945
X78.74Y-84.485
T5
X55.88Y-67.015
X55.88Y-69.555
X55.88Y-72.095
X55.88Y-74.635
X55.88Y-77.175
X55.88Y-79.715
X55.88Y-82.255
X55.88Y-84.795
X55.88Y-87.335
X55.88Y-89.875
X55.88Y-92.415
X55.88Y-94.955
X55.88Y-97.495
X55.88Y-100.035
X55.88Y-102.575
X71.12Y-67.015
X71.12Y-69.555
X71.12Y-72.095
X71.12Y-74.635
X71.12Y-77.175
X71.12Y-79.715
X71.12Y-82.255
X71.12Y-84.795
X71.12Y-87.335
X71.12Y-89.875
X71.12Y-92.415
X71.12Y-94.955
X71.12Y-97.495
X71.12Y-100.035
X71.12Y-102.575
T6
X88.265Y-46.99
X88.265Y-51.99
T0
M30
