%TF.GenerationSoftware,KiCad,Pcbnew,(6.0.7)*%
%TF.CreationDate,2023-08-18T16:06:47+09:00*%
%TF.ProjectId,graduate-project,67726164-7561-4746-952d-70726f6a6563,rev?*%
%TF.SameCoordinates,Original*%
%TF.FileFunction,Copper,L2,Bot*%
%TF.FilePolarity,Positive*%
%FSLAX46Y46*%
G04 Gerber Fmt 4.6, Leading zero omitted, Abs format (unit mm)*
G04 Created by KiCad (PCBNEW (6.0.7)) date 2023-08-18 16:06:47*
%MOMM*%
%LPD*%
G01*
G04 APERTURE LIST*
%TA.AperFunction,ComponentPad*%
%ADD10R,1.700000X1.700000*%
%TD*%
%TA.AperFunction,ComponentPad*%
%ADD11O,1.700000X1.700000*%
%TD*%
%TA.AperFunction,ComponentPad*%
%ADD12R,1.800000X1.800000*%
%TD*%
%TA.AperFunction,ComponentPad*%
%ADD13C,1.800000*%
%TD*%
%TA.AperFunction,ComponentPad*%
%ADD14R,1.530000X1.530000*%
%TD*%
%TA.AperFunction,ComponentPad*%
%ADD15C,1.530000*%
%TD*%
%TA.AperFunction,SMDPad,CuDef*%
%ADD16R,2.000000X3.500000*%
%TD*%
%TA.AperFunction,ComponentPad*%
%ADD17C,0.800000*%
%TD*%
%TA.AperFunction,ComponentPad*%
%ADD18R,3.800000X3.800000*%
%TD*%
%TA.AperFunction,ComponentPad*%
%ADD19C,4.000000*%
%TD*%
%TA.AperFunction,ViaPad*%
%ADD20C,0.800000*%
%TD*%
%TA.AperFunction,Conductor*%
%ADD21C,0.250000*%
%TD*%
%TA.AperFunction,Conductor*%
%ADD22C,0.400000*%
%TD*%
G04 APERTURE END LIST*
D10*
%TO.P,J2,1,VCC*%
%TO.N,ENC_VCC*%
X78740000Y-61625000D03*
D11*
%TO.P,J2,2,GND*%
%TO.N,BATT_GND*%
X78740000Y-64165000D03*
%TO.P,J2,3,SCL*%
%TO.N,GY_SCL*%
X78740000Y-66705000D03*
%TO.P,J2,4,SDA*%
%TO.N,GY_SDA*%
X78740000Y-69245000D03*
%TO.P,J2,5,EDA*%
%TO.N,unconnected-(J2-Pad5)*%
X78740000Y-71785000D03*
%TO.P,J2,6,ECL*%
%TO.N,unconnected-(J2-Pad6)*%
X78740000Y-74325000D03*
%TO.P,J2,7,AD0*%
%TO.N,unconnected-(J2-Pad7)*%
X78740000Y-76865000D03*
%TO.P,J2,8,INT*%
%TO.N,GY_INT*%
X78740000Y-79405000D03*
%TO.P,J2,9,NCS*%
%TO.N,unconnected-(J2-Pad9)*%
X78740000Y-81945000D03*
%TO.P,J2,10,FSYNC*%
%TO.N,unconnected-(J2-Pad10)*%
X78740000Y-84485000D03*
%TD*%
D12*
%TO.P,D1,1,K*%
%TO.N,BATT_GND*%
X78100000Y-110490000D03*
D13*
%TO.P,D1,2,A*%
%TO.N,Net-(D1-Pad2)*%
X80640000Y-110490000D03*
%TD*%
D12*
%TO.P,D2,1,K*%
%TO.N,BATT_GND*%
X86355000Y-110490000D03*
D13*
%TO.P,D2,2,A*%
%TO.N,Net-(D2-Pad2)*%
X88895000Y-110490000D03*
%TD*%
D14*
%TO.P,U1,CN3_1,PA9*%
%TO.N,ENC_1B*%
X71120000Y-102575000D03*
D15*
%TO.P,U1,CN3_2,PA10*%
%TO.N,M_IN2*%
X71120000Y-100035000D03*
%TO.P,U1,CN3_3,NRST_CN3*%
%TO.N,unconnected-(U1-PadCN3_3)*%
X71120000Y-97495000D03*
%TO.P,U1,CN3_4,GND_CN3*%
%TO.N,BATT_GND*%
X71120000Y-94955000D03*
%TO.P,U1,CN3_5,PA12*%
%TO.N,unconnected-(U1-PadCN3_5)*%
X71120000Y-92415000D03*
%TO.P,U1,CN3_6,PB0*%
%TO.N,M_FAULT*%
X71120000Y-89875000D03*
%TO.P,U1,CN3_7,PB7*%
%TO.N,GY_SDA*%
X71120000Y-87335000D03*
%TO.P,U1,CN3_8,PB6*%
%TO.N,GY_SCL*%
X71120000Y-84795000D03*
%TO.P,U1,CN3_9,PB1*%
%TO.N,GY_INT*%
X71120000Y-82255000D03*
%TO.P,U1,CN3_10,PC14*%
%TO.N,unconnected-(U1-PadCN3_10)*%
X71120000Y-79715000D03*
%TO.P,U1,CN3_11,PC15*%
%TO.N,unconnected-(U1-PadCN3_11)*%
X71120000Y-77175000D03*
%TO.P,U1,CN3_12,PA8*%
%TO.N,ENC_1A*%
X71120000Y-74635000D03*
%TO.P,U1,CN3_13,PA11*%
%TO.N,M_IN1*%
X71120000Y-72095000D03*
%TO.P,U1,CN3_14,PB5*%
%TO.N,unconnected-(U1-PadCN3_14)*%
X71120000Y-69555000D03*
%TO.P,U1,CN3_15,PB4*%
%TO.N,LED_ERR*%
X71120000Y-67015000D03*
D14*
%TO.P,U1,CN4_1,VIN*%
%TO.N,BATT_VIN*%
X55880000Y-102575000D03*
D15*
%TO.P,U1,CN4_2,GND_CN4*%
%TO.N,BATT_GND*%
X55880000Y-100035000D03*
%TO.P,U1,CN4_3,NRST_CN4*%
%TO.N,unconnected-(U1-PadCN4_3)*%
X55880000Y-97495000D03*
%TO.P,U1,CN4_4,+5V*%
%TO.N,ENC_VCC*%
X55880000Y-94955000D03*
%TO.P,U1,CN4_5,PA2*%
%TO.N,HM_RX*%
X55880000Y-92415000D03*
%TO.P,U1,CN4_6,PA7*%
%TO.N,M_OFF*%
X55880000Y-89875000D03*
%TO.P,U1,CN4_7,PA6*%
%TO.N,M_MODE*%
X55880000Y-87335000D03*
%TO.P,U1,CN4_8,PA5*%
%TO.N,M_IN4*%
X55880000Y-84795000D03*
%TO.P,U1,CN4_9,PA4*%
%TO.N,unconnected-(U1-PadCN4_9)*%
X55880000Y-82255000D03*
%TO.P,U1,CN4_10,PA3*%
%TO.N,HM_TX*%
X55880000Y-79715000D03*
%TO.P,U1,CN4_11,PA1*%
%TO.N,M_IN3*%
X55880000Y-77175000D03*
%TO.P,U1,CN4_12,PA0*%
%TO.N,Net-(R1-Pad1)*%
X55880000Y-74635000D03*
%TO.P,U1,CN4_13,AREF*%
%TO.N,unconnected-(U1-PadCN4_13)*%
X55880000Y-72095000D03*
%TO.P,U1,CN4_14,+3V3*%
%TO.N,unconnected-(U1-PadCN4_14)*%
X55880000Y-69555000D03*
%TO.P,U1,CN4_15,PB3*%
%TO.N,LED_RUN*%
X55880000Y-67015000D03*
%TD*%
D16*
%TO.P,U2,17,PPAD*%
%TO.N,BATT_GND*%
X71120000Y-49530000D03*
D17*
X71870000Y-51030000D03*
X71870000Y-48030000D03*
X70370000Y-51030000D03*
X70370000Y-48030000D03*
X70370000Y-49530000D03*
X71870000Y-49530000D03*
%TD*%
D10*
%TO.P,J5,1,M+*%
%TO.N,Net-(J5-Pad1)*%
X55905000Y-41935000D03*
D11*
%TO.P,J5,2,ENC_VCC*%
%TO.N,ENC_VCC*%
X55905000Y-44475000D03*
%TO.P,J5,3,ENC_A*%
%TO.N,unconnected-(J5-Pad3)*%
X55905000Y-47015000D03*
%TO.P,J5,4,ENC_B*%
%TO.N,unconnected-(J5-Pad4)*%
X55905000Y-49555000D03*
%TO.P,J5,5,ENC_GND*%
%TO.N,BATT_GND*%
X55905000Y-52095000D03*
%TO.P,J5,6,M-*%
%TO.N,Net-(J5-Pad6)*%
X55905000Y-54635000D03*
%TD*%
D10*
%TO.P,J3,1,RX*%
%TO.N,HM_RX*%
X78715000Y-100955000D03*
D11*
%TO.P,J3,2,TX*%
%TO.N,HM_TX*%
X78715000Y-98415000D03*
%TO.P,J3,3,GND*%
%TO.N,BATT_GND*%
X78715000Y-95875000D03*
%TO.P,J3,4,VCC*%
%TO.N,ENC_VCC*%
X78715000Y-93335000D03*
%TD*%
D18*
%TO.P,J1,1,Pin_1*%
%TO.N,BATT_GND*%
X88265000Y-46990000D03*
D19*
%TO.P,J1,2,Pin_2*%
%TO.N,BATT_VIN*%
X88265000Y-51990000D03*
%TD*%
D10*
%TO.P,J4,1,M+*%
%TO.N,Net-(J4-Pad1)*%
X60985000Y-41935000D03*
D11*
%TO.P,J4,2,ENC_VCC*%
%TO.N,ENC_VCC*%
X60985000Y-44475000D03*
%TO.P,J4,3,ENC_A*%
%TO.N,ENC_1A*%
X60985000Y-47015000D03*
%TO.P,J4,4,ENC_B*%
%TO.N,ENC_1B*%
X60985000Y-49555000D03*
%TO.P,J4,5,ENC_GND*%
%TO.N,BATT_GND*%
X60985000Y-52095000D03*
%TO.P,J4,6,M-*%
%TO.N,Net-(J4-Pad6)*%
X60985000Y-54635000D03*
%TD*%
D20*
%TO.N,M_MODE*%
X74930000Y-61976000D03*
X67564000Y-89662000D03*
X76200000Y-47498000D03*
%TO.N,M_IN3*%
X71164100Y-53751200D03*
X56971900Y-58809300D03*
%TO.N,M_IN4*%
X57912000Y-58084800D03*
X73443500Y-53848000D03*
%TO.N,M_IN1*%
X73982500Y-46450000D03*
%TO.N,M_IN2*%
X73660000Y-106045000D03*
X79375000Y-106045000D03*
%TO.N,Net-(R1-Pad1)*%
X62398100Y-74290000D03*
%TO.N,Net-(J5-Pad6)*%
X66675000Y-50165000D03*
%TO.N,Net-(J5-Pad1)*%
X64770000Y-52070000D03*
%TO.N,Net-(D2-Pad2)*%
X62073800Y-106870000D03*
%TO.N,BATT_VIN*%
X64943000Y-74715500D03*
%TD*%
D21*
%TO.N,BATT_GND*%
X79624000Y-112014000D02*
X78100000Y-110490000D01*
X83604100Y-112014000D02*
X79624000Y-112014000D01*
X85128100Y-110490000D02*
X83604100Y-112014000D01*
X86355000Y-110490000D02*
X85128100Y-110490000D01*
%TO.N,BATT_VIN*%
X74928900Y-68073100D02*
X74928900Y-72377000D01*
X77567000Y-65435000D02*
X74928900Y-68073100D01*
X74928900Y-72377000D02*
X71549300Y-75756600D01*
X71549300Y-75756600D02*
X65984100Y-75756600D01*
X88265000Y-56769000D02*
X79599000Y-65435000D01*
X88265000Y-51990000D02*
X88265000Y-56769000D01*
X79599000Y-65435000D02*
X77567000Y-65435000D01*
X65984100Y-75756600D02*
X64943000Y-74715500D01*
%TO.N,GY_SCL*%
X78740000Y-67881900D02*
X78740000Y-66705000D01*
X76200000Y-69596000D02*
X77914100Y-67881900D01*
X76200000Y-76708000D02*
X76200000Y-69596000D01*
X70571350Y-81026000D02*
X71882000Y-81026000D01*
X71882000Y-81026000D02*
X76200000Y-76708000D01*
X69850000Y-81747350D02*
X70571350Y-81026000D01*
X77914100Y-67881900D02*
X78740000Y-67881900D01*
X69850000Y-83525000D02*
X69850000Y-81747350D01*
X71120000Y-84795000D02*
X69850000Y-83525000D01*
%TO.N,GY_INT*%
X71923000Y-82255000D02*
X74773000Y-79405000D01*
X74773000Y-79405000D02*
X78740000Y-79405000D01*
X71120000Y-82255000D02*
X71923000Y-82255000D01*
%TO.N,HM_TX*%
X80518000Y-92964000D02*
X76159000Y-88605000D01*
X64770000Y-88605000D02*
X55880000Y-79715000D01*
X80518000Y-96266000D02*
X80518000Y-92964000D01*
X79545900Y-97238100D02*
X80518000Y-96266000D01*
X78715000Y-97238100D02*
X79545900Y-97238100D01*
X76159000Y-88605000D02*
X64770000Y-88605000D01*
X78715000Y-98415000D02*
X78715000Y-97238100D01*
%TO.N,BATT_VIN*%
X61213500Y-78445000D02*
X64943000Y-74715500D01*
X53848000Y-80174000D02*
X55577000Y-78445000D01*
X53848000Y-100330000D02*
X53848000Y-80174000D01*
X55880000Y-102362000D02*
X53848000Y-100330000D01*
X55880000Y-102575000D02*
X55880000Y-102362000D01*
X55577000Y-78445000D02*
X61213500Y-78445000D01*
%TO.N,ENC_VCC*%
X77538100Y-93335000D02*
X78715000Y-93335000D01*
X55118000Y-91186000D02*
X75389100Y-91186000D01*
X54610000Y-91694000D02*
X55118000Y-91186000D01*
X75389100Y-91186000D02*
X77538100Y-93335000D01*
X55880000Y-94955000D02*
X54610000Y-93685000D01*
X54610000Y-93685000D02*
X54610000Y-91694000D01*
%TO.N,HM_RX*%
X57150000Y-93685000D02*
X55880000Y-92415000D01*
X72349000Y-93685000D02*
X57150000Y-93685000D01*
X77538100Y-98874100D02*
X72349000Y-93685000D01*
X78715000Y-100955000D02*
X77538100Y-100955000D01*
X77538100Y-100955000D02*
X77538100Y-98874100D01*
%TO.N,M_IN4*%
X57993200Y-58166000D02*
X57912000Y-58084800D01*
X70863800Y-53026200D02*
X65724000Y-58166000D01*
X72838200Y-53026200D02*
X70863800Y-53026200D01*
X65724000Y-58166000D02*
X57993200Y-58166000D01*
X73443500Y-53631500D02*
X72838200Y-53026200D01*
X73443500Y-53848000D02*
X73443500Y-53631500D01*
%TO.N,M_MODE*%
X58207000Y-89662000D02*
X55880000Y-87335000D01*
X67564000Y-89662000D02*
X58207000Y-89662000D01*
X74930000Y-54864000D02*
X74930000Y-61976000D01*
X76200000Y-53594000D02*
X74930000Y-54864000D01*
X76200000Y-47498000D02*
X76200000Y-53594000D01*
%TO.N,M_IN3*%
X66106000Y-58809300D02*
X56971900Y-58809300D01*
X71164100Y-53751200D02*
X66106000Y-58809300D01*
%TO.N,M_IN1*%
X74168000Y-46635500D02*
X73982500Y-46450000D01*
X74168000Y-69047000D02*
X74168000Y-46635500D01*
X71120000Y-72095000D02*
X74168000Y-69047000D01*
%TO.N,M_IN2*%
X79375000Y-106045000D02*
X73660000Y-106045000D01*
%TO.N,Net-(R1-Pad1)*%
X62053100Y-74635000D02*
X62398100Y-74290000D01*
X55880000Y-74635000D02*
X62053100Y-74635000D01*
D22*
%TO.N,Net-(J5-Pad6)*%
X58420000Y-57150000D02*
X55905000Y-54635000D01*
X64770000Y-57150000D02*
X58420000Y-57150000D01*
X66040000Y-55880000D02*
X64770000Y-57150000D01*
X66040000Y-50800000D02*
X66040000Y-55880000D01*
X66675000Y-50165000D02*
X66040000Y-50800000D01*
%TO.N,Net-(J5-Pad1)*%
X58470000Y-39370000D02*
X55905000Y-41935000D01*
X63500000Y-39370000D02*
X58470000Y-39370000D01*
X64770000Y-40640000D02*
X63500000Y-39370000D01*
X64770000Y-52070000D02*
X64770000Y-40640000D01*
D21*
%TO.N,ENC_1A*%
X54691200Y-58206200D02*
X71120000Y-74635000D01*
X54691200Y-51623300D02*
X54691200Y-58206200D01*
X55489500Y-50825000D02*
X54691200Y-51623300D01*
X56363900Y-50825000D02*
X55489500Y-50825000D01*
X59808100Y-47380800D02*
X56363900Y-50825000D01*
X59808100Y-47015000D02*
X59808100Y-47380800D01*
X60985000Y-47015000D02*
X59808100Y-47015000D01*
%TO.N,GY_SDA*%
X81915000Y-72420000D02*
X78740000Y-69245000D01*
X81915000Y-78740000D02*
X81915000Y-72420000D01*
X79980000Y-80675000D02*
X81915000Y-78740000D01*
X77780000Y-80675000D02*
X79980000Y-80675000D01*
X71120000Y-87335000D02*
X77780000Y-80675000D01*
%TO.N,ENC_VCC*%
X60985000Y-44475000D02*
X55905000Y-44475000D01*
%TO.N,Net-(D2-Pad2)*%
X85275000Y-106870000D02*
X62073800Y-106870000D01*
X88895000Y-110490000D02*
X85275000Y-106870000D01*
%TO.N,BATT_GND*%
X55905000Y-52095000D02*
X60985000Y-52095000D01*
X71870000Y-49530000D02*
X71120000Y-49530000D01*
X66040000Y-100035000D02*
X55880000Y-100035000D01*
X71120000Y-94955000D02*
X66040000Y-100035000D01*
X62161900Y-52095000D02*
X60985000Y-52095000D01*
X62907500Y-52840600D02*
X62161900Y-52095000D01*
X65032600Y-52840600D02*
X62907500Y-52840600D01*
X65505000Y-52368200D02*
X65032600Y-52840600D01*
X65505000Y-50249800D02*
X65505000Y-52368200D01*
X66358900Y-49395900D02*
X65505000Y-50249800D01*
X70235900Y-49395900D02*
X66358900Y-49395900D01*
X70370000Y-49530000D02*
X70235900Y-49395900D01*
%TD*%
M02*
