%TF.GenerationSoftware,KiCad,Pcbnew,(6.0.7)*%
%TF.CreationDate,2023-08-18T16:06:47+09:00*%
%TF.ProjectId,graduate-project,67726164-7561-4746-952d-70726f6a6563,rev?*%
%TF.SameCoordinates,Original*%
%TF.FileFunction,Legend,Top*%
%TF.FilePolarity,Positive*%
%FSLAX46Y46*%
G04 Gerber Fmt 4.6, Leading zero omitted, Abs format (unit mm)*
G04 Created by KiCad (PCBNEW (6.0.7)) date 2023-08-18 16:06:47*
%MOMM*%
%LPD*%
G01*
G04 APERTURE LIST*
G04 Aperture macros list*
%AMRoundRect*
0 Rectangle with rounded corners*
0 $1 Rounding radius*
0 $2 $3 $4 $5 $6 $7 $8 $9 X,Y pos of 4 corners*
0 Add a 4 corners polygon primitive as box body*
4,1,4,$2,$3,$4,$5,$6,$7,$8,$9,$2,$3,0*
0 Add four circle primitives for the rounded corners*
1,1,$1+$1,$2,$3*
1,1,$1+$1,$4,$5*
1,1,$1+$1,$6,$7*
1,1,$1+$1,$8,$9*
0 Add four rect primitives between the rounded corners*
20,1,$1+$1,$2,$3,$4,$5,0*
20,1,$1+$1,$4,$5,$6,$7,0*
20,1,$1+$1,$6,$7,$8,$9,0*
20,1,$1+$1,$8,$9,$2,$3,0*%
G04 Aperture macros list end*
%ADD10C,0.150000*%
%ADD11C,0.120000*%
%ADD12C,0.127000*%
%ADD13C,0.200000*%
%ADD14R,1.700000X1.700000*%
%ADD15O,1.700000X1.700000*%
%ADD16RoundRect,0.200000X0.200000X0.275000X-0.200000X0.275000X-0.200000X-0.275000X0.200000X-0.275000X0*%
%ADD17RoundRect,0.225000X0.250000X-0.225000X0.250000X0.225000X-0.250000X0.225000X-0.250000X-0.225000X0*%
%ADD18R,1.800000X1.800000*%
%ADD19C,1.800000*%
%ADD20RoundRect,0.200000X0.275000X-0.200000X0.275000X0.200000X-0.275000X0.200000X-0.275000X-0.200000X0*%
%ADD21R,1.530000X1.530000*%
%ADD22C,1.530000*%
%ADD23R,2.460000X2.310000*%
%ADD24RoundRect,0.100000X-0.687500X-0.100000X0.687500X-0.100000X0.687500X0.100000X-0.687500X0.100000X0*%
%ADD25R,3.800000X3.800000*%
%ADD26C,4.000000*%
G04 APERTURE END LIST*
D10*
X76835000Y-89535000D02*
X76835000Y-104775000D01*
X93345000Y-59690000D02*
X76835000Y-59690000D01*
X59690000Y-109220000D02*
X67310000Y-109220000D01*
X67310000Y-109220000D02*
X67310000Y-113030000D01*
X67310000Y-113030000D02*
X59690000Y-113030000D01*
X59690000Y-113030000D02*
X59690000Y-109220000D01*
X76835000Y-104775000D02*
X93345000Y-104775000D01*
X93345000Y-89535000D02*
X76835000Y-89535000D01*
X76835000Y-86360000D02*
X93345000Y-86360000D01*
X76835000Y-59690000D02*
X76835000Y-86360000D01*
X69794523Y-105132142D02*
X69746904Y-105179761D01*
X69604047Y-105227380D01*
X69508809Y-105227380D01*
X69365952Y-105179761D01*
X69270714Y-105084523D01*
X69223095Y-104989285D01*
X69175476Y-104798809D01*
X69175476Y-104655952D01*
X69223095Y-104465476D01*
X69270714Y-104370238D01*
X69365952Y-104275000D01*
X69508809Y-104227380D01*
X69604047Y-104227380D01*
X69746904Y-104275000D01*
X69794523Y-104322619D01*
X70223095Y-105227380D02*
X70223095Y-104227380D01*
X70794523Y-105227380D01*
X70794523Y-104227380D01*
X71175476Y-104227380D02*
X71794523Y-104227380D01*
X71461190Y-104608333D01*
X71604047Y-104608333D01*
X71699285Y-104655952D01*
X71746904Y-104703571D01*
X71794523Y-104798809D01*
X71794523Y-105036904D01*
X71746904Y-105132142D01*
X71699285Y-105179761D01*
X71604047Y-105227380D01*
X71318333Y-105227380D01*
X71223095Y-105179761D01*
X71175476Y-105132142D01*
X55824523Y-105132142D02*
X55776904Y-105179761D01*
X55634047Y-105227380D01*
X55538809Y-105227380D01*
X55395952Y-105179761D01*
X55300714Y-105084523D01*
X55253095Y-104989285D01*
X55205476Y-104798809D01*
X55205476Y-104655952D01*
X55253095Y-104465476D01*
X55300714Y-104370238D01*
X55395952Y-104275000D01*
X55538809Y-104227380D01*
X55634047Y-104227380D01*
X55776904Y-104275000D01*
X55824523Y-104322619D01*
X56253095Y-105227380D02*
X56253095Y-104227380D01*
X56824523Y-105227380D01*
X56824523Y-104227380D01*
X57729285Y-104560714D02*
X57729285Y-105227380D01*
X57491190Y-104179761D02*
X57253095Y-104894047D01*
X57872142Y-104894047D01*
X81534047Y-61407800D02*
X82295952Y-61407800D01*
X81915000Y-61727800D02*
X81915000Y-61087800D01*
X81534047Y-64112600D02*
X82295952Y-64112600D01*
X80724523Y-67097400D02*
X80867380Y-67137400D01*
X81105476Y-67137400D01*
X81200714Y-67097400D01*
X81248333Y-67057400D01*
X81295952Y-66977400D01*
X81295952Y-66897400D01*
X81248333Y-66817400D01*
X81200714Y-66777400D01*
X81105476Y-66737400D01*
X80915000Y-66697400D01*
X80819761Y-66657400D01*
X80772142Y-66617400D01*
X80724523Y-66537400D01*
X80724523Y-66457400D01*
X80772142Y-66377400D01*
X80819761Y-66337400D01*
X80915000Y-66297400D01*
X81153095Y-66297400D01*
X81295952Y-66337400D01*
X82295952Y-67057400D02*
X82248333Y-67097400D01*
X82105476Y-67137400D01*
X82010238Y-67137400D01*
X81867380Y-67097400D01*
X81772142Y-67017400D01*
X81724523Y-66937400D01*
X81676904Y-66777400D01*
X81676904Y-66657400D01*
X81724523Y-66497400D01*
X81772142Y-66417400D01*
X81867380Y-66337400D01*
X82010238Y-66297400D01*
X82105476Y-66297400D01*
X82248333Y-66337400D01*
X82295952Y-66377400D01*
X83200714Y-67137400D02*
X82724523Y-67137400D01*
X82724523Y-66297400D01*
X80700714Y-69802200D02*
X80843571Y-69842200D01*
X81081666Y-69842200D01*
X81176904Y-69802200D01*
X81224523Y-69762200D01*
X81272142Y-69682200D01*
X81272142Y-69602200D01*
X81224523Y-69522200D01*
X81176904Y-69482200D01*
X81081666Y-69442200D01*
X80891190Y-69402200D01*
X80795952Y-69362200D01*
X80748333Y-69322200D01*
X80700714Y-69242200D01*
X80700714Y-69162200D01*
X80748333Y-69082200D01*
X80795952Y-69042200D01*
X80891190Y-69002200D01*
X81129285Y-69002200D01*
X81272142Y-69042200D01*
X81700714Y-69842200D02*
X81700714Y-69002200D01*
X81938809Y-69002200D01*
X82081666Y-69042200D01*
X82176904Y-69122200D01*
X82224523Y-69202200D01*
X82272142Y-69362200D01*
X82272142Y-69482200D01*
X82224523Y-69642200D01*
X82176904Y-69722200D01*
X82081666Y-69802200D01*
X81938809Y-69842200D01*
X81700714Y-69842200D01*
X82653095Y-69602200D02*
X83129285Y-69602200D01*
X82557857Y-69842200D02*
X82891190Y-69002200D01*
X83224523Y-69842200D01*
X64406571Y-39584380D02*
X64406571Y-40298666D01*
X64358952Y-40441523D01*
X64263714Y-40536761D01*
X64120857Y-40584380D01*
X64025619Y-40584380D01*
X65263714Y-40536761D02*
X65168476Y-40584380D01*
X64978000Y-40584380D01*
X64882761Y-40536761D01*
X64835142Y-40441523D01*
X64835142Y-40060571D01*
X64882761Y-39965333D01*
X64978000Y-39917714D01*
X65168476Y-39917714D01*
X65263714Y-39965333D01*
X65311333Y-40060571D01*
X65311333Y-40155809D01*
X64835142Y-40251047D01*
X65882761Y-40584380D02*
X65787523Y-40536761D01*
X65739904Y-40489142D01*
X65692285Y-40393904D01*
X65692285Y-40108190D01*
X65739904Y-40012952D01*
X65787523Y-39965333D01*
X65882761Y-39917714D01*
X66025619Y-39917714D01*
X66120857Y-39965333D01*
X66168476Y-40012952D01*
X66216095Y-40108190D01*
X66216095Y-40393904D01*
X66168476Y-40489142D01*
X66120857Y-40536761D01*
X66025619Y-40584380D01*
X65882761Y-40584380D01*
X66644666Y-39917714D02*
X66644666Y-40584380D01*
X66644666Y-40012952D02*
X66692285Y-39965333D01*
X66787523Y-39917714D01*
X66930380Y-39917714D01*
X67025619Y-39965333D01*
X67073238Y-40060571D01*
X67073238Y-40584380D01*
X67978000Y-39917714D02*
X67978000Y-40727238D01*
X67930380Y-40822476D01*
X67882761Y-40870095D01*
X67787523Y-40917714D01*
X67644666Y-40917714D01*
X67549428Y-40870095D01*
X67978000Y-40536761D02*
X67882761Y-40584380D01*
X67692285Y-40584380D01*
X67597047Y-40536761D01*
X67549428Y-40489142D01*
X67501809Y-40393904D01*
X67501809Y-40108190D01*
X67549428Y-40012952D01*
X67597047Y-39965333D01*
X67692285Y-39917714D01*
X67882761Y-39917714D01*
X67978000Y-39965333D01*
X68454190Y-40584380D02*
X68454190Y-39584380D01*
X68882761Y-40584380D02*
X68882761Y-40060571D01*
X68835142Y-39965333D01*
X68739904Y-39917714D01*
X68597047Y-39917714D01*
X68501809Y-39965333D01*
X68454190Y-40012952D01*
X69263714Y-39917714D02*
X69501809Y-40584380D01*
X69739904Y-39917714D02*
X69501809Y-40584380D01*
X69406571Y-40822476D01*
X69358952Y-40870095D01*
X69263714Y-40917714D01*
X70549428Y-39917714D02*
X70549428Y-40584380D01*
X70120857Y-39917714D02*
X70120857Y-40441523D01*
X70168476Y-40536761D01*
X70263714Y-40584380D01*
X70406571Y-40584380D01*
X70501809Y-40536761D01*
X70549428Y-40489142D01*
X71025619Y-39917714D02*
X71025619Y-40584380D01*
X71025619Y-40012952D02*
X71073238Y-39965333D01*
X71168476Y-39917714D01*
X71311333Y-39917714D01*
X71406571Y-39965333D01*
X71454190Y-40060571D01*
X71454190Y-40584380D01*
X72692285Y-40584380D02*
X72692285Y-39584380D01*
X73263714Y-40584380D02*
X72835142Y-40012952D01*
X73263714Y-39584380D02*
X72692285Y-40155809D01*
X73692285Y-40584380D02*
X73692285Y-39917714D01*
X73692285Y-39584380D02*
X73644666Y-39632000D01*
X73692285Y-39679619D01*
X73739904Y-39632000D01*
X73692285Y-39584380D01*
X73692285Y-39679619D01*
X74168476Y-40584380D02*
X74168476Y-39917714D01*
X74168476Y-40012952D02*
X74216095Y-39965333D01*
X74311333Y-39917714D01*
X74454190Y-39917714D01*
X74549428Y-39965333D01*
X74597047Y-40060571D01*
X74597047Y-40584380D01*
X74597047Y-40060571D02*
X74644666Y-39965333D01*
X74739904Y-39917714D01*
X74882761Y-39917714D01*
X74978000Y-39965333D01*
X75025619Y-40060571D01*
X75025619Y-40584380D01*
X76263714Y-40203428D02*
X77025619Y-40203428D01*
X78787523Y-39632000D02*
X78692285Y-39584380D01*
X78549428Y-39584380D01*
X78406571Y-39632000D01*
X78311333Y-39727238D01*
X78263714Y-39822476D01*
X78216095Y-40012952D01*
X78216095Y-40155809D01*
X78263714Y-40346285D01*
X78311333Y-40441523D01*
X78406571Y-40536761D01*
X78549428Y-40584380D01*
X78644666Y-40584380D01*
X78787523Y-40536761D01*
X78835142Y-40489142D01*
X78835142Y-40155809D01*
X78644666Y-40155809D01*
X79263714Y-40584380D02*
X79263714Y-39917714D01*
X79263714Y-40108190D02*
X79311333Y-40012952D01*
X79358952Y-39965333D01*
X79454190Y-39917714D01*
X79549428Y-39917714D01*
X80311333Y-40584380D02*
X80311333Y-40060571D01*
X80263714Y-39965333D01*
X80168476Y-39917714D01*
X79978000Y-39917714D01*
X79882761Y-39965333D01*
X80311333Y-40536761D02*
X80216095Y-40584380D01*
X79978000Y-40584380D01*
X79882761Y-40536761D01*
X79835142Y-40441523D01*
X79835142Y-40346285D01*
X79882761Y-40251047D01*
X79978000Y-40203428D01*
X80216095Y-40203428D01*
X80311333Y-40155809D01*
X81216095Y-40584380D02*
X81216095Y-39584380D01*
X81216095Y-40536761D02*
X81120857Y-40584380D01*
X80930380Y-40584380D01*
X80835142Y-40536761D01*
X80787523Y-40489142D01*
X80739904Y-40393904D01*
X80739904Y-40108190D01*
X80787523Y-40012952D01*
X80835142Y-39965333D01*
X80930380Y-39917714D01*
X81120857Y-39917714D01*
X81216095Y-39965333D01*
X82120857Y-39917714D02*
X82120857Y-40584380D01*
X81692285Y-39917714D02*
X81692285Y-40441523D01*
X81739904Y-40536761D01*
X81835142Y-40584380D01*
X81978000Y-40584380D01*
X82073238Y-40536761D01*
X82120857Y-40489142D01*
X83025619Y-40584380D02*
X83025619Y-40060571D01*
X82978000Y-39965333D01*
X82882761Y-39917714D01*
X82692285Y-39917714D01*
X82597047Y-39965333D01*
X83025619Y-40536761D02*
X82930380Y-40584380D01*
X82692285Y-40584380D01*
X82597047Y-40536761D01*
X82549428Y-40441523D01*
X82549428Y-40346285D01*
X82597047Y-40251047D01*
X82692285Y-40203428D01*
X82930380Y-40203428D01*
X83025619Y-40155809D01*
X83358952Y-39917714D02*
X83739904Y-39917714D01*
X83501809Y-39584380D02*
X83501809Y-40441523D01*
X83549428Y-40536761D01*
X83644666Y-40584380D01*
X83739904Y-40584380D01*
X84073238Y-40584380D02*
X84073238Y-39917714D01*
X84073238Y-39584380D02*
X84025619Y-39632000D01*
X84073238Y-39679619D01*
X84120857Y-39632000D01*
X84073238Y-39584380D01*
X84073238Y-39679619D01*
X84692285Y-40584380D02*
X84597047Y-40536761D01*
X84549428Y-40489142D01*
X84501809Y-40393904D01*
X84501809Y-40108190D01*
X84549428Y-40012952D01*
X84597047Y-39965333D01*
X84692285Y-39917714D01*
X84835142Y-39917714D01*
X84930380Y-39965333D01*
X84978000Y-40012952D01*
X85025619Y-40108190D01*
X85025619Y-40393904D01*
X84978000Y-40489142D01*
X84930380Y-40536761D01*
X84835142Y-40584380D01*
X84692285Y-40584380D01*
X85454190Y-39917714D02*
X85454190Y-40584380D01*
X85454190Y-40012952D02*
X85501809Y-39965333D01*
X85597047Y-39917714D01*
X85739904Y-39917714D01*
X85835142Y-39965333D01*
X85882761Y-40060571D01*
X85882761Y-40584380D01*
X87120857Y-39917714D02*
X87120857Y-40917714D01*
X87120857Y-39965333D02*
X87216095Y-39917714D01*
X87406571Y-39917714D01*
X87501809Y-39965333D01*
X87549428Y-40012952D01*
X87597047Y-40108190D01*
X87597047Y-40393904D01*
X87549428Y-40489142D01*
X87501809Y-40536761D01*
X87406571Y-40584380D01*
X87216095Y-40584380D01*
X87120857Y-40536761D01*
X88025619Y-40584380D02*
X88025619Y-39917714D01*
X88025619Y-40108190D02*
X88073238Y-40012952D01*
X88120857Y-39965333D01*
X88216095Y-39917714D01*
X88311333Y-39917714D01*
X88787523Y-40584380D02*
X88692285Y-40536761D01*
X88644666Y-40489142D01*
X88597047Y-40393904D01*
X88597047Y-40108190D01*
X88644666Y-40012952D01*
X88692285Y-39965333D01*
X88787523Y-39917714D01*
X88930380Y-39917714D01*
X89025619Y-39965333D01*
X89073238Y-40012952D01*
X89120857Y-40108190D01*
X89120857Y-40393904D01*
X89073238Y-40489142D01*
X89025619Y-40536761D01*
X88930380Y-40584380D01*
X88787523Y-40584380D01*
X89549428Y-39917714D02*
X89549428Y-40774857D01*
X89501809Y-40870095D01*
X89406571Y-40917714D01*
X89358952Y-40917714D01*
X89549428Y-39584380D02*
X89501809Y-39632000D01*
X89549428Y-39679619D01*
X89597047Y-39632000D01*
X89549428Y-39584380D01*
X89549428Y-39679619D01*
X90406571Y-40536761D02*
X90311333Y-40584380D01*
X90120857Y-40584380D01*
X90025619Y-40536761D01*
X89977999Y-40441523D01*
X89977999Y-40060571D01*
X90025619Y-39965333D01*
X90120857Y-39917714D01*
X90311333Y-39917714D01*
X90406571Y-39965333D01*
X90454190Y-40060571D01*
X90454190Y-40155809D01*
X89977999Y-40251047D01*
X91311333Y-40536761D02*
X91216095Y-40584380D01*
X91025619Y-40584380D01*
X90930380Y-40536761D01*
X90882761Y-40489142D01*
X90835142Y-40393904D01*
X90835142Y-40108190D01*
X90882761Y-40012952D01*
X90930380Y-39965333D01*
X91025619Y-39917714D01*
X91216095Y-39917714D01*
X91311333Y-39965333D01*
X91597047Y-39917714D02*
X91978000Y-39917714D01*
X91739904Y-39584380D02*
X91739904Y-40441523D01*
X91787523Y-40536761D01*
X91882761Y-40584380D01*
X91978000Y-40584380D01*
X80899047Y-93157800D02*
X81660952Y-93157800D01*
X81280000Y-93477800D02*
X81280000Y-92837800D01*
X80899047Y-95862600D02*
X81660952Y-95862600D01*
X80994285Y-98047400D02*
X81565714Y-98047400D01*
X81280000Y-98887400D02*
X81280000Y-98047400D01*
X81589523Y-101592200D02*
X81256190Y-101192200D01*
X81018095Y-101592200D02*
X81018095Y-100752200D01*
X81399047Y-100752200D01*
X81494285Y-100792200D01*
X81541904Y-100832200D01*
X81589523Y-100912200D01*
X81589523Y-101032200D01*
X81541904Y-101112200D01*
X81494285Y-101152200D01*
X81399047Y-101192200D01*
X81018095Y-101192200D01*
X51752619Y-42029952D02*
X51752619Y-41209952D01*
X52085952Y-41795666D01*
X52419285Y-41209952D01*
X52419285Y-42029952D01*
X52895476Y-41717571D02*
X53657380Y-41717571D01*
X53276428Y-42029952D02*
X53276428Y-41405190D01*
X51871666Y-44240828D02*
X52205000Y-44240828D01*
X52347857Y-44670352D02*
X51871666Y-44670352D01*
X51871666Y-43850352D01*
X52347857Y-43850352D01*
X52776428Y-44357971D02*
X53538333Y-44357971D01*
X53157380Y-44670352D02*
X53157380Y-44045590D01*
X52062142Y-46881228D02*
X52395476Y-46881228D01*
X52538333Y-47310752D02*
X52062142Y-47310752D01*
X52062142Y-46490752D01*
X52538333Y-46490752D01*
X52919285Y-47076466D02*
X53395476Y-47076466D01*
X52824047Y-47310752D02*
X53157380Y-46490752D01*
X53490714Y-47310752D01*
X51990714Y-49521628D02*
X52324047Y-49521628D01*
X52466904Y-49951152D02*
X51990714Y-49951152D01*
X51990714Y-49131152D01*
X52466904Y-49131152D01*
X53228809Y-49521628D02*
X53371666Y-49560676D01*
X53419285Y-49599723D01*
X53466904Y-49677819D01*
X53466904Y-49794961D01*
X53419285Y-49873057D01*
X53371666Y-49912104D01*
X53276428Y-49951152D01*
X52895476Y-49951152D01*
X52895476Y-49131152D01*
X53228809Y-49131152D01*
X53324047Y-49170200D01*
X53371666Y-49209247D01*
X53419285Y-49287342D01*
X53419285Y-49365438D01*
X53371666Y-49443533D01*
X53324047Y-49482580D01*
X53228809Y-49521628D01*
X52895476Y-49521628D01*
X51871666Y-52162028D02*
X52205000Y-52162028D01*
X52347857Y-52591552D02*
X51871666Y-52591552D01*
X51871666Y-51771552D01*
X52347857Y-51771552D01*
X52776428Y-52279171D02*
X53538333Y-52279171D01*
X51752619Y-55231952D02*
X51752619Y-54411952D01*
X52085952Y-54997666D01*
X52419285Y-54411952D01*
X52419285Y-55231952D01*
X52895476Y-54919571D02*
X53657380Y-54919571D01*
X81010238Y-79755000D02*
X81010238Y-78915000D01*
X81486428Y-79755000D02*
X81486428Y-78915000D01*
X82057857Y-79755000D01*
X82057857Y-78915000D01*
X82391190Y-78915000D02*
X82962619Y-78915000D01*
X82676904Y-79755000D02*
X82676904Y-78915000D01*
X55618095Y-58237380D02*
X55284761Y-57761190D01*
X55046666Y-58237380D02*
X55046666Y-57237380D01*
X55427619Y-57237380D01*
X55522857Y-57285000D01*
X55570476Y-57332619D01*
X55618095Y-57427857D01*
X55618095Y-57570714D01*
X55570476Y-57665952D01*
X55522857Y-57713571D01*
X55427619Y-57761190D01*
X55046666Y-57761190D01*
X56046666Y-58237380D02*
X56046666Y-57237380D01*
X56380000Y-57951666D01*
X56713333Y-57237380D01*
X56713333Y-58237380D01*
X60698095Y-58237380D02*
X60221904Y-58237380D01*
X60221904Y-57237380D01*
X61031428Y-58237380D02*
X61031428Y-57237380D01*
X61364761Y-57951666D01*
X61698095Y-57237380D01*
X61698095Y-58237380D01*
%TO.C,J2*%
X78406666Y-58307380D02*
X78406666Y-59021666D01*
X78359047Y-59164523D01*
X78263809Y-59259761D01*
X78120952Y-59307380D01*
X78025714Y-59307380D01*
X78835238Y-58402619D02*
X78882857Y-58355000D01*
X78978095Y-58307380D01*
X79216190Y-58307380D01*
X79311428Y-58355000D01*
X79359047Y-58402619D01*
X79406666Y-58497857D01*
X79406666Y-58593095D01*
X79359047Y-58735952D01*
X78787619Y-59307380D01*
X79406666Y-59307380D01*
X84939523Y-72525000D02*
X84844285Y-72477380D01*
X84701428Y-72477380D01*
X84558571Y-72525000D01*
X84463333Y-72620238D01*
X84415714Y-72715476D01*
X84368095Y-72905952D01*
X84368095Y-73048809D01*
X84415714Y-73239285D01*
X84463333Y-73334523D01*
X84558571Y-73429761D01*
X84701428Y-73477380D01*
X84796666Y-73477380D01*
X84939523Y-73429761D01*
X84987142Y-73382142D01*
X84987142Y-73048809D01*
X84796666Y-73048809D01*
X85606190Y-73001190D02*
X85606190Y-73477380D01*
X85272857Y-72477380D02*
X85606190Y-73001190D01*
X85939523Y-72477380D01*
X86272857Y-73096428D02*
X87034761Y-73096428D01*
X87558571Y-73477380D02*
X87749047Y-73477380D01*
X87844285Y-73429761D01*
X87891904Y-73382142D01*
X87987142Y-73239285D01*
X88034761Y-73048809D01*
X88034761Y-72667857D01*
X87987142Y-72572619D01*
X87939523Y-72525000D01*
X87844285Y-72477380D01*
X87653809Y-72477380D01*
X87558571Y-72525000D01*
X87510952Y-72572619D01*
X87463333Y-72667857D01*
X87463333Y-72905952D01*
X87510952Y-73001190D01*
X87558571Y-73048809D01*
X87653809Y-73096428D01*
X87844285Y-73096428D01*
X87939523Y-73048809D01*
X87987142Y-73001190D01*
X88034761Y-72905952D01*
X88415714Y-72572619D02*
X88463333Y-72525000D01*
X88558571Y-72477380D01*
X88796666Y-72477380D01*
X88891904Y-72525000D01*
X88939523Y-72572619D01*
X88987142Y-72667857D01*
X88987142Y-72763095D01*
X88939523Y-72905952D01*
X88368095Y-73477380D01*
X88987142Y-73477380D01*
X89891904Y-72477380D02*
X89415714Y-72477380D01*
X89368095Y-72953571D01*
X89415714Y-72905952D01*
X89510952Y-72858333D01*
X89749047Y-72858333D01*
X89844285Y-72905952D01*
X89891904Y-72953571D01*
X89939523Y-73048809D01*
X89939523Y-73286904D01*
X89891904Y-73382142D01*
X89844285Y-73429761D01*
X89749047Y-73477380D01*
X89510952Y-73477380D01*
X89415714Y-73429761D01*
X89368095Y-73382142D01*
X90558571Y-72477380D02*
X90653809Y-72477380D01*
X90749047Y-72525000D01*
X90796666Y-72572619D01*
X90844285Y-72667857D01*
X90891904Y-72858333D01*
X90891904Y-73096428D01*
X90844285Y-73286904D01*
X90796666Y-73382142D01*
X90749047Y-73429761D01*
X90653809Y-73477380D01*
X90558571Y-73477380D01*
X90463333Y-73429761D01*
X90415714Y-73382142D01*
X90368095Y-73286904D01*
X90320476Y-73096428D01*
X90320476Y-72858333D01*
X90368095Y-72667857D01*
X90415714Y-72572619D01*
X90463333Y-72525000D01*
X90558571Y-72477380D01*
%TO.C,R3*%
X68921333Y-56078380D02*
X68588000Y-55602190D01*
X68349904Y-56078380D02*
X68349904Y-55078380D01*
X68730857Y-55078380D01*
X68826095Y-55126000D01*
X68873714Y-55173619D01*
X68921333Y-55268857D01*
X68921333Y-55411714D01*
X68873714Y-55506952D01*
X68826095Y-55554571D01*
X68730857Y-55602190D01*
X68349904Y-55602190D01*
X69254666Y-55078380D02*
X69873714Y-55078380D01*
X69540380Y-55459333D01*
X69683238Y-55459333D01*
X69778476Y-55506952D01*
X69826095Y-55554571D01*
X69873714Y-55649809D01*
X69873714Y-55887904D01*
X69826095Y-55983142D01*
X69778476Y-56030761D01*
X69683238Y-56078380D01*
X69397523Y-56078380D01*
X69302285Y-56030761D01*
X69254666Y-55983142D01*
%TO.C,C2*%
X81637142Y-47156666D02*
X81684761Y-47204285D01*
X81732380Y-47347142D01*
X81732380Y-47442380D01*
X81684761Y-47585238D01*
X81589523Y-47680476D01*
X81494285Y-47728095D01*
X81303809Y-47775714D01*
X81160952Y-47775714D01*
X80970476Y-47728095D01*
X80875238Y-47680476D01*
X80780000Y-47585238D01*
X80732380Y-47442380D01*
X80732380Y-47347142D01*
X80780000Y-47204285D01*
X80827619Y-47156666D01*
X80827619Y-46775714D02*
X80780000Y-46728095D01*
X80732380Y-46632857D01*
X80732380Y-46394761D01*
X80780000Y-46299523D01*
X80827619Y-46251904D01*
X80922857Y-46204285D01*
X81018095Y-46204285D01*
X81160952Y-46251904D01*
X81732380Y-46823333D01*
X81732380Y-46204285D01*
%TO.C,D1*%
X78631904Y-107982380D02*
X78631904Y-106982380D01*
X78870000Y-106982380D01*
X79012857Y-107030000D01*
X79108095Y-107125238D01*
X79155714Y-107220476D01*
X79203333Y-107410952D01*
X79203333Y-107553809D01*
X79155714Y-107744285D01*
X79108095Y-107839523D01*
X79012857Y-107934761D01*
X78870000Y-107982380D01*
X78631904Y-107982380D01*
X80155714Y-107982380D02*
X79584285Y-107982380D01*
X79870000Y-107982380D02*
X79870000Y-106982380D01*
X79774761Y-107125238D01*
X79679523Y-107220476D01*
X79584285Y-107268095D01*
X76893809Y-113902380D02*
X76417619Y-113902380D01*
X76417619Y-112902380D01*
X77227142Y-113378571D02*
X77560476Y-113378571D01*
X77703333Y-113902380D02*
X77227142Y-113902380D01*
X77227142Y-112902380D01*
X77703333Y-112902380D01*
X78131904Y-113902380D02*
X78131904Y-112902380D01*
X78370000Y-112902380D01*
X78512857Y-112950000D01*
X78608095Y-113045238D01*
X78655714Y-113140476D01*
X78703333Y-113330952D01*
X78703333Y-113473809D01*
X78655714Y-113664285D01*
X78608095Y-113759523D01*
X78512857Y-113854761D01*
X78370000Y-113902380D01*
X78131904Y-113902380D01*
X78893809Y-113997619D02*
X79655714Y-113997619D01*
X79893809Y-113378571D02*
X80227142Y-113378571D01*
X80370000Y-113902380D02*
X79893809Y-113902380D01*
X79893809Y-112902380D01*
X80370000Y-112902380D01*
X81370000Y-113902380D02*
X81036666Y-113426190D01*
X80798571Y-113902380D02*
X80798571Y-112902380D01*
X81179523Y-112902380D01*
X81274761Y-112950000D01*
X81322380Y-112997619D01*
X81370000Y-113092857D01*
X81370000Y-113235714D01*
X81322380Y-113330952D01*
X81274761Y-113378571D01*
X81179523Y-113426190D01*
X80798571Y-113426190D01*
X82370000Y-113902380D02*
X82036666Y-113426190D01*
X81798571Y-113902380D02*
X81798571Y-112902380D01*
X82179523Y-112902380D01*
X82274761Y-112950000D01*
X82322380Y-112997619D01*
X82370000Y-113092857D01*
X82370000Y-113235714D01*
X82322380Y-113330952D01*
X82274761Y-113378571D01*
X82179523Y-113426190D01*
X81798571Y-113426190D01*
%TO.C,R2*%
X62522380Y-79731666D02*
X62046190Y-80065000D01*
X62522380Y-80303095D02*
X61522380Y-80303095D01*
X61522380Y-79922142D01*
X61570000Y-79826904D01*
X61617619Y-79779285D01*
X61712857Y-79731666D01*
X61855714Y-79731666D01*
X61950952Y-79779285D01*
X61998571Y-79826904D01*
X62046190Y-79922142D01*
X62046190Y-80303095D01*
X61617619Y-79350714D02*
X61570000Y-79303095D01*
X61522380Y-79207857D01*
X61522380Y-78969761D01*
X61570000Y-78874523D01*
X61617619Y-78826904D01*
X61712857Y-78779285D01*
X61808095Y-78779285D01*
X61950952Y-78826904D01*
X62522380Y-79398333D01*
X62522380Y-78779285D01*
%TO.C,R1*%
X62522380Y-73826666D02*
X62046190Y-74160000D01*
X62522380Y-74398095D02*
X61522380Y-74398095D01*
X61522380Y-74017142D01*
X61570000Y-73921904D01*
X61617619Y-73874285D01*
X61712857Y-73826666D01*
X61855714Y-73826666D01*
X61950952Y-73874285D01*
X61998571Y-73921904D01*
X62046190Y-74017142D01*
X62046190Y-74398095D01*
X62522380Y-72874285D02*
X62522380Y-73445714D01*
X62522380Y-73160000D02*
X61522380Y-73160000D01*
X61665238Y-73255238D01*
X61760476Y-73350476D01*
X61808095Y-73445714D01*
%TO.C,D2*%
X86886904Y-107982380D02*
X86886904Y-106982380D01*
X87125000Y-106982380D01*
X87267857Y-107030000D01*
X87363095Y-107125238D01*
X87410714Y-107220476D01*
X87458333Y-107410952D01*
X87458333Y-107553809D01*
X87410714Y-107744285D01*
X87363095Y-107839523D01*
X87267857Y-107934761D01*
X87125000Y-107982380D01*
X86886904Y-107982380D01*
X87839285Y-107077619D02*
X87886904Y-107030000D01*
X87982142Y-106982380D01*
X88220238Y-106982380D01*
X88315476Y-107030000D01*
X88363095Y-107077619D01*
X88410714Y-107172857D01*
X88410714Y-107268095D01*
X88363095Y-107410952D01*
X87791666Y-107982380D01*
X88410714Y-107982380D01*
X85053571Y-113902380D02*
X84577380Y-113902380D01*
X84577380Y-112902380D01*
X85386904Y-113378571D02*
X85720238Y-113378571D01*
X85863095Y-113902380D02*
X85386904Y-113902380D01*
X85386904Y-112902380D01*
X85863095Y-112902380D01*
X86291666Y-113902380D02*
X86291666Y-112902380D01*
X86529761Y-112902380D01*
X86672619Y-112950000D01*
X86767857Y-113045238D01*
X86815476Y-113140476D01*
X86863095Y-113330952D01*
X86863095Y-113473809D01*
X86815476Y-113664285D01*
X86767857Y-113759523D01*
X86672619Y-113854761D01*
X86529761Y-113902380D01*
X86291666Y-113902380D01*
X87053571Y-113997619D02*
X87815476Y-113997619D01*
X88625000Y-113902380D02*
X88291666Y-113426190D01*
X88053571Y-113902380D02*
X88053571Y-112902380D01*
X88434523Y-112902380D01*
X88529761Y-112950000D01*
X88577380Y-112997619D01*
X88625000Y-113092857D01*
X88625000Y-113235714D01*
X88577380Y-113330952D01*
X88529761Y-113378571D01*
X88434523Y-113426190D01*
X88053571Y-113426190D01*
X89053571Y-112902380D02*
X89053571Y-113711904D01*
X89101190Y-113807142D01*
X89148809Y-113854761D01*
X89244047Y-113902380D01*
X89434523Y-113902380D01*
X89529761Y-113854761D01*
X89577380Y-113807142D01*
X89625000Y-113711904D01*
X89625000Y-112902380D01*
X90101190Y-113902380D02*
X90101190Y-112902380D01*
X90672619Y-113902380D01*
X90672619Y-112902380D01*
%TO.C,R4*%
X65062380Y-106211666D02*
X64586190Y-106545000D01*
X65062380Y-106783095D02*
X64062380Y-106783095D01*
X64062380Y-106402142D01*
X64110000Y-106306904D01*
X64157619Y-106259285D01*
X64252857Y-106211666D01*
X64395714Y-106211666D01*
X64490952Y-106259285D01*
X64538571Y-106306904D01*
X64586190Y-106402142D01*
X64586190Y-106783095D01*
X64395714Y-105354523D02*
X65062380Y-105354523D01*
X64014761Y-105592619D02*
X64729047Y-105830714D01*
X64729047Y-105211666D01*
%TO.C,C1*%
X79097142Y-47156666D02*
X79144761Y-47204285D01*
X79192380Y-47347142D01*
X79192380Y-47442380D01*
X79144761Y-47585238D01*
X79049523Y-47680476D01*
X78954285Y-47728095D01*
X78763809Y-47775714D01*
X78620952Y-47775714D01*
X78430476Y-47728095D01*
X78335238Y-47680476D01*
X78240000Y-47585238D01*
X78192380Y-47442380D01*
X78192380Y-47347142D01*
X78240000Y-47204285D01*
X78287619Y-47156666D01*
X79192380Y-46204285D02*
X79192380Y-46775714D01*
X79192380Y-46490000D02*
X78192380Y-46490000D01*
X78335238Y-46585238D01*
X78430476Y-46680476D01*
X78478095Y-46775714D01*
%TO.C,R5*%
X59982380Y-106211666D02*
X59506190Y-106545000D01*
X59982380Y-106783095D02*
X58982380Y-106783095D01*
X58982380Y-106402142D01*
X59030000Y-106306904D01*
X59077619Y-106259285D01*
X59172857Y-106211666D01*
X59315714Y-106211666D01*
X59410952Y-106259285D01*
X59458571Y-106306904D01*
X59506190Y-106402142D01*
X59506190Y-106783095D01*
X58982380Y-105306904D02*
X58982380Y-105783095D01*
X59458571Y-105830714D01*
X59410952Y-105783095D01*
X59363333Y-105687857D01*
X59363333Y-105449761D01*
X59410952Y-105354523D01*
X59458571Y-105306904D01*
X59553809Y-105259285D01*
X59791904Y-105259285D01*
X59887142Y-105306904D01*
X59934761Y-105354523D01*
X59982380Y-105449761D01*
X59982380Y-105687857D01*
X59934761Y-105783095D01*
X59887142Y-105830714D01*
%TO.C,U1*%
X68453095Y-111847380D02*
X68453095Y-112656904D01*
X68500714Y-112752142D01*
X68548333Y-112799761D01*
X68643571Y-112847380D01*
X68834047Y-112847380D01*
X68929285Y-112799761D01*
X68976904Y-112752142D01*
X69024523Y-112656904D01*
X69024523Y-111847380D01*
X70024523Y-112847380D02*
X69453095Y-112847380D01*
X69738809Y-112847380D02*
X69738809Y-111847380D01*
X69643571Y-111990238D01*
X69548333Y-112085476D01*
X69453095Y-112133095D01*
X57357142Y-62682380D02*
X57357142Y-61682380D01*
X57928571Y-62682380D01*
X57928571Y-61682380D01*
X58404761Y-61682380D02*
X58404761Y-62491904D01*
X58452380Y-62587142D01*
X58500000Y-62634761D01*
X58595238Y-62682380D01*
X58785714Y-62682380D01*
X58880952Y-62634761D01*
X58928571Y-62587142D01*
X58976190Y-62491904D01*
X58976190Y-61682380D01*
X60023809Y-62587142D02*
X59976190Y-62634761D01*
X59833333Y-62682380D01*
X59738095Y-62682380D01*
X59595238Y-62634761D01*
X59500000Y-62539523D01*
X59452380Y-62444285D01*
X59404761Y-62253809D01*
X59404761Y-62110952D01*
X59452380Y-61920476D01*
X59500000Y-61825238D01*
X59595238Y-61730000D01*
X59738095Y-61682380D01*
X59833333Y-61682380D01*
X59976190Y-61730000D01*
X60023809Y-61777619D01*
X60928571Y-62682380D02*
X60452380Y-62682380D01*
X60452380Y-61682380D01*
X61261904Y-62158571D02*
X61595238Y-62158571D01*
X61738095Y-62682380D02*
X61261904Y-62682380D01*
X61261904Y-61682380D01*
X61738095Y-61682380D01*
X62357142Y-61682380D02*
X62547619Y-61682380D01*
X62642857Y-61730000D01*
X62738095Y-61825238D01*
X62785714Y-62015714D01*
X62785714Y-62349047D01*
X62738095Y-62539523D01*
X62642857Y-62634761D01*
X62547619Y-62682380D01*
X62357142Y-62682380D01*
X62261904Y-62634761D01*
X62166666Y-62539523D01*
X62119047Y-62349047D01*
X62119047Y-62015714D01*
X62166666Y-61825238D01*
X62261904Y-61730000D01*
X62357142Y-61682380D01*
X63214285Y-62301428D02*
X63976190Y-62301428D01*
X64928571Y-62682380D02*
X64452380Y-62682380D01*
X64452380Y-61682380D01*
X65690476Y-62015714D02*
X65690476Y-62682380D01*
X65452380Y-61634761D02*
X65214285Y-62349047D01*
X65833333Y-62349047D01*
X66119047Y-61682380D02*
X66738095Y-61682380D01*
X66404761Y-62063333D01*
X66547619Y-62063333D01*
X66642857Y-62110952D01*
X66690476Y-62158571D01*
X66738095Y-62253809D01*
X66738095Y-62491904D01*
X66690476Y-62587142D01*
X66642857Y-62634761D01*
X66547619Y-62682380D01*
X66261904Y-62682380D01*
X66166666Y-62634761D01*
X66119047Y-62587142D01*
X67119047Y-61777619D02*
X67166666Y-61730000D01*
X67261904Y-61682380D01*
X67500000Y-61682380D01*
X67595238Y-61730000D01*
X67642857Y-61777619D01*
X67690476Y-61872857D01*
X67690476Y-61968095D01*
X67642857Y-62110952D01*
X67071428Y-62682380D01*
X67690476Y-62682380D01*
X68119047Y-62682380D02*
X68119047Y-61682380D01*
X68690476Y-62682380D02*
X68261904Y-62110952D01*
X68690476Y-61682380D02*
X68119047Y-62253809D01*
X69690476Y-62587142D02*
X69642857Y-62634761D01*
X69500000Y-62682380D01*
X69404761Y-62682380D01*
X69261904Y-62634761D01*
X69166666Y-62539523D01*
X69119047Y-62444285D01*
X69071428Y-62253809D01*
X69071428Y-62110952D01*
X69119047Y-61920476D01*
X69166666Y-61825238D01*
X69261904Y-61730000D01*
X69404761Y-61682380D01*
X69500000Y-61682380D01*
X69642857Y-61730000D01*
X69690476Y-61777619D01*
%TO.C,U2*%
X70358095Y-45532380D02*
X70358095Y-46341904D01*
X70405714Y-46437142D01*
X70453333Y-46484761D01*
X70548571Y-46532380D01*
X70739047Y-46532380D01*
X70834285Y-46484761D01*
X70881904Y-46437142D01*
X70929523Y-46341904D01*
X70929523Y-45532380D01*
X71358095Y-45627619D02*
X71405714Y-45580000D01*
X71500952Y-45532380D01*
X71739047Y-45532380D01*
X71834285Y-45580000D01*
X71881904Y-45627619D01*
X71929523Y-45722857D01*
X71929523Y-45818095D01*
X71881904Y-45960952D01*
X71310476Y-46532380D01*
X71929523Y-46532380D01*
%TO.C,J5*%
X55571666Y-38617380D02*
X55571666Y-39331666D01*
X55524047Y-39474523D01*
X55428809Y-39569761D01*
X55285952Y-39617380D01*
X55190714Y-39617380D01*
X56524047Y-38617380D02*
X56047857Y-38617380D01*
X56000238Y-39093571D01*
X56047857Y-39045952D01*
X56143095Y-38998333D01*
X56381190Y-38998333D01*
X56476428Y-39045952D01*
X56524047Y-39093571D01*
X56571666Y-39188809D01*
X56571666Y-39426904D01*
X56524047Y-39522142D01*
X56476428Y-39569761D01*
X56381190Y-39617380D01*
X56143095Y-39617380D01*
X56047857Y-39569761D01*
X56000238Y-39522142D01*
%TO.C,J3*%
X78381666Y-103177380D02*
X78381666Y-103891666D01*
X78334047Y-104034523D01*
X78238809Y-104129761D01*
X78095952Y-104177380D01*
X78000714Y-104177380D01*
X78762619Y-103177380D02*
X79381666Y-103177380D01*
X79048333Y-103558333D01*
X79191190Y-103558333D01*
X79286428Y-103605952D01*
X79334047Y-103653571D01*
X79381666Y-103748809D01*
X79381666Y-103986904D01*
X79334047Y-104082142D01*
X79286428Y-104129761D01*
X79191190Y-104177380D01*
X78905476Y-104177380D01*
X78810238Y-104129761D01*
X78762619Y-104082142D01*
X85201428Y-97607380D02*
X85201428Y-96607380D01*
X85201428Y-97083571D02*
X85772857Y-97083571D01*
X85772857Y-97607380D02*
X85772857Y-96607380D01*
X86249047Y-97607380D02*
X86249047Y-96607380D01*
X86582380Y-97321666D01*
X86915714Y-96607380D01*
X86915714Y-97607380D01*
X87391904Y-97226428D02*
X88153809Y-97226428D01*
X89153809Y-97607380D02*
X88582380Y-97607380D01*
X88868095Y-97607380D02*
X88868095Y-96607380D01*
X88772857Y-96750238D01*
X88677619Y-96845476D01*
X88582380Y-96893095D01*
X89772857Y-96607380D02*
X89868095Y-96607380D01*
X89963333Y-96655000D01*
X90010952Y-96702619D01*
X90058571Y-96797857D01*
X90106190Y-96988333D01*
X90106190Y-97226428D01*
X90058571Y-97416904D01*
X90010952Y-97512142D01*
X89963333Y-97559761D01*
X89868095Y-97607380D01*
X89772857Y-97607380D01*
X89677619Y-97559761D01*
X89630000Y-97512142D01*
X89582380Y-97416904D01*
X89534761Y-97226428D01*
X89534761Y-96988333D01*
X89582380Y-96797857D01*
X89630000Y-96702619D01*
X89677619Y-96655000D01*
X89772857Y-96607380D01*
%TO.C,J1*%
X92797380Y-44783333D02*
X93511666Y-44783333D01*
X93654523Y-44830952D01*
X93749761Y-44926190D01*
X93797380Y-45069047D01*
X93797380Y-45164285D01*
X93797380Y-43783333D02*
X93797380Y-44354761D01*
X93797380Y-44069047D02*
X92797380Y-44069047D01*
X92940238Y-44164285D01*
X93035476Y-44259523D01*
X93083095Y-44354761D01*
X88372142Y-43561428D02*
X88372142Y-42418571D01*
X88372142Y-56561428D02*
X88372142Y-55418571D01*
X88943571Y-55990000D02*
X87800714Y-55990000D01*
%TO.C,J4*%
X60651666Y-38617380D02*
X60651666Y-39331666D01*
X60604047Y-39474523D01*
X60508809Y-39569761D01*
X60365952Y-39617380D01*
X60270714Y-39617380D01*
X61556428Y-38950714D02*
X61556428Y-39617380D01*
X61318333Y-38569761D02*
X61080238Y-39284047D01*
X61699285Y-39284047D01*
D11*
%TO.C,J2*%
X80070000Y-60295000D02*
X80070000Y-61625000D01*
X77410000Y-85815000D02*
X80070000Y-85815000D01*
X77410000Y-62895000D02*
X77410000Y-85815000D01*
X80070000Y-62895000D02*
X80070000Y-85815000D01*
X77410000Y-62895000D02*
X80070000Y-62895000D01*
X78740000Y-60295000D02*
X80070000Y-60295000D01*
%TO.C,R3*%
X72119258Y-55103500D02*
X71644742Y-55103500D01*
X72119258Y-56148500D02*
X71644742Y-56148500D01*
%TO.C,C2*%
X80770000Y-49670580D02*
X80770000Y-49389420D01*
X81790000Y-49670580D02*
X81790000Y-49389420D01*
%TO.C,D1*%
X77810000Y-111570000D02*
X77810000Y-111726000D01*
X77810000Y-109254000D02*
X77810000Y-109410000D01*
X80411130Y-109410163D02*
G75*
G03*
X78329039Y-109410000I-1041130J-1079837D01*
G01*
X78329039Y-111570000D02*
G75*
G03*
X80411130Y-111569837I1040961J1080000D01*
G01*
X77810000Y-111725516D02*
G75*
G03*
X81042335Y-111568608I1560000J1235516D01*
G01*
X81042335Y-109411392D02*
G75*
G03*
X77810000Y-109254484I-1672335J-1078608D01*
G01*
%TO.C,R2*%
X64022500Y-79802258D02*
X64022500Y-79327742D01*
X62977500Y-79802258D02*
X62977500Y-79327742D01*
%TO.C,R1*%
X62977500Y-73897258D02*
X62977500Y-73422742D01*
X64022500Y-73897258D02*
X64022500Y-73422742D01*
%TO.C,D2*%
X86065000Y-111570000D02*
X86065000Y-111726000D01*
X86065000Y-109254000D02*
X86065000Y-109410000D01*
X89297335Y-109411392D02*
G75*
G03*
X86065000Y-109254484I-1672335J-1078608D01*
G01*
X86065000Y-111725516D02*
G75*
G03*
X89297335Y-111568608I1560000J1235516D01*
G01*
X86584039Y-111570000D02*
G75*
G03*
X88666130Y-111569837I1040961J1080000D01*
G01*
X88666130Y-109410163D02*
G75*
G03*
X86584039Y-109410000I-1041130J-1079837D01*
G01*
%TO.C,R4*%
X65517500Y-106282258D02*
X65517500Y-105807742D01*
X66562500Y-106282258D02*
X66562500Y-105807742D01*
%TO.C,C1*%
X78230000Y-49670580D02*
X78230000Y-49389420D01*
X79250000Y-49670580D02*
X79250000Y-49389420D01*
%TO.C,R5*%
X60437500Y-106282258D02*
X60437500Y-105807742D01*
X61482500Y-106282258D02*
X61482500Y-105807742D01*
D12*
%TO.C,U1*%
X72770000Y-61215000D02*
X72770000Y-111505000D01*
X54230000Y-111505000D02*
X54230000Y-61215000D01*
X72770000Y-111505000D02*
X54230000Y-111505000D01*
X54230000Y-61215000D02*
X72770000Y-61215000D01*
D13*
X73600000Y-102860000D02*
G75*
G03*
X73600000Y-102860000I-100000J0D01*
G01*
D11*
%TO.C,U2*%
X71120000Y-46770000D02*
X73320000Y-46770000D01*
X71120000Y-52290000D02*
X73320000Y-52290000D01*
X71120000Y-46770000D02*
X67470000Y-46770000D01*
X71120000Y-52290000D02*
X68920000Y-52290000D01*
%TO.C,J5*%
X55905000Y-40605000D02*
X57235000Y-40605000D01*
X54575000Y-55965000D02*
X57235000Y-55965000D01*
X57235000Y-40605000D02*
X57235000Y-41935000D01*
X54575000Y-43205000D02*
X57235000Y-43205000D01*
X54575000Y-43205000D02*
X54575000Y-55965000D01*
X57235000Y-43205000D02*
X57235000Y-55965000D01*
%TO.C,J3*%
X77385000Y-99685000D02*
X77385000Y-92005000D01*
X80045000Y-99685000D02*
X77385000Y-99685000D01*
X78715000Y-102285000D02*
X77385000Y-102285000D01*
X77385000Y-102285000D02*
X77385000Y-100955000D01*
X80045000Y-92005000D02*
X77385000Y-92005000D01*
X80045000Y-99685000D02*
X80045000Y-92005000D01*
%TO.C,J1*%
X89675000Y-44280000D02*
X86855000Y-44280000D01*
X90975000Y-45980000D02*
X90975000Y-54700000D01*
X90975000Y-54700000D02*
X85555000Y-54700000D01*
X85555000Y-45980000D02*
X85555000Y-54700000D01*
X86855000Y-44280000D02*
X85555000Y-45980000D01*
X89675000Y-44280000D02*
X90975000Y-45980000D01*
%TO.C,J4*%
X62315000Y-40605000D02*
X62315000Y-41935000D01*
X62315000Y-43205000D02*
X62315000Y-55965000D01*
X59655000Y-55965000D02*
X62315000Y-55965000D01*
X59655000Y-43205000D02*
X62315000Y-43205000D01*
X60985000Y-40605000D02*
X62315000Y-40605000D01*
X59655000Y-43205000D02*
X59655000Y-55965000D01*
%TD*%
%LPC*%
D14*
%TO.C,J2*%
X78740000Y-61625000D03*
D15*
X78740000Y-64165000D03*
X78740000Y-66705000D03*
X78740000Y-69245000D03*
X78740000Y-71785000D03*
X78740000Y-74325000D03*
X78740000Y-76865000D03*
X78740000Y-79405000D03*
X78740000Y-81945000D03*
X78740000Y-84485000D03*
%TD*%
D16*
%TO.C,R3*%
X72707000Y-55626000D03*
X71057000Y-55626000D03*
%TD*%
D17*
%TO.C,C2*%
X81280000Y-50305000D03*
X81280000Y-48755000D03*
%TD*%
D18*
%TO.C,D1*%
X78100000Y-110490000D03*
D19*
X80640000Y-110490000D03*
%TD*%
D20*
%TO.C,R2*%
X63500000Y-80390000D03*
X63500000Y-78740000D03*
%TD*%
%TO.C,R1*%
X63500000Y-74485000D03*
X63500000Y-72835000D03*
%TD*%
D18*
%TO.C,D2*%
X86355000Y-110490000D03*
D19*
X88895000Y-110490000D03*
%TD*%
D20*
%TO.C,R4*%
X66040000Y-106870000D03*
X66040000Y-105220000D03*
%TD*%
D17*
%TO.C,C1*%
X78740000Y-50305000D03*
X78740000Y-48755000D03*
%TD*%
D20*
%TO.C,R5*%
X60960000Y-106870000D03*
X60960000Y-105220000D03*
%TD*%
D21*
%TO.C,U1*%
X71120000Y-102575000D03*
D22*
X71120000Y-100035000D03*
X71120000Y-97495000D03*
X71120000Y-94955000D03*
X71120000Y-92415000D03*
X71120000Y-89875000D03*
X71120000Y-87335000D03*
X71120000Y-84795000D03*
X71120000Y-82255000D03*
X71120000Y-79715000D03*
X71120000Y-77175000D03*
X71120000Y-74635000D03*
X71120000Y-72095000D03*
X71120000Y-69555000D03*
X71120000Y-67015000D03*
D21*
X55880000Y-102575000D03*
D22*
X55880000Y-100035000D03*
X55880000Y-97495000D03*
X55880000Y-94955000D03*
X55880000Y-92415000D03*
X55880000Y-89875000D03*
X55880000Y-87335000D03*
X55880000Y-84795000D03*
X55880000Y-82255000D03*
X55880000Y-79715000D03*
X55880000Y-77175000D03*
X55880000Y-74635000D03*
X55880000Y-72095000D03*
X55880000Y-69555000D03*
X55880000Y-67015000D03*
%TD*%
D23*
%TO.C,U2*%
X71120000Y-49530000D03*
D24*
X68257500Y-47255000D03*
X68257500Y-47905000D03*
X68257500Y-48555000D03*
X68257500Y-49205000D03*
X68257500Y-49855000D03*
X68257500Y-50505000D03*
X68257500Y-51155000D03*
X68257500Y-51805000D03*
X73982500Y-51805000D03*
X73982500Y-51155000D03*
X73982500Y-50505000D03*
X73982500Y-49855000D03*
X73982500Y-49205000D03*
X73982500Y-48555000D03*
X73982500Y-47905000D03*
X73982500Y-47255000D03*
%TD*%
D14*
%TO.C,J5*%
X55905000Y-41935000D03*
D15*
X55905000Y-44475000D03*
X55905000Y-47015000D03*
X55905000Y-49555000D03*
X55905000Y-52095000D03*
X55905000Y-54635000D03*
%TD*%
D14*
%TO.C,J3*%
X78715000Y-100955000D03*
D15*
X78715000Y-98415000D03*
X78715000Y-95875000D03*
X78715000Y-93335000D03*
%TD*%
D25*
%TO.C,J1*%
X88265000Y-46990000D03*
D26*
X88265000Y-51990000D03*
%TD*%
D14*
%TO.C,J4*%
X60985000Y-41935000D03*
D15*
X60985000Y-44475000D03*
X60985000Y-47015000D03*
X60985000Y-49555000D03*
X60985000Y-52095000D03*
X60985000Y-54635000D03*
%TD*%
M02*
