%TF.GenerationSoftware,KiCad,Pcbnew,(6.0.7)*%
%TF.CreationDate,2023-08-18T16:07:33+09:00*%
%TF.ProjectId,graduate-project,67726164-7561-4746-952d-70726f6a6563,rev?*%
%TF.SameCoordinates,Original*%
%TF.FileFunction,Drillmap*%
%TF.FilePolarity,Positive*%
%FSLAX45Y45*%
G04 Gerber Fmt 4.5, Leading zero omitted, Abs format (unit mm)*
G04 Created by KiCad (PCBNEW (6.0.7)) date 2023-08-18 16:07:33*
%MOMM*%
%LPD*%
G01*
G04 APERTURE LIST*
%ADD10C,0.100000*%
%ADD11C,0.200000*%
%ADD12C,0.040000*%
%ADD13C,0.090000*%
%ADD14C,0.102000*%
%ADD15C,0.270000*%
G04 APERTURE END LIST*
D10*
X5080000Y-3810000D02*
X9398000Y-3810000D01*
X9398000Y-3810000D02*
X9398000Y-11430000D01*
X9398000Y-11430000D02*
X5080000Y-11430000D01*
X5080000Y-11430000D02*
X5080000Y-3810000D01*
D11*
D12*
X5677190Y-5860930D02*
X5717190Y-5900930D01*
X5717190Y-5860930D02*
X5677190Y-5900930D01*
X5771200Y-5788480D02*
X5811200Y-5828480D01*
X5811200Y-5788480D02*
X5771200Y-5828480D01*
X6187380Y-10667000D02*
X6227380Y-10707000D01*
X6227380Y-10667000D02*
X6187380Y-10707000D01*
X6219810Y-7409000D02*
X6259810Y-7449000D01*
X6259810Y-7409000D02*
X6219810Y-7449000D01*
X6457000Y-5187000D02*
X6497000Y-5227000D01*
X6497000Y-5187000D02*
X6457000Y-5227000D01*
X6474300Y-7451550D02*
X6514300Y-7491550D01*
X6514300Y-7451550D02*
X6474300Y-7491550D01*
X6647500Y-4996500D02*
X6687500Y-5036500D01*
X6687500Y-4996500D02*
X6647500Y-5036500D01*
X6736400Y-8946200D02*
X6776400Y-8986200D01*
X6776400Y-8946200D02*
X6736400Y-8986200D01*
X7096410Y-5355120D02*
X7136410Y-5395120D01*
X7136410Y-5355120D02*
X7096410Y-5395120D01*
X7324350Y-5364800D02*
X7364350Y-5404800D01*
X7364350Y-5364800D02*
X7324350Y-5404800D01*
X7346000Y-10584500D02*
X7386000Y-10624500D01*
X7386000Y-10584500D02*
X7346000Y-10624500D01*
X7378250Y-4625000D02*
X7418250Y-4665000D01*
X7418250Y-4625000D02*
X7378250Y-4665000D01*
X7473000Y-6177600D02*
X7513000Y-6217600D01*
X7513000Y-6177600D02*
X7473000Y-6217600D01*
X7600000Y-4729800D02*
X7640000Y-4769800D01*
X7640000Y-4729800D02*
X7600000Y-4769800D01*
X7917500Y-10584500D02*
X7957500Y-10624500D01*
X7957500Y-10584500D02*
X7917500Y-10624500D01*
X7057000Y-4803000D02*
G75*
G03*
X7057000Y-4803000I-20000J0D01*
G01*
X7057000Y-4953000D02*
G75*
G03*
X7057000Y-4953000I-20000J0D01*
G01*
X7057000Y-5103000D02*
G75*
G03*
X7057000Y-5103000I-20000J0D01*
G01*
X7207000Y-4803000D02*
G75*
G03*
X7207000Y-4803000I-20000J0D01*
G01*
X7207000Y-4953000D02*
G75*
G03*
X7207000Y-4953000I-20000J0D01*
G01*
X7207000Y-5103000D02*
G75*
G03*
X7207000Y-5103000I-20000J0D01*
G01*
D13*
X7810000Y-11004000D02*
X7810000Y-11094000D01*
X7765000Y-11049000D02*
X7855000Y-11049000D01*
X8064000Y-11004000D02*
X8064000Y-11094000D01*
X8019000Y-11049000D02*
X8109000Y-11049000D01*
X8635500Y-11004000D02*
X8635500Y-11094000D01*
X8590500Y-11049000D02*
X8680500Y-11049000D01*
X8889500Y-11004000D02*
X8889500Y-11094000D01*
X8844500Y-11049000D02*
X8934500Y-11049000D01*
D10*
X5625856Y-4228856D02*
X5625856Y-4158144D01*
X5555144Y-4158144D01*
X5555144Y-4228856D01*
X5625856Y-4228856D01*
X5625856Y-4482856D02*
X5625856Y-4412144D01*
X5555144Y-4412144D01*
X5555144Y-4482856D01*
X5625856Y-4482856D01*
X5625856Y-4736856D02*
X5625856Y-4666144D01*
X5555144Y-4666144D01*
X5555144Y-4736856D01*
X5625856Y-4736856D01*
X5625856Y-4990856D02*
X5625856Y-4920144D01*
X5555144Y-4920144D01*
X5555144Y-4990856D01*
X5625856Y-4990856D01*
X5625856Y-5244856D02*
X5625856Y-5174144D01*
X5555144Y-5174144D01*
X5555144Y-5244856D01*
X5625856Y-5244856D01*
X5625856Y-5498856D02*
X5625856Y-5428144D01*
X5555144Y-5428144D01*
X5555144Y-5498856D01*
X5625856Y-5498856D01*
X6133856Y-4228856D02*
X6133856Y-4158144D01*
X6063144Y-4158144D01*
X6063144Y-4228856D01*
X6133856Y-4228856D01*
X6133856Y-4482856D02*
X6133856Y-4412144D01*
X6063144Y-4412144D01*
X6063144Y-4482856D01*
X6133856Y-4482856D01*
X6133856Y-4736856D02*
X6133856Y-4666144D01*
X6063144Y-4666144D01*
X6063144Y-4736856D01*
X6133856Y-4736856D01*
X6133856Y-4990856D02*
X6133856Y-4920144D01*
X6063144Y-4920144D01*
X6063144Y-4990856D01*
X6133856Y-4990856D01*
X6133856Y-5244856D02*
X6133856Y-5174144D01*
X6063144Y-5174144D01*
X6063144Y-5244856D01*
X6133856Y-5244856D01*
X6133856Y-5498856D02*
X6133856Y-5428144D01*
X6063144Y-5428144D01*
X6063144Y-5498856D01*
X6133856Y-5498856D01*
X7906856Y-9368856D02*
X7906856Y-9298144D01*
X7836144Y-9298144D01*
X7836144Y-9368856D01*
X7906856Y-9368856D01*
X7906856Y-9622856D02*
X7906856Y-9552144D01*
X7836144Y-9552144D01*
X7836144Y-9622856D01*
X7906856Y-9622856D01*
X7906856Y-9876856D02*
X7906856Y-9806144D01*
X7836144Y-9806144D01*
X7836144Y-9876856D01*
X7906856Y-9876856D01*
X7906856Y-10130856D02*
X7906856Y-10060144D01*
X7836144Y-10060144D01*
X7836144Y-10130856D01*
X7906856Y-10130856D01*
X7909356Y-6197856D02*
X7909356Y-6127144D01*
X7838644Y-6127144D01*
X7838644Y-6197856D01*
X7909356Y-6197856D01*
X7909356Y-6451856D02*
X7909356Y-6381144D01*
X7838644Y-6381144D01*
X7838644Y-6451856D01*
X7909356Y-6451856D01*
X7909356Y-6705856D02*
X7909356Y-6635144D01*
X7838644Y-6635144D01*
X7838644Y-6705856D01*
X7909356Y-6705856D01*
X7909356Y-6959856D02*
X7909356Y-6889144D01*
X7838644Y-6889144D01*
X7838644Y-6959856D01*
X7909356Y-6959856D01*
X7909356Y-7213856D02*
X7909356Y-7143144D01*
X7838644Y-7143144D01*
X7838644Y-7213856D01*
X7909356Y-7213856D01*
X7909356Y-7467856D02*
X7909356Y-7397144D01*
X7838644Y-7397144D01*
X7838644Y-7467856D01*
X7909356Y-7467856D01*
X7909356Y-7721856D02*
X7909356Y-7651144D01*
X7838644Y-7651144D01*
X7838644Y-7721856D01*
X7909356Y-7721856D01*
X7909356Y-7975856D02*
X7909356Y-7905144D01*
X7838644Y-7905144D01*
X7838644Y-7975856D01*
X7909356Y-7975856D01*
X7909356Y-8229856D02*
X7909356Y-8159144D01*
X7838644Y-8159144D01*
X7838644Y-8229856D01*
X7909356Y-8229856D01*
X7909356Y-8483856D02*
X7909356Y-8413144D01*
X7838644Y-8413144D01*
X7838644Y-8483856D01*
X7909356Y-8483856D01*
D14*
X5588000Y-6752500D02*
X5639000Y-6701500D01*
X5588000Y-6650500D01*
X5537000Y-6701500D01*
X5588000Y-6752500D01*
X5588000Y-7006500D02*
X5639000Y-6955500D01*
X5588000Y-6904500D01*
X5537000Y-6955500D01*
X5588000Y-7006500D01*
X5588000Y-7260500D02*
X5639000Y-7209500D01*
X5588000Y-7158500D01*
X5537000Y-7209500D01*
X5588000Y-7260500D01*
X5588000Y-7514500D02*
X5639000Y-7463500D01*
X5588000Y-7412500D01*
X5537000Y-7463500D01*
X5588000Y-7514500D01*
X5588000Y-7768500D02*
X5639000Y-7717500D01*
X5588000Y-7666500D01*
X5537000Y-7717500D01*
X5588000Y-7768500D01*
X5588000Y-8022500D02*
X5639000Y-7971500D01*
X5588000Y-7920500D01*
X5537000Y-7971500D01*
X5588000Y-8022500D01*
X5588000Y-8276500D02*
X5639000Y-8225500D01*
X5588000Y-8174500D01*
X5537000Y-8225500D01*
X5588000Y-8276500D01*
X5588000Y-8530500D02*
X5639000Y-8479500D01*
X5588000Y-8428500D01*
X5537000Y-8479500D01*
X5588000Y-8530500D01*
X5588000Y-8784500D02*
X5639000Y-8733500D01*
X5588000Y-8682500D01*
X5537000Y-8733500D01*
X5588000Y-8784500D01*
X5588000Y-9038500D02*
X5639000Y-8987500D01*
X5588000Y-8936500D01*
X5537000Y-8987500D01*
X5588000Y-9038500D01*
X5588000Y-9292500D02*
X5639000Y-9241500D01*
X5588000Y-9190500D01*
X5537000Y-9241500D01*
X5588000Y-9292500D01*
X5588000Y-9546500D02*
X5639000Y-9495500D01*
X5588000Y-9444500D01*
X5537000Y-9495500D01*
X5588000Y-9546500D01*
X5588000Y-9800500D02*
X5639000Y-9749500D01*
X5588000Y-9698500D01*
X5537000Y-9749500D01*
X5588000Y-9800500D01*
X5588000Y-10054500D02*
X5639000Y-10003500D01*
X5588000Y-9952500D01*
X5537000Y-10003500D01*
X5588000Y-10054500D01*
X5588000Y-10308500D02*
X5639000Y-10257500D01*
X5588000Y-10206500D01*
X5537000Y-10257500D01*
X5588000Y-10308500D01*
X7112000Y-6752500D02*
X7163000Y-6701500D01*
X7112000Y-6650500D01*
X7061000Y-6701500D01*
X7112000Y-6752500D01*
X7112000Y-7006500D02*
X7163000Y-6955500D01*
X7112000Y-6904500D01*
X7061000Y-6955500D01*
X7112000Y-7006500D01*
X7112000Y-7260500D02*
X7163000Y-7209500D01*
X7112000Y-7158500D01*
X7061000Y-7209500D01*
X7112000Y-7260500D01*
X7112000Y-7514500D02*
X7163000Y-7463500D01*
X7112000Y-7412500D01*
X7061000Y-7463500D01*
X7112000Y-7514500D01*
X7112000Y-7768500D02*
X7163000Y-7717500D01*
X7112000Y-7666500D01*
X7061000Y-7717500D01*
X7112000Y-7768500D01*
X7112000Y-8022500D02*
X7163000Y-7971500D01*
X7112000Y-7920500D01*
X7061000Y-7971500D01*
X7112000Y-8022500D01*
X7112000Y-8276500D02*
X7163000Y-8225500D01*
X7112000Y-8174500D01*
X7061000Y-8225500D01*
X7112000Y-8276500D01*
X7112000Y-8530500D02*
X7163000Y-8479500D01*
X7112000Y-8428500D01*
X7061000Y-8479500D01*
X7112000Y-8530500D01*
X7112000Y-8784500D02*
X7163000Y-8733500D01*
X7112000Y-8682500D01*
X7061000Y-8733500D01*
X7112000Y-8784500D01*
X7112000Y-9038500D02*
X7163000Y-8987500D01*
X7112000Y-8936500D01*
X7061000Y-8987500D01*
X7112000Y-9038500D01*
X7112000Y-9292500D02*
X7163000Y-9241500D01*
X7112000Y-9190500D01*
X7061000Y-9241500D01*
X7112000Y-9292500D01*
X7112000Y-9546500D02*
X7163000Y-9495500D01*
X7112000Y-9444500D01*
X7061000Y-9495500D01*
X7112000Y-9546500D01*
X7112000Y-9800500D02*
X7163000Y-9749500D01*
X7112000Y-9698500D01*
X7061000Y-9749500D01*
X7112000Y-9800500D01*
X7112000Y-10054500D02*
X7163000Y-10003500D01*
X7112000Y-9952500D01*
X7061000Y-10003500D01*
X7112000Y-10054500D01*
X7112000Y-10308500D02*
X7163000Y-10257500D01*
X7112000Y-10206500D01*
X7061000Y-10257500D01*
X7112000Y-10308500D01*
D15*
X8691500Y-4564000D02*
X8961500Y-4834000D01*
X8961500Y-4564000D02*
X8691500Y-4834000D01*
X8961500Y-4699000D02*
G75*
G03*
X8961500Y-4699000I-135000J0D01*
G01*
X8691500Y-5064000D02*
X8961500Y-5334000D01*
X8961500Y-5064000D02*
X8691500Y-5334000D01*
X8961500Y-5199000D02*
G75*
G03*
X8961500Y-5199000I-135000J0D01*
G01*
D11*
X5332619Y-11745476D02*
X5332619Y-11545476D01*
X5380238Y-11545476D01*
X5408810Y-11555000D01*
X5427857Y-11574048D01*
X5437381Y-11593095D01*
X5446905Y-11631190D01*
X5446905Y-11659762D01*
X5437381Y-11697857D01*
X5427857Y-11716905D01*
X5408810Y-11735952D01*
X5380238Y-11745476D01*
X5332619Y-11745476D01*
X5532619Y-11745476D02*
X5532619Y-11612143D01*
X5532619Y-11650238D02*
X5542143Y-11631190D01*
X5551667Y-11621667D01*
X5570714Y-11612143D01*
X5589762Y-11612143D01*
X5656428Y-11745476D02*
X5656428Y-11612143D01*
X5656428Y-11545476D02*
X5646905Y-11555000D01*
X5656428Y-11564524D01*
X5665952Y-11555000D01*
X5656428Y-11545476D01*
X5656428Y-11564524D01*
X5780238Y-11745476D02*
X5761190Y-11735952D01*
X5751667Y-11716905D01*
X5751667Y-11545476D01*
X5885000Y-11745476D02*
X5865952Y-11735952D01*
X5856428Y-11716905D01*
X5856428Y-11545476D01*
X6113571Y-11745476D02*
X6113571Y-11545476D01*
X6180238Y-11688333D01*
X6246905Y-11545476D01*
X6246905Y-11745476D01*
X6427857Y-11745476D02*
X6427857Y-11640714D01*
X6418333Y-11621667D01*
X6399286Y-11612143D01*
X6361190Y-11612143D01*
X6342143Y-11621667D01*
X6427857Y-11735952D02*
X6408809Y-11745476D01*
X6361190Y-11745476D01*
X6342143Y-11735952D01*
X6332619Y-11716905D01*
X6332619Y-11697857D01*
X6342143Y-11678809D01*
X6361190Y-11669286D01*
X6408809Y-11669286D01*
X6427857Y-11659762D01*
X6523095Y-11612143D02*
X6523095Y-11812143D01*
X6523095Y-11621667D02*
X6542143Y-11612143D01*
X6580238Y-11612143D01*
X6599286Y-11621667D01*
X6608809Y-11631190D01*
X6618333Y-11650238D01*
X6618333Y-11707381D01*
X6608809Y-11726428D01*
X6599286Y-11735952D01*
X6580238Y-11745476D01*
X6542143Y-11745476D01*
X6523095Y-11735952D01*
X6704048Y-11726428D02*
X6713571Y-11735952D01*
X6704048Y-11745476D01*
X6694524Y-11735952D01*
X6704048Y-11726428D01*
X6704048Y-11745476D01*
X6704048Y-11621667D02*
X6713571Y-11631190D01*
X6704048Y-11640714D01*
X6694524Y-11631190D01*
X6704048Y-11621667D01*
X6704048Y-11640714D01*
D12*
X5035000Y-12055000D02*
X5075000Y-12095000D01*
X5075000Y-12055000D02*
X5035000Y-12095000D01*
D11*
X5370714Y-11965476D02*
X5389762Y-11965476D01*
X5408810Y-11975000D01*
X5418333Y-11984524D01*
X5427857Y-12003571D01*
X5437381Y-12041667D01*
X5437381Y-12089286D01*
X5427857Y-12127381D01*
X5418333Y-12146428D01*
X5408810Y-12155952D01*
X5389762Y-12165476D01*
X5370714Y-12165476D01*
X5351667Y-12155952D01*
X5342143Y-12146428D01*
X5332619Y-12127381D01*
X5323095Y-12089286D01*
X5323095Y-12041667D01*
X5332619Y-12003571D01*
X5342143Y-11984524D01*
X5351667Y-11975000D01*
X5370714Y-11965476D01*
X5523095Y-12146428D02*
X5532619Y-12155952D01*
X5523095Y-12165476D01*
X5513571Y-12155952D01*
X5523095Y-12146428D01*
X5523095Y-12165476D01*
X5704048Y-12032143D02*
X5704048Y-12165476D01*
X5656428Y-11955952D02*
X5608809Y-12098809D01*
X5732619Y-12098809D01*
X5846905Y-11965476D02*
X5865952Y-11965476D01*
X5885000Y-11975000D01*
X5894524Y-11984524D01*
X5904048Y-12003571D01*
X5913571Y-12041667D01*
X5913571Y-12089286D01*
X5904048Y-12127381D01*
X5894524Y-12146428D01*
X5885000Y-12155952D01*
X5865952Y-12165476D01*
X5846905Y-12165476D01*
X5827857Y-12155952D01*
X5818333Y-12146428D01*
X5808809Y-12127381D01*
X5799286Y-12089286D01*
X5799286Y-12041667D01*
X5808809Y-12003571D01*
X5818333Y-11984524D01*
X5827857Y-11975000D01*
X5846905Y-11965476D01*
X6037381Y-11965476D02*
X6056428Y-11965476D01*
X6075476Y-11975000D01*
X6085000Y-11984524D01*
X6094524Y-12003571D01*
X6104048Y-12041667D01*
X6104048Y-12089286D01*
X6094524Y-12127381D01*
X6085000Y-12146428D01*
X6075476Y-12155952D01*
X6056428Y-12165476D01*
X6037381Y-12165476D01*
X6018333Y-12155952D01*
X6008809Y-12146428D01*
X5999286Y-12127381D01*
X5989762Y-12089286D01*
X5989762Y-12041667D01*
X5999286Y-12003571D01*
X6008809Y-11984524D01*
X6018333Y-11975000D01*
X6037381Y-11965476D01*
X6189762Y-12165476D02*
X6189762Y-12032143D01*
X6189762Y-12051190D02*
X6199286Y-12041667D01*
X6218333Y-12032143D01*
X6246905Y-12032143D01*
X6265952Y-12041667D01*
X6275476Y-12060714D01*
X6275476Y-12165476D01*
X6275476Y-12060714D02*
X6285000Y-12041667D01*
X6304048Y-12032143D01*
X6332619Y-12032143D01*
X6351667Y-12041667D01*
X6361190Y-12060714D01*
X6361190Y-12165476D01*
X6456428Y-12165476D02*
X6456428Y-12032143D01*
X6456428Y-12051190D02*
X6465952Y-12041667D01*
X6485000Y-12032143D01*
X6513571Y-12032143D01*
X6532619Y-12041667D01*
X6542143Y-12060714D01*
X6542143Y-12165476D01*
X6542143Y-12060714D02*
X6551667Y-12041667D01*
X6570714Y-12032143D01*
X6599286Y-12032143D01*
X6618333Y-12041667D01*
X6627857Y-12060714D01*
X6627857Y-12165476D01*
X7018333Y-11955952D02*
X6846905Y-12213095D01*
X7275476Y-11965476D02*
X7294524Y-11965476D01*
X7313571Y-11975000D01*
X7323095Y-11984524D01*
X7332619Y-12003571D01*
X7342143Y-12041667D01*
X7342143Y-12089286D01*
X7332619Y-12127381D01*
X7323095Y-12146428D01*
X7313571Y-12155952D01*
X7294524Y-12165476D01*
X7275476Y-12165476D01*
X7256428Y-12155952D01*
X7246905Y-12146428D01*
X7237381Y-12127381D01*
X7227857Y-12089286D01*
X7227857Y-12041667D01*
X7237381Y-12003571D01*
X7246905Y-11984524D01*
X7256428Y-11975000D01*
X7275476Y-11965476D01*
X7427857Y-12146428D02*
X7437381Y-12155952D01*
X7427857Y-12165476D01*
X7418333Y-12155952D01*
X7427857Y-12146428D01*
X7427857Y-12165476D01*
X7561190Y-11965476D02*
X7580238Y-11965476D01*
X7599286Y-11975000D01*
X7608809Y-11984524D01*
X7618333Y-12003571D01*
X7627857Y-12041667D01*
X7627857Y-12089286D01*
X7618333Y-12127381D01*
X7608809Y-12146428D01*
X7599286Y-12155952D01*
X7580238Y-12165476D01*
X7561190Y-12165476D01*
X7542143Y-12155952D01*
X7532619Y-12146428D01*
X7523095Y-12127381D01*
X7513571Y-12089286D01*
X7513571Y-12041667D01*
X7523095Y-12003571D01*
X7532619Y-11984524D01*
X7542143Y-11975000D01*
X7561190Y-11965476D01*
X7818333Y-12165476D02*
X7704048Y-12165476D01*
X7761190Y-12165476D02*
X7761190Y-11965476D01*
X7742143Y-11994048D01*
X7723095Y-12013095D01*
X7704048Y-12022619D01*
X7999286Y-11965476D02*
X7904048Y-11965476D01*
X7894524Y-12060714D01*
X7904048Y-12051190D01*
X7923095Y-12041667D01*
X7970714Y-12041667D01*
X7989762Y-12051190D01*
X7999286Y-12060714D01*
X8008809Y-12079762D01*
X8008809Y-12127381D01*
X7999286Y-12146428D01*
X7989762Y-12155952D01*
X7970714Y-12165476D01*
X7923095Y-12165476D01*
X7904048Y-12155952D01*
X7894524Y-12146428D01*
X8075476Y-11965476D02*
X8208809Y-11965476D01*
X8123095Y-12165476D01*
X8275476Y-11965476D02*
X8275476Y-12003571D01*
X8351667Y-11965476D02*
X8351667Y-12003571D01*
X8646905Y-12241667D02*
X8637381Y-12232143D01*
X8618333Y-12203571D01*
X8608810Y-12184524D01*
X8599286Y-12155952D01*
X8589762Y-12108333D01*
X8589762Y-12070238D01*
X8599286Y-12022619D01*
X8608810Y-11994048D01*
X8618333Y-11975000D01*
X8637381Y-11946428D01*
X8646905Y-11936905D01*
X8827857Y-12165476D02*
X8713571Y-12165476D01*
X8770714Y-12165476D02*
X8770714Y-11965476D01*
X8751667Y-11994048D01*
X8732619Y-12013095D01*
X8713571Y-12022619D01*
X9008810Y-11965476D02*
X8913571Y-11965476D01*
X8904048Y-12060714D01*
X8913571Y-12051190D01*
X8932619Y-12041667D01*
X8980238Y-12041667D01*
X8999286Y-12051190D01*
X9008810Y-12060714D01*
X9018333Y-12079762D01*
X9018333Y-12127381D01*
X9008810Y-12146428D01*
X8999286Y-12155952D01*
X8980238Y-12165476D01*
X8932619Y-12165476D01*
X8913571Y-12155952D01*
X8904048Y-12146428D01*
X9256429Y-12165476D02*
X9256429Y-11965476D01*
X9342143Y-12165476D02*
X9342143Y-12060714D01*
X9332619Y-12041667D01*
X9313571Y-12032143D01*
X9285000Y-12032143D01*
X9265952Y-12041667D01*
X9256429Y-12051190D01*
X9465952Y-12165476D02*
X9446905Y-12155952D01*
X9437381Y-12146428D01*
X9427857Y-12127381D01*
X9427857Y-12070238D01*
X9437381Y-12051190D01*
X9446905Y-12041667D01*
X9465952Y-12032143D01*
X9494524Y-12032143D01*
X9513571Y-12041667D01*
X9523095Y-12051190D01*
X9532619Y-12070238D01*
X9532619Y-12127381D01*
X9523095Y-12146428D01*
X9513571Y-12155952D01*
X9494524Y-12165476D01*
X9465952Y-12165476D01*
X9646905Y-12165476D02*
X9627857Y-12155952D01*
X9618333Y-12136905D01*
X9618333Y-11965476D01*
X9799286Y-12155952D02*
X9780238Y-12165476D01*
X9742143Y-12165476D01*
X9723095Y-12155952D01*
X9713571Y-12136905D01*
X9713571Y-12060714D01*
X9723095Y-12041667D01*
X9742143Y-12032143D01*
X9780238Y-12032143D01*
X9799286Y-12041667D01*
X9808810Y-12060714D01*
X9808810Y-12079762D01*
X9713571Y-12098809D01*
X9885000Y-12155952D02*
X9904048Y-12165476D01*
X9942143Y-12165476D01*
X9961190Y-12155952D01*
X9970714Y-12136905D01*
X9970714Y-12127381D01*
X9961190Y-12108333D01*
X9942143Y-12098809D01*
X9913571Y-12098809D01*
X9894524Y-12089286D01*
X9885000Y-12070238D01*
X9885000Y-12060714D01*
X9894524Y-12041667D01*
X9913571Y-12032143D01*
X9942143Y-12032143D01*
X9961190Y-12041667D01*
X10037381Y-12241667D02*
X10046905Y-12232143D01*
X10065952Y-12203571D01*
X10075476Y-12184524D01*
X10085000Y-12155952D01*
X10094524Y-12108333D01*
X10094524Y-12070238D01*
X10085000Y-12022619D01*
X10075476Y-11994048D01*
X10065952Y-11975000D01*
X10046905Y-11946428D01*
X10037381Y-11936905D01*
D12*
X5075000Y-12339000D02*
G75*
G03*
X5075000Y-12339000I-20000J0D01*
G01*
D11*
X5370714Y-12229476D02*
X5389762Y-12229476D01*
X5408810Y-12239000D01*
X5418333Y-12248524D01*
X5427857Y-12267571D01*
X5437381Y-12305667D01*
X5437381Y-12353286D01*
X5427857Y-12391381D01*
X5418333Y-12410428D01*
X5408810Y-12419952D01*
X5389762Y-12429476D01*
X5370714Y-12429476D01*
X5351667Y-12419952D01*
X5342143Y-12410428D01*
X5332619Y-12391381D01*
X5323095Y-12353286D01*
X5323095Y-12305667D01*
X5332619Y-12267571D01*
X5342143Y-12248524D01*
X5351667Y-12239000D01*
X5370714Y-12229476D01*
X5523095Y-12410428D02*
X5532619Y-12419952D01*
X5523095Y-12429476D01*
X5513571Y-12419952D01*
X5523095Y-12410428D01*
X5523095Y-12429476D01*
X5704048Y-12296143D02*
X5704048Y-12429476D01*
X5656428Y-12219952D02*
X5608809Y-12362809D01*
X5732619Y-12362809D01*
X5846905Y-12229476D02*
X5865952Y-12229476D01*
X5885000Y-12239000D01*
X5894524Y-12248524D01*
X5904048Y-12267571D01*
X5913571Y-12305667D01*
X5913571Y-12353286D01*
X5904048Y-12391381D01*
X5894524Y-12410428D01*
X5885000Y-12419952D01*
X5865952Y-12429476D01*
X5846905Y-12429476D01*
X5827857Y-12419952D01*
X5818333Y-12410428D01*
X5808809Y-12391381D01*
X5799286Y-12353286D01*
X5799286Y-12305667D01*
X5808809Y-12267571D01*
X5818333Y-12248524D01*
X5827857Y-12239000D01*
X5846905Y-12229476D01*
X6037381Y-12229476D02*
X6056428Y-12229476D01*
X6075476Y-12239000D01*
X6085000Y-12248524D01*
X6094524Y-12267571D01*
X6104048Y-12305667D01*
X6104048Y-12353286D01*
X6094524Y-12391381D01*
X6085000Y-12410428D01*
X6075476Y-12419952D01*
X6056428Y-12429476D01*
X6037381Y-12429476D01*
X6018333Y-12419952D01*
X6008809Y-12410428D01*
X5999286Y-12391381D01*
X5989762Y-12353286D01*
X5989762Y-12305667D01*
X5999286Y-12267571D01*
X6008809Y-12248524D01*
X6018333Y-12239000D01*
X6037381Y-12229476D01*
X6189762Y-12429476D02*
X6189762Y-12296143D01*
X6189762Y-12315190D02*
X6199286Y-12305667D01*
X6218333Y-12296143D01*
X6246905Y-12296143D01*
X6265952Y-12305667D01*
X6275476Y-12324714D01*
X6275476Y-12429476D01*
X6275476Y-12324714D02*
X6285000Y-12305667D01*
X6304048Y-12296143D01*
X6332619Y-12296143D01*
X6351667Y-12305667D01*
X6361190Y-12324714D01*
X6361190Y-12429476D01*
X6456428Y-12429476D02*
X6456428Y-12296143D01*
X6456428Y-12315190D02*
X6465952Y-12305667D01*
X6485000Y-12296143D01*
X6513571Y-12296143D01*
X6532619Y-12305667D01*
X6542143Y-12324714D01*
X6542143Y-12429476D01*
X6542143Y-12324714D02*
X6551667Y-12305667D01*
X6570714Y-12296143D01*
X6599286Y-12296143D01*
X6618333Y-12305667D01*
X6627857Y-12324714D01*
X6627857Y-12429476D01*
X7018333Y-12219952D02*
X6846905Y-12477095D01*
X7275476Y-12229476D02*
X7294524Y-12229476D01*
X7313571Y-12239000D01*
X7323095Y-12248524D01*
X7332619Y-12267571D01*
X7342143Y-12305667D01*
X7342143Y-12353286D01*
X7332619Y-12391381D01*
X7323095Y-12410428D01*
X7313571Y-12419952D01*
X7294524Y-12429476D01*
X7275476Y-12429476D01*
X7256428Y-12419952D01*
X7246905Y-12410428D01*
X7237381Y-12391381D01*
X7227857Y-12353286D01*
X7227857Y-12305667D01*
X7237381Y-12267571D01*
X7246905Y-12248524D01*
X7256428Y-12239000D01*
X7275476Y-12229476D01*
X7427857Y-12410428D02*
X7437381Y-12419952D01*
X7427857Y-12429476D01*
X7418333Y-12419952D01*
X7427857Y-12410428D01*
X7427857Y-12429476D01*
X7561190Y-12229476D02*
X7580238Y-12229476D01*
X7599286Y-12239000D01*
X7608809Y-12248524D01*
X7618333Y-12267571D01*
X7627857Y-12305667D01*
X7627857Y-12353286D01*
X7618333Y-12391381D01*
X7608809Y-12410428D01*
X7599286Y-12419952D01*
X7580238Y-12429476D01*
X7561190Y-12429476D01*
X7542143Y-12419952D01*
X7532619Y-12410428D01*
X7523095Y-12391381D01*
X7513571Y-12353286D01*
X7513571Y-12305667D01*
X7523095Y-12267571D01*
X7532619Y-12248524D01*
X7542143Y-12239000D01*
X7561190Y-12229476D01*
X7818333Y-12429476D02*
X7704048Y-12429476D01*
X7761190Y-12429476D02*
X7761190Y-12229476D01*
X7742143Y-12258048D01*
X7723095Y-12277095D01*
X7704048Y-12286619D01*
X7999286Y-12229476D02*
X7904048Y-12229476D01*
X7894524Y-12324714D01*
X7904048Y-12315190D01*
X7923095Y-12305667D01*
X7970714Y-12305667D01*
X7989762Y-12315190D01*
X7999286Y-12324714D01*
X8008809Y-12343762D01*
X8008809Y-12391381D01*
X7999286Y-12410428D01*
X7989762Y-12419952D01*
X7970714Y-12429476D01*
X7923095Y-12429476D01*
X7904048Y-12419952D01*
X7894524Y-12410428D01*
X8075476Y-12229476D02*
X8208809Y-12229476D01*
X8123095Y-12429476D01*
X8275476Y-12229476D02*
X8275476Y-12267571D01*
X8351667Y-12229476D02*
X8351667Y-12267571D01*
X8646905Y-12505667D02*
X8637381Y-12496143D01*
X8618333Y-12467571D01*
X8608810Y-12448524D01*
X8599286Y-12419952D01*
X8589762Y-12372333D01*
X8589762Y-12334238D01*
X8599286Y-12286619D01*
X8608810Y-12258048D01*
X8618333Y-12239000D01*
X8637381Y-12210428D01*
X8646905Y-12200905D01*
X8808810Y-12229476D02*
X8770714Y-12229476D01*
X8751667Y-12239000D01*
X8742143Y-12248524D01*
X8723095Y-12277095D01*
X8713571Y-12315190D01*
X8713571Y-12391381D01*
X8723095Y-12410428D01*
X8732619Y-12419952D01*
X8751667Y-12429476D01*
X8789762Y-12429476D01*
X8808810Y-12419952D01*
X8818333Y-12410428D01*
X8827857Y-12391381D01*
X8827857Y-12343762D01*
X8818333Y-12324714D01*
X8808810Y-12315190D01*
X8789762Y-12305667D01*
X8751667Y-12305667D01*
X8732619Y-12315190D01*
X8723095Y-12324714D01*
X8713571Y-12343762D01*
X9065952Y-12429476D02*
X9065952Y-12229476D01*
X9151667Y-12429476D02*
X9151667Y-12324714D01*
X9142143Y-12305667D01*
X9123095Y-12296143D01*
X9094524Y-12296143D01*
X9075476Y-12305667D01*
X9065952Y-12315190D01*
X9275476Y-12429476D02*
X9256429Y-12419952D01*
X9246905Y-12410428D01*
X9237381Y-12391381D01*
X9237381Y-12334238D01*
X9246905Y-12315190D01*
X9256429Y-12305667D01*
X9275476Y-12296143D01*
X9304048Y-12296143D01*
X9323095Y-12305667D01*
X9332619Y-12315190D01*
X9342143Y-12334238D01*
X9342143Y-12391381D01*
X9332619Y-12410428D01*
X9323095Y-12419952D01*
X9304048Y-12429476D01*
X9275476Y-12429476D01*
X9456429Y-12429476D02*
X9437381Y-12419952D01*
X9427857Y-12400905D01*
X9427857Y-12229476D01*
X9608810Y-12419952D02*
X9589762Y-12429476D01*
X9551667Y-12429476D01*
X9532619Y-12419952D01*
X9523095Y-12400905D01*
X9523095Y-12324714D01*
X9532619Y-12305667D01*
X9551667Y-12296143D01*
X9589762Y-12296143D01*
X9608810Y-12305667D01*
X9618333Y-12324714D01*
X9618333Y-12343762D01*
X9523095Y-12362809D01*
X9694524Y-12419952D02*
X9713571Y-12429476D01*
X9751667Y-12429476D01*
X9770714Y-12419952D01*
X9780238Y-12400905D01*
X9780238Y-12391381D01*
X9770714Y-12372333D01*
X9751667Y-12362809D01*
X9723095Y-12362809D01*
X9704048Y-12353286D01*
X9694524Y-12334238D01*
X9694524Y-12324714D01*
X9704048Y-12305667D01*
X9723095Y-12296143D01*
X9751667Y-12296143D01*
X9770714Y-12305667D01*
X9846905Y-12505667D02*
X9856429Y-12496143D01*
X9875476Y-12467571D01*
X9885000Y-12448524D01*
X9894524Y-12419952D01*
X9904048Y-12372333D01*
X9904048Y-12334238D01*
X9894524Y-12286619D01*
X9885000Y-12258048D01*
X9875476Y-12239000D01*
X9856429Y-12210428D01*
X9846905Y-12200905D01*
D13*
X5030000Y-12558000D02*
X5030000Y-12648000D01*
X4985000Y-12603000D02*
X5075000Y-12603000D01*
D11*
X5370714Y-12493476D02*
X5389762Y-12493476D01*
X5408810Y-12503000D01*
X5418333Y-12512524D01*
X5427857Y-12531571D01*
X5437381Y-12569667D01*
X5437381Y-12617286D01*
X5427857Y-12655381D01*
X5418333Y-12674428D01*
X5408810Y-12683952D01*
X5389762Y-12693476D01*
X5370714Y-12693476D01*
X5351667Y-12683952D01*
X5342143Y-12674428D01*
X5332619Y-12655381D01*
X5323095Y-12617286D01*
X5323095Y-12569667D01*
X5332619Y-12531571D01*
X5342143Y-12512524D01*
X5351667Y-12503000D01*
X5370714Y-12493476D01*
X5523095Y-12674428D02*
X5532619Y-12683952D01*
X5523095Y-12693476D01*
X5513571Y-12683952D01*
X5523095Y-12674428D01*
X5523095Y-12693476D01*
X5627857Y-12693476D02*
X5665952Y-12693476D01*
X5685000Y-12683952D01*
X5694524Y-12674428D01*
X5713571Y-12645857D01*
X5723095Y-12607762D01*
X5723095Y-12531571D01*
X5713571Y-12512524D01*
X5704048Y-12503000D01*
X5685000Y-12493476D01*
X5646905Y-12493476D01*
X5627857Y-12503000D01*
X5618333Y-12512524D01*
X5608809Y-12531571D01*
X5608809Y-12579190D01*
X5618333Y-12598238D01*
X5627857Y-12607762D01*
X5646905Y-12617286D01*
X5685000Y-12617286D01*
X5704048Y-12607762D01*
X5713571Y-12598238D01*
X5723095Y-12579190D01*
X5846905Y-12493476D02*
X5865952Y-12493476D01*
X5885000Y-12503000D01*
X5894524Y-12512524D01*
X5904048Y-12531571D01*
X5913571Y-12569667D01*
X5913571Y-12617286D01*
X5904048Y-12655381D01*
X5894524Y-12674428D01*
X5885000Y-12683952D01*
X5865952Y-12693476D01*
X5846905Y-12693476D01*
X5827857Y-12683952D01*
X5818333Y-12674428D01*
X5808809Y-12655381D01*
X5799286Y-12617286D01*
X5799286Y-12569667D01*
X5808809Y-12531571D01*
X5818333Y-12512524D01*
X5827857Y-12503000D01*
X5846905Y-12493476D01*
X6037381Y-12493476D02*
X6056428Y-12493476D01*
X6075476Y-12503000D01*
X6085000Y-12512524D01*
X6094524Y-12531571D01*
X6104048Y-12569667D01*
X6104048Y-12617286D01*
X6094524Y-12655381D01*
X6085000Y-12674428D01*
X6075476Y-12683952D01*
X6056428Y-12693476D01*
X6037381Y-12693476D01*
X6018333Y-12683952D01*
X6008809Y-12674428D01*
X5999286Y-12655381D01*
X5989762Y-12617286D01*
X5989762Y-12569667D01*
X5999286Y-12531571D01*
X6008809Y-12512524D01*
X6018333Y-12503000D01*
X6037381Y-12493476D01*
X6189762Y-12693476D02*
X6189762Y-12560143D01*
X6189762Y-12579190D02*
X6199286Y-12569667D01*
X6218333Y-12560143D01*
X6246905Y-12560143D01*
X6265952Y-12569667D01*
X6275476Y-12588714D01*
X6275476Y-12693476D01*
X6275476Y-12588714D02*
X6285000Y-12569667D01*
X6304048Y-12560143D01*
X6332619Y-12560143D01*
X6351667Y-12569667D01*
X6361190Y-12588714D01*
X6361190Y-12693476D01*
X6456428Y-12693476D02*
X6456428Y-12560143D01*
X6456428Y-12579190D02*
X6465952Y-12569667D01*
X6485000Y-12560143D01*
X6513571Y-12560143D01*
X6532619Y-12569667D01*
X6542143Y-12588714D01*
X6542143Y-12693476D01*
X6542143Y-12588714D02*
X6551667Y-12569667D01*
X6570714Y-12560143D01*
X6599286Y-12560143D01*
X6618333Y-12569667D01*
X6627857Y-12588714D01*
X6627857Y-12693476D01*
X7018333Y-12483952D02*
X6846905Y-12741095D01*
X7275476Y-12493476D02*
X7294524Y-12493476D01*
X7313571Y-12503000D01*
X7323095Y-12512524D01*
X7332619Y-12531571D01*
X7342143Y-12569667D01*
X7342143Y-12617286D01*
X7332619Y-12655381D01*
X7323095Y-12674428D01*
X7313571Y-12683952D01*
X7294524Y-12693476D01*
X7275476Y-12693476D01*
X7256428Y-12683952D01*
X7246905Y-12674428D01*
X7237381Y-12655381D01*
X7227857Y-12617286D01*
X7227857Y-12569667D01*
X7237381Y-12531571D01*
X7246905Y-12512524D01*
X7256428Y-12503000D01*
X7275476Y-12493476D01*
X7427857Y-12674428D02*
X7437381Y-12683952D01*
X7427857Y-12693476D01*
X7418333Y-12683952D01*
X7427857Y-12674428D01*
X7427857Y-12693476D01*
X7561190Y-12493476D02*
X7580238Y-12493476D01*
X7599286Y-12503000D01*
X7608809Y-12512524D01*
X7618333Y-12531571D01*
X7627857Y-12569667D01*
X7627857Y-12617286D01*
X7618333Y-12655381D01*
X7608809Y-12674428D01*
X7599286Y-12683952D01*
X7580238Y-12693476D01*
X7561190Y-12693476D01*
X7542143Y-12683952D01*
X7532619Y-12674428D01*
X7523095Y-12655381D01*
X7513571Y-12617286D01*
X7513571Y-12569667D01*
X7523095Y-12531571D01*
X7532619Y-12512524D01*
X7542143Y-12503000D01*
X7561190Y-12493476D01*
X7694524Y-12493476D02*
X7818333Y-12493476D01*
X7751667Y-12569667D01*
X7780238Y-12569667D01*
X7799286Y-12579190D01*
X7808809Y-12588714D01*
X7818333Y-12607762D01*
X7818333Y-12655381D01*
X7808809Y-12674428D01*
X7799286Y-12683952D01*
X7780238Y-12693476D01*
X7723095Y-12693476D01*
X7704048Y-12683952D01*
X7694524Y-12674428D01*
X7999286Y-12493476D02*
X7904048Y-12493476D01*
X7894524Y-12588714D01*
X7904048Y-12579190D01*
X7923095Y-12569667D01*
X7970714Y-12569667D01*
X7989762Y-12579190D01*
X7999286Y-12588714D01*
X8008809Y-12607762D01*
X8008809Y-12655381D01*
X7999286Y-12674428D01*
X7989762Y-12683952D01*
X7970714Y-12693476D01*
X7923095Y-12693476D01*
X7904048Y-12683952D01*
X7894524Y-12674428D01*
X8180238Y-12560143D02*
X8180238Y-12693476D01*
X8132619Y-12483952D02*
X8085000Y-12626809D01*
X8208809Y-12626809D01*
X8275476Y-12493476D02*
X8275476Y-12531571D01*
X8351667Y-12493476D02*
X8351667Y-12531571D01*
X8646905Y-12769667D02*
X8637381Y-12760143D01*
X8618333Y-12731571D01*
X8608810Y-12712524D01*
X8599286Y-12683952D01*
X8589762Y-12636333D01*
X8589762Y-12598238D01*
X8599286Y-12550619D01*
X8608810Y-12522048D01*
X8618333Y-12503000D01*
X8637381Y-12474428D01*
X8646905Y-12464905D01*
X8808810Y-12560143D02*
X8808810Y-12693476D01*
X8761190Y-12483952D02*
X8713571Y-12626809D01*
X8837381Y-12626809D01*
X9065952Y-12693476D02*
X9065952Y-12493476D01*
X9151667Y-12693476D02*
X9151667Y-12588714D01*
X9142143Y-12569667D01*
X9123095Y-12560143D01*
X9094524Y-12560143D01*
X9075476Y-12569667D01*
X9065952Y-12579190D01*
X9275476Y-12693476D02*
X9256429Y-12683952D01*
X9246905Y-12674428D01*
X9237381Y-12655381D01*
X9237381Y-12598238D01*
X9246905Y-12579190D01*
X9256429Y-12569667D01*
X9275476Y-12560143D01*
X9304048Y-12560143D01*
X9323095Y-12569667D01*
X9332619Y-12579190D01*
X9342143Y-12598238D01*
X9342143Y-12655381D01*
X9332619Y-12674428D01*
X9323095Y-12683952D01*
X9304048Y-12693476D01*
X9275476Y-12693476D01*
X9456429Y-12693476D02*
X9437381Y-12683952D01*
X9427857Y-12664905D01*
X9427857Y-12493476D01*
X9608810Y-12683952D02*
X9589762Y-12693476D01*
X9551667Y-12693476D01*
X9532619Y-12683952D01*
X9523095Y-12664905D01*
X9523095Y-12588714D01*
X9532619Y-12569667D01*
X9551667Y-12560143D01*
X9589762Y-12560143D01*
X9608810Y-12569667D01*
X9618333Y-12588714D01*
X9618333Y-12607762D01*
X9523095Y-12626809D01*
X9694524Y-12683952D02*
X9713571Y-12693476D01*
X9751667Y-12693476D01*
X9770714Y-12683952D01*
X9780238Y-12664905D01*
X9780238Y-12655381D01*
X9770714Y-12636333D01*
X9751667Y-12626809D01*
X9723095Y-12626809D01*
X9704048Y-12617286D01*
X9694524Y-12598238D01*
X9694524Y-12588714D01*
X9704048Y-12569667D01*
X9723095Y-12560143D01*
X9751667Y-12560143D01*
X9770714Y-12569667D01*
X9846905Y-12769667D02*
X9856429Y-12760143D01*
X9875476Y-12731571D01*
X9885000Y-12712524D01*
X9894524Y-12683952D01*
X9904048Y-12636333D01*
X9904048Y-12598238D01*
X9894524Y-12550619D01*
X9885000Y-12522048D01*
X9875476Y-12503000D01*
X9856429Y-12474428D01*
X9846905Y-12464905D01*
D10*
X5060356Y-12902356D02*
X5060356Y-12831644D01*
X4989644Y-12831644D01*
X4989644Y-12902356D01*
X5060356Y-12902356D01*
D11*
X5437381Y-12957476D02*
X5323095Y-12957476D01*
X5380238Y-12957476D02*
X5380238Y-12757476D01*
X5361190Y-12786048D01*
X5342143Y-12805095D01*
X5323095Y-12814619D01*
X5523095Y-12938428D02*
X5532619Y-12947952D01*
X5523095Y-12957476D01*
X5513571Y-12947952D01*
X5523095Y-12938428D01*
X5523095Y-12957476D01*
X5656428Y-12757476D02*
X5675476Y-12757476D01*
X5694524Y-12767000D01*
X5704048Y-12776524D01*
X5713571Y-12795571D01*
X5723095Y-12833667D01*
X5723095Y-12881286D01*
X5713571Y-12919381D01*
X5704048Y-12938428D01*
X5694524Y-12947952D01*
X5675476Y-12957476D01*
X5656428Y-12957476D01*
X5637381Y-12947952D01*
X5627857Y-12938428D01*
X5618333Y-12919381D01*
X5608809Y-12881286D01*
X5608809Y-12833667D01*
X5618333Y-12795571D01*
X5627857Y-12776524D01*
X5637381Y-12767000D01*
X5656428Y-12757476D01*
X5846905Y-12757476D02*
X5865952Y-12757476D01*
X5885000Y-12767000D01*
X5894524Y-12776524D01*
X5904048Y-12795571D01*
X5913571Y-12833667D01*
X5913571Y-12881286D01*
X5904048Y-12919381D01*
X5894524Y-12938428D01*
X5885000Y-12947952D01*
X5865952Y-12957476D01*
X5846905Y-12957476D01*
X5827857Y-12947952D01*
X5818333Y-12938428D01*
X5808809Y-12919381D01*
X5799286Y-12881286D01*
X5799286Y-12833667D01*
X5808809Y-12795571D01*
X5818333Y-12776524D01*
X5827857Y-12767000D01*
X5846905Y-12757476D01*
X6037381Y-12757476D02*
X6056428Y-12757476D01*
X6075476Y-12767000D01*
X6085000Y-12776524D01*
X6094524Y-12795571D01*
X6104048Y-12833667D01*
X6104048Y-12881286D01*
X6094524Y-12919381D01*
X6085000Y-12938428D01*
X6075476Y-12947952D01*
X6056428Y-12957476D01*
X6037381Y-12957476D01*
X6018333Y-12947952D01*
X6008809Y-12938428D01*
X5999286Y-12919381D01*
X5989762Y-12881286D01*
X5989762Y-12833667D01*
X5999286Y-12795571D01*
X6008809Y-12776524D01*
X6018333Y-12767000D01*
X6037381Y-12757476D01*
X6189762Y-12957476D02*
X6189762Y-12824143D01*
X6189762Y-12843190D02*
X6199286Y-12833667D01*
X6218333Y-12824143D01*
X6246905Y-12824143D01*
X6265952Y-12833667D01*
X6275476Y-12852714D01*
X6275476Y-12957476D01*
X6275476Y-12852714D02*
X6285000Y-12833667D01*
X6304048Y-12824143D01*
X6332619Y-12824143D01*
X6351667Y-12833667D01*
X6361190Y-12852714D01*
X6361190Y-12957476D01*
X6456428Y-12957476D02*
X6456428Y-12824143D01*
X6456428Y-12843190D02*
X6465952Y-12833667D01*
X6485000Y-12824143D01*
X6513571Y-12824143D01*
X6532619Y-12833667D01*
X6542143Y-12852714D01*
X6542143Y-12957476D01*
X6542143Y-12852714D02*
X6551667Y-12833667D01*
X6570714Y-12824143D01*
X6599286Y-12824143D01*
X6618333Y-12833667D01*
X6627857Y-12852714D01*
X6627857Y-12957476D01*
X7018333Y-12747952D02*
X6846905Y-13005095D01*
X7275476Y-12757476D02*
X7294524Y-12757476D01*
X7313571Y-12767000D01*
X7323095Y-12776524D01*
X7332619Y-12795571D01*
X7342143Y-12833667D01*
X7342143Y-12881286D01*
X7332619Y-12919381D01*
X7323095Y-12938428D01*
X7313571Y-12947952D01*
X7294524Y-12957476D01*
X7275476Y-12957476D01*
X7256428Y-12947952D01*
X7246905Y-12938428D01*
X7237381Y-12919381D01*
X7227857Y-12881286D01*
X7227857Y-12833667D01*
X7237381Y-12795571D01*
X7246905Y-12776524D01*
X7256428Y-12767000D01*
X7275476Y-12757476D01*
X7427857Y-12938428D02*
X7437381Y-12947952D01*
X7427857Y-12957476D01*
X7418333Y-12947952D01*
X7427857Y-12938428D01*
X7427857Y-12957476D01*
X7561190Y-12757476D02*
X7580238Y-12757476D01*
X7599286Y-12767000D01*
X7608809Y-12776524D01*
X7618333Y-12795571D01*
X7627857Y-12833667D01*
X7627857Y-12881286D01*
X7618333Y-12919381D01*
X7608809Y-12938428D01*
X7599286Y-12947952D01*
X7580238Y-12957476D01*
X7561190Y-12957476D01*
X7542143Y-12947952D01*
X7532619Y-12938428D01*
X7523095Y-12919381D01*
X7513571Y-12881286D01*
X7513571Y-12833667D01*
X7523095Y-12795571D01*
X7532619Y-12776524D01*
X7542143Y-12767000D01*
X7561190Y-12757476D01*
X7694524Y-12757476D02*
X7818333Y-12757476D01*
X7751667Y-12833667D01*
X7780238Y-12833667D01*
X7799286Y-12843190D01*
X7808809Y-12852714D01*
X7818333Y-12871762D01*
X7818333Y-12919381D01*
X7808809Y-12938428D01*
X7799286Y-12947952D01*
X7780238Y-12957476D01*
X7723095Y-12957476D01*
X7704048Y-12947952D01*
X7694524Y-12938428D01*
X7913571Y-12957476D02*
X7951667Y-12957476D01*
X7970714Y-12947952D01*
X7980238Y-12938428D01*
X7999286Y-12909857D01*
X8008809Y-12871762D01*
X8008809Y-12795571D01*
X7999286Y-12776524D01*
X7989762Y-12767000D01*
X7970714Y-12757476D01*
X7932619Y-12757476D01*
X7913571Y-12767000D01*
X7904048Y-12776524D01*
X7894524Y-12795571D01*
X7894524Y-12843190D01*
X7904048Y-12862238D01*
X7913571Y-12871762D01*
X7932619Y-12881286D01*
X7970714Y-12881286D01*
X7989762Y-12871762D01*
X7999286Y-12862238D01*
X8008809Y-12843190D01*
X8180238Y-12824143D02*
X8180238Y-12957476D01*
X8132619Y-12747952D02*
X8085000Y-12890809D01*
X8208809Y-12890809D01*
X8275476Y-12757476D02*
X8275476Y-12795571D01*
X8351667Y-12757476D02*
X8351667Y-12795571D01*
X8646905Y-13033667D02*
X8637381Y-13024143D01*
X8618333Y-12995571D01*
X8608810Y-12976524D01*
X8599286Y-12947952D01*
X8589762Y-12900333D01*
X8589762Y-12862238D01*
X8599286Y-12814619D01*
X8608810Y-12786048D01*
X8618333Y-12767000D01*
X8637381Y-12738428D01*
X8646905Y-12728905D01*
X8713571Y-12776524D02*
X8723095Y-12767000D01*
X8742143Y-12757476D01*
X8789762Y-12757476D01*
X8808810Y-12767000D01*
X8818333Y-12776524D01*
X8827857Y-12795571D01*
X8827857Y-12814619D01*
X8818333Y-12843190D01*
X8704048Y-12957476D01*
X8827857Y-12957476D01*
X8999286Y-12757476D02*
X8961190Y-12757476D01*
X8942143Y-12767000D01*
X8932619Y-12776524D01*
X8913571Y-12805095D01*
X8904048Y-12843190D01*
X8904048Y-12919381D01*
X8913571Y-12938428D01*
X8923095Y-12947952D01*
X8942143Y-12957476D01*
X8980238Y-12957476D01*
X8999286Y-12947952D01*
X9008810Y-12938428D01*
X9018333Y-12919381D01*
X9018333Y-12871762D01*
X9008810Y-12852714D01*
X8999286Y-12843190D01*
X8980238Y-12833667D01*
X8942143Y-12833667D01*
X8923095Y-12843190D01*
X8913571Y-12852714D01*
X8904048Y-12871762D01*
X9256429Y-12957476D02*
X9256429Y-12757476D01*
X9342143Y-12957476D02*
X9342143Y-12852714D01*
X9332619Y-12833667D01*
X9313571Y-12824143D01*
X9285000Y-12824143D01*
X9265952Y-12833667D01*
X9256429Y-12843190D01*
X9465952Y-12957476D02*
X9446905Y-12947952D01*
X9437381Y-12938428D01*
X9427857Y-12919381D01*
X9427857Y-12862238D01*
X9437381Y-12843190D01*
X9446905Y-12833667D01*
X9465952Y-12824143D01*
X9494524Y-12824143D01*
X9513571Y-12833667D01*
X9523095Y-12843190D01*
X9532619Y-12862238D01*
X9532619Y-12919381D01*
X9523095Y-12938428D01*
X9513571Y-12947952D01*
X9494524Y-12957476D01*
X9465952Y-12957476D01*
X9646905Y-12957476D02*
X9627857Y-12947952D01*
X9618333Y-12928905D01*
X9618333Y-12757476D01*
X9799286Y-12947952D02*
X9780238Y-12957476D01*
X9742143Y-12957476D01*
X9723095Y-12947952D01*
X9713571Y-12928905D01*
X9713571Y-12852714D01*
X9723095Y-12833667D01*
X9742143Y-12824143D01*
X9780238Y-12824143D01*
X9799286Y-12833667D01*
X9808810Y-12852714D01*
X9808810Y-12871762D01*
X9713571Y-12890809D01*
X9885000Y-12947952D02*
X9904048Y-12957476D01*
X9942143Y-12957476D01*
X9961190Y-12947952D01*
X9970714Y-12928905D01*
X9970714Y-12919381D01*
X9961190Y-12900333D01*
X9942143Y-12890809D01*
X9913571Y-12890809D01*
X9894524Y-12881286D01*
X9885000Y-12862238D01*
X9885000Y-12852714D01*
X9894524Y-12833667D01*
X9913571Y-12824143D01*
X9942143Y-12824143D01*
X9961190Y-12833667D01*
X10037381Y-13033667D02*
X10046905Y-13024143D01*
X10065952Y-12995571D01*
X10075476Y-12976524D01*
X10085000Y-12947952D01*
X10094524Y-12900333D01*
X10094524Y-12862238D01*
X10085000Y-12814619D01*
X10075476Y-12786048D01*
X10065952Y-12767000D01*
X10046905Y-12738428D01*
X10037381Y-12728905D01*
D14*
X5024000Y-13182000D02*
X5075000Y-13131000D01*
X5024000Y-13080000D01*
X4973000Y-13131000D01*
X5024000Y-13182000D01*
D11*
X5437381Y-13221476D02*
X5323095Y-13221476D01*
X5380238Y-13221476D02*
X5380238Y-13021476D01*
X5361190Y-13050048D01*
X5342143Y-13069095D01*
X5323095Y-13078619D01*
X5523095Y-13202428D02*
X5532619Y-13211952D01*
X5523095Y-13221476D01*
X5513571Y-13211952D01*
X5523095Y-13202428D01*
X5523095Y-13221476D01*
X5656428Y-13021476D02*
X5675476Y-13021476D01*
X5694524Y-13031000D01*
X5704048Y-13040524D01*
X5713571Y-13059571D01*
X5723095Y-13097667D01*
X5723095Y-13145286D01*
X5713571Y-13183381D01*
X5704048Y-13202428D01*
X5694524Y-13211952D01*
X5675476Y-13221476D01*
X5656428Y-13221476D01*
X5637381Y-13211952D01*
X5627857Y-13202428D01*
X5618333Y-13183381D01*
X5608809Y-13145286D01*
X5608809Y-13097667D01*
X5618333Y-13059571D01*
X5627857Y-13040524D01*
X5637381Y-13031000D01*
X5656428Y-13021476D01*
X5799286Y-13040524D02*
X5808809Y-13031000D01*
X5827857Y-13021476D01*
X5875476Y-13021476D01*
X5894524Y-13031000D01*
X5904048Y-13040524D01*
X5913571Y-13059571D01*
X5913571Y-13078619D01*
X5904048Y-13107190D01*
X5789762Y-13221476D01*
X5913571Y-13221476D01*
X6037381Y-13021476D02*
X6056428Y-13021476D01*
X6075476Y-13031000D01*
X6085000Y-13040524D01*
X6094524Y-13059571D01*
X6104048Y-13097667D01*
X6104048Y-13145286D01*
X6094524Y-13183381D01*
X6085000Y-13202428D01*
X6075476Y-13211952D01*
X6056428Y-13221476D01*
X6037381Y-13221476D01*
X6018333Y-13211952D01*
X6008809Y-13202428D01*
X5999286Y-13183381D01*
X5989762Y-13145286D01*
X5989762Y-13097667D01*
X5999286Y-13059571D01*
X6008809Y-13040524D01*
X6018333Y-13031000D01*
X6037381Y-13021476D01*
X6189762Y-13221476D02*
X6189762Y-13088143D01*
X6189762Y-13107190D02*
X6199286Y-13097667D01*
X6218333Y-13088143D01*
X6246905Y-13088143D01*
X6265952Y-13097667D01*
X6275476Y-13116714D01*
X6275476Y-13221476D01*
X6275476Y-13116714D02*
X6285000Y-13097667D01*
X6304048Y-13088143D01*
X6332619Y-13088143D01*
X6351667Y-13097667D01*
X6361190Y-13116714D01*
X6361190Y-13221476D01*
X6456428Y-13221476D02*
X6456428Y-13088143D01*
X6456428Y-13107190D02*
X6465952Y-13097667D01*
X6485000Y-13088143D01*
X6513571Y-13088143D01*
X6532619Y-13097667D01*
X6542143Y-13116714D01*
X6542143Y-13221476D01*
X6542143Y-13116714D02*
X6551667Y-13097667D01*
X6570714Y-13088143D01*
X6599286Y-13088143D01*
X6618333Y-13097667D01*
X6627857Y-13116714D01*
X6627857Y-13221476D01*
X7018333Y-13011952D02*
X6846905Y-13269095D01*
X7275476Y-13021476D02*
X7294524Y-13021476D01*
X7313571Y-13031000D01*
X7323095Y-13040524D01*
X7332619Y-13059571D01*
X7342143Y-13097667D01*
X7342143Y-13145286D01*
X7332619Y-13183381D01*
X7323095Y-13202428D01*
X7313571Y-13211952D01*
X7294524Y-13221476D01*
X7275476Y-13221476D01*
X7256428Y-13211952D01*
X7246905Y-13202428D01*
X7237381Y-13183381D01*
X7227857Y-13145286D01*
X7227857Y-13097667D01*
X7237381Y-13059571D01*
X7246905Y-13040524D01*
X7256428Y-13031000D01*
X7275476Y-13021476D01*
X7427857Y-13202428D02*
X7437381Y-13211952D01*
X7427857Y-13221476D01*
X7418333Y-13211952D01*
X7427857Y-13202428D01*
X7427857Y-13221476D01*
X7561190Y-13021476D02*
X7580238Y-13021476D01*
X7599286Y-13031000D01*
X7608809Y-13040524D01*
X7618333Y-13059571D01*
X7627857Y-13097667D01*
X7627857Y-13145286D01*
X7618333Y-13183381D01*
X7608809Y-13202428D01*
X7599286Y-13211952D01*
X7580238Y-13221476D01*
X7561190Y-13221476D01*
X7542143Y-13211952D01*
X7532619Y-13202428D01*
X7523095Y-13183381D01*
X7513571Y-13145286D01*
X7513571Y-13097667D01*
X7523095Y-13059571D01*
X7532619Y-13040524D01*
X7542143Y-13031000D01*
X7561190Y-13021476D01*
X7799286Y-13088143D02*
X7799286Y-13221476D01*
X7751667Y-13011952D02*
X7704048Y-13154809D01*
X7827857Y-13154809D01*
X7942143Y-13021476D02*
X7961190Y-13021476D01*
X7980238Y-13031000D01*
X7989762Y-13040524D01*
X7999286Y-13059571D01*
X8008809Y-13097667D01*
X8008809Y-13145286D01*
X7999286Y-13183381D01*
X7989762Y-13202428D01*
X7980238Y-13211952D01*
X7961190Y-13221476D01*
X7942143Y-13221476D01*
X7923095Y-13211952D01*
X7913571Y-13202428D01*
X7904048Y-13183381D01*
X7894524Y-13145286D01*
X7894524Y-13097667D01*
X7904048Y-13059571D01*
X7913571Y-13040524D01*
X7923095Y-13031000D01*
X7942143Y-13021476D01*
X8085000Y-13040524D02*
X8094524Y-13031000D01*
X8113571Y-13021476D01*
X8161190Y-13021476D01*
X8180238Y-13031000D01*
X8189762Y-13040524D01*
X8199286Y-13059571D01*
X8199286Y-13078619D01*
X8189762Y-13107190D01*
X8075476Y-13221476D01*
X8199286Y-13221476D01*
X8275476Y-13021476D02*
X8275476Y-13059571D01*
X8351667Y-13021476D02*
X8351667Y-13059571D01*
X8646905Y-13297667D02*
X8637381Y-13288143D01*
X8618333Y-13259571D01*
X8608810Y-13240524D01*
X8599286Y-13211952D01*
X8589762Y-13164333D01*
X8589762Y-13126238D01*
X8599286Y-13078619D01*
X8608810Y-13050048D01*
X8618333Y-13031000D01*
X8637381Y-13002428D01*
X8646905Y-12992905D01*
X8704048Y-13021476D02*
X8827857Y-13021476D01*
X8761190Y-13097667D01*
X8789762Y-13097667D01*
X8808810Y-13107190D01*
X8818333Y-13116714D01*
X8827857Y-13135762D01*
X8827857Y-13183381D01*
X8818333Y-13202428D01*
X8808810Y-13211952D01*
X8789762Y-13221476D01*
X8732619Y-13221476D01*
X8713571Y-13211952D01*
X8704048Y-13202428D01*
X8951667Y-13021476D02*
X8970714Y-13021476D01*
X8989762Y-13031000D01*
X8999286Y-13040524D01*
X9008810Y-13059571D01*
X9018333Y-13097667D01*
X9018333Y-13145286D01*
X9008810Y-13183381D01*
X8999286Y-13202428D01*
X8989762Y-13211952D01*
X8970714Y-13221476D01*
X8951667Y-13221476D01*
X8932619Y-13211952D01*
X8923095Y-13202428D01*
X8913571Y-13183381D01*
X8904048Y-13145286D01*
X8904048Y-13097667D01*
X8913571Y-13059571D01*
X8923095Y-13040524D01*
X8932619Y-13031000D01*
X8951667Y-13021476D01*
X9256429Y-13221476D02*
X9256429Y-13021476D01*
X9342143Y-13221476D02*
X9342143Y-13116714D01*
X9332619Y-13097667D01*
X9313571Y-13088143D01*
X9285000Y-13088143D01*
X9265952Y-13097667D01*
X9256429Y-13107190D01*
X9465952Y-13221476D02*
X9446905Y-13211952D01*
X9437381Y-13202428D01*
X9427857Y-13183381D01*
X9427857Y-13126238D01*
X9437381Y-13107190D01*
X9446905Y-13097667D01*
X9465952Y-13088143D01*
X9494524Y-13088143D01*
X9513571Y-13097667D01*
X9523095Y-13107190D01*
X9532619Y-13126238D01*
X9532619Y-13183381D01*
X9523095Y-13202428D01*
X9513571Y-13211952D01*
X9494524Y-13221476D01*
X9465952Y-13221476D01*
X9646905Y-13221476D02*
X9627857Y-13211952D01*
X9618333Y-13192905D01*
X9618333Y-13021476D01*
X9799286Y-13211952D02*
X9780238Y-13221476D01*
X9742143Y-13221476D01*
X9723095Y-13211952D01*
X9713571Y-13192905D01*
X9713571Y-13116714D01*
X9723095Y-13097667D01*
X9742143Y-13088143D01*
X9780238Y-13088143D01*
X9799286Y-13097667D01*
X9808810Y-13116714D01*
X9808810Y-13135762D01*
X9713571Y-13154809D01*
X9885000Y-13211952D02*
X9904048Y-13221476D01*
X9942143Y-13221476D01*
X9961190Y-13211952D01*
X9970714Y-13192905D01*
X9970714Y-13183381D01*
X9961190Y-13164333D01*
X9942143Y-13154809D01*
X9913571Y-13154809D01*
X9894524Y-13145286D01*
X9885000Y-13126238D01*
X9885000Y-13116714D01*
X9894524Y-13097667D01*
X9913571Y-13088143D01*
X9942143Y-13088143D01*
X9961190Y-13097667D01*
X10037381Y-13297667D02*
X10046905Y-13288143D01*
X10065952Y-13259571D01*
X10075476Y-13240524D01*
X10085000Y-13211952D01*
X10094524Y-13164333D01*
X10094524Y-13126238D01*
X10085000Y-13078619D01*
X10075476Y-13050048D01*
X10065952Y-13031000D01*
X10046905Y-13002428D01*
X10037381Y-12992905D01*
X4875000Y-13295000D02*
X5075000Y-13495000D01*
X5075000Y-13295000D02*
X4875000Y-13495000D01*
X5075000Y-13395000D02*
G75*
G03*
X5075000Y-13395000I-100000J0D01*
G01*
X5323095Y-13304524D02*
X5332619Y-13295000D01*
X5351667Y-13285476D01*
X5399286Y-13285476D01*
X5418333Y-13295000D01*
X5427857Y-13304524D01*
X5437381Y-13323571D01*
X5437381Y-13342619D01*
X5427857Y-13371190D01*
X5313571Y-13485476D01*
X5437381Y-13485476D01*
X5523095Y-13466428D02*
X5532619Y-13475952D01*
X5523095Y-13485476D01*
X5513571Y-13475952D01*
X5523095Y-13466428D01*
X5523095Y-13485476D01*
X5599286Y-13285476D02*
X5732619Y-13285476D01*
X5646905Y-13485476D01*
X5846905Y-13285476D02*
X5865952Y-13285476D01*
X5885000Y-13295000D01*
X5894524Y-13304524D01*
X5904048Y-13323571D01*
X5913571Y-13361667D01*
X5913571Y-13409286D01*
X5904048Y-13447381D01*
X5894524Y-13466428D01*
X5885000Y-13475952D01*
X5865952Y-13485476D01*
X5846905Y-13485476D01*
X5827857Y-13475952D01*
X5818333Y-13466428D01*
X5808809Y-13447381D01*
X5799286Y-13409286D01*
X5799286Y-13361667D01*
X5808809Y-13323571D01*
X5818333Y-13304524D01*
X5827857Y-13295000D01*
X5846905Y-13285476D01*
X6037381Y-13285476D02*
X6056428Y-13285476D01*
X6075476Y-13295000D01*
X6085000Y-13304524D01*
X6094524Y-13323571D01*
X6104048Y-13361667D01*
X6104048Y-13409286D01*
X6094524Y-13447381D01*
X6085000Y-13466428D01*
X6075476Y-13475952D01*
X6056428Y-13485476D01*
X6037381Y-13485476D01*
X6018333Y-13475952D01*
X6008809Y-13466428D01*
X5999286Y-13447381D01*
X5989762Y-13409286D01*
X5989762Y-13361667D01*
X5999286Y-13323571D01*
X6008809Y-13304524D01*
X6018333Y-13295000D01*
X6037381Y-13285476D01*
X6189762Y-13485476D02*
X6189762Y-13352143D01*
X6189762Y-13371190D02*
X6199286Y-13361667D01*
X6218333Y-13352143D01*
X6246905Y-13352143D01*
X6265952Y-13361667D01*
X6275476Y-13380714D01*
X6275476Y-13485476D01*
X6275476Y-13380714D02*
X6285000Y-13361667D01*
X6304048Y-13352143D01*
X6332619Y-13352143D01*
X6351667Y-13361667D01*
X6361190Y-13380714D01*
X6361190Y-13485476D01*
X6456428Y-13485476D02*
X6456428Y-13352143D01*
X6456428Y-13371190D02*
X6465952Y-13361667D01*
X6485000Y-13352143D01*
X6513571Y-13352143D01*
X6532619Y-13361667D01*
X6542143Y-13380714D01*
X6542143Y-13485476D01*
X6542143Y-13380714D02*
X6551667Y-13361667D01*
X6570714Y-13352143D01*
X6599286Y-13352143D01*
X6618333Y-13361667D01*
X6627857Y-13380714D01*
X6627857Y-13485476D01*
X7018333Y-13275952D02*
X6846905Y-13533095D01*
X7275476Y-13285476D02*
X7294524Y-13285476D01*
X7313571Y-13295000D01*
X7323095Y-13304524D01*
X7332619Y-13323571D01*
X7342143Y-13361667D01*
X7342143Y-13409286D01*
X7332619Y-13447381D01*
X7323095Y-13466428D01*
X7313571Y-13475952D01*
X7294524Y-13485476D01*
X7275476Y-13485476D01*
X7256428Y-13475952D01*
X7246905Y-13466428D01*
X7237381Y-13447381D01*
X7227857Y-13409286D01*
X7227857Y-13361667D01*
X7237381Y-13323571D01*
X7246905Y-13304524D01*
X7256428Y-13295000D01*
X7275476Y-13285476D01*
X7427857Y-13466428D02*
X7437381Y-13475952D01*
X7427857Y-13485476D01*
X7418333Y-13475952D01*
X7427857Y-13466428D01*
X7427857Y-13485476D01*
X7627857Y-13485476D02*
X7513571Y-13485476D01*
X7570714Y-13485476D02*
X7570714Y-13285476D01*
X7551667Y-13314048D01*
X7532619Y-13333095D01*
X7513571Y-13342619D01*
X7751667Y-13285476D02*
X7770714Y-13285476D01*
X7789762Y-13295000D01*
X7799286Y-13304524D01*
X7808809Y-13323571D01*
X7818333Y-13361667D01*
X7818333Y-13409286D01*
X7808809Y-13447381D01*
X7799286Y-13466428D01*
X7789762Y-13475952D01*
X7770714Y-13485476D01*
X7751667Y-13485476D01*
X7732619Y-13475952D01*
X7723095Y-13466428D01*
X7713571Y-13447381D01*
X7704048Y-13409286D01*
X7704048Y-13361667D01*
X7713571Y-13323571D01*
X7723095Y-13304524D01*
X7732619Y-13295000D01*
X7751667Y-13285476D01*
X7989762Y-13285476D02*
X7951667Y-13285476D01*
X7932619Y-13295000D01*
X7923095Y-13304524D01*
X7904048Y-13333095D01*
X7894524Y-13371190D01*
X7894524Y-13447381D01*
X7904048Y-13466428D01*
X7913571Y-13475952D01*
X7932619Y-13485476D01*
X7970714Y-13485476D01*
X7989762Y-13475952D01*
X7999286Y-13466428D01*
X8008809Y-13447381D01*
X8008809Y-13399762D01*
X7999286Y-13380714D01*
X7989762Y-13371190D01*
X7970714Y-13361667D01*
X7932619Y-13361667D01*
X7913571Y-13371190D01*
X7904048Y-13380714D01*
X7894524Y-13399762D01*
X8075476Y-13285476D02*
X8199286Y-13285476D01*
X8132619Y-13361667D01*
X8161190Y-13361667D01*
X8180238Y-13371190D01*
X8189762Y-13380714D01*
X8199286Y-13399762D01*
X8199286Y-13447381D01*
X8189762Y-13466428D01*
X8180238Y-13475952D01*
X8161190Y-13485476D01*
X8104048Y-13485476D01*
X8085000Y-13475952D01*
X8075476Y-13466428D01*
X8275476Y-13285476D02*
X8275476Y-13323571D01*
X8351667Y-13285476D02*
X8351667Y-13323571D01*
X8646905Y-13561667D02*
X8637381Y-13552143D01*
X8618333Y-13523571D01*
X8608810Y-13504524D01*
X8599286Y-13475952D01*
X8589762Y-13428333D01*
X8589762Y-13390238D01*
X8599286Y-13342619D01*
X8608810Y-13314048D01*
X8618333Y-13295000D01*
X8637381Y-13266428D01*
X8646905Y-13256905D01*
X8713571Y-13304524D02*
X8723095Y-13295000D01*
X8742143Y-13285476D01*
X8789762Y-13285476D01*
X8808810Y-13295000D01*
X8818333Y-13304524D01*
X8827857Y-13323571D01*
X8827857Y-13342619D01*
X8818333Y-13371190D01*
X8704048Y-13485476D01*
X8827857Y-13485476D01*
X9065952Y-13485476D02*
X9065952Y-13285476D01*
X9151667Y-13485476D02*
X9151667Y-13380714D01*
X9142143Y-13361667D01*
X9123095Y-13352143D01*
X9094524Y-13352143D01*
X9075476Y-13361667D01*
X9065952Y-13371190D01*
X9275476Y-13485476D02*
X9256429Y-13475952D01*
X9246905Y-13466428D01*
X9237381Y-13447381D01*
X9237381Y-13390238D01*
X9246905Y-13371190D01*
X9256429Y-13361667D01*
X9275476Y-13352143D01*
X9304048Y-13352143D01*
X9323095Y-13361667D01*
X9332619Y-13371190D01*
X9342143Y-13390238D01*
X9342143Y-13447381D01*
X9332619Y-13466428D01*
X9323095Y-13475952D01*
X9304048Y-13485476D01*
X9275476Y-13485476D01*
X9456429Y-13485476D02*
X9437381Y-13475952D01*
X9427857Y-13456905D01*
X9427857Y-13285476D01*
X9608810Y-13475952D02*
X9589762Y-13485476D01*
X9551667Y-13485476D01*
X9532619Y-13475952D01*
X9523095Y-13456905D01*
X9523095Y-13380714D01*
X9532619Y-13361667D01*
X9551667Y-13352143D01*
X9589762Y-13352143D01*
X9608810Y-13361667D01*
X9618333Y-13380714D01*
X9618333Y-13399762D01*
X9523095Y-13418809D01*
X9694524Y-13475952D02*
X9713571Y-13485476D01*
X9751667Y-13485476D01*
X9770714Y-13475952D01*
X9780238Y-13456905D01*
X9780238Y-13447381D01*
X9770714Y-13428333D01*
X9751667Y-13418809D01*
X9723095Y-13418809D01*
X9704048Y-13409286D01*
X9694524Y-13390238D01*
X9694524Y-13380714D01*
X9704048Y-13361667D01*
X9723095Y-13352143D01*
X9751667Y-13352143D01*
X9770714Y-13361667D01*
X9846905Y-13561667D02*
X9856429Y-13552143D01*
X9875476Y-13523571D01*
X9885000Y-13504524D01*
X9894524Y-13475952D01*
X9904048Y-13428333D01*
X9904048Y-13390238D01*
X9894524Y-13342619D01*
X9885000Y-13314048D01*
X9875476Y-13295000D01*
X9856429Y-13266428D01*
X9846905Y-13256905D01*
M02*
