%TF.GenerationSoftware,KiCad,Pcbnew,(6.0.7)*%
%TF.CreationDate,2023-08-18T16:06:47+09:00*%
%TF.ProjectId,graduate-project,67726164-7561-4746-952d-70726f6a6563,rev?*%
%TF.SameCoordinates,Original*%
%TF.FileFunction,Legend,Bot*%
%TF.FilePolarity,Positive*%
%FSLAX46Y46*%
G04 Gerber Fmt 4.6, Leading zero omitted, Abs format (unit mm)*
G04 Created by KiCad (PCBNEW (6.0.7)) date 2023-08-18 16:06:47*
%MOMM*%
%LPD*%
G01*
G04 APERTURE LIST*
%ADD10R,1.700000X1.700000*%
%ADD11O,1.700000X1.700000*%
%ADD12R,1.800000X1.800000*%
%ADD13C,1.800000*%
%ADD14R,1.530000X1.530000*%
%ADD15C,1.530000*%
%ADD16C,4.000000*%
G04 APERTURE END LIST*
%LPC*%
D10*
%TO.C,J2*%
X78740000Y-61625000D03*
D11*
X78740000Y-64165000D03*
X78740000Y-66705000D03*
X78740000Y-69245000D03*
X78740000Y-71785000D03*
X78740000Y-74325000D03*
X78740000Y-76865000D03*
X78740000Y-79405000D03*
X78740000Y-81945000D03*
X78740000Y-84485000D03*
%TD*%
D12*
%TO.C,D1*%
X78100000Y-110490000D03*
D13*
X80640000Y-110490000D03*
%TD*%
D12*
%TO.C,D2*%
X86355000Y-110490000D03*
D13*
X88895000Y-110490000D03*
%TD*%
D14*
%TO.C,U1*%
X71120000Y-102575000D03*
D15*
X71120000Y-100035000D03*
X71120000Y-97495000D03*
X71120000Y-94955000D03*
X71120000Y-92415000D03*
X71120000Y-89875000D03*
X71120000Y-87335000D03*
X71120000Y-84795000D03*
X71120000Y-82255000D03*
X71120000Y-79715000D03*
X71120000Y-77175000D03*
X71120000Y-74635000D03*
X71120000Y-72095000D03*
X71120000Y-69555000D03*
X71120000Y-67015000D03*
D14*
X55880000Y-102575000D03*
D15*
X55880000Y-100035000D03*
X55880000Y-97495000D03*
X55880000Y-94955000D03*
X55880000Y-92415000D03*
X55880000Y-89875000D03*
X55880000Y-87335000D03*
X55880000Y-84795000D03*
X55880000Y-82255000D03*
X55880000Y-79715000D03*
X55880000Y-77175000D03*
X55880000Y-74635000D03*
X55880000Y-72095000D03*
X55880000Y-69555000D03*
X55880000Y-67015000D03*
%TD*%
D10*
%TO.C,J5*%
X55905000Y-41935000D03*
D11*
X55905000Y-44475000D03*
X55905000Y-47015000D03*
X55905000Y-49555000D03*
X55905000Y-52095000D03*
X55905000Y-54635000D03*
%TD*%
D10*
%TO.C,J3*%
X78715000Y-100955000D03*
D11*
X78715000Y-98415000D03*
X78715000Y-95875000D03*
X78715000Y-93335000D03*
%TD*%
D16*
%TO.C,J1*%
X88265000Y-51990000D03*
%TD*%
D10*
%TO.C,J4*%
X60985000Y-41935000D03*
D11*
X60985000Y-44475000D03*
X60985000Y-47015000D03*
X60985000Y-49555000D03*
X60985000Y-52095000D03*
X60985000Y-54635000D03*
%TD*%
M02*
